<?xml version="1.0" encoding="utf-8" standalone="no"?>
<!DOCTYPE svg PUBLIC "-//W3C//DTD SVG 1.1//EN"
  "http://www.w3.org/Graphics/SVG/1.1/DTD/svg11.dtd">
<svg xmlns:xlink="http://www.w3.org/1999/xlink" width="684.001875pt" height="382.079375pt" viewBox="0 0 684.001875 382.079375" xmlns="http://www.w3.org/2000/svg" version="1.1">
 <metadata>
  <rdf:RDF xmlns:dc="http://purl.org/dc/elements/1.1/" xmlns:cc="http://creativecommons.org/ns#" xmlns:rdf="http://www.w3.org/1999/02/22-rdf-syntax-ns#">
   <cc:Work>
    <dc:type rdf:resource="http://purl.org/dc/dcmitype/StillImage"/>
    <dc:date>2026-06-09T13:44:26.787816</dc:date>
    <dc:format>image/svg+xml</dc:format>
    <dc:creator>
     <cc:Agent>
      <dc:title>Matplotlib v3.8.4, https://matplotlib.org/</dc:title>
     </cc:Agent>
    </dc:creator>
   </cc:Work>
  </rdf:RDF>
 </metadata>
 <defs>
  <style type="text/css">*{stroke-linejoin: round; stroke-linecap: butt}</style>
 </defs>
 <g id="figure_1">
  <g id="patch_1">
   <path d="M 0 382.079375 
L 684.001875 382.079375 
L 684.001875 0 
L 0 0 
L 0 382.079375 
z
" style="fill: none"/>
  </g>
  <g id="axes_1">
   <g id="patch_2">
    <path d="M 294.219524 189.15225 
C 294.219524 170.766368 290.597906 152.559265 283.561933 135.572925 
C 276.525961 118.586585 266.212466 103.151348 253.211684 90.150566 
L 154.21 189.15225 
L 294.219524 189.15225 
z
" clip-path="url(#p7d44af3a5f)" style="fill: none; stroke: #c8ccd2; stroke-width: 0.9; stroke-linejoin: miter"/>
   </g>
   <g id="patch_3">
    <path d="M 253.211684 90.150566 
C 240.210902 77.149784 224.775665 66.836289 207.789325 59.800317 
C 190.802985 52.764344 172.595882 49.142726 154.21 49.142726 
L 154.21 189.15225 
L 253.211684 90.150566 
z
" clip-path="url(#p7d44af3a5f)" style="fill: none; stroke: #c8ccd2; stroke-width: 0.9; stroke-linejoin: miter"/>
   </g>
   <g id="patch_4">
    <path d="M 154.21 49.142726 
C 135.824118 49.142726 117.617015 52.764344 100.630675 59.800317 
C 83.644335 66.836289 68.209098 77.149784 55.208316 90.150566 
L 154.21 189.15225 
L 154.21 49.142726 
z
" clip-path="url(#p7d44af3a5f)" style="fill: none; stroke: #c8ccd2; stroke-width: 0.9; stroke-linejoin: miter"/>
   </g>
   <g id="patch_5">
    <path d="M 55.208316 90.150566 
C 42.207534 103.151348 31.894039 118.586585 24.858067 135.572925 
C 17.822094 152.559265 14.200476 170.766368 14.200476 189.15225 
L 154.21 189.15225 
L 55.208316 90.150566 
z
" clip-path="url(#p7d44af3a5f)" style="fill: none; stroke: #c8ccd2; stroke-width: 0.9; stroke-linejoin: miter"/>
   </g>
   <g id="patch_6">
    <path d="M 14.200476 189.15225 
C 14.200476 207.538132 17.822094 225.745235 24.858067 242.731575 
C 31.894039 259.717915 42.207534 275.153152 55.208316 288.153934 
L 154.21 189.15225 
L 14.200476 189.15225 
z
" clip-path="url(#p7d44af3a5f)" style="fill: none; stroke: #c8ccd2; stroke-width: 0.9; stroke-linejoin: miter"/>
   </g>
   <g id="patch_7">
    <path d="M 55.208316 288.153934 
C 68.209098 301.154716 83.644335 311.468211 100.630675 318.504183 
C 117.617015 325.540156 135.824118 329.161774 154.21 329.161774 
L 154.21 189.15225 
L 55.208316 288.153934 
z
" clip-path="url(#p7d44af3a5f)" style="fill: none; stroke: #c8ccd2; stroke-width: 0.9; stroke-linejoin: miter"/>
   </g>
   <g id="patch_8">
    <path d="M 154.21 329.161774 
C 172.595882 329.161774 190.802985 325.540156 207.789325 318.504183 
C 224.775665 311.468211 240.210902 301.154716 253.211684 288.153934 
L 154.21 189.15225 
L 154.21 329.161774 
z
" clip-path="url(#p7d44af3a5f)" style="fill: none; stroke: #c8ccd2; stroke-width: 0.9; stroke-linejoin: miter"/>
   </g>
   <g id="patch_9">
    <path d="M 253.211684 288.153934 
C 266.212466 275.153152 276.525961 259.717915 283.561933 242.731575 
C 290.597906 225.745235 294.219524 207.538132 294.219524 189.15225 
L 154.21 189.15225 
L 253.211684 288.153934 
z
" clip-path="url(#p7d44af3a5f)" style="fill: none; stroke: #c8ccd2; stroke-width: 0.9; stroke-linejoin: miter"/>
   </g>
   <g id="PathCollection_1">
    <defs>
     <path id="md0e84432d7" d="M 0 2.54951 
C 0.676138 2.54951 1.324674 2.280877 1.802776 1.802776 
C 2.280877 1.324674 2.54951 0.676138 2.54951 0 
C 2.54951 -0.676138 2.280877 -1.324674 1.802776 -1.802776 
C 1.324674 -2.280877 0.676138 -2.54951 0 -2.54951 
C -0.676138 -2.54951 -1.324674 -2.280877 -1.802776 -1.802776 
C -2.280877 -1.324674 -2.54951 -0.676138 -2.54951 0 
C -2.54951 0.676138 -2.280877 1.324674 -1.802776 1.802776 
C -1.324674 2.280877 -0.676138 2.54951 0 2.54951 
z
" style="stroke: #6fd3ff; stroke-opacity: 0.9"/>
    </defs>
    <g clip-path="url(#p7d44af3a5f)">
     <use xlink:href="#md0e84432d7" x="254.943028" y="122.93252" style="fill: #6fd3ff; fill-opacity: 0.9; stroke: #6fd3ff; stroke-opacity: 0.9"/>
     <use xlink:href="#md0e84432d7" x="258.590239" y="144.484642" style="fill: #6fd3ff; fill-opacity: 0.9; stroke: #6fd3ff; stroke-opacity: 0.9"/>
    </g>
   </g>
   <g id="PathCollection_2">
    <g clip-path="url(#p7d44af3a5f)">
     <use xlink:href="#md0e84432d7" x="225.077101" y="91.455204" style="fill: #6fd3ff; fill-opacity: 0.9; stroke: #6fd3ff; stroke-opacity: 0.9"/>
     <use xlink:href="#md0e84432d7" x="193.198257" y="135.968877" style="fill: #6fd3ff; fill-opacity: 0.9; stroke: #6fd3ff; stroke-opacity: 0.9"/>
    </g>
   </g>
   <g id="PathCollection_3">
    <g clip-path="url(#p7d44af3a5f)">
     <use xlink:href="#md0e84432d7" x="135.72041" y="112.418635" style="fill: #6fd3ff; fill-opacity: 0.9; stroke: #6fd3ff; stroke-opacity: 0.9"/>
     <use xlink:href="#md0e84432d7" x="121.686774" y="117.525015" style="fill: #6fd3ff; fill-opacity: 0.9; stroke: #6fd3ff; stroke-opacity: 0.9"/>
    </g>
   </g>
   <g id="PathCollection_4">
    <g clip-path="url(#p7d44af3a5f)">
     <use xlink:href="#md0e84432d7" x="98.737551" y="154.397504" style="fill: #6fd3ff; fill-opacity: 0.9; stroke: #6fd3ff; stroke-opacity: 0.9"/>
     <use xlink:href="#md0e84432d7" x="58.59617" y="159.180823" style="fill: #6fd3ff; fill-opacity: 0.9; stroke: #6fd3ff; stroke-opacity: 0.9"/>
    </g>
   </g>
   <g id="PathCollection_5">
    <g clip-path="url(#p7d44af3a5f)">
     <use xlink:href="#md0e84432d7" x="101.549301" y="226.104556" style="fill: #6fd3ff; fill-opacity: 0.9; stroke: #6fd3ff; stroke-opacity: 0.9"/>
     <use xlink:href="#md0e84432d7" x="78.544505" y="222.209653" style="fill: #6fd3ff; fill-opacity: 0.9; stroke: #6fd3ff; stroke-opacity: 0.9"/>
    </g>
   </g>
   <g id="PathCollection_6">
    <g clip-path="url(#p7d44af3a5f)">
     <use xlink:href="#md0e84432d7" x="116.434644" y="296.85765" style="fill: #6fd3ff; fill-opacity: 0.9; stroke: #6fd3ff; stroke-opacity: 0.9"/>
     <use xlink:href="#md0e84432d7" x="99.869582" y="278.368756" style="fill: #6fd3ff; fill-opacity: 0.9; stroke: #6fd3ff; stroke-opacity: 0.9"/>
    </g>
   </g>
   <g id="PathCollection_7">
    <g clip-path="url(#p7d44af3a5f)">
     <use xlink:href="#md0e84432d7" x="205.509129" y="274.050854" style="fill: #6fd3ff; fill-opacity: 0.9; stroke: #6fd3ff; stroke-opacity: 0.9"/>
     <use xlink:href="#md0e84432d7" x="192.416178" y="242.360837" style="fill: #6fd3ff; fill-opacity: 0.9; stroke: #6fd3ff; stroke-opacity: 0.9"/>
    </g>
   </g>
   <g id="PathCollection_8">
    <g clip-path="url(#p7d44af3a5f)">
     <use xlink:href="#md0e84432d7" x="258.175734" y="242.404698" style="fill: #6fd3ff; fill-opacity: 0.9; stroke: #6fd3ff; stroke-opacity: 0.9"/>
     <use xlink:href="#md0e84432d7" x="212.814933" y="219.938568" style="fill: #6fd3ff; fill-opacity: 0.9; stroke: #6fd3ff; stroke-opacity: 0.9"/>
    </g>
   </g>
   <g id="text_1">
    <!-- surrounded? -->
    <g style="fill: #ffffff" transform="translate(110.585781 20.465313) scale(0.14 -0.14)">
     <defs>
      <path id="DejaVuSans-73" d="M 2834 3397 
L 2834 2853 
Q 2591 2978 2328 3040 
Q 2066 3103 1784 3103 
Q 1356 3103 1142 2972 
Q 928 2841 928 2578 
Q 928 2378 1081 2264 
Q 1234 2150 1697 2047 
L 1894 2003 
Q 2506 1872 2764 1633 
Q 3022 1394 3022 966 
Q 3022 478 2636 193 
Q 2250 -91 1575 -91 
Q 1294 -91 989 -36 
Q 684 19 347 128 
L 347 722 
Q 666 556 975 473 
Q 1284 391 1588 391 
Q 1994 391 2212 530 
Q 2431 669 2431 922 
Q 2431 1156 2273 1281 
Q 2116 1406 1581 1522 
L 1381 1569 
Q 847 1681 609 1914 
Q 372 2147 372 2553 
Q 372 3047 722 3315 
Q 1072 3584 1716 3584 
Q 2034 3584 2315 3537 
Q 2597 3491 2834 3397 
z
" transform="scale(0.015625)"/>
      <path id="DejaVuSans-75" d="M 544 1381 
L 544 3500 
L 1119 3500 
L 1119 1403 
Q 1119 906 1312 657 
Q 1506 409 1894 409 
Q 2359 409 2629 706 
Q 2900 1003 2900 1516 
L 2900 3500 
L 3475 3500 
L 3475 0 
L 2900 0 
L 2900 538 
Q 2691 219 2414 64 
Q 2138 -91 1772 -91 
Q 1169 -91 856 284 
Q 544 659 544 1381 
z
M 1991 3584 
L 1991 3584 
z
" transform="scale(0.015625)"/>
      <path id="DejaVuSans-72" d="M 2631 2963 
Q 2534 3019 2420 3045 
Q 2306 3072 2169 3072 
Q 1681 3072 1420 2755 
Q 1159 2438 1159 1844 
L 1159 0 
L 581 0 
L 581 3500 
L 1159 3500 
L 1159 2956 
Q 1341 3275 1631 3429 
Q 1922 3584 2338 3584 
Q 2397 3584 2469 3576 
Q 2541 3569 2628 3553 
L 2631 2963 
z
" transform="scale(0.015625)"/>
      <path id="DejaVuSans-6f" d="M 1959 3097 
Q 1497 3097 1228 2736 
Q 959 2375 959 1747 
Q 959 1119 1226 758 
Q 1494 397 1959 397 
Q 2419 397 2687 759 
Q 2956 1122 2956 1747 
Q 2956 2369 2687 2733 
Q 2419 3097 1959 3097 
z
M 1959 3584 
Q 2709 3584 3137 3096 
Q 3566 2609 3566 1747 
Q 3566 888 3137 398 
Q 2709 -91 1959 -91 
Q 1206 -91 779 398 
Q 353 888 353 1747 
Q 353 2609 779 3096 
Q 1206 3584 1959 3584 
z
" transform="scale(0.015625)"/>
      <path id="DejaVuSans-6e" d="M 3513 2113 
L 3513 0 
L 2938 0 
L 2938 2094 
Q 2938 2591 2744 2837 
Q 2550 3084 2163 3084 
Q 1697 3084 1428 2787 
Q 1159 2491 1159 1978 
L 1159 0 
L 581 0 
L 581 3500 
L 1159 3500 
L 1159 2956 
Q 1366 3272 1645 3428 
Q 1925 3584 2291 3584 
Q 2894 3584 3203 3211 
Q 3513 2838 3513 2113 
z
" transform="scale(0.015625)"/>
      <path id="DejaVuSans-64" d="M 2906 2969 
L 2906 4863 
L 3481 4863 
L 3481 0 
L 2906 0 
L 2906 525 
Q 2725 213 2448 61 
Q 2172 -91 1784 -91 
Q 1150 -91 751 415 
Q 353 922 353 1747 
Q 353 2572 751 3078 
Q 1150 3584 1784 3584 
Q 2172 3584 2448 3432 
Q 2725 3281 2906 2969 
z
M 947 1747 
Q 947 1113 1208 752 
Q 1469 391 1925 391 
Q 2381 391 2643 752 
Q 2906 1113 2906 1747 
Q 2906 2381 2643 2742 
Q 2381 3103 1925 3103 
Q 1469 3103 1208 2742 
Q 947 2381 947 1747 
z
" transform="scale(0.015625)"/>
      <path id="DejaVuSans-65" d="M 3597 1894 
L 3597 1613 
L 953 1613 
Q 991 1019 1311 708 
Q 1631 397 2203 397 
Q 2534 397 2845 478 
Q 3156 559 3463 722 
L 3463 178 
Q 3153 47 2828 -22 
Q 2503 -91 2169 -91 
Q 1331 -91 842 396 
Q 353 884 353 1716 
Q 353 2575 817 3079 
Q 1281 3584 2069 3584 
Q 2775 3584 3186 3129 
Q 3597 2675 3597 1894 
z
M 3022 2063 
Q 3016 2534 2758 2815 
Q 2500 3097 2075 3097 
Q 1594 3097 1305 2825 
Q 1016 2553 972 2059 
L 3022 2063 
z
" transform="scale(0.015625)"/>
      <path id="DejaVuSans-3f" d="M 1222 794 
L 1856 794 
L 1856 0 
L 1222 0 
L 1222 794 
z
M 1838 1253 
L 1241 1253 
L 1241 1734 
Q 1241 2050 1328 2253 
Q 1416 2456 1697 2725 
L 1978 3003 
Q 2156 3169 2236 3316 
Q 2316 3463 2316 3616 
Q 2316 3894 2111 4066 
Q 1906 4238 1569 4238 
Q 1322 4238 1042 4128 
Q 763 4019 459 3809 
L 459 4397 
Q 753 4575 1054 4662 
Q 1356 4750 1678 4750 
Q 2253 4750 2601 4447 
Q 2950 4144 2950 3647 
Q 2950 3409 2837 3195 
Q 2725 2981 2444 2713 
L 2169 2444 
Q 2022 2297 1961 2214 
Q 1900 2131 1875 2053 
Q 1856 1988 1847 1894 
Q 1838 1800 1838 1638 
L 1838 1253 
z
" transform="scale(0.015625)"/>
     </defs>
     <use xlink:href="#DejaVuSans-73"/>
     <use xlink:href="#DejaVuSans-75" x="52.099609"/>
     <use xlink:href="#DejaVuSans-72" x="115.478516"/>
     <use xlink:href="#DejaVuSans-72" x="154.841797"/>
     <use xlink:href="#DejaVuSans-6f" x="193.705078"/>
     <use xlink:href="#DejaVuSans-75" x="254.886719"/>
     <use xlink:href="#DejaVuSans-6e" x="318.265625"/>
     <use xlink:href="#DejaVuSans-64" x="381.644531"/>
     <use xlink:href="#DejaVuSans-65" x="445.121094"/>
     <use xlink:href="#DejaVuSans-64" x="506.644531"/>
     <use xlink:href="#DejaVuSans-3f" x="570.121094"/>
    </g>
    <!-- (≥1 support in all 8 octants) -->
    <g style="fill: #ffffff" transform="translate(55.4225 36.14225) scale(0.14 -0.14)">
     <defs>
      <path id="DejaVuSans-28" d="M 1984 4856 
Q 1566 4138 1362 3434 
Q 1159 2731 1159 2009 
Q 1159 1288 1364 580 
Q 1569 -128 1984 -844 
L 1484 -844 
Q 1016 -109 783 600 
Q 550 1309 550 2009 
Q 550 2706 781 3412 
Q 1013 4119 1484 4856 
L 1984 4856 
z
" transform="scale(0.015625)"/>
      <path id="DejaVuSans-2265" d="M 678 3175 
L 678 3725 
L 4684 2578 
L 4684 2047 
L 678 897 
L 678 1453 
L 3681 2309 
L 678 3175 
z
M 4684 531 
L 4684 0 
L 678 0 
L 678 531 
L 4684 531 
z
" transform="scale(0.015625)"/>
      <path id="DejaVuSans-31" d="M 794 531 
L 1825 531 
L 1825 4091 
L 703 3866 
L 703 4441 
L 1819 4666 
L 2450 4666 
L 2450 531 
L 3481 531 
L 3481 0 
L 794 0 
L 794 531 
z
" transform="scale(0.015625)"/>
      <path id="DejaVuSans-20" transform="scale(0.015625)"/>
      <path id="DejaVuSans-70" d="M 1159 525 
L 1159 -1331 
L 581 -1331 
L 581 3500 
L 1159 3500 
L 1159 2969 
Q 1341 3281 1617 3432 
Q 1894 3584 2278 3584 
Q 2916 3584 3314 3078 
Q 3713 2572 3713 1747 
Q 3713 922 3314 415 
Q 2916 -91 2278 -91 
Q 1894 -91 1617 61 
Q 1341 213 1159 525 
z
M 3116 1747 
Q 3116 2381 2855 2742 
Q 2594 3103 2138 3103 
Q 1681 3103 1420 2742 
Q 1159 2381 1159 1747 
Q 1159 1113 1420 752 
Q 1681 391 2138 391 
Q 2594 391 2855 752 
Q 3116 1113 3116 1747 
z
" transform="scale(0.015625)"/>
      <path id="DejaVuSans-74" d="M 1172 4494 
L 1172 3500 
L 2356 3500 
L 2356 3053 
L 1172 3053 
L 1172 1153 
Q 1172 725 1289 603 
Q 1406 481 1766 481 
L 2356 481 
L 2356 0 
L 1766 0 
Q 1100 0 847 248 
Q 594 497 594 1153 
L 594 3053 
L 172 3053 
L 172 3500 
L 594 3500 
L 594 4494 
L 1172 4494 
z
" transform="scale(0.015625)"/>
      <path id="DejaVuSans-69" d="M 603 3500 
L 1178 3500 
L 1178 0 
L 603 0 
L 603 3500 
z
M 603 4863 
L 1178 4863 
L 1178 4134 
L 603 4134 
L 603 4863 
z
" transform="scale(0.015625)"/>
      <path id="DejaVuSans-61" d="M 2194 1759 
Q 1497 1759 1228 1600 
Q 959 1441 959 1056 
Q 959 750 1161 570 
Q 1363 391 1709 391 
Q 2188 391 2477 730 
Q 2766 1069 2766 1631 
L 2766 1759 
L 2194 1759 
z
M 3341 1997 
L 3341 0 
L 2766 0 
L 2766 531 
Q 2569 213 2275 61 
Q 1981 -91 1556 -91 
Q 1019 -91 701 211 
Q 384 513 384 1019 
Q 384 1609 779 1909 
Q 1175 2209 1959 2209 
L 2766 2209 
L 2766 2266 
Q 2766 2663 2505 2880 
Q 2244 3097 1772 3097 
Q 1472 3097 1187 3025 
Q 903 2953 641 2809 
L 641 3341 
Q 956 3463 1253 3523 
Q 1550 3584 1831 3584 
Q 2591 3584 2966 3190 
Q 3341 2797 3341 1997 
z
" transform="scale(0.015625)"/>
      <path id="DejaVuSans-6c" d="M 603 4863 
L 1178 4863 
L 1178 0 
L 603 0 
L 603 4863 
z
" transform="scale(0.015625)"/>
      <path id="DejaVuSans-38" d="M 2034 2216 
Q 1584 2216 1326 1975 
Q 1069 1734 1069 1313 
Q 1069 891 1326 650 
Q 1584 409 2034 409 
Q 2484 409 2743 651 
Q 3003 894 3003 1313 
Q 3003 1734 2745 1975 
Q 2488 2216 2034 2216 
z
M 1403 2484 
Q 997 2584 770 2862 
Q 544 3141 544 3541 
Q 544 4100 942 4425 
Q 1341 4750 2034 4750 
Q 2731 4750 3128 4425 
Q 3525 4100 3525 3541 
Q 3525 3141 3298 2862 
Q 3072 2584 2669 2484 
Q 3125 2378 3379 2068 
Q 3634 1759 3634 1313 
Q 3634 634 3220 271 
Q 2806 -91 2034 -91 
Q 1263 -91 848 271 
Q 434 634 434 1313 
Q 434 1759 690 2068 
Q 947 2378 1403 2484 
z
M 1172 3481 
Q 1172 3119 1398 2916 
Q 1625 2713 2034 2713 
Q 2441 2713 2670 2916 
Q 2900 3119 2900 3481 
Q 2900 3844 2670 4047 
Q 2441 4250 2034 4250 
Q 1625 4250 1398 4047 
Q 1172 3844 1172 3481 
z
" transform="scale(0.015625)"/>
      <path id="DejaVuSans-63" d="M 3122 3366 
L 3122 2828 
Q 2878 2963 2633 3030 
Q 2388 3097 2138 3097 
Q 1578 3097 1268 2742 
Q 959 2388 959 1747 
Q 959 1106 1268 751 
Q 1578 397 2138 397 
Q 2388 397 2633 464 
Q 2878 531 3122 666 
L 3122 134 
Q 2881 22 2623 -34 
Q 2366 -91 2075 -91 
Q 1284 -91 818 406 
Q 353 903 353 1747 
Q 353 2603 823 3093 
Q 1294 3584 2113 3584 
Q 2378 3584 2631 3529 
Q 2884 3475 3122 3366 
z
" transform="scale(0.015625)"/>
      <path id="DejaVuSans-29" d="M 513 4856 
L 1013 4856 
Q 1481 4119 1714 3412 
Q 1947 2706 1947 2009 
Q 1947 1309 1714 600 
Q 1481 -109 1013 -844 
L 513 -844 
Q 928 -128 1133 580 
Q 1338 1288 1338 2009 
Q 1338 2731 1133 3434 
Q 928 4138 513 4856 
z
" transform="scale(0.015625)"/>
     </defs>
     <use xlink:href="#DejaVuSans-28"/>
     <use xlink:href="#DejaVuSans-2265" x="39.013672"/>
     <use xlink:href="#DejaVuSans-31" x="122.802734"/>
     <use xlink:href="#DejaVuSans-20" x="186.425781"/>
     <use xlink:href="#DejaVuSans-73" x="218.212891"/>
     <use xlink:href="#DejaVuSans-75" x="270.3125"/>
     <use xlink:href="#DejaVuSans-70" x="333.691406"/>
     <use xlink:href="#DejaVuSans-70" x="397.167969"/>
     <use xlink:href="#DejaVuSans-6f" x="460.644531"/>
     <use xlink:href="#DejaVuSans-72" x="521.826172"/>
     <use xlink:href="#DejaVuSans-74" x="562.939453"/>
     <use xlink:href="#DejaVuSans-20" x="602.148438"/>
     <use xlink:href="#DejaVuSans-69" x="633.935547"/>
     <use xlink:href="#DejaVuSans-6e" x="661.71875"/>
     <use xlink:href="#DejaVuSans-20" x="725.097656"/>
     <use xlink:href="#DejaVuSans-61" x="756.884766"/>
     <use xlink:href="#DejaVuSans-6c" x="818.164062"/>
     <use xlink:href="#DejaVuSans-6c" x="845.947266"/>
     <use xlink:href="#DejaVuSans-20" x="873.730469"/>
     <use xlink:href="#DejaVuSans-38" x="905.517578"/>
     <use xlink:href="#DejaVuSans-20" x="969.140625"/>
     <use xlink:href="#DejaVuSans-6f" x="1000.927734"/>
     <use xlink:href="#DejaVuSans-63" x="1062.109375"/>
     <use xlink:href="#DejaVuSans-74" x="1117.089844"/>
     <use xlink:href="#DejaVuSans-61" x="1156.298828"/>
     <use xlink:href="#DejaVuSans-6e" x="1217.578125"/>
     <use xlink:href="#DejaVuSans-74" x="1280.957031"/>
     <use xlink:href="#DejaVuSans-73" x="1320.166016"/>
     <use xlink:href="#DejaVuSans-29" x="1372.265625"/>
    </g>
   </g>
   <g id="PathCollection_9">
    <defs>
     <path id="md247035e3b" d="M 0 5.700877 
C 1.51189 5.700877 2.962061 5.100197 4.031129 4.031129 
C 5.100197 2.962061 5.700877 1.51189 5.700877 0 
C 5.700877 -1.51189 5.100197 -2.962061 4.031129 -4.031129 
C 2.962061 -5.100197 1.51189 -5.700877 0 -5.700877 
C -1.51189 -5.700877 -2.962061 -5.100197 -4.031129 -4.031129 
C -5.100197 -2.962061 -5.700877 -1.51189 -5.700877 0 
C -5.700877 1.51189 -5.100197 2.962061 -4.031129 4.031129 
C -2.962061 5.100197 -1.51189 5.700877 0 5.700877 
z
" style="stroke: #000000"/>
    </defs>
    <g clip-path="url(#p7d44af3a5f)">
     <use xlink:href="#md247035e3b" x="154.21" y="189.15225" style="fill: #ffffff; stroke: #000000"/>
    </g>
   </g>
  </g>
  <g id="axes_2">
   <g id="patch_10">
    <path d="M 373.24 338.71625 
L 667.26 338.71625 
L 667.26 39.58825 
L 373.24 39.58825 
L 373.24 338.71625 
z
" style="fill: none"/>
   </g>
   <g id="PolyCollection_1">
    <defs>
     <path id="m1a65553199" d="M 373.24 -210.874805 
L 373.24 -174.979445 
L 376.209899 -174.299609 
L 379.179798 -173.619772 
L 382.149697 -172.939936 
L 385.119596 -172.2601 
L 388.089495 -171.580263 
L 391.059394 -170.900427 
L 394.029293 -170.22059 
L 396.999192 -169.540754 
L 399.969091 -168.860918 
L 402.93899 -168.181081 
L 405.908889 -167.501245 
L 408.878788 -166.821409 
L 411.848687 -166.141572 
L 414.818586 -165.461736 
L 417.788485 -164.7819 
L 420.758384 -164.102063 
L 423.728283 -163.422227 
L 426.698182 -162.74239 
L 429.668081 -162.062554 
L 432.63798 -161.382718 
L 435.607879 -160.702881 
L 438.577778 -160.023045 
L 441.547677 -159.343209 
L 444.517576 -158.663372 
L 447.487475 -157.983536 
L 450.457374 -157.3037 
L 453.427273 -156.623863 
L 456.397172 -155.944027 
L 459.367071 -155.26419 
L 462.33697 -154.584354 
L 465.306869 -153.904518 
L 468.276768 -153.224681 
L 471.246667 -152.544845 
L 474.216566 -151.865009 
L 477.186465 -151.185172 
L 480.156364 -150.505336 
L 483.126263 -149.8255 
L 486.096162 -149.145663 
L 489.066061 -148.465827 
L 492.03596 -147.78599 
L 495.005859 -147.106154 
L 497.975758 -146.426318 
L 500.945657 -145.746481 
L 503.915556 -145.066645 
L 506.885455 -144.386809 
L 509.855354 -143.706972 
L 512.825253 -143.027136 
L 515.795152 -142.3473 
L 518.765051 -141.667463 
L 521.734949 -140.987627 
L 524.704848 -140.30779 
L 527.674747 -139.627954 
L 530.644646 -138.948118 
L 533.614545 -138.268281 
L 536.584444 -137.588445 
L 539.554343 -136.908609 
L 542.524242 -136.228772 
L 545.494141 -135.548936 
L 548.46404 -134.8691 
L 551.433939 -134.189263 
L 554.403838 -133.509427 
L 557.373737 -132.82959 
L 560.343636 -132.149754 
L 563.313535 -131.469918 
L 566.283434 -130.790081 
L 569.253333 -130.110245 
L 572.223232 -129.430409 
L 575.193131 -128.750572 
L 578.16303 -128.070736 
L 581.132929 -127.3909 
L 584.102828 -126.711063 
L 587.072727 -126.031227 
L 590.042626 -125.35139 
L 593.012525 -124.671554 
L 595.982424 -123.991718 
L 598.952323 -123.311881 
L 601.922222 -122.632045 
L 604.892121 -121.952209 
L 607.86202 -121.272372 
L 610.831919 -120.592536 
L 613.801818 -119.9127 
L 616.771717 -119.232863 
L 619.741616 -118.553027 
L 622.711515 -117.87319 
L 625.681414 -117.193354 
L 628.651313 -116.513518 
L 631.621212 -115.833681 
L 634.591111 -115.153845 
L 637.56101 -114.474009 
L 640.530909 -113.794172 
L 643.500808 -113.114336 
L 646.470707 -112.4345 
L 649.440606 -111.754663 
L 652.410505 -111.074827 
L 655.380404 -110.39499 
L 658.350303 -109.715154 
L 661.320202 -109.035318 
L 664.290101 -108.355481 
L 667.26 -107.675645 
L 667.26 -278.178605 
L 667.26 -278.178605 
L 664.290101 -277.498769 
L 661.320202 -276.818932 
L 658.350303 -276.139096 
L 655.380404 -275.45926 
L 652.410505 -274.779423 
L 649.440606 -274.099587 
L 646.470707 -273.41975 
L 643.500808 -272.739914 
L 640.530909 -272.060078 
L 637.56101 -271.380241 
L 634.591111 -270.700405 
L 631.621212 -270.020569 
L 628.651313 -269.340732 
L 625.681414 -268.660896 
L 622.711515 -267.98106 
L 619.741616 -267.301223 
L 616.771717 -266.621387 
L 613.801818 -265.94155 
L 610.831919 -265.261714 
L 607.86202 -264.581878 
L 604.892121 -263.902041 
L 601.922222 -263.222205 
L 598.952323 -262.542369 
L 595.982424 -261.862532 
L 593.012525 -261.182696 
L 590.042626 -260.50286 
L 587.072727 -259.823023 
L 584.102828 -259.143187 
L 581.132929 -258.46335 
L 578.16303 -257.783514 
L 575.193131 -257.103678 
L 572.223232 -256.423841 
L 569.253333 -255.744005 
L 566.283434 -255.064169 
L 563.313535 -254.384332 
L 560.343636 -253.704496 
L 557.373737 -253.02466 
L 554.403838 -252.344823 
L 551.433939 -251.664987 
L 548.46404 -250.98515 
L 545.494141 -250.305314 
L 542.524242 -249.625478 
L 539.554343 -248.945641 
L 536.584444 -248.265805 
L 533.614545 -247.585969 
L 530.644646 -246.906132 
L 527.674747 -246.226296 
L 524.704848 -245.54646 
L 521.734949 -244.866623 
L 518.765051 -244.186787 
L 515.795152 -243.50695 
L 512.825253 -242.827114 
L 509.855354 -242.147278 
L 506.885455 -241.467441 
L 503.915556 -240.787605 
L 500.945657 -240.107769 
L 497.975758 -239.427932 
L 495.005859 -238.748096 
L 492.03596 -238.06826 
L 489.066061 -237.388423 
L 486.096162 -236.708587 
L 483.126263 -236.02875 
L 480.156364 -235.348914 
L 477.186465 -234.669078 
L 474.216566 -233.989241 
L 471.246667 -233.309405 
L 468.276768 -232.629569 
L 465.306869 -231.949732 
L 462.33697 -231.269896 
L 459.367071 -230.59006 
L 456.397172 -229.910223 
L 453.427273 -229.230387 
L 450.457374 -228.55055 
L 447.487475 -227.870714 
L 444.517576 -227.190878 
L 441.547677 -226.511041 
L 438.577778 -225.831205 
L 435.607879 -225.151369 
L 432.63798 -224.471532 
L 429.668081 -223.791696 
L 426.698182 -223.11186 
L 423.728283 -222.432023 
L 420.758384 -221.752187 
L 417.788485 -221.07235 
L 414.818586 -220.392514 
L 411.848687 -219.712678 
L 408.878788 -219.032841 
L 405.908889 -218.353005 
L 402.93899 -217.673169 
L 399.969091 -216.993332 
L 396.999192 -216.313496 
L 394.029293 -215.63366 
L 391.059394 -214.953823 
L 388.089495 -214.273987 
L 385.119596 -213.59415 
L 382.149697 -212.914314 
L 379.179798 -212.234478 
L 376.209899 -211.554641 
L 373.24 -210.874805 
z
" style="stroke: #6fd3ff; stroke-opacity: 0.18"/>
    </defs>
    <g clip-path="url(#p978111e437)">
     <use xlink:href="#m1a65553199" x="0" y="382.079375" style="fill: #6fd3ff; fill-opacity: 0.18; stroke: #6fd3ff; stroke-opacity: 0.18"/>
    </g>
   </g>
   <g id="matplotlib.axis_1">
    <g id="xtick_1">
     <g id="line2d_1">
      <defs>
       <path id="m5f1f8c1f6f" d="M 0 0 
L 0 3.5 
" style="stroke: #c8ccd2; stroke-width: 0.8"/>
      </defs>
      <g>
       <use xlink:href="#m5f1f8c1f6f" x="373.24" y="338.71625" style="fill: #c8ccd2; stroke: #c8ccd2; stroke-width: 0.8"/>
      </g>
     </g>
     <g id="text_2">
      <!-- 0.0 -->
      <g style="fill: #c8ccd2" transform="translate(363.698125 354.834375) scale(0.12 -0.12)">
       <defs>
        <path id="DejaVuSans-30" d="M 2034 4250 
Q 1547 4250 1301 3770 
Q 1056 3291 1056 2328 
Q 1056 1369 1301 889 
Q 1547 409 2034 409 
Q 2525 409 2770 889 
Q 3016 1369 3016 2328 
Q 3016 3291 2770 3770 
Q 2525 4250 2034 4250 
z
M 2034 4750 
Q 2819 4750 3233 4129 
Q 3647 3509 3647 2328 
Q 3647 1150 3233 529 
Q 2819 -91 2034 -91 
Q 1250 -91 836 529 
Q 422 1150 422 2328 
Q 422 3509 836 4129 
Q 1250 4750 2034 4750 
z
" transform="scale(0.015625)"/>
        <path id="DejaVuSans-2e" d="M 684 794 
L 1344 794 
L 1344 0 
L 684 0 
L 684 794 
z
" transform="scale(0.015625)"/>
       </defs>
       <use xlink:href="#DejaVuSans-30"/>
       <use xlink:href="#DejaVuSans-2e" x="63.623047"/>
       <use xlink:href="#DejaVuSans-30" x="95.410156"/>
      </g>
     </g>
    </g>
    <g id="xtick_2">
     <g id="line2d_2">
      <g>
       <use xlink:href="#m5f1f8c1f6f" x="432.044" y="338.71625" style="fill: #c8ccd2; stroke: #c8ccd2; stroke-width: 0.8"/>
      </g>
     </g>
     <g id="text_3">
      <!-- 0.2 -->
      <g style="fill: #c8ccd2" transform="translate(422.502125 354.834375) scale(0.12 -0.12)">
       <defs>
        <path id="DejaVuSans-32" d="M 1228 531 
L 3431 531 
L 3431 0 
L 469 0 
L 469 531 
Q 828 903 1448 1529 
Q 2069 2156 2228 2338 
Q 2531 2678 2651 2914 
Q 2772 3150 2772 3378 
Q 2772 3750 2511 3984 
Q 2250 4219 1831 4219 
Q 1534 4219 1204 4116 
Q 875 4013 500 3803 
L 500 4441 
Q 881 4594 1212 4672 
Q 1544 4750 1819 4750 
Q 2544 4750 2975 4387 
Q 3406 4025 3406 3419 
Q 3406 3131 3298 2873 
Q 3191 2616 2906 2266 
Q 2828 2175 2409 1742 
Q 1991 1309 1228 531 
z
" transform="scale(0.015625)"/>
       </defs>
       <use xlink:href="#DejaVuSans-30"/>
       <use xlink:href="#DejaVuSans-2e" x="63.623047"/>
       <use xlink:href="#DejaVuSans-32" x="95.410156"/>
      </g>
     </g>
    </g>
    <g id="xtick_3">
     <g id="line2d_3">
      <g>
       <use xlink:href="#m5f1f8c1f6f" x="490.848" y="338.71625" style="fill: #c8ccd2; stroke: #c8ccd2; stroke-width: 0.8"/>
      </g>
     </g>
     <g id="text_4">
      <!-- 0.4 -->
      <g style="fill: #c8ccd2" transform="translate(481.306125 354.834375) scale(0.12 -0.12)">
       <defs>
        <path id="DejaVuSans-34" d="M 2419 4116 
L 825 1625 
L 2419 1625 
L 2419 4116 
z
M 2253 4666 
L 3047 4666 
L 3047 1625 
L 3713 1625 
L 3713 1100 
L 3047 1100 
L 3047 0 
L 2419 0 
L 2419 1100 
L 313 1100 
L 313 1709 
L 2253 4666 
z
" transform="scale(0.015625)"/>
       </defs>
       <use xlink:href="#DejaVuSans-30"/>
       <use xlink:href="#DejaVuSans-2e" x="63.623047"/>
       <use xlink:href="#DejaVuSans-34" x="95.410156"/>
      </g>
     </g>
    </g>
    <g id="xtick_4">
     <g id="line2d_4">
      <g>
       <use xlink:href="#m5f1f8c1f6f" x="549.652" y="338.71625" style="fill: #c8ccd2; stroke: #c8ccd2; stroke-width: 0.8"/>
      </g>
     </g>
     <g id="text_5">
      <!-- 0.6 -->
      <g style="fill: #c8ccd2" transform="translate(540.110125 354.834375) scale(0.12 -0.12)">
       <defs>
        <path id="DejaVuSans-36" d="M 2113 2584 
Q 1688 2584 1439 2293 
Q 1191 2003 1191 1497 
Q 1191 994 1439 701 
Q 1688 409 2113 409 
Q 2538 409 2786 701 
Q 3034 994 3034 1497 
Q 3034 2003 2786 2293 
Q 2538 2584 2113 2584 
z
M 3366 4563 
L 3366 3988 
Q 3128 4100 2886 4159 
Q 2644 4219 2406 4219 
Q 1781 4219 1451 3797 
Q 1122 3375 1075 2522 
Q 1259 2794 1537 2939 
Q 1816 3084 2150 3084 
Q 2853 3084 3261 2657 
Q 3669 2231 3669 1497 
Q 3669 778 3244 343 
Q 2819 -91 2113 -91 
Q 1303 -91 875 529 
Q 447 1150 447 2328 
Q 447 3434 972 4092 
Q 1497 4750 2381 4750 
Q 2619 4750 2861 4703 
Q 3103 4656 3366 4563 
z
" transform="scale(0.015625)"/>
       </defs>
       <use xlink:href="#DejaVuSans-30"/>
       <use xlink:href="#DejaVuSans-2e" x="63.623047"/>
       <use xlink:href="#DejaVuSans-36" x="95.410156"/>
      </g>
     </g>
    </g>
    <g id="xtick_5">
     <g id="line2d_5">
      <g>
       <use xlink:href="#m5f1f8c1f6f" x="608.456" y="338.71625" style="fill: #c8ccd2; stroke: #c8ccd2; stroke-width: 0.8"/>
      </g>
     </g>
     <g id="text_6">
      <!-- 0.8 -->
      <g style="fill: #c8ccd2" transform="translate(598.914125 354.834375) scale(0.12 -0.12)">
       <use xlink:href="#DejaVuSans-30"/>
       <use xlink:href="#DejaVuSans-2e" x="63.623047"/>
       <use xlink:href="#DejaVuSans-38" x="95.410156"/>
      </g>
     </g>
    </g>
    <g id="xtick_6">
     <g id="line2d_6">
      <g>
       <use xlink:href="#m5f1f8c1f6f" x="667.26" y="338.71625" style="fill: #c8ccd2; stroke: #c8ccd2; stroke-width: 0.8"/>
      </g>
     </g>
     <g id="text_7">
      <!-- 1.0 -->
      <g style="fill: #c8ccd2" transform="translate(657.718125 354.834375) scale(0.12 -0.12)">
       <use xlink:href="#DejaVuSans-31"/>
       <use xlink:href="#DejaVuSans-2e" x="63.623047"/>
       <use xlink:href="#DejaVuSans-30" x="95.410156"/>
      </g>
     </g>
    </g>
    <g id="text_8">
     <!-- distance d -->
     <g style="fill: #c8ccd2" transform="translate(483.92 371.967813) scale(0.14 -0.14)">
      <use xlink:href="#DejaVuSans-64"/>
      <use xlink:href="#DejaVuSans-69" x="63.476562"/>
      <use xlink:href="#DejaVuSans-73" x="91.259766"/>
      <use xlink:href="#DejaVuSans-74" x="143.359375"/>
      <use xlink:href="#DejaVuSans-61" x="182.568359"/>
      <use xlink:href="#DejaVuSans-6e" x="243.847656"/>
      <use xlink:href="#DejaVuSans-63" x="307.226562"/>
      <use xlink:href="#DejaVuSans-65" x="362.207031"/>
      <use xlink:href="#DejaVuSans-20" x="423.730469"/>
      <use xlink:href="#DejaVuSans-64" x="455.517578"/>
     </g>
    </g>
   </g>
   <g id="matplotlib.axis_2">
    <g id="ytick_1">
     <g id="line2d_7">
      <defs>
       <path id="m6139087e04" d="M 0 0 
L -3.5 0 
" style="stroke: #c8ccd2; stroke-width: 0.8"/>
      </defs>
      <g>
       <use xlink:href="#m6139087e04" x="373.24" y="338.71625" style="fill: #c8ccd2; stroke: #c8ccd2; stroke-width: 0.8"/>
      </g>
     </g>
     <g id="text_9">
      <!-- −1.00 -->
      <g style="fill: #c8ccd2" transform="translate(329.465625 343.275313) scale(0.12 -0.12)">
       <defs>
        <path id="DejaVuSans-2212" d="M 678 2272 
L 4684 2272 
L 4684 1741 
L 678 1741 
L 678 2272 
z
" transform="scale(0.015625)"/>
       </defs>
       <use xlink:href="#DejaVuSans-2212"/>
       <use xlink:href="#DejaVuSans-31" x="83.789062"/>
       <use xlink:href="#DejaVuSans-2e" x="147.412109"/>
       <use xlink:href="#DejaVuSans-30" x="179.199219"/>
       <use xlink:href="#DejaVuSans-30" x="242.822266"/>
      </g>
     </g>
    </g>
    <g id="ytick_2">
     <g id="line2d_8">
      <g>
       <use xlink:href="#m6139087e04" x="373.24" y="301.32525" style="fill: #c8ccd2; stroke: #c8ccd2; stroke-width: 0.8"/>
      </g>
     </g>
     <g id="text_10">
      <!-- −0.75 -->
      <g style="fill: #c8ccd2" transform="translate(329.465625 305.884313) scale(0.12 -0.12)">
       <defs>
        <path id="DejaVuSans-37" d="M 525 4666 
L 3525 4666 
L 3525 4397 
L 1831 0 
L 1172 0 
L 2766 4134 
L 525 4134 
L 525 4666 
z
" transform="scale(0.015625)"/>
        <path id="DejaVuSans-35" d="M 691 4666 
L 3169 4666 
L 3169 4134 
L 1269 4134 
L 1269 2991 
Q 1406 3038 1543 3061 
Q 1681 3084 1819 3084 
Q 2600 3084 3056 2656 
Q 3513 2228 3513 1497 
Q 3513 744 3044 326 
Q 2575 -91 1722 -91 
Q 1428 -91 1123 -41 
Q 819 9 494 109 
L 494 744 
Q 775 591 1075 516 
Q 1375 441 1709 441 
Q 2250 441 2565 725 
Q 2881 1009 2881 1497 
Q 2881 1984 2565 2268 
Q 2250 2553 1709 2553 
Q 1456 2553 1204 2497 
Q 953 2441 691 2322 
L 691 4666 
z
" transform="scale(0.015625)"/>
       </defs>
       <use xlink:href="#DejaVuSans-2212"/>
       <use xlink:href="#DejaVuSans-30" x="83.789062"/>
       <use xlink:href="#DejaVuSans-2e" x="147.412109"/>
       <use xlink:href="#DejaVuSans-37" x="179.199219"/>
       <use xlink:href="#DejaVuSans-35" x="242.822266"/>
      </g>
     </g>
    </g>
    <g id="ytick_3">
     <g id="line2d_9">
      <g>
       <use xlink:href="#m6139087e04" x="373.24" y="263.93425" style="fill: #c8ccd2; stroke: #c8ccd2; stroke-width: 0.8"/>
      </g>
     </g>
     <g id="text_11">
      <!-- −0.50 -->
      <g style="fill: #c8ccd2" transform="translate(329.465625 268.493313) scale(0.12 -0.12)">
       <use xlink:href="#DejaVuSans-2212"/>
       <use xlink:href="#DejaVuSans-30" x="83.789062"/>
       <use xlink:href="#DejaVuSans-2e" x="147.412109"/>
       <use xlink:href="#DejaVuSans-35" x="179.199219"/>
       <use xlink:href="#DejaVuSans-30" x="242.822266"/>
      </g>
     </g>
    </g>
    <g id="ytick_4">
     <g id="line2d_10">
      <g>
       <use xlink:href="#m6139087e04" x="373.24" y="226.54325" style="fill: #c8ccd2; stroke: #c8ccd2; stroke-width: 0.8"/>
      </g>
     </g>
     <g id="text_12">
      <!-- −0.25 -->
      <g style="fill: #c8ccd2" transform="translate(329.465625 231.102313) scale(0.12 -0.12)">
       <use xlink:href="#DejaVuSans-2212"/>
       <use xlink:href="#DejaVuSans-30" x="83.789062"/>
       <use xlink:href="#DejaVuSans-2e" x="147.412109"/>
       <use xlink:href="#DejaVuSans-32" x="179.199219"/>
       <use xlink:href="#DejaVuSans-35" x="242.822266"/>
      </g>
     </g>
    </g>
    <g id="ytick_5">
     <g id="line2d_11">
      <g>
       <use xlink:href="#m6139087e04" x="373.24" y="189.15225" style="fill: #c8ccd2; stroke: #c8ccd2; stroke-width: 0.8"/>
      </g>
     </g>
     <g id="text_13">
      <!-- 0.00 -->
      <g style="fill: #c8ccd2" transform="translate(339.52125 193.711313) scale(0.12 -0.12)">
       <use xlink:href="#DejaVuSans-30"/>
       <use xlink:href="#DejaVuSans-2e" x="63.623047"/>
       <use xlink:href="#DejaVuSans-30" x="95.410156"/>
       <use xlink:href="#DejaVuSans-30" x="159.033203"/>
      </g>
     </g>
    </g>
    <g id="ytick_6">
     <g id="line2d_12">
      <g>
       <use xlink:href="#m6139087e04" x="373.24" y="151.76125" style="fill: #c8ccd2; stroke: #c8ccd2; stroke-width: 0.8"/>
      </g>
     </g>
     <g id="text_14">
      <!-- 0.25 -->
      <g style="fill: #c8ccd2" transform="translate(339.52125 156.320313) scale(0.12 -0.12)">
       <use xlink:href="#DejaVuSans-30"/>
       <use xlink:href="#DejaVuSans-2e" x="63.623047"/>
       <use xlink:href="#DejaVuSans-32" x="95.410156"/>
       <use xlink:href="#DejaVuSans-35" x="159.033203"/>
      </g>
     </g>
    </g>
    <g id="ytick_7">
     <g id="line2d_13">
      <g>
       <use xlink:href="#m6139087e04" x="373.24" y="114.37025" style="fill: #c8ccd2; stroke: #c8ccd2; stroke-width: 0.8"/>
      </g>
     </g>
     <g id="text_15">
      <!-- 0.50 -->
      <g style="fill: #c8ccd2" transform="translate(339.52125 118.929312) scale(0.12 -0.12)">
       <use xlink:href="#DejaVuSans-30"/>
       <use xlink:href="#DejaVuSans-2e" x="63.623047"/>
       <use xlink:href="#DejaVuSans-35" x="95.410156"/>
       <use xlink:href="#DejaVuSans-30" x="159.033203"/>
      </g>
     </g>
    </g>
    <g id="ytick_8">
     <g id="line2d_14">
      <g>
       <use xlink:href="#m6139087e04" x="373.24" y="76.97925" style="fill: #c8ccd2; stroke: #c8ccd2; stroke-width: 0.8"/>
      </g>
     </g>
     <g id="text_16">
      <!-- 0.75 -->
      <g style="fill: #c8ccd2" transform="translate(339.52125 81.538313) scale(0.12 -0.12)">
       <use xlink:href="#DejaVuSans-30"/>
       <use xlink:href="#DejaVuSans-2e" x="63.623047"/>
       <use xlink:href="#DejaVuSans-37" x="95.410156"/>
       <use xlink:href="#DejaVuSans-35" x="159.033203"/>
      </g>
     </g>
    </g>
    <g id="ytick_9">
     <g id="line2d_15">
      <g>
       <use xlink:href="#m6139087e04" x="373.24" y="39.58825" style="fill: #c8ccd2; stroke: #c8ccd2; stroke-width: 0.8"/>
      </g>
     </g>
     <g id="text_17">
      <!-- 1.00 -->
      <g style="fill: #c8ccd2" transform="translate(339.52125 44.147312) scale(0.12 -0.12)">
       <use xlink:href="#DejaVuSans-31"/>
       <use xlink:href="#DejaVuSans-2e" x="63.623047"/>
       <use xlink:href="#DejaVuSans-30" x="95.410156"/>
       <use xlink:href="#DejaVuSans-30" x="159.033203"/>
      </g>
     </g>
    </g>
    <g id="text_18">
     <!-- ΔH -->
     <g style="fill: #c8ccd2" transform="translate(322.554062 199.204906) rotate(-90) scale(0.14 -0.14)">
      <defs>
       <path id="DejaVuSans-394" d="M 2188 4044 
L 906 525 
L 3472 525 
L 2188 4044 
z
M 50 0 
L 1831 4666 
L 2547 4666 
L 4325 0 
L 50 0 
z
" transform="scale(0.015625)"/>
       <path id="DejaVuSans-48" d="M 628 4666 
L 1259 4666 
L 1259 2753 
L 3553 2753 
L 3553 4666 
L 4184 4666 
L 4184 0 
L 3553 0 
L 3553 2222 
L 1259 2222 
L 1259 0 
L 628 0 
L 628 4666 
z
" transform="scale(0.015625)"/>
      </defs>
      <use xlink:href="#DejaVuSans-394"/>
      <use xlink:href="#DejaVuSans-48" x="68.408203"/>
     </g>
    </g>
   </g>
   <g id="line2d_16">
    <path d="M 373.24 171.20457 
L 376.209899 170.524734 
L 379.179798 169.844897 
L 382.149697 169.165061 
L 385.119596 168.485225 
L 388.089495 167.805388 
L 391.059394 167.125552 
L 394.029293 166.445715 
L 396.999192 165.765879 
L 399.969091 165.086043 
L 402.93899 164.406206 
L 405.908889 163.72637 
L 408.878788 163.046534 
L 411.848687 162.366697 
L 414.818586 161.686861 
L 417.788485 161.007025 
L 420.758384 160.327188 
L 423.728283 159.647352 
L 426.698182 158.967515 
L 429.668081 158.287679 
L 432.63798 157.607843 
L 435.607879 156.928006 
L 438.577778 156.24817 
L 441.547677 155.568334 
L 444.517576 154.888497 
L 447.487475 154.208661 
L 450.457374 153.528825 
L 453.427273 152.848988 
L 456.397172 152.169152 
L 459.367071 151.489315 
L 462.33697 150.809479 
L 465.306869 150.129643 
L 468.276768 149.449806 
L 471.246667 148.76997 
L 474.216566 148.090134 
L 477.186465 147.410297 
L 480.156364 146.730461 
L 483.126263 146.050625 
L 486.096162 145.370788 
L 489.066061 144.690952 
L 492.03596 144.011115 
L 495.005859 143.331279 
L 497.975758 142.651443 
L 500.945657 141.971606 
L 503.915556 141.29177 
L 506.885455 140.611934 
L 509.855354 139.932097 
L 512.825253 139.252261 
L 515.795152 138.572425 
L 518.765051 137.892588 
L 521.734949 137.212752 
L 524.704848 136.532915 
L 527.674747 135.853079 
L 530.644646 135.173243 
L 533.614545 134.493406 
L 536.584444 133.81357 
L 539.554343 133.133734 
L 542.524242 132.453897 
L 545.494141 131.774061 
L 548.46404 131.094225 
L 551.433939 130.414388 
L 554.403838 129.734552 
L 557.373737 129.054715 
L 560.343636 128.374879 
L 563.313535 127.695043 
L 566.283434 127.015206 
L 569.253333 126.33537 
L 572.223232 125.655534 
L 575.193131 124.975697 
L 578.16303 124.295861 
L 581.132929 123.616025 
L 584.102828 122.936188 
L 587.072727 122.256352 
L 590.042626 121.576515 
L 593.012525 120.896679 
L 595.982424 120.216843 
L 598.952323 119.537006 
L 601.922222 118.85717 
L 604.892121 118.177334 
L 607.86202 117.497497 
L 610.831919 116.817661 
L 613.801818 116.137825 
L 616.771717 115.457988 
L 619.741616 114.778152 
L 622.711515 114.098315 
L 625.681414 113.418479 
L 628.651313 112.738643 
L 631.621212 112.058806 
L 634.591111 111.37897 
L 637.56101 110.699134 
L 640.530909 110.019297 
L 643.500808 109.339461 
L 646.470707 108.659625 
L 649.440606 107.979788 
L 652.410505 107.299952 
L 655.380404 106.620115 
L 658.350303 105.940279 
L 661.320202 105.260443 
L 664.290101 104.580606 
L 667.26 103.90077 
" clip-path="url(#p978111e437)" style="fill: none; stroke: #6fd3ff; stroke-width: 1.7; stroke-linecap: square"/>
   </g>
   <g id="line2d_17">
    <path d="M 373.24 207.09993 
L 376.209899 207.779766 
L 379.179798 208.459603 
L 382.149697 209.139439 
L 385.119596 209.819275 
L 388.089495 210.499112 
L 391.059394 211.178948 
L 394.029293 211.858785 
L 396.999192 212.538621 
L 399.969091 213.218457 
L 402.93899 213.898294 
L 405.908889 214.57813 
L 408.878788 215.257966 
L 411.848687 215.937803 
L 414.818586 216.617639 
L 417.788485 217.297475 
L 420.758384 217.977312 
L 423.728283 218.657148 
L 426.698182 219.336985 
L 429.668081 220.016821 
L 432.63798 220.696657 
L 435.607879 221.376494 
L 438.577778 222.05633 
L 441.547677 222.736166 
L 444.517576 223.416003 
L 447.487475 224.095839 
L 450.457374 224.775675 
L 453.427273 225.455512 
L 456.397172 226.135348 
L 459.367071 226.815185 
L 462.33697 227.495021 
L 465.306869 228.174857 
L 468.276768 228.854694 
L 471.246667 229.53453 
L 474.216566 230.214366 
L 477.186465 230.894203 
L 480.156364 231.574039 
L 483.126263 232.253875 
L 486.096162 232.933712 
L 489.066061 233.613548 
L 492.03596 234.293385 
L 495.005859 234.973221 
L 497.975758 235.653057 
L 500.945657 236.332894 
L 503.915556 237.01273 
L 506.885455 237.692566 
L 509.855354 238.372403 
L 512.825253 239.052239 
L 515.795152 239.732075 
L 518.765051 240.411912 
L 521.734949 241.091748 
L 524.704848 241.771585 
L 527.674747 242.451421 
L 530.644646 243.131257 
L 533.614545 243.811094 
L 536.584444 244.49093 
L 539.554343 245.170766 
L 542.524242 245.850603 
L 545.494141 246.530439 
L 548.46404 247.210275 
L 551.433939 247.890112 
L 554.403838 248.569948 
L 557.373737 249.249785 
L 560.343636 249.929621 
L 563.313535 250.609457 
L 566.283434 251.289294 
L 569.253333 251.96913 
L 572.223232 252.648966 
L 575.193131 253.328803 
L 578.16303 254.008639 
L 581.132929 254.688475 
L 584.102828 255.368312 
L 587.072727 256.048148 
L 590.042626 256.727985 
L 593.012525 257.407821 
L 595.982424 258.087657 
L 598.952323 258.767494 
L 601.922222 259.44733 
L 604.892121 260.127166 
L 607.86202 260.807003 
L 610.831919 261.486839 
L 613.801818 262.166675 
L 616.771717 262.846512 
L 619.741616 263.526348 
L 622.711515 264.206185 
L 625.681414 264.886021 
L 628.651313 265.565857 
L 631.621212 266.245694 
L 634.591111 266.92553 
L 637.56101 267.605366 
L 640.530909 268.285203 
L 643.500808 268.965039 
L 646.470707 269.644875 
L 649.440606 270.324712 
L 652.410505 271.004548 
L 655.380404 271.684385 
L 658.350303 272.364221 
L 661.320202 273.044057 
L 664.290101 273.723894 
L 667.26 274.40373 
" clip-path="url(#p978111e437)" style="fill: none; stroke: #6fd3ff; stroke-width: 1.7; stroke-linecap: square"/>
   </g>
   <g id="patch_11">
    <path d="M 373.24 338.71625 
L 373.24 39.58825 
" style="fill: none; stroke: #c8ccd2; stroke-width: 0.8; stroke-linejoin: miter; stroke-linecap: square"/>
   </g>
   <g id="patch_12">
    <path d="M 667.26 338.71625 
L 667.26 39.58825 
" style="fill: none; stroke: #c8ccd2; stroke-width: 0.8; stroke-linejoin: miter; stroke-linecap: square"/>
   </g>
   <g id="patch_13">
    <path d="M 373.24 338.71625 
L 667.26 338.71625 
" style="fill: none; stroke: #c8ccd2; stroke-width: 0.8; stroke-linejoin: miter; stroke-linecap: square"/>
   </g>
   <g id="patch_14">
    <path d="M 373.24 39.58825 
L 667.26 39.58825 
" style="fill: none; stroke: #c8ccd2; stroke-width: 0.8; stroke-linejoin: miter; stroke-linecap: square"/>
   </g>
   <g id="text_19">
    <!-- within the band? -->
    <g style="fill: #ffffff" transform="translate(461.752969 17.837812) scale(0.14 -0.14)">
     <defs>
      <path id="DejaVuSans-77" d="M 269 3500 
L 844 3500 
L 1563 769 
L 2278 3500 
L 2956 3500 
L 3675 769 
L 4391 3500 
L 4966 3500 
L 4050 0 
L 3372 0 
L 2619 2869 
L 1863 0 
L 1184 0 
L 269 3500 
z
" transform="scale(0.015625)"/>
      <path id="DejaVuSans-68" d="M 3513 2113 
L 3513 0 
L 2938 0 
L 2938 2094 
Q 2938 2591 2744 2837 
Q 2550 3084 2163 3084 
Q 1697 3084 1428 2787 
Q 1159 2491 1159 1978 
L 1159 0 
L 581 0 
L 581 4863 
L 1159 4863 
L 1159 2956 
Q 1366 3272 1645 3428 
Q 1925 3584 2291 3584 
Q 2894 3584 3203 3211 
Q 3513 2838 3513 2113 
z
" transform="scale(0.015625)"/>
      <path id="DejaVuSans-62" d="M 3116 1747 
Q 3116 2381 2855 2742 
Q 2594 3103 2138 3103 
Q 1681 3103 1420 2742 
Q 1159 2381 1159 1747 
Q 1159 1113 1420 752 
Q 1681 391 2138 391 
Q 2594 391 2855 752 
Q 3116 1113 3116 1747 
z
M 1159 2969 
Q 1341 3281 1617 3432 
Q 1894 3584 2278 3584 
Q 2916 3584 3314 3078 
Q 3713 2572 3713 1747 
Q 3713 922 3314 415 
Q 2916 -91 2278 -91 
Q 1894 -91 1617 61 
Q 1341 213 1159 525 
L 1159 0 
L 581 0 
L 581 4863 
L 1159 4863 
L 1159 2969 
z
" transform="scale(0.015625)"/>
     </defs>
     <use xlink:href="#DejaVuSans-77"/>
     <use xlink:href="#DejaVuSans-69" x="81.787109"/>
     <use xlink:href="#DejaVuSans-74" x="109.570312"/>
     <use xlink:href="#DejaVuSans-68" x="148.779297"/>
     <use xlink:href="#DejaVuSans-69" x="212.158203"/>
     <use xlink:href="#DejaVuSans-6e" x="239.941406"/>
     <use xlink:href="#DejaVuSans-20" x="303.320312"/>
     <use xlink:href="#DejaVuSans-74" x="335.107422"/>
     <use xlink:href="#DejaVuSans-68" x="374.316406"/>
     <use xlink:href="#DejaVuSans-65" x="437.695312"/>
     <use xlink:href="#DejaVuSans-20" x="499.21875"/>
     <use xlink:href="#DejaVuSans-62" x="531.005859"/>
     <use xlink:href="#DejaVuSans-61" x="594.482422"/>
     <use xlink:href="#DejaVuSans-6e" x="655.761719"/>
     <use xlink:href="#DejaVuSans-64" x="719.140625"/>
     <use xlink:href="#DejaVuSans-3f" x="782.617188"/>
    </g>
    <!-- |ΔH| ≤ s_max·d + 2η -->
    <g style="fill: #ffffff" transform="translate(446.894375 33.58825) scale(0.14 -0.14)">
     <defs>
      <path id="DejaVuSans-7c" d="M 1344 4891 
L 1344 -1509 
L 813 -1509 
L 813 4891 
L 1344 4891 
z
" transform="scale(0.015625)"/>
      <path id="DejaVuSans-2264" d="M 4684 3175 
L 1684 2309 
L 4684 1453 
L 4684 897 
L 678 2047 
L 678 2578 
L 4684 3725 
L 4684 3175 
z
M 678 531 
L 4684 531 
L 4684 0 
L 678 0 
L 678 531 
z
" transform="scale(0.015625)"/>
      <path id="DejaVuSans-5f" d="M 3263 -1063 
L 3263 -1509 
L -63 -1509 
L -63 -1063 
L 3263 -1063 
z
" transform="scale(0.015625)"/>
      <path id="DejaVuSans-6d" d="M 3328 2828 
Q 3544 3216 3844 3400 
Q 4144 3584 4550 3584 
Q 5097 3584 5394 3201 
Q 5691 2819 5691 2113 
L 5691 0 
L 5113 0 
L 5113 2094 
Q 5113 2597 4934 2840 
Q 4756 3084 4391 3084 
Q 3944 3084 3684 2787 
Q 3425 2491 3425 1978 
L 3425 0 
L 2847 0 
L 2847 2094 
Q 2847 2600 2669 2842 
Q 2491 3084 2119 3084 
Q 1678 3084 1418 2786 
Q 1159 2488 1159 1978 
L 1159 0 
L 581 0 
L 581 3500 
L 1159 3500 
L 1159 2956 
Q 1356 3278 1631 3431 
Q 1906 3584 2284 3584 
Q 2666 3584 2933 3390 
Q 3200 3197 3328 2828 
z
" transform="scale(0.015625)"/>
      <path id="DejaVuSans-78" d="M 3513 3500 
L 2247 1797 
L 3578 0 
L 2900 0 
L 1881 1375 
L 863 0 
L 184 0 
L 1544 1831 
L 300 3500 
L 978 3500 
L 1906 2253 
L 2834 3500 
L 3513 3500 
z
" transform="scale(0.015625)"/>
      <path id="DejaVuSans-b7" d="M 684 2619 
L 1344 2619 
L 1344 1825 
L 684 1825 
L 684 2619 
z
" transform="scale(0.015625)"/>
      <path id="DejaVuSans-2b" d="M 2944 4013 
L 2944 2272 
L 4684 2272 
L 4684 1741 
L 2944 1741 
L 2944 0 
L 2419 0 
L 2419 1741 
L 678 1741 
L 678 2272 
L 2419 2272 
L 2419 4013 
L 2944 4013 
z
" transform="scale(0.015625)"/>
      <path id="DejaVuSans-3b7" d="M 3513 2113 
L 3513 -1331 
L 2938 -1331 
L 2938 2094 
Q 2938 2591 2744 2837 
Q 2550 3084 2163 3084 
Q 1697 3084 1428 2787 
Q 1159 2491 1159 1978 
L 1159 0 
L 581 0 
L 581 3500 
L 1159 3500 
L 1159 2956 
Q 1366 3272 1644 3428 
Q 1925 3584 2291 3584 
Q 2894 3584 3203 3213 
Q 3513 2838 3513 2113 
z
" transform="scale(0.015625)"/>
     </defs>
     <use xlink:href="#DejaVuSans-7c"/>
     <use xlink:href="#DejaVuSans-394" x="33.691406"/>
     <use xlink:href="#DejaVuSans-48" x="102.099609"/>
     <use xlink:href="#DejaVuSans-7c" x="177.294922"/>
     <use xlink:href="#DejaVuSans-20" x="210.986328"/>
     <use xlink:href="#DejaVuSans-2264" x="242.773438"/>
     <use xlink:href="#DejaVuSans-20" x="326.5625"/>
     <use xlink:href="#DejaVuSans-73" x="358.349609"/>
     <use xlink:href="#DejaVuSans-5f" x="410.449219"/>
     <use xlink:href="#DejaVuSans-6d" x="460.449219"/>
     <use xlink:href="#DejaVuSans-61" x="557.861328"/>
     <use xlink:href="#DejaVuSans-78" x="619.140625"/>
     <use xlink:href="#DejaVuSans-b7" x="678.320312"/>
     <use xlink:href="#DejaVuSans-64" x="710.107422"/>
     <use xlink:href="#DejaVuSans-20" x="773.583984"/>
     <use xlink:href="#DejaVuSans-2b" x="805.371094"/>
     <use xlink:href="#DejaVuSans-20" x="889.160156"/>
     <use xlink:href="#DejaVuSans-32" x="920.947266"/>
     <use xlink:href="#DejaVuSans-3b7" x="984.570312"/>
    </g>
   </g>
   <g id="PathCollection_10">
    <defs>
     <path id="ma7704a21e4" d="M 0 6.123724 
C 1.624031 6.123724 3.181764 5.47849 4.330127 4.330127 
C 5.47849 3.181764 6.123724 1.624031 6.123724 0 
C 6.123724 -1.624031 5.47849 -3.181764 4.330127 -4.330127 
C 3.181764 -5.47849 1.624031 -6.123724 0 -6.123724 
C -1.624031 -6.123724 -3.181764 -5.47849 -4.330127 -4.330127 
C -5.47849 -3.181764 -6.123724 -1.624031 -6.123724 0 
C -6.123724 1.624031 -5.47849 3.181764 -4.330127 4.330127 
C -3.181764 5.47849 -1.624031 6.123724 0 6.123724 
z
" style="stroke: #000000; stroke-width: 0.6"/>
    </defs>
    <g clip-path="url(#p978111e437)">
     <use xlink:href="#ma7704a21e4" x="508.4892" y="165.22201" style="fill: #5ae0a0; stroke: #000000; stroke-width: 0.6"/>
    </g>
   </g>
   <g id="PathCollection_11">
    <defs>
     <path id="me17eabd4d6" d="M 0 6.123724 
C 1.624031 6.123724 3.181764 5.47849 4.330127 4.330127 
C 5.47849 3.181764 6.123724 1.624031 6.123724 0 
C 6.123724 -1.624031 5.47849 -3.181764 4.330127 -4.330127 
C 3.181764 -5.47849 1.624031 -6.123724 0 -6.123724 
C -1.624031 -6.123724 -3.181764 -5.47849 -4.330127 -4.330127 
C -5.47849 -3.181764 -6.123724 -1.624031 -6.123724 0 
C -6.123724 1.624031 -5.47849 3.181764 -4.330127 4.330127 
C -3.181764 5.47849 -1.624031 6.123724 0 6.123724 
z
" style="stroke: #000000; stroke-width: 0.6"/>
    </defs>
    <g clip-path="url(#p978111e437)">
     <use xlink:href="#me17eabd4d6" x="534.951" y="69.50105" style="fill: #ff6b6b; stroke: #000000; stroke-width: 0.6"/>
    </g>
   </g>
   <g id="legend_1">
    <g id="patch_15">
     <path d="M 532.181719 333.21625 
L 659.56 333.21625 
Q 661.76 333.21625 661.76 331.01625 
L 661.76 283.678438 
Q 661.76 281.478438 659.56 281.478438 
L 532.181719 281.478438 
Q 529.981719 281.478438 529.981719 283.678438 
L 529.981719 331.01625 
Q 529.981719 333.21625 532.181719 333.21625 
L 532.181719 333.21625 
z
" style="fill: none; opacity: 0.8; stroke: #c8ccd2; stroke-linejoin: miter"/>
    </g>
    <g id="patch_16">
     <path d="M 534.381719 294.236719 
L 556.381719 294.236719 
L 556.381719 286.536719 
L 534.381719 286.536719 
z
" style="fill: #6fd3ff; fill-opacity: 0.18; stroke: #6fd3ff; stroke-opacity: 0.18; stroke-linejoin: miter"/>
    </g>
    <g id="text_20">
     <!-- support band -->
     <g style="fill: #ffffff" transform="translate(565.181719 294.236719) scale(0.11 -0.11)">
      <use xlink:href="#DejaVuSans-73"/>
      <use xlink:href="#DejaVuSans-75" x="52.099609"/>
      <use xlink:href="#DejaVuSans-70" x="115.478516"/>
      <use xlink:href="#DejaVuSans-70" x="178.955078"/>
      <use xlink:href="#DejaVuSans-6f" x="242.431641"/>
      <use xlink:href="#DejaVuSans-72" x="303.613281"/>
      <use xlink:href="#DejaVuSans-74" x="344.726562"/>
      <use xlink:href="#DejaVuSans-20" x="383.935547"/>
      <use xlink:href="#DejaVuSans-62" x="415.722656"/>
      <use xlink:href="#DejaVuSans-61" x="479.199219"/>
      <use xlink:href="#DejaVuSans-6e" x="540.478516"/>
      <use xlink:href="#DejaVuSans-64" x="603.857422"/>
     </g>
    </g>
    <g id="PathCollection_12">
     <g>
      <use xlink:href="#ma7704a21e4" x="545.381719" y="307.495156" style="fill: #5ae0a0; stroke: #000000; stroke-width: 0.6"/>
     </g>
    </g>
    <g id="text_21">
     <!-- inside → inlier -->
     <g style="fill: #ffffff" transform="translate(565.181719 310.382656) scale(0.11 -0.11)">
      <defs>
       <path id="DejaVuSans-2192" d="M 5050 2147 
L 5050 1866 
L 3822 638 
L 3447 1013 
L 4175 1741 
L 366 1741 
L 366 2272 
L 4175 2272 
L 3447 3000 
L 3822 3375 
L 5050 2147 
z
" transform="scale(0.015625)"/>
      </defs>
      <use xlink:href="#DejaVuSans-69"/>
      <use xlink:href="#DejaVuSans-6e" x="27.783203"/>
      <use xlink:href="#DejaVuSans-73" x="91.162109"/>
      <use xlink:href="#DejaVuSans-69" x="143.261719"/>
      <use xlink:href="#DejaVuSans-64" x="171.044922"/>
      <use xlink:href="#DejaVuSans-65" x="234.521484"/>
      <use xlink:href="#DejaVuSans-20" x="296.044922"/>
      <use xlink:href="#DejaVuSans-2192" x="327.832031"/>
      <use xlink:href="#DejaVuSans-20" x="411.621094"/>
      <use xlink:href="#DejaVuSans-69" x="443.408203"/>
      <use xlink:href="#DejaVuSans-6e" x="471.191406"/>
      <use xlink:href="#DejaVuSans-6c" x="534.570312"/>
      <use xlink:href="#DejaVuSans-69" x="562.353516"/>
      <use xlink:href="#DejaVuSans-65" x="590.136719"/>
      <use xlink:href="#DejaVuSans-72" x="651.660156"/>
     </g>
    </g>
    <g id="PathCollection_13">
     <g>
      <use xlink:href="#me17eabd4d6" x="545.381719" y="323.641094" style="fill: #ff6b6b; stroke: #000000; stroke-width: 0.6"/>
     </g>
    </g>
    <g id="text_22">
     <!-- outside → outlier -->
     <g style="fill: #ffffff" transform="translate(565.181719 326.528594) scale(0.11 -0.11)">
      <use xlink:href="#DejaVuSans-6f"/>
      <use xlink:href="#DejaVuSans-75" x="61.181641"/>
      <use xlink:href="#DejaVuSans-74" x="124.560547"/>
      <use xlink:href="#DejaVuSans-73" x="163.769531"/>
      <use xlink:href="#DejaVuSans-69" x="215.869141"/>
      <use xlink:href="#DejaVuSans-64" x="243.652344"/>
      <use xlink:href="#DejaVuSans-65" x="307.128906"/>
      <use xlink:href="#DejaVuSans-20" x="368.652344"/>
      <use xlink:href="#DejaVuSans-2192" x="400.439453"/>
      <use xlink:href="#DejaVuSans-20" x="484.228516"/>
      <use xlink:href="#DejaVuSans-6f" x="516.015625"/>
      <use xlink:href="#DejaVuSans-75" x="577.197266"/>
      <use xlink:href="#DejaVuSans-74" x="640.576172"/>
      <use xlink:href="#DejaVuSans-6c" x="679.785156"/>
      <use xlink:href="#DejaVuSans-69" x="707.568359"/>
      <use xlink:href="#DejaVuSans-65" x="735.351562"/>
      <use xlink:href="#DejaVuSans-72" x="796.875"/>
     </g>
    </g>
   </g>
   <g id="PathCollection_14">
    <defs>
     <path id="m06e1cd2f26" d="M 0 5.700877 
C 1.51189 5.700877 2.962061 5.100197 4.031129 4.031129 
C 5.100197 2.962061 5.700877 1.51189 5.700877 0 
C 5.700877 -1.51189 5.100197 -2.962061 4.031129 -4.031129 
C 2.962061 -5.100197 1.51189 -5.700877 0 -5.700877 
C -1.51189 -5.700877 -2.962061 -5.100197 -4.031129 -4.031129 
C -5.100197 -2.962061 -5.700877 -1.51189 -5.700877 0 
C -5.700877 1.51189 -5.100197 2.962061 -4.031129 4.031129 
C -2.962061 5.100197 -1.51189 5.700877 0 5.700877 
z
" style="stroke: #000000; stroke-width: 0.6"/>
    </defs>
    <g clip-path="url(#p978111e437)">
     <use xlink:href="#m06e1cd2f26" x="373.24" y="189.15225" style="fill: #6fd3ff; stroke: #000000; stroke-width: 0.6"/>
    </g>
   </g>
  </g>
 </g>
 <defs>
  <clipPath id="p7d44af3a5f">
   <rect x="7.2" y="42.14225" width="294.02" height="294.02"/>
  </clipPath>
  <clipPath id="p978111e437">
   <rect x="373.24" y="39.58825" width="294.02" height="299.128"/>
  </clipPath>
 </defs>
</svg>
