<?xml version="1.0" encoding="utf-8" standalone="no"?>
<!DOCTYPE svg PUBLIC "-//W3C//DTD SVG 1.1//EN"
  "http://www.w3.org/Graphics/SVG/1.1/DTD/svg11.dtd">
<svg xmlns:xlink="http://www.w3.org/1999/xlink" width="774.72pt" height="376.32pt" viewBox="0 0 774.72 376.32" xmlns="http://www.w3.org/2000/svg" version="1.1">
 <metadata>
  <rdf:RDF xmlns:dc="http://purl.org/dc/elements/1.1/" xmlns:cc="http://creativecommons.org/ns#" xmlns:rdf="http://www.w3.org/1999/02/22-rdf-syntax-ns#">
   <cc:Work>
    <dc:type rdf:resource="http://purl.org/dc/dcmitype/StillImage"/>
    <dc:date>2026-06-09T13:44:29.790764</dc:date>
    <dc:format>image/svg+xml</dc:format>
    <dc:creator>
     <cc:Agent>
      <dc:title>Matplotlib v3.8.4, https://matplotlib.org/</dc:title>
     </cc:Agent>
    </dc:creator>
   </cc:Work>
  </rdf:RDF>
 </metadata>
 <defs>
  <style type="text/css">*{stroke-linejoin: round; stroke-linecap: butt}</style>
 </defs>
 <g id="figure_1">
  <g id="patch_1">
   <path d="M 0 376.32 
L 774.72 376.32 
L 774.72 0 
L 0 0 
L 0 376.32 
z
" style="fill: none"/>
  </g>
  <g id="axes_1">
   <g id="PathCollection_1">
    <defs>
     <path id="mbe776eb1ad" d="M 0 2.54951 
C 0.676138 2.54951 1.324674 2.280877 1.802776 1.802776 
C 2.280877 1.324674 2.54951 0.676138 2.54951 0 
C 2.54951 -0.676138 2.280877 -1.324674 1.802776 -1.802776 
C 1.324674 -2.280877 0.676138 -2.54951 0 -2.54951 
C -0.676138 -2.54951 -1.324674 -2.280877 -1.802776 -1.802776 
C -2.280877 -1.324674 -2.54951 -0.676138 -2.54951 0 
C -2.54951 0.676138 -2.280877 1.324674 -1.802776 1.802776 
C -1.324674 2.280877 -0.676138 2.54951 0 2.54951 
z
" style="stroke: #c8ccd2; stroke-opacity: 0.85"/>
    </defs>
    <g clip-path="url(#p9944351ec4)">
     <use xlink:href="#mbe776eb1ad" x="89.175202" y="274.813224" style="fill: #c8ccd2; fill-opacity: 0.85; stroke: #c8ccd2; stroke-opacity: 0.85"/>
     <use xlink:href="#mbe776eb1ad" x="110.352129" y="249.895061" style="fill: #c8ccd2; fill-opacity: 0.85; stroke: #c8ccd2; stroke-opacity: 0.85"/>
     <use xlink:href="#mbe776eb1ad" x="131.529057" y="244.932645" style="fill: #c8ccd2; fill-opacity: 0.85; stroke: #c8ccd2; stroke-opacity: 0.85"/>
     <use xlink:href="#mbe776eb1ad" x="152.705984" y="230.549131" style="fill: #c8ccd2; fill-opacity: 0.85; stroke: #c8ccd2; stroke-opacity: 0.85"/>
     <use xlink:href="#mbe776eb1ad" x="173.882911" y="207.141903" style="fill: #c8ccd2; fill-opacity: 0.85; stroke: #c8ccd2; stroke-opacity: 0.85"/>
     <use xlink:href="#mbe776eb1ad" x="195.059838" y="203.304887" style="fill: #c8ccd2; fill-opacity: 0.85; stroke: #c8ccd2; stroke-opacity: 0.85"/>
     <use xlink:href="#mbe776eb1ad" x="216.236765" y="180.760268" style="fill: #c8ccd2; fill-opacity: 0.85; stroke: #c8ccd2; stroke-opacity: 0.85"/>
     <use xlink:href="#mbe776eb1ad" x="237.413693" y="177.406988" style="fill: #c8ccd2; fill-opacity: 0.85; stroke: #c8ccd2; stroke-opacity: 0.85"/>
     <use xlink:href="#mbe776eb1ad" x="258.59062" y="165.441257" style="fill: #c8ccd2; fill-opacity: 0.85; stroke: #c8ccd2; stroke-opacity: 0.85"/>
     <use xlink:href="#mbe776eb1ad" x="279.767547" y="156.307504" style="fill: #c8ccd2; fill-opacity: 0.85; stroke: #c8ccd2; stroke-opacity: 0.85"/>
     <use xlink:href="#mbe776eb1ad" x="300.944474" y="115.194137" style="fill: #c8ccd2; fill-opacity: 0.85; stroke: #c8ccd2; stroke-opacity: 0.85"/>
    </g>
   </g>
   <g id="line2d_1">
    <path d="M 89.175202 274.813224 
L 300.944474 274.813224 
" clip-path="url(#p9944351ec4)" style="fill: none; stroke-dasharray: 4.44,1.92; stroke-dashoffset: 0; stroke: #ffffff; stroke-width: 1.2"/>
   </g>
   <g id="line2d_2">
    <path d="M 300.944474 274.813224 
L 300.944474 115.194137 
" clip-path="url(#p9944351ec4)" style="fill: none; stroke-dasharray: 4.44,1.92; stroke-dashoffset: 0; stroke: #ffffff; stroke-width: 1.2"/>
   </g>
   <g id="line2d_3">
    <path d="M 89.175202 274.813224 
L 300.944474 115.194137 
" clip-path="url(#p9944351ec4)" style="fill: none; stroke: #ffb74d; stroke-width: 1.7; stroke-linecap: square"/>
   </g>
   <g id="patch_2">
    <path d="M 53.603957 292.89024 
Q 195.058119 292.89024 334.947034 292.89024 
" style="fill: none; stroke: #c8ccd2; stroke-width: 1.4; stroke-linecap: round"/>
    <path d="M 330.947034 290.89024 
L 334.947034 292.89024 
L 330.947034 294.89024 
" style="fill: none; stroke: #c8ccd2; stroke-width: 1.4; stroke-linecap: round"/>
   </g>
   <g id="patch_3">
    <path d="M 51.603235 290.887149 
Q 51.603235 185.811826 51.603235 82.301751 
" style="fill: none; stroke: #c8ccd2; stroke-width: 1.4; stroke-linecap: round"/>
    <path d="M 49.603235 86.301751 
L 51.603235 82.301751 
L 53.603235 86.301751 
" style="fill: none; stroke: #c8ccd2; stroke-width: 1.4; stroke-linecap: round"/>
   </g>
   <g id="text_1">
    <!-- horizontal distance -->
    <g style="fill: #c8ccd2" transform="translate(247.859723 311.39712) scale(0.095 -0.095)">
     <defs>
      <path id="DejaVuSans-68" d="M 3513 2113 
L 3513 0 
L 2938 0 
L 2938 2094 
Q 2938 2591 2744 2837 
Q 2550 3084 2163 3084 
Q 1697 3084 1428 2787 
Q 1159 2491 1159 1978 
L 1159 0 
L 581 0 
L 581 4863 
L 1159 4863 
L 1159 2956 
Q 1366 3272 1645 3428 
Q 1925 3584 2291 3584 
Q 2894 3584 3203 3211 
Q 3513 2838 3513 2113 
z
" transform="scale(0.015625)"/>
      <path id="DejaVuSans-6f" d="M 1959 3097 
Q 1497 3097 1228 2736 
Q 959 2375 959 1747 
Q 959 1119 1226 758 
Q 1494 397 1959 397 
Q 2419 397 2687 759 
Q 2956 1122 2956 1747 
Q 2956 2369 2687 2733 
Q 2419 3097 1959 3097 
z
M 1959 3584 
Q 2709 3584 3137 3096 
Q 3566 2609 3566 1747 
Q 3566 888 3137 398 
Q 2709 -91 1959 -91 
Q 1206 -91 779 398 
Q 353 888 353 1747 
Q 353 2609 779 3096 
Q 1206 3584 1959 3584 
z
" transform="scale(0.015625)"/>
      <path id="DejaVuSans-72" d="M 2631 2963 
Q 2534 3019 2420 3045 
Q 2306 3072 2169 3072 
Q 1681 3072 1420 2755 
Q 1159 2438 1159 1844 
L 1159 0 
L 581 0 
L 581 3500 
L 1159 3500 
L 1159 2956 
Q 1341 3275 1631 3429 
Q 1922 3584 2338 3584 
Q 2397 3584 2469 3576 
Q 2541 3569 2628 3553 
L 2631 2963 
z
" transform="scale(0.015625)"/>
      <path id="DejaVuSans-69" d="M 603 3500 
L 1178 3500 
L 1178 0 
L 603 0 
L 603 3500 
z
M 603 4863 
L 1178 4863 
L 1178 4134 
L 603 4134 
L 603 4863 
z
" transform="scale(0.015625)"/>
      <path id="DejaVuSans-7a" d="M 353 3500 
L 3084 3500 
L 3084 2975 
L 922 459 
L 3084 459 
L 3084 0 
L 275 0 
L 275 525 
L 2438 3041 
L 353 3041 
L 353 3500 
z
" transform="scale(0.015625)"/>
      <path id="DejaVuSans-6e" d="M 3513 2113 
L 3513 0 
L 2938 0 
L 2938 2094 
Q 2938 2591 2744 2837 
Q 2550 3084 2163 3084 
Q 1697 3084 1428 2787 
Q 1159 2491 1159 1978 
L 1159 0 
L 581 0 
L 581 3500 
L 1159 3500 
L 1159 2956 
Q 1366 3272 1645 3428 
Q 1925 3584 2291 3584 
Q 2894 3584 3203 3211 
Q 3513 2838 3513 2113 
z
" transform="scale(0.015625)"/>
      <path id="DejaVuSans-74" d="M 1172 4494 
L 1172 3500 
L 2356 3500 
L 2356 3053 
L 1172 3053 
L 1172 1153 
Q 1172 725 1289 603 
Q 1406 481 1766 481 
L 2356 481 
L 2356 0 
L 1766 0 
Q 1100 0 847 248 
Q 594 497 594 1153 
L 594 3053 
L 172 3053 
L 172 3500 
L 594 3500 
L 594 4494 
L 1172 4494 
z
" transform="scale(0.015625)"/>
      <path id="DejaVuSans-61" d="M 2194 1759 
Q 1497 1759 1228 1600 
Q 959 1441 959 1056 
Q 959 750 1161 570 
Q 1363 391 1709 391 
Q 2188 391 2477 730 
Q 2766 1069 2766 1631 
L 2766 1759 
L 2194 1759 
z
M 3341 1997 
L 3341 0 
L 2766 0 
L 2766 531 
Q 2569 213 2275 61 
Q 1981 -91 1556 -91 
Q 1019 -91 701 211 
Q 384 513 384 1019 
Q 384 1609 779 1909 
Q 1175 2209 1959 2209 
L 2766 2209 
L 2766 2266 
Q 2766 2663 2505 2880 
Q 2244 3097 1772 3097 
Q 1472 3097 1187 3025 
Q 903 2953 641 2809 
L 641 3341 
Q 956 3463 1253 3523 
Q 1550 3584 1831 3584 
Q 2591 3584 2966 3190 
Q 3341 2797 3341 1997 
z
" transform="scale(0.015625)"/>
      <path id="DejaVuSans-6c" d="M 603 4863 
L 1178 4863 
L 1178 0 
L 603 0 
L 603 4863 
z
" transform="scale(0.015625)"/>
      <path id="DejaVuSans-20" transform="scale(0.015625)"/>
      <path id="DejaVuSans-64" d="M 2906 2969 
L 2906 4863 
L 3481 4863 
L 3481 0 
L 2906 0 
L 2906 525 
Q 2725 213 2448 61 
Q 2172 -91 1784 -91 
Q 1150 -91 751 415 
Q 353 922 353 1747 
Q 353 2572 751 3078 
Q 1150 3584 1784 3584 
Q 2172 3584 2448 3432 
Q 2725 3281 2906 2969 
z
M 947 1747 
Q 947 1113 1208 752 
Q 1469 391 1925 391 
Q 2381 391 2643 752 
Q 2906 1113 2906 1747 
Q 2906 2381 2643 2742 
Q 2381 3103 1925 3103 
Q 1469 3103 1208 2742 
Q 947 2381 947 1747 
z
" transform="scale(0.015625)"/>
      <path id="DejaVuSans-73" d="M 2834 3397 
L 2834 2853 
Q 2591 2978 2328 3040 
Q 2066 3103 1784 3103 
Q 1356 3103 1142 2972 
Q 928 2841 928 2578 
Q 928 2378 1081 2264 
Q 1234 2150 1697 2047 
L 1894 2003 
Q 2506 1872 2764 1633 
Q 3022 1394 3022 966 
Q 3022 478 2636 193 
Q 2250 -91 1575 -91 
Q 1294 -91 989 -36 
Q 684 19 347 128 
L 347 722 
Q 666 556 975 473 
Q 1284 391 1588 391 
Q 1994 391 2212 530 
Q 2431 669 2431 922 
Q 2431 1156 2273 1281 
Q 2116 1406 1581 1522 
L 1381 1569 
Q 847 1681 609 1914 
Q 372 2147 372 2553 
Q 372 3047 722 3315 
Q 1072 3584 1716 3584 
Q 2034 3584 2315 3537 
Q 2597 3491 2834 3397 
z
" transform="scale(0.015625)"/>
      <path id="DejaVuSans-63" d="M 3122 3366 
L 3122 2828 
Q 2878 2963 2633 3030 
Q 2388 3097 2138 3097 
Q 1578 3097 1268 2742 
Q 959 2388 959 1747 
Q 959 1106 1268 751 
Q 1578 397 2138 397 
Q 2388 397 2633 464 
Q 2878 531 3122 666 
L 3122 134 
Q 2881 22 2623 -34 
Q 2366 -91 2075 -91 
Q 1284 -91 818 406 
Q 353 903 353 1747 
Q 353 2603 823 3093 
Q 1294 3584 2113 3584 
Q 2378 3584 2631 3529 
Q 2884 3475 3122 3366 
z
" transform="scale(0.015625)"/>
      <path id="DejaVuSans-65" d="M 3597 1894 
L 3597 1613 
L 953 1613 
Q 991 1019 1311 708 
Q 1631 397 2203 397 
Q 2534 397 2845 478 
Q 3156 559 3463 722 
L 3463 178 
Q 3153 47 2828 -22 
Q 2503 -91 2169 -91 
Q 1331 -91 842 396 
Q 353 884 353 1716 
Q 353 2575 817 3079 
Q 1281 3584 2069 3584 
Q 2775 3584 3186 3129 
Q 3597 2675 3597 1894 
z
M 3022 2063 
Q 3016 2534 2758 2815 
Q 2500 3097 2075 3097 
Q 1594 3097 1305 2825 
Q 1016 2553 972 2059 
L 3022 2063 
z
" transform="scale(0.015625)"/>
     </defs>
     <use xlink:href="#DejaVuSans-68"/>
     <use xlink:href="#DejaVuSans-6f" x="63.378906"/>
     <use xlink:href="#DejaVuSans-72" x="124.560547"/>
     <use xlink:href="#DejaVuSans-69" x="165.673828"/>
     <use xlink:href="#DejaVuSans-7a" x="193.457031"/>
     <use xlink:href="#DejaVuSans-6f" x="245.947266"/>
     <use xlink:href="#DejaVuSans-6e" x="307.128906"/>
     <use xlink:href="#DejaVuSans-74" x="370.507812"/>
     <use xlink:href="#DejaVuSans-61" x="409.716797"/>
     <use xlink:href="#DejaVuSans-6c" x="470.996094"/>
     <use xlink:href="#DejaVuSans-20" x="498.779297"/>
     <use xlink:href="#DejaVuSans-64" x="530.566406"/>
     <use xlink:href="#DejaVuSans-69" x="594.042969"/>
     <use xlink:href="#DejaVuSans-73" x="621.826172"/>
     <use xlink:href="#DejaVuSans-74" x="673.925781"/>
     <use xlink:href="#DejaVuSans-61" x="713.134766"/>
     <use xlink:href="#DejaVuSans-6e" x="774.414062"/>
     <use xlink:href="#DejaVuSans-63" x="837.792969"/>
     <use xlink:href="#DejaVuSans-65" x="892.773438"/>
    </g>
   </g>
   <g id="text_2">
    <!-- ice depth -->
    <g style="fill: #c8ccd2" transform="translate(37.284442 207.850612) rotate(-90) scale(0.1 -0.1)">
     <defs>
      <path id="DejaVuSans-70" d="M 1159 525 
L 1159 -1331 
L 581 -1331 
L 581 3500 
L 1159 3500 
L 1159 2969 
Q 1341 3281 1617 3432 
Q 1894 3584 2278 3584 
Q 2916 3584 3314 3078 
Q 3713 2572 3713 1747 
Q 3713 922 3314 415 
Q 2916 -91 2278 -91 
Q 1894 -91 1617 61 
Q 1341 213 1159 525 
z
M 3116 1747 
Q 3116 2381 2855 2742 
Q 2594 3103 2138 3103 
Q 1681 3103 1420 2742 
Q 1159 2381 1159 1747 
Q 1159 1113 1420 752 
Q 1681 391 2138 391 
Q 2594 391 2855 752 
Q 3116 1113 3116 1747 
z
" transform="scale(0.015625)"/>
     </defs>
     <use xlink:href="#DejaVuSans-69"/>
     <use xlink:href="#DejaVuSans-63" x="27.783203"/>
     <use xlink:href="#DejaVuSans-65" x="82.763672"/>
     <use xlink:href="#DejaVuSans-20" x="144.287109"/>
     <use xlink:href="#DejaVuSans-64" x="176.074219"/>
     <use xlink:href="#DejaVuSans-65" x="239.550781"/>
     <use xlink:href="#DejaVuSans-70" x="301.074219"/>
     <use xlink:href="#DejaVuSans-74" x="364.550781"/>
     <use xlink:href="#DejaVuSans-68" x="403.759766"/>
    </g>
   </g>
   <g id="text_3">
    <!-- $P_{min}$ -->
    <g style="fill: #ffb74d" transform="translate(71.563935 295.963944) scale(0.11 -0.11)">
     <defs>
      <path id="DejaVuSans-Oblique-50" d="M 1081 4666 
L 2541 4666 
Q 3178 4666 3512 4369 
Q 3847 4072 3847 3500 
Q 3847 2731 3353 2303 
Q 2859 1875 1966 1875 
L 1172 1875 
L 806 0 
L 172 0 
L 1081 4666 
z
M 1613 4147 
L 1275 2394 
L 2069 2394 
Q 2606 2394 2893 2669 
Q 3181 2944 3181 3456 
Q 3181 3784 2986 3965 
Q 2791 4147 2438 4147 
L 1613 4147 
z
" transform="scale(0.015625)"/>
      <path id="DejaVuSans-Oblique-6d" d="M 5747 2113 
L 5338 0 
L 4763 0 
L 5166 2094 
Q 5191 2228 5203 2325 
Q 5216 2422 5216 2491 
Q 5216 2772 5059 2928 
Q 4903 3084 4622 3084 
Q 4203 3084 3875 2770 
Q 3547 2456 3450 1953 
L 3066 0 
L 2491 0 
L 2900 2094 
Q 2925 2209 2937 2307 
Q 2950 2406 2950 2484 
Q 2950 2769 2794 2926 
Q 2638 3084 2363 3084 
Q 1938 3084 1609 2770 
Q 1281 2456 1184 1953 
L 800 0 
L 225 0 
L 909 3500 
L 1484 3500 
L 1375 2956 
Q 1609 3263 1923 3423 
Q 2238 3584 2597 3584 
Q 2978 3584 3223 3384 
Q 3469 3184 3519 2828 
Q 3781 3197 4126 3390 
Q 4472 3584 4856 3584 
Q 5306 3584 5551 3325 
Q 5797 3066 5797 2591 
Q 5797 2488 5784 2364 
Q 5772 2241 5747 2113 
z
" transform="scale(0.015625)"/>
      <path id="DejaVuSans-Oblique-69" d="M 1172 4863 
L 1747 4863 
L 1606 4134 
L 1031 4134 
L 1172 4863 
z
M 909 3500 
L 1484 3500 
L 800 0 
L 225 0 
L 909 3500 
z
" transform="scale(0.015625)"/>
      <path id="DejaVuSans-Oblique-6e" d="M 3566 2113 
L 3156 0 
L 2578 0 
L 2988 2091 
Q 3016 2238 3031 2350 
Q 3047 2463 3047 2528 
Q 3047 2791 2881 2937 
Q 2716 3084 2419 3084 
Q 1956 3084 1622 2776 
Q 1288 2469 1184 1941 
L 800 0 
L 225 0 
L 903 3500 
L 1478 3500 
L 1363 2950 
Q 1603 3253 1940 3418 
Q 2278 3584 2650 3584 
Q 3113 3584 3367 3334 
Q 3622 3084 3622 2631 
Q 3622 2519 3608 2391 
Q 3594 2263 3566 2113 
z
" transform="scale(0.015625)"/>
     </defs>
     <use xlink:href="#DejaVuSans-Oblique-50" transform="translate(0 0.09375)"/>
     <use xlink:href="#DejaVuSans-Oblique-6d" transform="translate(60.302734 -16.3125) scale(0.7)"/>
     <use xlink:href="#DejaVuSans-Oblique-69" transform="translate(128.491211 -16.3125) scale(0.7)"/>
     <use xlink:href="#DejaVuSans-Oblique-6e" transform="translate(147.939453 -16.3125) scale(0.7)"/>
    </g>
   </g>
   <g id="text_4">
    <!-- $P_{max}$ -->
    <g style="fill: #ffb74d" transform="translate(289.064474 101.974937) scale(0.11 -0.11)">
     <defs>
      <path id="DejaVuSans-Oblique-61" d="M 3438 1997 
L 3047 0 
L 2472 0 
L 2578 531 
Q 2325 219 2001 64 
Q 1678 -91 1281 -91 
Q 834 -91 548 182 
Q 263 456 263 884 
Q 263 1497 752 1853 
Q 1241 2209 2100 2209 
L 2900 2209 
L 2931 2363 
Q 2938 2388 2941 2417 
Q 2944 2447 2944 2509 
Q 2944 2788 2717 2942 
Q 2491 3097 2081 3097 
Q 1800 3097 1504 3025 
Q 1209 2953 897 2809 
L 997 3341 
Q 1322 3463 1633 3523 
Q 1944 3584 2234 3584 
Q 2853 3584 3176 3315 
Q 3500 3047 3500 2534 
Q 3500 2431 3484 2292 
Q 3469 2153 3438 1997 
z
M 2816 1759 
L 2241 1759 
Q 1534 1759 1195 1570 
Q 856 1381 856 984 
Q 856 709 1029 553 
Q 1203 397 1509 397 
Q 1978 397 2328 733 
Q 2678 1069 2791 1631 
L 2816 1759 
z
" transform="scale(0.015625)"/>
      <path id="DejaVuSans-Oblique-78" d="M 3841 3500 
L 2234 1784 
L 3219 0 
L 2559 0 
L 1819 1388 
L 531 0 
L -166 0 
L 1556 1844 
L 641 3500 
L 1300 3500 
L 1972 2234 
L 3144 3500 
L 3841 3500 
z
" transform="scale(0.015625)"/>
     </defs>
     <use xlink:href="#DejaVuSans-Oblique-50" transform="translate(0 0.09375)"/>
     <use xlink:href="#DejaVuSans-Oblique-6d" transform="translate(60.302734 -16.3125) scale(0.7)"/>
     <use xlink:href="#DejaVuSans-Oblique-61" transform="translate(128.491211 -16.3125) scale(0.7)"/>
     <use xlink:href="#DejaVuSans-Oblique-78" transform="translate(171.386719 -16.3125) scale(0.7)"/>
    </g>
   </g>
   <g id="text_5">
    <!-- $d_{max}$ -->
    <g style="fill: #ffffff" transform="translate(183.014838 265.915967) scale(0.11 -0.11)">
     <defs>
      <path id="DejaVuSans-Oblique-64" d="M 2675 525 
Q 2444 222 2128 65 
Q 1813 -91 1428 -91 
Q 903 -91 598 267 
Q 294 625 294 1247 
Q 294 1766 478 2236 
Q 663 2706 1013 3078 
Q 1244 3325 1534 3454 
Q 1825 3584 2144 3584 
Q 2481 3584 2739 3421 
Q 2997 3259 3138 2956 
L 3513 4863 
L 4091 4863 
L 3144 0 
L 2566 0 
L 2675 525 
z
M 891 1350 
Q 891 897 1095 644 
Q 1300 391 1663 391 
Q 1931 391 2161 520 
Q 2391 650 2566 903 
Q 2750 1166 2856 1509 
Q 2963 1853 2963 2188 
Q 2963 2622 2758 2865 
Q 2553 3109 2194 3109 
Q 1922 3109 1687 2981 
Q 1453 2853 1288 2613 
Q 1106 2353 998 2009 
Q 891 1666 891 1350 
z
" transform="scale(0.015625)"/>
     </defs>
     <use xlink:href="#DejaVuSans-Oblique-64" transform="translate(0 0.015625)"/>
     <use xlink:href="#DejaVuSans-Oblique-6d" transform="translate(63.476562 -16.390625) scale(0.7)"/>
     <use xlink:href="#DejaVuSans-Oblique-61" transform="translate(131.665039 -16.390625) scale(0.7)"/>
     <use xlink:href="#DejaVuSans-Oblique-78" transform="translate(174.560547 -16.390625) scale(0.7)"/>
    </g>
   </g>
   <g id="text_6">
    <!-- $h_{max}$ -->
    <g style="fill: #ffffff" transform="translate(312.899191 198.038993) scale(0.11 -0.11)">
     <defs>
      <path id="DejaVuSans-Oblique-68" d="M 3566 2113 
L 3156 0 
L 2578 0 
L 2988 2091 
Q 3016 2238 3031 2350 
Q 3047 2463 3047 2528 
Q 3047 2791 2881 2937 
Q 2716 3084 2419 3084 
Q 1956 3084 1617 2771 
Q 1278 2459 1178 1941 
L 800 0 
L 225 0 
L 1172 4863 
L 1747 4863 
L 1375 2950 
Q 1594 3244 1934 3414 
Q 2275 3584 2650 3584 
Q 3113 3584 3367 3334 
Q 3622 3084 3622 2631 
Q 3622 2519 3608 2391 
Q 3594 2263 3566 2113 
z
" transform="scale(0.015625)"/>
     </defs>
     <use xlink:href="#DejaVuSans-Oblique-68" transform="translate(0 0.015625)"/>
     <use xlink:href="#DejaVuSans-Oblique-6d" transform="translate(63.378906 -16.390625) scale(0.7)"/>
     <use xlink:href="#DejaVuSans-Oblique-61" transform="translate(131.567383 -16.390625) scale(0.7)"/>
     <use xlink:href="#DejaVuSans-Oblique-78" transform="translate(174.462891 -16.390625) scale(0.7)"/>
    </g>
   </g>
   <g id="text_7">
    <!-- 1 · the support's steepest slope -->
    <g style="fill: #6fd3ff" transform="translate(79.313702 45.522734) scale(0.125 -0.125)">
     <defs>
      <path id="DejaVuSans-31" d="M 794 531 
L 1825 531 
L 1825 4091 
L 703 3866 
L 703 4441 
L 1819 4666 
L 2450 4666 
L 2450 531 
L 3481 531 
L 3481 0 
L 794 0 
L 794 531 
z
" transform="scale(0.015625)"/>
      <path id="DejaVuSans-b7" d="M 684 2619 
L 1344 2619 
L 1344 1825 
L 684 1825 
L 684 2619 
z
" transform="scale(0.015625)"/>
      <path id="DejaVuSans-75" d="M 544 1381 
L 544 3500 
L 1119 3500 
L 1119 1403 
Q 1119 906 1312 657 
Q 1506 409 1894 409 
Q 2359 409 2629 706 
Q 2900 1003 2900 1516 
L 2900 3500 
L 3475 3500 
L 3475 0 
L 2900 0 
L 2900 538 
Q 2691 219 2414 64 
Q 2138 -91 1772 -91 
Q 1169 -91 856 284 
Q 544 659 544 1381 
z
M 1991 3584 
L 1991 3584 
z
" transform="scale(0.015625)"/>
      <path id="DejaVuSans-27" d="M 1147 4666 
L 1147 2931 
L 616 2931 
L 616 4666 
L 1147 4666 
z
" transform="scale(0.015625)"/>
     </defs>
     <use xlink:href="#DejaVuSans-31"/>
     <use xlink:href="#DejaVuSans-20" x="63.623047"/>
     <use xlink:href="#DejaVuSans-b7" x="95.410156"/>
     <use xlink:href="#DejaVuSans-20" x="127.197266"/>
     <use xlink:href="#DejaVuSans-74" x="158.984375"/>
     <use xlink:href="#DejaVuSans-68" x="198.193359"/>
     <use xlink:href="#DejaVuSans-65" x="261.572266"/>
     <use xlink:href="#DejaVuSans-20" x="323.095703"/>
     <use xlink:href="#DejaVuSans-73" x="354.882812"/>
     <use xlink:href="#DejaVuSans-75" x="406.982422"/>
     <use xlink:href="#DejaVuSans-70" x="470.361328"/>
     <use xlink:href="#DejaVuSans-70" x="533.837891"/>
     <use xlink:href="#DejaVuSans-6f" x="597.314453"/>
     <use xlink:href="#DejaVuSans-72" x="658.496094"/>
     <use xlink:href="#DejaVuSans-74" x="699.609375"/>
     <use xlink:href="#DejaVuSans-27" x="738.818359"/>
     <use xlink:href="#DejaVuSans-73" x="766.308594"/>
     <use xlink:href="#DejaVuSans-20" x="818.408203"/>
     <use xlink:href="#DejaVuSans-73" x="850.195312"/>
     <use xlink:href="#DejaVuSans-74" x="902.294922"/>
     <use xlink:href="#DejaVuSans-65" x="941.503906"/>
     <use xlink:href="#DejaVuSans-65" x="1003.027344"/>
     <use xlink:href="#DejaVuSans-70" x="1064.550781"/>
     <use xlink:href="#DejaVuSans-65" x="1128.027344"/>
     <use xlink:href="#DejaVuSans-73" x="1189.550781"/>
     <use xlink:href="#DejaVuSans-74" x="1241.650391"/>
     <use xlink:href="#DejaVuSans-20" x="1280.859375"/>
     <use xlink:href="#DejaVuSans-73" x="1312.646484"/>
     <use xlink:href="#DejaVuSans-6c" x="1364.746094"/>
     <use xlink:href="#DejaVuSans-6f" x="1392.529297"/>
     <use xlink:href="#DejaVuSans-70" x="1453.710938"/>
     <use xlink:href="#DejaVuSans-65" x="1517.1875"/>
    </g>
    <!-- $s_{max}=2\,h_{max}/d_{max}$ -->
    <g style="fill: #6fd3ff" transform="translate(122.919171 59.52) scale(0.125 -0.125)">
     <defs>
      <path id="DejaVuSans-Oblique-73" d="M 3200 3397 
L 3091 2853 
Q 2863 2978 2609 3040 
Q 2356 3103 2088 3103 
Q 1634 3103 1373 2948 
Q 1113 2794 1113 2528 
Q 1113 2219 1719 2053 
Q 1766 2041 1788 2034 
L 1972 1978 
Q 2547 1819 2739 1644 
Q 2931 1469 2931 1166 
Q 2931 609 2489 259 
Q 2047 -91 1331 -91 
Q 1053 -91 747 -37 
Q 441 16 72 128 
L 184 722 
Q 500 559 806 475 
Q 1113 391 1394 391 
Q 1816 391 2080 572 
Q 2344 753 2344 1031 
Q 2344 1331 1650 1516 
L 1591 1531 
L 1394 1581 
Q 956 1697 753 1886 
Q 550 2075 550 2369 
Q 550 2928 970 3256 
Q 1391 3584 2113 3584 
Q 2397 3584 2667 3537 
Q 2938 3491 3200 3397 
z
" transform="scale(0.015625)"/>
      <path id="DejaVuSans-3d" d="M 678 2906 
L 4684 2906 
L 4684 2381 
L 678 2381 
L 678 2906 
z
M 678 1631 
L 4684 1631 
L 4684 1100 
L 678 1100 
L 678 1631 
z
" transform="scale(0.015625)"/>
      <path id="DejaVuSans-32" d="M 1228 531 
L 3431 531 
L 3431 0 
L 469 0 
L 469 531 
Q 828 903 1448 1529 
Q 2069 2156 2228 2338 
Q 2531 2678 2651 2914 
Q 2772 3150 2772 3378 
Q 2772 3750 2511 3984 
Q 2250 4219 1831 4219 
Q 1534 4219 1204 4116 
Q 875 4013 500 3803 
L 500 4441 
Q 881 4594 1212 4672 
Q 1544 4750 1819 4750 
Q 2544 4750 2975 4387 
Q 3406 4025 3406 3419 
Q 3406 3131 3298 2873 
Q 3191 2616 2906 2266 
Q 2828 2175 2409 1742 
Q 1991 1309 1228 531 
z
" transform="scale(0.015625)"/>
      <path id="DejaVuSans-2f" d="M 1625 4666 
L 2156 4666 
L 531 -594 
L 0 -594 
L 1625 4666 
z
" transform="scale(0.015625)"/>
     </defs>
     <use xlink:href="#DejaVuSans-Oblique-73" transform="translate(0 0.015625)"/>
     <use xlink:href="#DejaVuSans-Oblique-6d" transform="translate(52.099609 -16.390625) scale(0.7)"/>
     <use xlink:href="#DejaVuSans-Oblique-61" transform="translate(120.288086 -16.390625) scale(0.7)"/>
     <use xlink:href="#DejaVuSans-Oblique-78" transform="translate(163.183594 -16.390625) scale(0.7)"/>
     <use xlink:href="#DejaVuSans-3d" transform="translate(226.826172 0.015625)"/>
     <use xlink:href="#DejaVuSans-32" transform="translate(330.097656 0.015625)"/>
     <use xlink:href="#DejaVuSans-Oblique-68" transform="translate(409.956379 0.015625)"/>
     <use xlink:href="#DejaVuSans-Oblique-6d" transform="translate(473.335286 -16.390625) scale(0.7)"/>
     <use xlink:href="#DejaVuSans-Oblique-61" transform="translate(541.523762 -16.390625) scale(0.7)"/>
     <use xlink:href="#DejaVuSans-Oblique-78" transform="translate(584.41927 -16.390625) scale(0.7)"/>
     <use xlink:href="#DejaVuSans-2f" transform="translate(628.579426 0.015625)"/>
     <use xlink:href="#DejaVuSans-Oblique-64" transform="translate(662.270833 0.015625)"/>
     <use xlink:href="#DejaVuSans-Oblique-6d" transform="translate(725.747395 -16.390625) scale(0.7)"/>
     <use xlink:href="#DejaVuSans-Oblique-61" transform="translate(793.935872 -16.390625) scale(0.7)"/>
     <use xlink:href="#DejaVuSans-Oblique-78" transform="translate(836.831379 -16.390625) scale(0.7)"/>
    </g>
   </g>
   <g id="PathCollection_2">
    <defs>
     <path id="m7988f7ef79" d="M 0 4.609772 
C 1.222526 4.609772 2.395145 4.124058 3.259601 3.259601 
C 4.124058 2.395145 4.609772 1.222526 4.609772 0 
C 4.609772 -1.222526 4.124058 -2.395145 3.259601 -3.259601 
C 2.395145 -4.124058 1.222526 -4.609772 0 -4.609772 
C -1.222526 -4.609772 -2.395145 -4.124058 -3.259601 -3.259601 
C -4.124058 -2.395145 -4.609772 -1.222526 -4.609772 0 
C -4.609772 1.222526 -4.124058 2.395145 -3.259601 3.259601 
C -2.395145 4.124058 -1.222526 4.609772 0 4.609772 
z
" style="stroke: #000000"/>
    </defs>
    <g clip-path="url(#p9944351ec4)">
     <use xlink:href="#m7988f7ef79" x="89.175202" y="274.813224" style="fill: #ffb74d; stroke: #000000"/>
     <use xlink:href="#m7988f7ef79" x="300.944474" y="115.194137" style="fill: #ffb74d; stroke: #000000"/>
    </g>
   </g>
  </g>
  <g id="axes_2">
   <g id="patch_4">
    <path d="M 434.700679 247.94496 
L 748.392453 107.82144 
L 748.392453 292.89024 
L 434.700679 292.89024 
z
" clip-path="url(#p7549248ada)" style="fill: #6fd3ff; opacity: 0.16; stroke: #6fd3ff; stroke-linejoin: miter"/>
   </g>
   <g id="line2d_4">
    <path d="M 434.700679 292.89024 
L 499.73434 259.592365 
" clip-path="url(#p7549248ada)" style="fill: none; stroke-dasharray: 0.9,1.485; stroke-dashoffset: 0; stroke: #c8ccd2; stroke-width: 0.9"/>
   </g>
   <g id="line2d_5">
    <path d="M 434.700679 292.89024 
L 557.116981 166.824211 
" clip-path="url(#p7549248ada)" style="fill: none; stroke-dasharray: 0.9,1.485; stroke-dashoffset: 0; stroke: #c8ccd2; stroke-width: 0.9"/>
   </g>
   <g id="line2d_6">
    <path d="M 434.700679 292.89024 
L 645.103698 230.371484 
" clip-path="url(#p7549248ada)" style="fill: none; stroke-dasharray: 0.9,1.485; stroke-dashoffset: 0; stroke: #c8ccd2; stroke-width: 0.9"/>
   </g>
   <g id="line2d_7">
    <path d="M 434.700679 292.89024 
L 710.137358 217.298985 
" clip-path="url(#p7549248ada)" style="fill: none; stroke-dasharray: 0.9,1.485; stroke-dashoffset: 0; stroke: #c8ccd2; stroke-width: 0.9"/>
   </g>
   <g id="patch_5">
    <path d="M 436.696323 292.89024 
Q 595.368527 292.89024 752.475482 292.89024 
" style="fill: none; stroke: #c8ccd2; stroke-width: 1.4; stroke-linecap: round"/>
    <path d="M 748.475482 290.89024 
L 752.475482 292.89024 
L 748.475482 294.89024 
" style="fill: none; stroke: #c8ccd2; stroke-width: 1.4; stroke-linecap: round"/>
   </g>
   <g id="patch_6">
    <path d="M 434.700679 290.887149 
Q 434.700679 185.811826 434.700679 82.301751 
" style="fill: none; stroke: #c8ccd2; stroke-width: 1.4; stroke-linecap: round"/>
    <path d="M 432.700679 86.301751 
L 434.700679 82.301751 
L 436.700679 86.301751 
" style="fill: none; stroke: #c8ccd2; stroke-width: 1.4; stroke-linecap: round"/>
   </g>
   <g id="text_8">
    <!-- $d$   (distance to neighbour) -->
    <g style="fill: #c8ccd2" transform="translate(629.313472 311.39712) scale(0.095 -0.095)">
     <defs>
      <path id="DejaVuSans-28" d="M 1984 4856 
Q 1566 4138 1362 3434 
Q 1159 2731 1159 2009 
Q 1159 1288 1364 580 
Q 1569 -128 1984 -844 
L 1484 -844 
Q 1016 -109 783 600 
Q 550 1309 550 2009 
Q 550 2706 781 3412 
Q 1013 4119 1484 4856 
L 1984 4856 
z
" transform="scale(0.015625)"/>
      <path id="DejaVuSans-67" d="M 2906 1791 
Q 2906 2416 2648 2759 
Q 2391 3103 1925 3103 
Q 1463 3103 1205 2759 
Q 947 2416 947 1791 
Q 947 1169 1205 825 
Q 1463 481 1925 481 
Q 2391 481 2648 825 
Q 2906 1169 2906 1791 
z
M 3481 434 
Q 3481 -459 3084 -895 
Q 2688 -1331 1869 -1331 
Q 1566 -1331 1297 -1286 
Q 1028 -1241 775 -1147 
L 775 -588 
Q 1028 -725 1275 -790 
Q 1522 -856 1778 -856 
Q 2344 -856 2625 -561 
Q 2906 -266 2906 331 
L 2906 616 
Q 2728 306 2450 153 
Q 2172 0 1784 0 
Q 1141 0 747 490 
Q 353 981 353 1791 
Q 353 2603 747 3093 
Q 1141 3584 1784 3584 
Q 2172 3584 2450 3431 
Q 2728 3278 2906 2969 
L 2906 3500 
L 3481 3500 
L 3481 434 
z
" transform="scale(0.015625)"/>
      <path id="DejaVuSans-62" d="M 3116 1747 
Q 3116 2381 2855 2742 
Q 2594 3103 2138 3103 
Q 1681 3103 1420 2742 
Q 1159 2381 1159 1747 
Q 1159 1113 1420 752 
Q 1681 391 2138 391 
Q 2594 391 2855 752 
Q 3116 1113 3116 1747 
z
M 1159 2969 
Q 1341 3281 1617 3432 
Q 1894 3584 2278 3584 
Q 2916 3584 3314 3078 
Q 3713 2572 3713 1747 
Q 3713 922 3314 415 
Q 2916 -91 2278 -91 
Q 1894 -91 1617 61 
Q 1341 213 1159 525 
L 1159 0 
L 581 0 
L 581 4863 
L 1159 4863 
L 1159 2969 
z
" transform="scale(0.015625)"/>
      <path id="DejaVuSans-29" d="M 513 4856 
L 1013 4856 
Q 1481 4119 1714 3412 
Q 1947 2706 1947 2009 
Q 1947 1309 1714 600 
Q 1481 -109 1013 -844 
L 513 -844 
Q 928 -128 1133 580 
Q 1338 1288 1338 2009 
Q 1338 2731 1133 3434 
Q 928 4138 513 4856 
z
" transform="scale(0.015625)"/>
     </defs>
     <use xlink:href="#DejaVuSans-Oblique-64" transform="translate(0 0.015625)"/>
     <use xlink:href="#DejaVuSans-20" transform="translate(63.476562 0.015625)"/>
     <use xlink:href="#DejaVuSans-20" transform="translate(95.263672 0.015625)"/>
     <use xlink:href="#DejaVuSans-20" transform="translate(127.050781 0.015625)"/>
     <use xlink:href="#DejaVuSans-28" transform="translate(158.837891 0.015625)"/>
     <use xlink:href="#DejaVuSans-64" transform="translate(197.851562 0.015625)"/>
     <use xlink:href="#DejaVuSans-69" transform="translate(261.328125 0.015625)"/>
     <use xlink:href="#DejaVuSans-73" transform="translate(289.111328 0.015625)"/>
     <use xlink:href="#DejaVuSans-74" transform="translate(341.210938 0.015625)"/>
     <use xlink:href="#DejaVuSans-61" transform="translate(380.419922 0.015625)"/>
     <use xlink:href="#DejaVuSans-6e" transform="translate(441.699219 0.015625)"/>
     <use xlink:href="#DejaVuSans-63" transform="translate(505.078125 0.015625)"/>
     <use xlink:href="#DejaVuSans-65" transform="translate(560.058594 0.015625)"/>
     <use xlink:href="#DejaVuSans-20" transform="translate(621.582031 0.015625)"/>
     <use xlink:href="#DejaVuSans-74" transform="translate(653.369141 0.015625)"/>
     <use xlink:href="#DejaVuSans-6f" transform="translate(692.578125 0.015625)"/>
     <use xlink:href="#DejaVuSans-20" transform="translate(753.759766 0.015625)"/>
     <use xlink:href="#DejaVuSans-6e" transform="translate(785.546875 0.015625)"/>
     <use xlink:href="#DejaVuSans-65" transform="translate(848.925781 0.015625)"/>
     <use xlink:href="#DejaVuSans-69" transform="translate(910.449219 0.015625)"/>
     <use xlink:href="#DejaVuSans-67" transform="translate(938.232422 0.015625)"/>
     <use xlink:href="#DejaVuSans-68" transform="translate(1001.708984 0.015625)"/>
     <use xlink:href="#DejaVuSans-62" transform="translate(1065.087891 0.015625)"/>
     <use xlink:href="#DejaVuSans-6f" transform="translate(1128.564453 0.015625)"/>
     <use xlink:href="#DejaVuSans-75" transform="translate(1189.746094 0.015625)"/>
     <use xlink:href="#DejaVuSans-72" transform="translate(1253.125 0.015625)"/>
     <use xlink:href="#DejaVuSans-29" transform="translate(1294.238281 0.015625)"/>
    </g>
   </g>
   <g id="text_9">
    <!-- $|\Delta H|$ -->
    <g style="fill: #c8ccd2" transform="translate(418.223132 195.0428) rotate(-90) scale(0.1 -0.1)">
     <defs>
      <path id="DejaVuSans-7c" d="M 1344 4891 
L 1344 -1509 
L 813 -1509 
L 813 4891 
L 1344 4891 
z
" transform="scale(0.015625)"/>
      <path id="DejaVuSans-394" d="M 2188 4044 
L 906 525 
L 3472 525 
L 2188 4044 
z
M 50 0 
L 1831 4666 
L 2547 4666 
L 4325 0 
L 50 0 
z
" transform="scale(0.015625)"/>
      <path id="DejaVuSans-Oblique-48" d="M 1081 4666 
L 1716 4666 
L 1344 2753 
L 3634 2753 
L 4006 4666 
L 4641 4666 
L 3731 0 
L 3097 0 
L 3531 2222 
L 1241 2222 
L 806 0 
L 172 0 
L 1081 4666 
z
" transform="scale(0.015625)"/>
     </defs>
     <use xlink:href="#DejaVuSans-7c" transform="translate(0 0.578125)"/>
     <use xlink:href="#DejaVuSans-394" transform="translate(33.691406 0.578125)"/>
     <use xlink:href="#DejaVuSans-Oblique-48" transform="translate(102.099609 0.578125)"/>
     <use xlink:href="#DejaVuSans-7c" transform="translate(177.294922 0.578125)"/>
    </g>
   </g>
   <g id="line2d_8">
    <path d="M 434.700679 247.94496 
L 748.392453 107.82144 
" clip-path="url(#p7549248ada)" style="fill: none; stroke: #6fd3ff; stroke-width: 1.9; stroke-linecap: square"/>
   </g>
   <g id="patch_7">
    <path d="M 434.700679 289.772382 
Q 434.700679 270.417669 434.700679 251.062956 
" style="fill: none; stroke: #ffffff; stroke-linecap: round"/>
    <path d="M 436.700679 285.772382 
L 434.700679 289.772382 
L 432.700679 285.772382 
" style="fill: none; stroke: #ffffff; stroke-linecap: round"/>
    <path d="M 432.700679 255.062956 
L 434.700679 251.062956 
L 436.700679 255.062956 
" style="fill: none; stroke: #ffffff; stroke-linecap: round"/>
   </g>
   <g id="text_10">
    <!-- $2\eta$ -->
    <g style="fill: #ffffff" transform="translate(412.96966 273.430569) scale(0.11 -0.11)">
     <defs>
      <path id="DejaVuSans-Oblique-3b7" d="M 3703 2113 
L 3034 -1331 
L 2459 -1331 
L 3125 2094 
Q 3222 2591 3075 2838 
Q 2931 3084 2544 3084 
Q 2078 3084 1750 2788 
Q 1425 2491 1325 1978 
L 941 0 
L 363 0 
L 1044 3500 
L 1622 3500 
L 1516 2956 
Q 1781 3272 2094 3428 
Q 2403 3584 2769 3584 
Q 3372 3584 3609 3213 
Q 3844 2838 3703 2113 
z
" transform="scale(0.015625)"/>
     </defs>
     <use xlink:href="#DejaVuSans-32" transform="translate(0 0.78125)"/>
     <use xlink:href="#DejaVuSans-Oblique-3b7" transform="translate(63.623047 0.78125)"/>
    </g>
   </g>
   <g id="text_11">
    <!-- slope $=s_{max}$ -->
    <g style="fill: #6fd3ff" transform="translate(638.062672 144.968178) rotate(-20) scale(0.105 -0.105)">
     <use xlink:href="#DejaVuSans-73" transform="translate(0 0.015625)"/>
     <use xlink:href="#DejaVuSans-6c" transform="translate(52.099609 0.015625)"/>
     <use xlink:href="#DejaVuSans-6f" transform="translate(79.882812 0.015625)"/>
     <use xlink:href="#DejaVuSans-70" transform="translate(141.064453 0.015625)"/>
     <use xlink:href="#DejaVuSans-65" transform="translate(204.541016 0.015625)"/>
     <use xlink:href="#DejaVuSans-20" transform="translate(266.064453 0.015625)"/>
     <use xlink:href="#DejaVuSans-3d" transform="translate(317.333984 0.015625)"/>
     <use xlink:href="#DejaVuSans-Oblique-73" transform="translate(420.605469 0.015625)"/>
     <use xlink:href="#DejaVuSans-Oblique-6d" transform="translate(472.705078 -16.390625) scale(0.7)"/>
     <use xlink:href="#DejaVuSans-Oblique-61" transform="translate(540.893555 -16.390625) scale(0.7)"/>
     <use xlink:href="#DejaVuSans-Oblique-78" transform="translate(583.789062 -16.390625) scale(0.7)"/>
    </g>
   </g>
   <g id="text_12">
    <!-- the point -->
    <g style="fill: #ffffff" transform="translate(440.438943 308.75328) scale(0.09 -0.09)">
     <use xlink:href="#DejaVuSans-74"/>
     <use xlink:href="#DejaVuSans-68" x="39.208984"/>
     <use xlink:href="#DejaVuSans-65" x="102.587891"/>
     <use xlink:href="#DejaVuSans-20" x="164.111328"/>
     <use xlink:href="#DejaVuSans-70" x="195.898438"/>
     <use xlink:href="#DejaVuSans-6f" x="259.375"/>
     <use xlink:href="#DejaVuSans-69" x="320.556641"/>
     <use xlink:href="#DejaVuSans-6e" x="348.339844"/>
     <use xlink:href="#DejaVuSans-74" x="411.71875"/>
    </g>
   </g>
   <g id="text_13">
    <!-- 1 of the 4 is outside -->
    <g style="fill: #ff6b6b" transform="translate(507.357606 140.327511) scale(0.1 -0.1)">
     <defs>
      <path id="DejaVuSans-66" d="M 2375 4863 
L 2375 4384 
L 1825 4384 
Q 1516 4384 1395 4259 
Q 1275 4134 1275 3809 
L 1275 3500 
L 2222 3500 
L 2222 3053 
L 1275 3053 
L 1275 0 
L 697 0 
L 697 3053 
L 147 3053 
L 147 3500 
L 697 3500 
L 697 3744 
Q 697 4328 969 4595 
Q 1241 4863 1831 4863 
L 2375 4863 
z
" transform="scale(0.015625)"/>
      <path id="DejaVuSans-34" d="M 2419 4116 
L 825 1625 
L 2419 1625 
L 2419 4116 
z
M 2253 4666 
L 3047 4666 
L 3047 1625 
L 3713 1625 
L 3713 1100 
L 3047 1100 
L 3047 0 
L 2419 0 
L 2419 1100 
L 313 1100 
L 313 1709 
L 2253 4666 
z
" transform="scale(0.015625)"/>
     </defs>
     <use xlink:href="#DejaVuSans-31"/>
     <use xlink:href="#DejaVuSans-20" x="63.623047"/>
     <use xlink:href="#DejaVuSans-6f" x="95.410156"/>
     <use xlink:href="#DejaVuSans-66" x="156.591797"/>
     <use xlink:href="#DejaVuSans-20" x="191.796875"/>
     <use xlink:href="#DejaVuSans-74" x="223.583984"/>
     <use xlink:href="#DejaVuSans-68" x="262.792969"/>
     <use xlink:href="#DejaVuSans-65" x="326.171875"/>
     <use xlink:href="#DejaVuSans-20" x="387.695312"/>
     <use xlink:href="#DejaVuSans-34" x="419.482422"/>
     <use xlink:href="#DejaVuSans-20" x="483.105469"/>
     <use xlink:href="#DejaVuSans-69" x="514.892578"/>
     <use xlink:href="#DejaVuSans-73" x="542.675781"/>
     <use xlink:href="#DejaVuSans-20" x="594.775391"/>
     <use xlink:href="#DejaVuSans-6f" x="626.5625"/>
     <use xlink:href="#DejaVuSans-75" x="687.744141"/>
     <use xlink:href="#DejaVuSans-74" x="751.123047"/>
     <use xlink:href="#DejaVuSans-73" x="790.332031"/>
     <use xlink:href="#DejaVuSans-69" x="842.431641"/>
     <use xlink:href="#DejaVuSans-64" x="870.214844"/>
     <use xlink:href="#DejaVuSans-65" x="933.691406"/>
    </g>
    <!-- → point dropped -->
    <g style="fill: #ff6b6b" transform="translate(516.221669 151.525323) scale(0.1 -0.1)">
     <defs>
      <path id="DejaVuSans-2192" d="M 5050 2147 
L 5050 1866 
L 3822 638 
L 3447 1013 
L 4175 1741 
L 366 1741 
L 366 2272 
L 4175 2272 
L 3447 3000 
L 3822 3375 
L 5050 2147 
z
" transform="scale(0.015625)"/>
     </defs>
     <use xlink:href="#DejaVuSans-2192"/>
     <use xlink:href="#DejaVuSans-20" x="83.789062"/>
     <use xlink:href="#DejaVuSans-70" x="115.576172"/>
     <use xlink:href="#DejaVuSans-6f" x="179.052734"/>
     <use xlink:href="#DejaVuSans-69" x="240.234375"/>
     <use xlink:href="#DejaVuSans-6e" x="268.017578"/>
     <use xlink:href="#DejaVuSans-74" x="331.396484"/>
     <use xlink:href="#DejaVuSans-20" x="370.605469"/>
     <use xlink:href="#DejaVuSans-64" x="402.392578"/>
     <use xlink:href="#DejaVuSans-72" x="465.869141"/>
     <use xlink:href="#DejaVuSans-6f" x="504.732422"/>
     <use xlink:href="#DejaVuSans-70" x="565.914062"/>
     <use xlink:href="#DejaVuSans-70" x="629.390625"/>
     <use xlink:href="#DejaVuSans-65" x="692.867188"/>
     <use xlink:href="#DejaVuSans-64" x="754.390625"/>
    </g>
   </g>
   <g id="text_14">
    <!-- the other 3 are inside -->
    <g style="fill: #5ae0a0" transform="translate(583.50346 282.31488) scale(0.1 -0.1)">
     <defs>
      <path id="DejaVuSans-33" d="M 2597 2516 
Q 3050 2419 3304 2112 
Q 3559 1806 3559 1356 
Q 3559 666 3084 287 
Q 2609 -91 1734 -91 
Q 1441 -91 1130 -33 
Q 819 25 488 141 
L 488 750 
Q 750 597 1062 519 
Q 1375 441 1716 441 
Q 2309 441 2620 675 
Q 2931 909 2931 1356 
Q 2931 1769 2642 2001 
Q 2353 2234 1838 2234 
L 1294 2234 
L 1294 2753 
L 1863 2753 
Q 2328 2753 2575 2939 
Q 2822 3125 2822 3475 
Q 2822 3834 2567 4026 
Q 2313 4219 1838 4219 
Q 1578 4219 1281 4162 
Q 984 4106 628 3988 
L 628 4550 
Q 988 4650 1302 4700 
Q 1616 4750 1894 4750 
Q 2613 4750 3031 4423 
Q 3450 4097 3450 3541 
Q 3450 3153 3228 2886 
Q 3006 2619 2597 2516 
z
" transform="scale(0.015625)"/>
     </defs>
     <use xlink:href="#DejaVuSans-74"/>
     <use xlink:href="#DejaVuSans-68" x="39.208984"/>
     <use xlink:href="#DejaVuSans-65" x="102.587891"/>
     <use xlink:href="#DejaVuSans-20" x="164.111328"/>
     <use xlink:href="#DejaVuSans-6f" x="195.898438"/>
     <use xlink:href="#DejaVuSans-74" x="257.080078"/>
     <use xlink:href="#DejaVuSans-68" x="296.289062"/>
     <use xlink:href="#DejaVuSans-65" x="359.667969"/>
     <use xlink:href="#DejaVuSans-72" x="421.191406"/>
     <use xlink:href="#DejaVuSans-20" x="462.304688"/>
     <use xlink:href="#DejaVuSans-33" x="494.091797"/>
     <use xlink:href="#DejaVuSans-20" x="557.714844"/>
     <use xlink:href="#DejaVuSans-61" x="589.501953"/>
     <use xlink:href="#DejaVuSans-72" x="650.78125"/>
     <use xlink:href="#DejaVuSans-65" x="689.644531"/>
     <use xlink:href="#DejaVuSans-20" x="751.167969"/>
     <use xlink:href="#DejaVuSans-69" x="782.955078"/>
     <use xlink:href="#DejaVuSans-6e" x="810.738281"/>
     <use xlink:href="#DejaVuSans-73" x="874.117188"/>
     <use xlink:href="#DejaVuSans-69" x="926.216797"/>
     <use xlink:href="#DejaVuSans-64" x="954"/>
     <use xlink:href="#DejaVuSans-65" x="1017.476562"/>
    </g>
   </g>
   <g id="text_15">
    <!-- 2 · a point vs its 4 nearest neighbours -->
    <g style="fill: #ffffff" transform="translate(457.580466 59.52) scale(0.125 -0.125)">
     <defs>
      <path id="DejaVuSans-76" d="M 191 3500 
L 800 3500 
L 1894 563 
L 2988 3500 
L 3597 3500 
L 2284 0 
L 1503 0 
L 191 3500 
z
" transform="scale(0.015625)"/>
     </defs>
     <use xlink:href="#DejaVuSans-32"/>
     <use xlink:href="#DejaVuSans-20" x="63.623047"/>
     <use xlink:href="#DejaVuSans-b7" x="95.410156"/>
     <use xlink:href="#DejaVuSans-20" x="127.197266"/>
     <use xlink:href="#DejaVuSans-61" x="158.984375"/>
     <use xlink:href="#DejaVuSans-20" x="220.263672"/>
     <use xlink:href="#DejaVuSans-70" x="252.050781"/>
     <use xlink:href="#DejaVuSans-6f" x="315.527344"/>
     <use xlink:href="#DejaVuSans-69" x="376.708984"/>
     <use xlink:href="#DejaVuSans-6e" x="404.492188"/>
     <use xlink:href="#DejaVuSans-74" x="467.871094"/>
     <use xlink:href="#DejaVuSans-20" x="507.080078"/>
     <use xlink:href="#DejaVuSans-76" x="538.867188"/>
     <use xlink:href="#DejaVuSans-73" x="598.046875"/>
     <use xlink:href="#DejaVuSans-20" x="650.146484"/>
     <use xlink:href="#DejaVuSans-69" x="681.933594"/>
     <use xlink:href="#DejaVuSans-74" x="709.716797"/>
     <use xlink:href="#DejaVuSans-73" x="748.925781"/>
     <use xlink:href="#DejaVuSans-20" x="801.025391"/>
     <use xlink:href="#DejaVuSans-34" x="832.8125"/>
     <use xlink:href="#DejaVuSans-20" x="896.435547"/>
     <use xlink:href="#DejaVuSans-6e" x="928.222656"/>
     <use xlink:href="#DejaVuSans-65" x="991.601562"/>
     <use xlink:href="#DejaVuSans-61" x="1053.125"/>
     <use xlink:href="#DejaVuSans-72" x="1114.404297"/>
     <use xlink:href="#DejaVuSans-65" x="1153.267578"/>
     <use xlink:href="#DejaVuSans-73" x="1214.791016"/>
     <use xlink:href="#DejaVuSans-74" x="1266.890625"/>
     <use xlink:href="#DejaVuSans-20" x="1306.099609"/>
     <use xlink:href="#DejaVuSans-6e" x="1337.886719"/>
     <use xlink:href="#DejaVuSans-65" x="1401.265625"/>
     <use xlink:href="#DejaVuSans-69" x="1462.789062"/>
     <use xlink:href="#DejaVuSans-67" x="1490.572266"/>
     <use xlink:href="#DejaVuSans-68" x="1554.048828"/>
     <use xlink:href="#DejaVuSans-62" x="1617.427734"/>
     <use xlink:href="#DejaVuSans-6f" x="1680.904297"/>
     <use xlink:href="#DejaVuSans-75" x="1742.085938"/>
     <use xlink:href="#DejaVuSans-72" x="1805.464844"/>
     <use xlink:href="#DejaVuSans-73" x="1846.578125"/>
    </g>
   </g>
   <g id="PathCollection_3">
    <defs>
     <path id="m1a937856c5" d="M 0 3.872983 
C 1.027127 3.872983 2.012324 3.464901 2.738613 2.738613 
C 3.464901 2.012324 3.872983 1.027127 3.872983 0 
C 3.872983 -1.027127 3.464901 -2.012324 2.738613 -2.738613 
C 2.012324 -3.464901 1.027127 -3.872983 0 -3.872983 
C -1.027127 -3.872983 -2.012324 -3.464901 -2.738613 -2.738613 
C -3.464901 -2.012324 -3.872983 -1.027127 -3.872983 0 
C -3.872983 1.027127 -3.464901 2.012324 -2.738613 2.738613 
C -2.012324 3.464901 -1.027127 3.872983 0 3.872983 
z
" style="stroke: #000000; stroke-width: 0.5"/>
    </defs>
    <g clip-path="url(#p7549248ada)">
     <use xlink:href="#m1a937856c5" x="499.73434" y="259.592365" style="fill: #5ae0a0; stroke: #000000; stroke-width: 0.5"/>
     <use xlink:href="#m1a937856c5" x="645.103698" y="230.371484" style="fill: #5ae0a0; stroke: #000000; stroke-width: 0.5"/>
     <use xlink:href="#m1a937856c5" x="710.137358" y="217.298985" style="fill: #5ae0a0; stroke: #000000; stroke-width: 0.5"/>
    </g>
   </g>
   <g id="PathCollection_4">
    <defs>
     <path id="mc0caaa1974" d="M 0 4.609772 
C 1.222526 4.609772 2.395145 4.124058 3.259601 3.259601 
C 4.124058 2.395145 4.609772 1.222526 4.609772 0 
C 4.609772 -1.222526 4.124058 -2.395145 3.259601 -3.259601 
C 2.395145 -4.124058 1.222526 -4.609772 0 -4.609772 
C -1.222526 -4.609772 -2.395145 -4.124058 -3.259601 -3.259601 
C -4.124058 -2.395145 -4.609772 -1.222526 -4.609772 0 
C -4.609772 1.222526 -4.124058 2.395145 -3.259601 3.259601 
C -2.395145 4.124058 -1.222526 4.609772 0 4.609772 
z
" style="stroke: #000000; stroke-width: 0.5"/>
    </defs>
    <g clip-path="url(#p7549248ada)">
     <use xlink:href="#mc0caaa1974" x="557.116981" y="166.824211" style="fill: #ff6b6b; stroke: #000000; stroke-width: 0.5"/>
    </g>
   </g>
   <g id="PathCollection_5">
    <defs>
     <path id="m2bf1ccdc89" d="M 0 4.609772 
C 1.222526 4.609772 2.395145 4.124058 3.259601 3.259601 
C 4.124058 2.395145 4.609772 1.222526 4.609772 0 
C 4.609772 -1.222526 4.124058 -2.395145 3.259601 -3.259601 
C 2.395145 -4.124058 1.222526 -4.609772 0 -4.609772 
C -1.222526 -4.609772 -2.395145 -4.124058 -3.259601 -3.259601 
C -4.124058 -2.395145 -4.609772 -1.222526 -4.609772 0 
C -4.609772 1.222526 -4.124058 2.395145 -3.259601 3.259601 
C -2.395145 4.124058 -1.222526 4.609772 0 4.609772 
z
" style="stroke: #000000"/>
    </defs>
    <g clip-path="url(#p7549248ada)">
     <use xlink:href="#m2bf1ccdc89" x="434.700679" y="292.89024" style="fill: #ffffff; stroke: #000000"/>
    </g>
   </g>
  </g>
  <g id="text_16">
   <!-- $|\Delta H|\ \leq\ s_{max}\,d\ +\ 2\eta$ -->
   <g style="fill: #ffffff" transform="translate(264.325 24.91) scale(0.23 -0.23)">
    <defs>
     <path id="DejaVuSans-2264" d="M 4684 3175 
L 1684 2309 
L 4684 1453 
L 4684 897 
L 678 2047 
L 678 2578 
L 4684 3725 
L 4684 3175 
z
M 678 531 
L 4684 531 
L 4684 0 
L 678 0 
L 678 531 
z
" transform="scale(0.015625)"/>
     <path id="DejaVuSans-2b" d="M 2944 4013 
L 2944 2272 
L 4684 2272 
L 4684 1741 
L 2944 1741 
L 2944 0 
L 2419 0 
L 2419 1741 
L 678 1741 
L 678 2272 
L 2419 2272 
L 2419 4013 
L 2944 4013 
z
" transform="scale(0.015625)"/>
    </defs>
    <use xlink:href="#DejaVuSans-7c" transform="translate(0 0.578125)"/>
    <use xlink:href="#DejaVuSans-394" transform="translate(33.691406 0.578125)"/>
    <use xlink:href="#DejaVuSans-Oblique-48" transform="translate(102.099609 0.578125)"/>
    <use xlink:href="#DejaVuSans-7c" transform="translate(177.294922 0.578125)"/>
    <use xlink:href="#DejaVuSans-2264" transform="translate(262.939128 0.578125)"/>
    <use xlink:href="#DejaVuSans-Oblique-73" transform="translate(398.680991 0.578125)"/>
    <use xlink:href="#DejaVuSans-Oblique-6d" transform="translate(450.780601 -15.828125) scale(0.7)"/>
    <use xlink:href="#DejaVuSans-Oblique-61" transform="translate(518.969077 -15.828125) scale(0.7)"/>
    <use xlink:href="#DejaVuSans-Oblique-78" transform="translate(561.864585 -15.828125) scale(0.7)"/>
    <use xlink:href="#DejaVuSans-Oblique-64" transform="translate(622.260417 0.578125)"/>
    <use xlink:href="#DejaVuSans-2b" transform="translate(737.68978 0.578125)"/>
    <use xlink:href="#DejaVuSans-32" transform="translate(873.431643 0.578125)"/>
    <use xlink:href="#DejaVuSans-Oblique-3b7" transform="translate(937.05469 0.578125)"/>
   </g>
  </g>
  <g id="text_17">
   <!-- $|\Delta H|$ = ice-depth difference to a neighbour    ·    $d$ = distance to it    ·    $\eta=\max(15\,\mathrm{m},\ 0.01\times$ support ice depth$)$ -->
   <g style="fill: #c8ccd2" transform="translate(111.635 366.84) scale(0.095 -0.095)">
    <defs>
     <path id="DejaVuSans-2d" d="M 313 2009 
L 1997 2009 
L 1997 1497 
L 313 1497 
L 313 2009 
z
" transform="scale(0.015625)"/>
     <path id="DejaVuSans-6d" d="M 3328 2828 
Q 3544 3216 3844 3400 
Q 4144 3584 4550 3584 
Q 5097 3584 5394 3201 
Q 5691 2819 5691 2113 
L 5691 0 
L 5113 0 
L 5113 2094 
Q 5113 2597 4934 2840 
Q 4756 3084 4391 3084 
Q 3944 3084 3684 2787 
Q 3425 2491 3425 1978 
L 3425 0 
L 2847 0 
L 2847 2094 
Q 2847 2600 2669 2842 
Q 2491 3084 2119 3084 
Q 1678 3084 1418 2786 
Q 1159 2488 1159 1978 
L 1159 0 
L 581 0 
L 581 3500 
L 1159 3500 
L 1159 2956 
Q 1356 3278 1631 3431 
Q 1906 3584 2284 3584 
Q 2666 3584 2933 3390 
Q 3200 3197 3328 2828 
z
" transform="scale(0.015625)"/>
     <path id="DejaVuSans-78" d="M 3513 3500 
L 2247 1797 
L 3578 0 
L 2900 0 
L 1881 1375 
L 863 0 
L 184 0 
L 1544 1831 
L 300 3500 
L 978 3500 
L 1906 2253 
L 2834 3500 
L 3513 3500 
z
" transform="scale(0.015625)"/>
     <path id="DejaVuSans-35" d="M 691 4666 
L 3169 4666 
L 3169 4134 
L 1269 4134 
L 1269 2991 
Q 1406 3038 1543 3061 
Q 1681 3084 1819 3084 
Q 2600 3084 3056 2656 
Q 3513 2228 3513 1497 
Q 3513 744 3044 326 
Q 2575 -91 1722 -91 
Q 1428 -91 1123 -41 
Q 819 9 494 109 
L 494 744 
Q 775 591 1075 516 
Q 1375 441 1709 441 
Q 2250 441 2565 725 
Q 2881 1009 2881 1497 
Q 2881 1984 2565 2268 
Q 2250 2553 1709 2553 
Q 1456 2553 1204 2497 
Q 953 2441 691 2322 
L 691 4666 
z
" transform="scale(0.015625)"/>
     <path id="DejaVuSans-2c" d="M 750 794 
L 1409 794 
L 1409 256 
L 897 -744 
L 494 -744 
L 750 256 
L 750 794 
z
" transform="scale(0.015625)"/>
     <path id="DejaVuSans-30" d="M 2034 4250 
Q 1547 4250 1301 3770 
Q 1056 3291 1056 2328 
Q 1056 1369 1301 889 
Q 1547 409 2034 409 
Q 2525 409 2770 889 
Q 3016 1369 3016 2328 
Q 3016 3291 2770 3770 
Q 2525 4250 2034 4250 
z
M 2034 4750 
Q 2819 4750 3233 4129 
Q 3647 3509 3647 2328 
Q 3647 1150 3233 529 
Q 2819 -91 2034 -91 
Q 1250 -91 836 529 
Q 422 1150 422 2328 
Q 422 3509 836 4129 
Q 1250 4750 2034 4750 
z
" transform="scale(0.015625)"/>
     <path id="DejaVuSans-2e" d="M 684 794 
L 1344 794 
L 1344 0 
L 684 0 
L 684 794 
z
" transform="scale(0.015625)"/>
     <path id="DejaVuSans-d7" d="M 4488 3438 
L 3059 2003 
L 4488 575 
L 4116 197 
L 2681 1631 
L 1247 197 
L 878 575 
L 2303 2003 
L 878 3438 
L 1247 3816 
L 2681 2381 
L 4116 3816 
L 4488 3438 
z
" transform="scale(0.015625)"/>
    </defs>
    <use xlink:href="#DejaVuSans-7c" transform="translate(0 0.578125)"/>
    <use xlink:href="#DejaVuSans-394" transform="translate(33.691406 0.578125)"/>
    <use xlink:href="#DejaVuSans-Oblique-48" transform="translate(102.099609 0.578125)"/>
    <use xlink:href="#DejaVuSans-7c" transform="translate(177.294922 0.578125)"/>
    <use xlink:href="#DejaVuSans-20" transform="translate(210.986328 0.578125)"/>
    <use xlink:href="#DejaVuSans-3d" transform="translate(242.773438 0.578125)"/>
    <use xlink:href="#DejaVuSans-20" transform="translate(326.5625 0.578125)"/>
    <use xlink:href="#DejaVuSans-69" transform="translate(358.349609 0.578125)"/>
    <use xlink:href="#DejaVuSans-63" transform="translate(386.132812 0.578125)"/>
    <use xlink:href="#DejaVuSans-65" transform="translate(441.113281 0.578125)"/>
    <use xlink:href="#DejaVuSans-2d" transform="translate(502.636719 0.578125)"/>
    <use xlink:href="#DejaVuSans-64" transform="translate(538.720703 0.578125)"/>
    <use xlink:href="#DejaVuSans-65" transform="translate(602.197266 0.578125)"/>
    <use xlink:href="#DejaVuSans-70" transform="translate(663.720703 0.578125)"/>
    <use xlink:href="#DejaVuSans-74" transform="translate(727.197266 0.578125)"/>
    <use xlink:href="#DejaVuSans-68" transform="translate(766.40625 0.578125)"/>
    <use xlink:href="#DejaVuSans-20" transform="translate(829.785156 0.578125)"/>
    <use xlink:href="#DejaVuSans-64" transform="translate(861.572266 0.578125)"/>
    <use xlink:href="#DejaVuSans-69" transform="translate(925.048828 0.578125)"/>
    <use xlink:href="#DejaVuSans-66" transform="translate(952.832031 0.578125)"/>
    <use xlink:href="#DejaVuSans-66" transform="translate(988.037109 0.578125)"/>
    <use xlink:href="#DejaVuSans-65" transform="translate(1023.242188 0.578125)"/>
    <use xlink:href="#DejaVuSans-72" transform="translate(1084.765625 0.578125)"/>
    <use xlink:href="#DejaVuSans-65" transform="translate(1125.878906 0.578125)"/>
    <use xlink:href="#DejaVuSans-6e" transform="translate(1187.402344 0.578125)"/>
    <use xlink:href="#DejaVuSans-63" transform="translate(1250.78125 0.578125)"/>
    <use xlink:href="#DejaVuSans-65" transform="translate(1305.761719 0.578125)"/>
    <use xlink:href="#DejaVuSans-20" transform="translate(1367.285156 0.578125)"/>
    <use xlink:href="#DejaVuSans-74" transform="translate(1399.072266 0.578125)"/>
    <use xlink:href="#DejaVuSans-6f" transform="translate(1438.28125 0.578125)"/>
    <use xlink:href="#DejaVuSans-20" transform="translate(1499.462891 0.578125)"/>
    <use xlink:href="#DejaVuSans-61" transform="translate(1531.25 0.578125)"/>
    <use xlink:href="#DejaVuSans-20" transform="translate(1592.529297 0.578125)"/>
    <use xlink:href="#DejaVuSans-6e" transform="translate(1624.316406 0.578125)"/>
    <use xlink:href="#DejaVuSans-65" transform="translate(1687.695312 0.578125)"/>
    <use xlink:href="#DejaVuSans-69" transform="translate(1749.21875 0.578125)"/>
    <use xlink:href="#DejaVuSans-67" transform="translate(1777.001953 0.578125)"/>
    <use xlink:href="#DejaVuSans-68" transform="translate(1840.478516 0.578125)"/>
    <use xlink:href="#DejaVuSans-62" transform="translate(1903.857422 0.578125)"/>
    <use xlink:href="#DejaVuSans-6f" transform="translate(1967.333984 0.578125)"/>
    <use xlink:href="#DejaVuSans-75" transform="translate(2028.515625 0.578125)"/>
    <use xlink:href="#DejaVuSans-72" transform="translate(2091.894531 0.578125)"/>
    <use xlink:href="#DejaVuSans-20" transform="translate(2133.007812 0.578125)"/>
    <use xlink:href="#DejaVuSans-20" transform="translate(2164.794922 0.578125)"/>
    <use xlink:href="#DejaVuSans-20" transform="translate(2196.582031 0.578125)"/>
    <use xlink:href="#DejaVuSans-20" transform="translate(2228.369141 0.578125)"/>
    <use xlink:href="#DejaVuSans-b7" transform="translate(2260.15625 0.578125)"/>
    <use xlink:href="#DejaVuSans-20" transform="translate(2291.943359 0.578125)"/>
    <use xlink:href="#DejaVuSans-20" transform="translate(2323.730469 0.578125)"/>
    <use xlink:href="#DejaVuSans-20" transform="translate(2355.517578 0.578125)"/>
    <use xlink:href="#DejaVuSans-20" transform="translate(2387.304688 0.578125)"/>
    <use xlink:href="#DejaVuSans-Oblique-64" transform="translate(2419.091797 0.578125)"/>
    <use xlink:href="#DejaVuSans-20" transform="translate(2482.568359 0.578125)"/>
    <use xlink:href="#DejaVuSans-3d" transform="translate(2514.355469 0.578125)"/>
    <use xlink:href="#DejaVuSans-20" transform="translate(2598.144531 0.578125)"/>
    <use xlink:href="#DejaVuSans-64" transform="translate(2629.931641 0.578125)"/>
    <use xlink:href="#DejaVuSans-69" transform="translate(2693.408203 0.578125)"/>
    <use xlink:href="#DejaVuSans-73" transform="translate(2721.191406 0.578125)"/>
    <use xlink:href="#DejaVuSans-74" transform="translate(2773.291016 0.578125)"/>
    <use xlink:href="#DejaVuSans-61" transform="translate(2812.5 0.578125)"/>
    <use xlink:href="#DejaVuSans-6e" transform="translate(2873.779297 0.578125)"/>
    <use xlink:href="#DejaVuSans-63" transform="translate(2937.158203 0.578125)"/>
    <use xlink:href="#DejaVuSans-65" transform="translate(2992.138672 0.578125)"/>
    <use xlink:href="#DejaVuSans-20" transform="translate(3053.662109 0.578125)"/>
    <use xlink:href="#DejaVuSans-74" transform="translate(3085.449219 0.578125)"/>
    <use xlink:href="#DejaVuSans-6f" transform="translate(3124.658203 0.578125)"/>
    <use xlink:href="#DejaVuSans-20" transform="translate(3185.839844 0.578125)"/>
    <use xlink:href="#DejaVuSans-69" transform="translate(3217.626953 0.578125)"/>
    <use xlink:href="#DejaVuSans-74" transform="translate(3245.410156 0.578125)"/>
    <use xlink:href="#DejaVuSans-20" transform="translate(3284.619141 0.578125)"/>
    <use xlink:href="#DejaVuSans-20" transform="translate(3316.40625 0.578125)"/>
    <use xlink:href="#DejaVuSans-20" transform="translate(3348.193359 0.578125)"/>
    <use xlink:href="#DejaVuSans-20" transform="translate(3379.980469 0.578125)"/>
    <use xlink:href="#DejaVuSans-b7" transform="translate(3411.767578 0.578125)"/>
    <use xlink:href="#DejaVuSans-20" transform="translate(3443.554688 0.578125)"/>
    <use xlink:href="#DejaVuSans-20" transform="translate(3475.341797 0.578125)"/>
    <use xlink:href="#DejaVuSans-20" transform="translate(3507.128906 0.578125)"/>
    <use xlink:href="#DejaVuSans-20" transform="translate(3538.916016 0.578125)"/>
    <use xlink:href="#DejaVuSans-Oblique-3b7" transform="translate(3570.703125 0.578125)"/>
    <use xlink:href="#DejaVuSans-3d" transform="translate(3653.564453 0.578125)"/>
    <use xlink:href="#DejaVuSans-6d" transform="translate(3756.835938 0.578125)"/>
    <use xlink:href="#DejaVuSans-61" transform="translate(3854.248047 0.578125)"/>
    <use xlink:href="#DejaVuSans-78" transform="translate(3915.527344 0.578125)"/>
    <use xlink:href="#DejaVuSans-28" transform="translate(3974.707031 0.578125)"/>
    <use xlink:href="#DejaVuSans-31" transform="translate(4013.720703 0.578125)"/>
    <use xlink:href="#DejaVuSans-35" transform="translate(4077.34375 0.578125)"/>
    <use xlink:href="#DejaVuSans-6d" transform="translate(4157.202473 0.578125)"/>
    <use xlink:href="#DejaVuSans-2c" transform="translate(4254.614583 0.578125)"/>
    <use xlink:href="#DejaVuSans-30" transform="translate(4338.354492 0.578125)"/>
    <use xlink:href="#DejaVuSans-2e" transform="translate(4401.977539 0.578125)"/>
    <use xlink:href="#DejaVuSans-30" transform="translate(4433.764648 0.578125)"/>
    <use xlink:href="#DejaVuSans-31" transform="translate(4497.387695 0.578125)"/>
    <use xlink:href="#DejaVuSans-d7" transform="translate(4580.493164 0.578125)"/>
    <use xlink:href="#DejaVuSans-20" transform="translate(4683.764648 0.578125)"/>
    <use xlink:href="#DejaVuSans-73" transform="translate(4715.551758 0.578125)"/>
    <use xlink:href="#DejaVuSans-75" transform="translate(4767.651367 0.578125)"/>
    <use xlink:href="#DejaVuSans-70" transform="translate(4831.030273 0.578125)"/>
    <use xlink:href="#DejaVuSans-70" transform="translate(4894.506836 0.578125)"/>
    <use xlink:href="#DejaVuSans-6f" transform="translate(4957.983398 0.578125)"/>
    <use xlink:href="#DejaVuSans-72" transform="translate(5019.165039 0.578125)"/>
    <use xlink:href="#DejaVuSans-74" transform="translate(5060.27832 0.578125)"/>
    <use xlink:href="#DejaVuSans-20" transform="translate(5099.487305 0.578125)"/>
    <use xlink:href="#DejaVuSans-69" transform="translate(5131.274414 0.578125)"/>
    <use xlink:href="#DejaVuSans-63" transform="translate(5159.057617 0.578125)"/>
    <use xlink:href="#DejaVuSans-65" transform="translate(5214.038086 0.578125)"/>
    <use xlink:href="#DejaVuSans-20" transform="translate(5275.561523 0.578125)"/>
    <use xlink:href="#DejaVuSans-64" transform="translate(5307.348633 0.578125)"/>
    <use xlink:href="#DejaVuSans-65" transform="translate(5370.825195 0.578125)"/>
    <use xlink:href="#DejaVuSans-70" transform="translate(5432.348633 0.578125)"/>
    <use xlink:href="#DejaVuSans-74" transform="translate(5495.825195 0.578125)"/>
    <use xlink:href="#DejaVuSans-68" transform="translate(5535.03418 0.578125)"/>
    <use xlink:href="#DejaVuSans-29" transform="translate(5598.413086 0.578125)"/>
   </g>
  </g>
 </g>
 <defs>
  <clipPath id="p9944351ec4">
   <rect x="7.2" y="65.52" width="341.563342" height="264.384"/>
  </clipPath>
  <clipPath id="p7549248ada">
   <rect x="384.969057" y="65.52" width="382.550943" height="264.384"/>
  </clipPath>
 </defs>
</svg>
