<?xml version="1.0" encoding="utf-8" standalone="no"?>
<!DOCTYPE svg PUBLIC "-//W3C//DTD SVG 1.1//EN"
  "http://www.w3.org/Graphics/SVG/1.1/DTD/svg11.dtd">
<svg xmlns:xlink="http://www.w3.org/1999/xlink" width="661.68pt" height="435.744pt" viewBox="0 0 661.68 435.744" xmlns="http://www.w3.org/2000/svg" version="1.1">
 <metadata>
  <rdf:RDF xmlns:dc="http://purl.org/dc/elements/1.1/" xmlns:cc="http://creativecommons.org/ns#" xmlns:rdf="http://www.w3.org/1999/02/22-rdf-syntax-ns#">
   <cc:Work>
    <dc:type rdf:resource="http://purl.org/dc/dcmitype/StillImage"/>
    <dc:date>2026-06-07T19:06:11.653920</dc:date>
    <dc:format>image/svg+xml</dc:format>
    <dc:creator>
     <cc:Agent>
      <dc:title>Matplotlib v3.8.4, https://matplotlib.org/</dc:title>
     </cc:Agent>
    </dc:creator>
   </cc:Work>
  </rdf:RDF>
 </metadata>
 <defs>
  <style type="text/css">*{stroke-linejoin: round; stroke-linecap: butt}</style>
 </defs>
 <g id="figure_1">
  <g id="patch_1">
   <path d="M 0 435.744 
L 661.68 435.744 
L 661.68 0 
L 0 0 
L 0 435.744 
z
" style="fill: none"/>
  </g>
  <g id="axes_1">
   <g id="line2d_1">
    <path d="M 314.658 276.86016 
L 314.658 36.69408 
" clip-path="url(#p8dcb1039f2)" style="fill: none; stroke: #c8ccd2; stroke-opacity: 0.35; stroke-width: 0.8; stroke-linecap: square"/>
   </g>
   <g id="line2d_2">
    <path d="M 33.0912 66.18816 
L 628.5888 66.18816 
" clip-path="url(#p8dcb1039f2)" style="fill: none; stroke: #c8ccd2; stroke-opacity: 0.5; stroke-linecap: square"/>
   </g>
   <g id="line2d_3">
    <path d="M 33.0912 342.16848 
L 628.5888 342.16848 
" clip-path="url(#p8dcb1039f2)" style="fill: none; stroke: #c8ccd2; stroke-opacity: 0.4; stroke-linecap: square"/>
   </g>
   <g id="text_1">
    <!-- the link (who) -->
    <g style="fill: #9aa0a8" transform="translate(114.740963 17.7336) scale(0.12 -0.12)">
     <defs>
      <path id="DejaVuSans-Oblique-74" d="M 2706 3500 
L 2619 3053 
L 1472 3053 
L 1100 1153 
Q 1081 1047 1072 975 
Q 1063 903 1063 863 
Q 1063 663 1183 572 
Q 1303 481 1569 481 
L 2150 481 
L 2053 0 
L 1503 0 
Q 991 0 739 200 
Q 488 400 488 806 
Q 488 878 497 964 
Q 506 1050 525 1153 
L 897 3053 
L 409 3053 
L 500 3500 
L 978 3500 
L 1172 4494 
L 1747 4494 
L 1556 3500 
L 2706 3500 
z
" transform="scale(0.015625)"/>
      <path id="DejaVuSans-Oblique-68" d="M 3566 2113 
L 3156 0 
L 2578 0 
L 2988 2091 
Q 3016 2238 3031 2350 
Q 3047 2463 3047 2528 
Q 3047 2791 2881 2937 
Q 2716 3084 2419 3084 
Q 1956 3084 1617 2771 
Q 1278 2459 1178 1941 
L 800 0 
L 225 0 
L 1172 4863 
L 1747 4863 
L 1375 2950 
Q 1594 3244 1934 3414 
Q 2275 3584 2650 3584 
Q 3113 3584 3367 3334 
Q 3622 3084 3622 2631 
Q 3622 2519 3608 2391 
Q 3594 2263 3566 2113 
z
" transform="scale(0.015625)"/>
      <path id="DejaVuSans-Oblique-65" d="M 3078 2063 
Q 3088 2113 3092 2166 
Q 3097 2219 3097 2272 
Q 3097 2653 2873 2875 
Q 2650 3097 2266 3097 
Q 1838 3097 1509 2826 
Q 1181 2556 1013 2059 
L 3078 2063 
z
M 3578 1613 
L 903 1613 
Q 884 1494 878 1425 
Q 872 1356 872 1306 
Q 872 872 1139 634 
Q 1406 397 1894 397 
Q 2269 397 2603 481 
Q 2938 566 3225 728 
L 3116 159 
Q 2806 34 2476 -28 
Q 2147 -91 1806 -91 
Q 1078 -91 686 257 
Q 294 606 294 1247 
Q 294 1794 489 2264 
Q 684 2734 1063 3103 
Q 1306 3334 1642 3459 
Q 1978 3584 2356 3584 
Q 2950 3584 3301 3228 
Q 3653 2872 3653 2272 
Q 3653 2128 3634 1964 
Q 3616 1800 3578 1613 
z
" transform="scale(0.015625)"/>
      <path id="DejaVuSans-Oblique-20" transform="scale(0.015625)"/>
      <path id="DejaVuSans-Oblique-6c" d="M 1172 4863 
L 1747 4863 
L 800 0 
L 225 0 
L 1172 4863 
z
" transform="scale(0.015625)"/>
      <path id="DejaVuSans-Oblique-69" d="M 1172 4863 
L 1747 4863 
L 1606 4134 
L 1031 4134 
L 1172 4863 
z
M 909 3500 
L 1484 3500 
L 800 0 
L 225 0 
L 909 3500 
z
" transform="scale(0.015625)"/>
      <path id="DejaVuSans-Oblique-6e" d="M 3566 2113 
L 3156 0 
L 2578 0 
L 2988 2091 
Q 3016 2238 3031 2350 
Q 3047 2463 3047 2528 
Q 3047 2791 2881 2937 
Q 2716 3084 2419 3084 
Q 1956 3084 1622 2776 
Q 1288 2469 1184 1941 
L 800 0 
L 225 0 
L 903 3500 
L 1478 3500 
L 1363 2950 
Q 1603 3253 1940 3418 
Q 2278 3584 2650 3584 
Q 3113 3584 3367 3334 
Q 3622 3084 3622 2631 
Q 3622 2519 3608 2391 
Q 3594 2263 3566 2113 
z
" transform="scale(0.015625)"/>
      <path id="DejaVuSans-Oblique-6b" d="M 1172 4863 
L 1747 4863 
L 1197 2028 
L 3169 3500 
L 3916 3500 
L 1716 1825 
L 3322 0 
L 2625 0 
L 1131 1709 
L 800 0 
L 225 0 
L 1172 4863 
z
" transform="scale(0.015625)"/>
      <path id="DejaVuSans-Oblique-28" d="M 2731 4856 
Q 1903 3822 1495 2892 
Q 1088 1963 1088 1100 
Q 1088 606 1206 120 
Q 1325 -366 1563 -844 
L 1063 -844 
Q 775 -306 634 201 
Q 494 709 494 1197 
Q 494 2125 923 3036 
Q 1353 3947 2222 4856 
L 2731 4856 
z
" transform="scale(0.015625)"/>
      <path id="DejaVuSans-Oblique-77" d="M 544 3500 
L 1113 3500 
L 1259 684 
L 2566 3500 
L 3231 3500 
L 3425 684 
L 4666 3500 
L 5241 3500 
L 3641 0 
L 2969 0 
L 2797 2900 
L 1459 0 
L 781 0 
L 544 3500 
z
" transform="scale(0.015625)"/>
      <path id="DejaVuSans-Oblique-6f" d="M 1625 -91 
Q 1009 -91 651 289 
Q 294 669 294 1325 
Q 294 1706 417 2101 
Q 541 2497 738 2766 
Q 1047 3184 1428 3384 
Q 1809 3584 2291 3584 
Q 2888 3584 3255 3212 
Q 3622 2841 3622 2241 
Q 3622 1825 3500 1412 
Q 3378 1000 3181 728 
Q 2875 309 2494 109 
Q 2113 -91 1625 -91 
z
M 891 1344 
Q 891 869 1089 633 
Q 1288 397 1691 397 
Q 2269 397 2648 901 
Q 3028 1406 3028 2181 
Q 3028 2634 2825 2865 
Q 2622 3097 2228 3097 
Q 1903 3097 1650 2945 
Q 1397 2794 1197 2484 
Q 1050 2253 970 1956 
Q 891 1659 891 1344 
z
" transform="scale(0.015625)"/>
      <path id="DejaVuSans-Oblique-29" d="M -397 -844 
Q 434 191 840 1120 
Q 1247 2050 1247 2913 
Q 1247 3406 1130 3892 
Q 1013 4378 775 4856 
L 1275 4856 
Q 1563 4316 1703 3812 
Q 1844 3309 1844 2822 
Q 1844 1891 1411 973 
Q 978 56 116 -844 
L -397 -844 
z
" transform="scale(0.015625)"/>
     </defs>
     <use xlink:href="#DejaVuSans-Oblique-74"/>
     <use xlink:href="#DejaVuSans-Oblique-68" x="39.208984"/>
     <use xlink:href="#DejaVuSans-Oblique-65" x="102.587891"/>
     <use xlink:href="#DejaVuSans-Oblique-20" x="164.111328"/>
     <use xlink:href="#DejaVuSans-Oblique-6c" x="195.898438"/>
     <use xlink:href="#DejaVuSans-Oblique-69" x="223.681641"/>
     <use xlink:href="#DejaVuSans-Oblique-6e" x="251.464844"/>
     <use xlink:href="#DejaVuSans-Oblique-6b" x="314.84375"/>
     <use xlink:href="#DejaVuSans-Oblique-20" x="372.753906"/>
     <use xlink:href="#DejaVuSans-Oblique-28" x="404.541016"/>
     <use xlink:href="#DejaVuSans-Oblique-77" x="443.554688"/>
     <use xlink:href="#DejaVuSans-Oblique-68" x="525.341797"/>
     <use xlink:href="#DejaVuSans-Oblique-6f" x="588.720703"/>
     <use xlink:href="#DejaVuSans-Oblique-29" x="649.902344"/>
    </g>
   </g>
   <g id="text_2">
    <!-- what's on the link -->
    <g style="fill: #9aa0a8" transform="translate(433.022512 17.7336) scale(0.12 -0.12)">
     <defs>
      <path id="DejaVuSans-Oblique-61" d="M 3438 1997 
L 3047 0 
L 2472 0 
L 2578 531 
Q 2325 219 2001 64 
Q 1678 -91 1281 -91 
Q 834 -91 548 182 
Q 263 456 263 884 
Q 263 1497 752 1853 
Q 1241 2209 2100 2209 
L 2900 2209 
L 2931 2363 
Q 2938 2388 2941 2417 
Q 2944 2447 2944 2509 
Q 2944 2788 2717 2942 
Q 2491 3097 2081 3097 
Q 1800 3097 1504 3025 
Q 1209 2953 897 2809 
L 997 3341 
Q 1322 3463 1633 3523 
Q 1944 3584 2234 3584 
Q 2853 3584 3176 3315 
Q 3500 3047 3500 2534 
Q 3500 2431 3484 2292 
Q 3469 2153 3438 1997 
z
M 2816 1759 
L 2241 1759 
Q 1534 1759 1195 1570 
Q 856 1381 856 984 
Q 856 709 1029 553 
Q 1203 397 1509 397 
Q 1978 397 2328 733 
Q 2678 1069 2791 1631 
L 2816 1759 
z
" transform="scale(0.015625)"/>
      <path id="DejaVuSans-Oblique-27" d="M 1147 4666 
L 1147 2931 
L 616 2931 
L 616 4666 
L 1147 4666 
z
" transform="scale(0.015625)"/>
      <path id="DejaVuSans-Oblique-73" d="M 3200 3397 
L 3091 2853 
Q 2863 2978 2609 3040 
Q 2356 3103 2088 3103 
Q 1634 3103 1373 2948 
Q 1113 2794 1113 2528 
Q 1113 2219 1719 2053 
Q 1766 2041 1788 2034 
L 1972 1978 
Q 2547 1819 2739 1644 
Q 2931 1469 2931 1166 
Q 2931 609 2489 259 
Q 2047 -91 1331 -91 
Q 1053 -91 747 -37 
Q 441 16 72 128 
L 184 722 
Q 500 559 806 475 
Q 1113 391 1394 391 
Q 1816 391 2080 572 
Q 2344 753 2344 1031 
Q 2344 1331 1650 1516 
L 1591 1531 
L 1394 1581 
Q 956 1697 753 1886 
Q 550 2075 550 2369 
Q 550 2928 970 3256 
Q 1391 3584 2113 3584 
Q 2397 3584 2667 3537 
Q 2938 3491 3200 3397 
z
" transform="scale(0.015625)"/>
     </defs>
     <use xlink:href="#DejaVuSans-Oblique-77"/>
     <use xlink:href="#DejaVuSans-Oblique-68" x="81.787109"/>
     <use xlink:href="#DejaVuSans-Oblique-61" x="145.166016"/>
     <use xlink:href="#DejaVuSans-Oblique-74" x="206.445312"/>
     <use xlink:href="#DejaVuSans-Oblique-27" x="245.654297"/>
     <use xlink:href="#DejaVuSans-Oblique-73" x="273.144531"/>
     <use xlink:href="#DejaVuSans-Oblique-20" x="325.244141"/>
     <use xlink:href="#DejaVuSans-Oblique-6f" x="357.03125"/>
     <use xlink:href="#DejaVuSans-Oblique-6e" x="418.212891"/>
     <use xlink:href="#DejaVuSans-Oblique-20" x="481.591797"/>
     <use xlink:href="#DejaVuSans-Oblique-74" x="513.378906"/>
     <use xlink:href="#DejaVuSans-Oblique-68" x="552.587891"/>
     <use xlink:href="#DejaVuSans-Oblique-65" x="615.966797"/>
     <use xlink:href="#DejaVuSans-Oblique-20" x="677.490234"/>
     <use xlink:href="#DejaVuSans-Oblique-6c" x="709.277344"/>
     <use xlink:href="#DejaVuSans-Oblique-69" x="737.060547"/>
     <use xlink:href="#DejaVuSans-Oblique-6e" x="764.84375"/>
     <use xlink:href="#DejaVuSans-Oblique-6b" x="828.222656"/>
    </g>
   </g>
   <g id="text_3">
    <!-- node -->
    <g style="fill: #6fd3ff" transform="translate(63.926334 47.22768) scale(0.15 -0.15)">
     <defs>
      <path id="DejaVuSans-Bold-6e" d="M 4056 2131 
L 4056 0 
L 2931 0 
L 2931 347 
L 2931 1631 
Q 2931 2084 2911 2256 
Q 2891 2428 2841 2509 
Q 2775 2619 2662 2680 
Q 2550 2741 2406 2741 
Q 2056 2741 1856 2470 
Q 1656 2200 1656 1722 
L 1656 0 
L 538 0 
L 538 3500 
L 1656 3500 
L 1656 2988 
Q 1909 3294 2193 3439 
Q 2478 3584 2822 3584 
Q 3428 3584 3742 3212 
Q 4056 2841 4056 2131 
z
" transform="scale(0.015625)"/>
      <path id="DejaVuSans-Bold-6f" d="M 2203 2784 
Q 1831 2784 1636 2517 
Q 1441 2250 1441 1747 
Q 1441 1244 1636 976 
Q 1831 709 2203 709 
Q 2569 709 2762 976 
Q 2956 1244 2956 1747 
Q 2956 2250 2762 2517 
Q 2569 2784 2203 2784 
z
M 2203 3584 
Q 3106 3584 3614 3096 
Q 4122 2609 4122 1747 
Q 4122 884 3614 396 
Q 3106 -91 2203 -91 
Q 1297 -91 786 396 
Q 275 884 275 1747 
Q 275 2609 786 3096 
Q 1297 3584 2203 3584 
z
" transform="scale(0.015625)"/>
      <path id="DejaVuSans-Bold-64" d="M 2919 2988 
L 2919 4863 
L 4044 4863 
L 4044 0 
L 2919 0 
L 2919 506 
Q 2688 197 2409 53 
Q 2131 -91 1766 -91 
Q 1119 -91 703 423 
Q 288 938 288 1747 
Q 288 2556 703 3070 
Q 1119 3584 1766 3584 
Q 2128 3584 2408 3439 
Q 2688 3294 2919 2988 
z
M 2181 722 
Q 2541 722 2730 984 
Q 2919 1247 2919 1747 
Q 2919 2247 2730 2509 
Q 2541 2772 2181 2772 
Q 1825 2772 1636 2509 
Q 1447 2247 1447 1747 
Q 1447 1247 1636 984 
Q 1825 722 2181 722 
z
" transform="scale(0.015625)"/>
      <path id="DejaVuSans-Bold-65" d="M 4031 1759 
L 4031 1441 
L 1416 1441 
Q 1456 1047 1700 850 
Q 1944 653 2381 653 
Q 2734 653 3104 758 
Q 3475 863 3866 1075 
L 3866 213 
Q 3469 63 3072 -14 
Q 2675 -91 2278 -91 
Q 1328 -91 801 392 
Q 275 875 275 1747 
Q 275 2603 792 3093 
Q 1309 3584 2216 3584 
Q 3041 3584 3536 3087 
Q 4031 2591 4031 1759 
z
M 2881 2131 
Q 2881 2450 2695 2645 
Q 2509 2841 2209 2841 
Q 1884 2841 1681 2658 
Q 1478 2475 1428 2131 
L 2881 2131 
z
" transform="scale(0.015625)"/>
     </defs>
     <use xlink:href="#DejaVuSans-Bold-6e"/>
     <use xlink:href="#DejaVuSans-Bold-6f" x="71.191406"/>
     <use xlink:href="#DejaVuSans-Bold-64" x="139.892578"/>
     <use xlink:href="#DejaVuSans-Bold-65" x="211.474609"/>
    </g>
   </g>
   <g id="text_4">
    <!-- neighbour -->
    <g style="fill: #6fd3ff" transform="translate(184.011919 47.22768) scale(0.15 -0.15)">
     <defs>
      <path id="DejaVuSans-Bold-69" d="M 538 3500 
L 1656 3500 
L 1656 0 
L 538 0 
L 538 3500 
z
M 538 4863 
L 1656 4863 
L 1656 3950 
L 538 3950 
L 538 4863 
z
" transform="scale(0.015625)"/>
      <path id="DejaVuSans-Bold-67" d="M 2919 594 
Q 2688 288 2409 144 
Q 2131 0 1766 0 
Q 1125 0 706 504 
Q 288 1009 288 1791 
Q 288 2575 706 3076 
Q 1125 3578 1766 3578 
Q 2131 3578 2409 3434 
Q 2688 3291 2919 2981 
L 2919 3500 
L 4044 3500 
L 4044 353 
Q 4044 -491 3511 -936 
Q 2978 -1381 1966 -1381 
Q 1638 -1381 1331 -1331 
Q 1025 -1281 716 -1178 
L 716 -306 
Q 1009 -475 1290 -558 
Q 1572 -641 1856 -641 
Q 2406 -641 2662 -400 
Q 2919 -159 2919 353 
L 2919 594 
z
M 2181 2772 
Q 1834 2772 1640 2515 
Q 1447 2259 1447 1791 
Q 1447 1309 1634 1061 
Q 1822 813 2181 813 
Q 2531 813 2725 1069 
Q 2919 1325 2919 1791 
Q 2919 2259 2725 2515 
Q 2531 2772 2181 2772 
z
" transform="scale(0.015625)"/>
      <path id="DejaVuSans-Bold-68" d="M 4056 2131 
L 4056 0 
L 2931 0 
L 2931 347 
L 2931 1625 
Q 2931 2084 2911 2256 
Q 2891 2428 2841 2509 
Q 2775 2619 2662 2680 
Q 2550 2741 2406 2741 
Q 2056 2741 1856 2470 
Q 1656 2200 1656 1722 
L 1656 0 
L 538 0 
L 538 4863 
L 1656 4863 
L 1656 2988 
Q 1909 3294 2193 3439 
Q 2478 3584 2822 3584 
Q 3428 3584 3742 3212 
Q 4056 2841 4056 2131 
z
" transform="scale(0.015625)"/>
      <path id="DejaVuSans-Bold-62" d="M 2400 722 
Q 2759 722 2948 984 
Q 3138 1247 3138 1747 
Q 3138 2247 2948 2509 
Q 2759 2772 2400 2772 
Q 2041 2772 1848 2508 
Q 1656 2244 1656 1747 
Q 1656 1250 1848 986 
Q 2041 722 2400 722 
z
M 1656 2988 
Q 1888 3294 2169 3439 
Q 2450 3584 2816 3584 
Q 3463 3584 3878 3070 
Q 4294 2556 4294 1747 
Q 4294 938 3878 423 
Q 3463 -91 2816 -91 
Q 2450 -91 2169 54 
Q 1888 200 1656 506 
L 1656 0 
L 538 0 
L 538 4863 
L 1656 4863 
L 1656 2988 
z
" transform="scale(0.015625)"/>
      <path id="DejaVuSans-Bold-75" d="M 500 1363 
L 500 3500 
L 1625 3500 
L 1625 3150 
Q 1625 2866 1622 2436 
Q 1619 2006 1619 1863 
Q 1619 1441 1641 1255 
Q 1663 1069 1716 984 
Q 1784 875 1895 815 
Q 2006 756 2150 756 
Q 2500 756 2700 1025 
Q 2900 1294 2900 1772 
L 2900 3500 
L 4019 3500 
L 4019 0 
L 2900 0 
L 2900 506 
Q 2647 200 2364 54 
Q 2081 -91 1741 -91 
Q 1134 -91 817 281 
Q 500 653 500 1363 
z
" transform="scale(0.015625)"/>
      <path id="DejaVuSans-Bold-72" d="M 3138 2547 
Q 2991 2616 2845 2648 
Q 2700 2681 2553 2681 
Q 2122 2681 1889 2404 
Q 1656 2128 1656 1613 
L 1656 0 
L 538 0 
L 538 3500 
L 1656 3500 
L 1656 2925 
Q 1872 3269 2151 3426 
Q 2431 3584 2822 3584 
Q 2878 3584 2943 3579 
Q 3009 3575 3134 3559 
L 3138 2547 
z
" transform="scale(0.015625)"/>
     </defs>
     <use xlink:href="#DejaVuSans-Bold-6e"/>
     <use xlink:href="#DejaVuSans-Bold-65" x="71.191406"/>
     <use xlink:href="#DejaVuSans-Bold-69" x="139.013672"/>
     <use xlink:href="#DejaVuSans-Bold-67" x="173.291016"/>
     <use xlink:href="#DejaVuSans-Bold-68" x="244.873047"/>
     <use xlink:href="#DejaVuSans-Bold-62" x="316.064453"/>
     <use xlink:href="#DejaVuSans-Bold-6f" x="387.646484"/>
     <use xlink:href="#DejaVuSans-Bold-75" x="456.347656"/>
     <use xlink:href="#DejaVuSans-Bold-72" x="527.539062"/>
    </g>
   </g>
   <g id="text_5">
    <!-- log1p_dist -->
    <g style="fill: #6fd3ff" transform="translate(365.096803 47.22768) scale(0.15 -0.15)">
     <defs>
      <path id="DejaVuSans-Bold-6c" d="M 538 4863 
L 1656 4863 
L 1656 0 
L 538 0 
L 538 4863 
z
" transform="scale(0.015625)"/>
      <path id="DejaVuSans-Bold-31" d="M 750 831 
L 1813 831 
L 1813 3847 
L 722 3622 
L 722 4441 
L 1806 4666 
L 2950 4666 
L 2950 831 
L 4013 831 
L 4013 0 
L 750 0 
L 750 831 
z
" transform="scale(0.015625)"/>
      <path id="DejaVuSans-Bold-70" d="M 1656 506 
L 1656 -1331 
L 538 -1331 
L 538 3500 
L 1656 3500 
L 1656 2988 
Q 1888 3294 2169 3439 
Q 2450 3584 2816 3584 
Q 3463 3584 3878 3070 
Q 4294 2556 4294 1747 
Q 4294 938 3878 423 
Q 3463 -91 2816 -91 
Q 2450 -91 2169 54 
Q 1888 200 1656 506 
z
M 2400 2772 
Q 2041 2772 1848 2508 
Q 1656 2244 1656 1747 
Q 1656 1250 1848 986 
Q 2041 722 2400 722 
Q 2759 722 2948 984 
Q 3138 1247 3138 1747 
Q 3138 2247 2948 2509 
Q 2759 2772 2400 2772 
z
" transform="scale(0.015625)"/>
      <path id="DejaVuSans-Bold-5f" d="M 3200 -916 
L 3200 -1509 
L 0 -1509 
L 0 -916 
L 3200 -916 
z
" transform="scale(0.015625)"/>
      <path id="DejaVuSans-Bold-73" d="M 3272 3391 
L 3272 2541 
Q 2913 2691 2578 2766 
Q 2244 2841 1947 2841 
Q 1628 2841 1473 2761 
Q 1319 2681 1319 2516 
Q 1319 2381 1436 2309 
Q 1553 2238 1856 2203 
L 2053 2175 
Q 2913 2066 3209 1816 
Q 3506 1566 3506 1031 
Q 3506 472 3093 190 
Q 2681 -91 1863 -91 
Q 1516 -91 1145 -36 
Q 775 19 384 128 
L 384 978 
Q 719 816 1070 734 
Q 1422 653 1784 653 
Q 2113 653 2278 743 
Q 2444 834 2444 1013 
Q 2444 1163 2330 1236 
Q 2216 1309 1875 1350 
L 1678 1375 
Q 931 1469 631 1722 
Q 331 1975 331 2491 
Q 331 3047 712 3315 
Q 1094 3584 1881 3584 
Q 2191 3584 2531 3537 
Q 2872 3491 3272 3391 
z
" transform="scale(0.015625)"/>
      <path id="DejaVuSans-Bold-74" d="M 1759 4494 
L 1759 3500 
L 2913 3500 
L 2913 2700 
L 1759 2700 
L 1759 1216 
Q 1759 972 1856 886 
Q 1953 800 2241 800 
L 2816 800 
L 2816 0 
L 1856 0 
Q 1194 0 917 276 
Q 641 553 641 1216 
L 641 2700 
L 84 2700 
L 84 3500 
L 641 3500 
L 641 4494 
L 1759 4494 
z
" transform="scale(0.015625)"/>
     </defs>
     <use xlink:href="#DejaVuSans-Bold-6c"/>
     <use xlink:href="#DejaVuSans-Bold-6f" x="34.277344"/>
     <use xlink:href="#DejaVuSans-Bold-67" x="102.978516"/>
     <use xlink:href="#DejaVuSans-Bold-31" x="174.560547"/>
     <use xlink:href="#DejaVuSans-Bold-70" x="244.140625"/>
     <use xlink:href="#DejaVuSans-Bold-5f" x="315.722656"/>
     <use xlink:href="#DejaVuSans-Bold-64" x="365.722656"/>
     <use xlink:href="#DejaVuSans-Bold-69" x="437.304688"/>
     <use xlink:href="#DejaVuSans-Bold-73" x="471.582031"/>
     <use xlink:href="#DejaVuSans-Bold-74" x="531.103516"/>
    </g>
   </g>
   <g id="text_6">
    <!-- signed_grad -->
    <g style="fill: #6fd3ff" transform="translate(512.416659 47.22768) scale(0.15 -0.15)">
     <defs>
      <path id="DejaVuSans-Bold-61" d="M 2106 1575 
Q 1756 1575 1579 1456 
Q 1403 1338 1403 1106 
Q 1403 894 1545 773 
Q 1688 653 1941 653 
Q 2256 653 2472 879 
Q 2688 1106 2688 1447 
L 2688 1575 
L 2106 1575 
z
M 3816 1997 
L 3816 0 
L 2688 0 
L 2688 519 
Q 2463 200 2181 54 
Q 1900 -91 1497 -91 
Q 953 -91 614 226 
Q 275 544 275 1050 
Q 275 1666 698 1953 
Q 1122 2241 2028 2241 
L 2688 2241 
L 2688 2328 
Q 2688 2594 2478 2717 
Q 2269 2841 1825 2841 
Q 1466 2841 1156 2769 
Q 847 2697 581 2553 
L 581 3406 
Q 941 3494 1303 3539 
Q 1666 3584 2028 3584 
Q 2975 3584 3395 3211 
Q 3816 2838 3816 1997 
z
" transform="scale(0.015625)"/>
     </defs>
     <use xlink:href="#DejaVuSans-Bold-73"/>
     <use xlink:href="#DejaVuSans-Bold-69" x="59.521484"/>
     <use xlink:href="#DejaVuSans-Bold-67" x="93.798828"/>
     <use xlink:href="#DejaVuSans-Bold-6e" x="165.380859"/>
     <use xlink:href="#DejaVuSans-Bold-65" x="236.572266"/>
     <use xlink:href="#DejaVuSans-Bold-64" x="304.394531"/>
     <use xlink:href="#DejaVuSans-Bold-5f" x="375.976562"/>
     <use xlink:href="#DejaVuSans-Bold-67" x="425.976562"/>
     <use xlink:href="#DejaVuSans-Bold-72" x="497.558594"/>
     <use xlink:href="#DejaVuSans-Bold-61" x="546.875"/>
     <use xlink:href="#DejaVuSans-Bold-64" x="614.355469"/>
    </g>
   </g>
   <g id="text_7">
    <!-- 0 -->
    <g style="fill: #c8ccd2" transform="translate(80.41985 95.68224) scale(0.14 -0.14)">
     <defs>
      <path id="DejaVuSans-30" d="M 2034 4250 
Q 1547 4250 1301 3770 
Q 1056 3291 1056 2328 
Q 1056 1369 1301 889 
Q 1547 409 2034 409 
Q 2525 409 2770 889 
Q 3016 1369 3016 2328 
Q 3016 3291 2770 3770 
Q 2525 4250 2034 4250 
z
M 2034 4750 
Q 2819 4750 3233 4129 
Q 3647 3509 3647 2328 
Q 3647 1150 3233 529 
Q 2819 -91 2034 -91 
Q 1250 -91 836 529 
Q 422 1150 422 2328 
Q 422 3509 836 4129 
Q 1250 4750 2034 4750 
z
" transform="scale(0.015625)"/>
     </defs>
     <use xlink:href="#DejaVuSans-30"/>
    </g>
   </g>
   <g id="text_8">
    <!-- 1 -->
    <g style="fill: #ffffff" transform="translate(222.82145 95.68224) scale(0.14 -0.14)">
     <defs>
      <path id="DejaVuSans-31" d="M 794 531 
L 1825 531 
L 1825 4091 
L 703 3866 
L 703 4441 
L 1819 4666 
L 2450 4666 
L 2450 531 
L 3481 531 
L 3481 0 
L 794 0 
L 794 531 
z
" transform="scale(0.015625)"/>
     </defs>
     <use xlink:href="#DejaVuSans-31"/>
    </g>
   </g>
   <g id="text_9">
    <!-- 5.5234 -->
    <g style="fill: #ffffff" transform="translate(384.020162 95.68224) scale(0.14 -0.14)">
     <defs>
      <path id="DejaVuSans-35" d="M 691 4666 
L 3169 4666 
L 3169 4134 
L 1269 4134 
L 1269 2991 
Q 1406 3038 1543 3061 
Q 1681 3084 1819 3084 
Q 2600 3084 3056 2656 
Q 3513 2228 3513 1497 
Q 3513 744 3044 326 
Q 2575 -91 1722 -91 
Q 1428 -91 1123 -41 
Q 819 9 494 109 
L 494 744 
Q 775 591 1075 516 
Q 1375 441 1709 441 
Q 2250 441 2565 725 
Q 2881 1009 2881 1497 
Q 2881 1984 2565 2268 
Q 2250 2553 1709 2553 
Q 1456 2553 1204 2497 
Q 953 2441 691 2322 
L 691 4666 
z
" transform="scale(0.015625)"/>
      <path id="DejaVuSans-2e" d="M 684 794 
L 1344 794 
L 1344 0 
L 684 0 
L 684 794 
z
" transform="scale(0.015625)"/>
      <path id="DejaVuSans-32" d="M 1228 531 
L 3431 531 
L 3431 0 
L 469 0 
L 469 531 
Q 828 903 1448 1529 
Q 2069 2156 2228 2338 
Q 2531 2678 2651 2914 
Q 2772 3150 2772 3378 
Q 2772 3750 2511 3984 
Q 2250 4219 1831 4219 
Q 1534 4219 1204 4116 
Q 875 4013 500 3803 
L 500 4441 
Q 881 4594 1212 4672 
Q 1544 4750 1819 4750 
Q 2544 4750 2975 4387 
Q 3406 4025 3406 3419 
Q 3406 3131 3298 2873 
Q 3191 2616 2906 2266 
Q 2828 2175 2409 1742 
Q 1991 1309 1228 531 
z
" transform="scale(0.015625)"/>
      <path id="DejaVuSans-33" d="M 2597 2516 
Q 3050 2419 3304 2112 
Q 3559 1806 3559 1356 
Q 3559 666 3084 287 
Q 2609 -91 1734 -91 
Q 1441 -91 1130 -33 
Q 819 25 488 141 
L 488 750 
Q 750 597 1062 519 
Q 1375 441 1716 441 
Q 2309 441 2620 675 
Q 2931 909 2931 1356 
Q 2931 1769 2642 2001 
Q 2353 2234 1838 2234 
L 1294 2234 
L 1294 2753 
L 1863 2753 
Q 2328 2753 2575 2939 
Q 2822 3125 2822 3475 
Q 2822 3834 2567 4026 
Q 2313 4219 1838 4219 
Q 1578 4219 1281 4162 
Q 984 4106 628 3988 
L 628 4550 
Q 988 4650 1302 4700 
Q 1616 4750 1894 4750 
Q 2613 4750 3031 4423 
Q 3450 4097 3450 3541 
Q 3450 3153 3228 2886 
Q 3006 2619 2597 2516 
z
" transform="scale(0.015625)"/>
      <path id="DejaVuSans-34" d="M 2419 4116 
L 825 1625 
L 2419 1625 
L 2419 4116 
z
M 2253 4666 
L 3047 4666 
L 3047 1625 
L 3713 1625 
L 3713 1100 
L 3047 1100 
L 3047 0 
L 2419 0 
L 2419 1100 
L 313 1100 
L 313 1709 
L 2253 4666 
z
" transform="scale(0.015625)"/>
     </defs>
     <use xlink:href="#DejaVuSans-35"/>
     <use xlink:href="#DejaVuSans-2e" x="63.623047"/>
     <use xlink:href="#DejaVuSans-35" x="95.410156"/>
     <use xlink:href="#DejaVuSans-32" x="159.033203"/>
     <use xlink:href="#DejaVuSans-33" x="222.65625"/>
     <use xlink:href="#DejaVuSans-34" x="286.279297"/>
    </g>
   </g>
   <g id="text_10">
    <!-- −1.5049 -->
    <g style="fill: #ffffff" transform="translate(533.501581 95.68224) scale(0.14 -0.14)">
     <defs>
      <path id="DejaVuSans-2212" d="M 678 2272 
L 4684 2272 
L 4684 1741 
L 678 1741 
L 678 2272 
z
" transform="scale(0.015625)"/>
      <path id="DejaVuSans-39" d="M 703 97 
L 703 672 
Q 941 559 1184 500 
Q 1428 441 1663 441 
Q 2288 441 2617 861 
Q 2947 1281 2994 2138 
Q 2813 1869 2534 1725 
Q 2256 1581 1919 1581 
Q 1219 1581 811 2004 
Q 403 2428 403 3163 
Q 403 3881 828 4315 
Q 1253 4750 1959 4750 
Q 2769 4750 3195 4129 
Q 3622 3509 3622 2328 
Q 3622 1225 3098 567 
Q 2575 -91 1691 -91 
Q 1453 -91 1209 -44 
Q 966 3 703 97 
z
M 1959 2075 
Q 2384 2075 2632 2365 
Q 2881 2656 2881 3163 
Q 2881 3666 2632 3958 
Q 2384 4250 1959 4250 
Q 1534 4250 1286 3958 
Q 1038 3666 1038 3163 
Q 1038 2656 1286 2365 
Q 1534 2075 1959 2075 
z
" transform="scale(0.015625)"/>
     </defs>
     <use xlink:href="#DejaVuSans-2212"/>
     <use xlink:href="#DejaVuSans-31" x="83.789062"/>
     <use xlink:href="#DejaVuSans-2e" x="147.412109"/>
     <use xlink:href="#DejaVuSans-35" x="179.199219"/>
     <use xlink:href="#DejaVuSans-30" x="242.822266"/>
     <use xlink:href="#DejaVuSans-34" x="306.445312"/>
     <use xlink:href="#DejaVuSans-39" x="370.068359"/>
    </g>
   </g>
   <g id="text_11">
    <!-- 0 -->
    <g style="fill: #c8ccd2" transform="translate(80.41985 123.490944) scale(0.14 -0.14)">
     <use xlink:href="#DejaVuSans-30"/>
    </g>
   </g>
   <g id="text_12">
    <!-- 2 -->
    <g style="fill: #ffffff" transform="translate(222.82145 123.490944) scale(0.14 -0.14)">
     <use xlink:href="#DejaVuSans-32"/>
    </g>
   </g>
   <g id="text_13">
    <!-- 6.0859 -->
    <g style="fill: #ffffff" transform="translate(384.020162 123.490944) scale(0.14 -0.14)">
     <defs>
      <path id="DejaVuSans-36" d="M 2113 2584 
Q 1688 2584 1439 2293 
Q 1191 2003 1191 1497 
Q 1191 994 1439 701 
Q 1688 409 2113 409 
Q 2538 409 2786 701 
Q 3034 994 3034 1497 
Q 3034 2003 2786 2293 
Q 2538 2584 2113 2584 
z
M 3366 4563 
L 3366 3988 
Q 3128 4100 2886 4159 
Q 2644 4219 2406 4219 
Q 1781 4219 1451 3797 
Q 1122 3375 1075 2522 
Q 1259 2794 1537 2939 
Q 1816 3084 2150 3084 
Q 2853 3084 3261 2657 
Q 3669 2231 3669 1497 
Q 3669 778 3244 343 
Q 2819 -91 2113 -91 
Q 1303 -91 875 529 
Q 447 1150 447 2328 
Q 447 3434 972 4092 
Q 1497 4750 2381 4750 
Q 2619 4750 2861 4703 
Q 3103 4656 3366 4563 
z
" transform="scale(0.015625)"/>
      <path id="DejaVuSans-38" d="M 2034 2216 
Q 1584 2216 1326 1975 
Q 1069 1734 1069 1313 
Q 1069 891 1326 650 
Q 1584 409 2034 409 
Q 2484 409 2743 651 
Q 3003 894 3003 1313 
Q 3003 1734 2745 1975 
Q 2488 2216 2034 2216 
z
M 1403 2484 
Q 997 2584 770 2862 
Q 544 3141 544 3541 
Q 544 4100 942 4425 
Q 1341 4750 2034 4750 
Q 2731 4750 3128 4425 
Q 3525 4100 3525 3541 
Q 3525 3141 3298 2862 
Q 3072 2584 2669 2484 
Q 3125 2378 3379 2068 
Q 3634 1759 3634 1313 
Q 3634 634 3220 271 
Q 2806 -91 2034 -91 
Q 1263 -91 848 271 
Q 434 634 434 1313 
Q 434 1759 690 2068 
Q 947 2378 1403 2484 
z
M 1172 3481 
Q 1172 3119 1398 2916 
Q 1625 2713 2034 2713 
Q 2441 2713 2670 2916 
Q 2900 3119 2900 3481 
Q 2900 3844 2670 4047 
Q 2441 4250 2034 4250 
Q 1625 4250 1398 4047 
Q 1172 3844 1172 3481 
z
" transform="scale(0.015625)"/>
     </defs>
     <use xlink:href="#DejaVuSans-36"/>
     <use xlink:href="#DejaVuSans-2e" x="63.623047"/>
     <use xlink:href="#DejaVuSans-30" x="95.410156"/>
     <use xlink:href="#DejaVuSans-38" x="159.033203"/>
     <use xlink:href="#DejaVuSans-35" x="222.65625"/>
     <use xlink:href="#DejaVuSans-39" x="286.279297"/>
    </g>
   </g>
   <g id="text_14">
    <!-- −0.8936 -->
    <g style="fill: #ffffff" transform="translate(533.501581 123.490944) scale(0.14 -0.14)">
     <use xlink:href="#DejaVuSans-2212"/>
     <use xlink:href="#DejaVuSans-30" x="83.789062"/>
     <use xlink:href="#DejaVuSans-2e" x="147.412109"/>
     <use xlink:href="#DejaVuSans-38" x="179.199219"/>
     <use xlink:href="#DejaVuSans-39" x="242.822266"/>
     <use xlink:href="#DejaVuSans-33" x="306.445312"/>
     <use xlink:href="#DejaVuSans-36" x="370.068359"/>
    </g>
   </g>
   <g id="text_15">
    <!-- ⋮ -->
    <g style="fill: #c8ccd2" transform="translate(77.3736 151.299648) scale(0.15 -0.15)">
     <defs>
      <path id="DejaVuSans-22ee" d="M 2868 187 
L 3528 187 
L 3528 -607 
L 2868 -607 
L 2868 187 
z
M 2868 4603 
L 3528 4603 
L 3528 3809 
L 2868 3809 
L 2868 4603 
z
M 2868 2363 
L 3528 2363 
L 3528 1569 
L 2868 1569 
L 2868 2363 
z
" transform="scale(0.015625)"/>
     </defs>
     <use xlink:href="#DejaVuSans-22ee"/>
    </g>
   </g>
   <g id="text_16">
    <!-- ⋮ -->
    <g style="fill: #c8ccd2" transform="translate(219.7752 151.299648) scale(0.15 -0.15)">
     <use xlink:href="#DejaVuSans-22ee"/>
    </g>
   </g>
   <g id="text_17">
    <!-- ⋮ -->
    <g style="fill: #c8ccd2" transform="translate(401.0136 151.299648) scale(0.15 -0.15)">
     <use xlink:href="#DejaVuSans-22ee"/>
    </g>
   </g>
   <g id="text_18">
    <!-- ⋮ -->
    <g style="fill: #c8ccd2" transform="translate(556.3608 151.299648) scale(0.15 -0.15)">
     <use xlink:href="#DejaVuSans-22ee"/>
    </g>
   </g>
   <g id="text_19">
    <!-- 0 -->
    <g style="fill: #c8ccd2" transform="translate(80.41985 179.108352) scale(0.14 -0.14)">
     <use xlink:href="#DejaVuSans-30"/>
    </g>
   </g>
   <g id="text_20">
    <!-- 73319443 -->
    <g style="fill: #ffb74d" transform="translate(191.6452 179.108352) scale(0.14 -0.14)">
     <defs>
      <path id="DejaVuSans-37" d="M 525 4666 
L 3525 4666 
L 3525 4397 
L 1831 0 
L 1172 0 
L 2766 4134 
L 525 4134 
L 525 4666 
z
" transform="scale(0.015625)"/>
     </defs>
     <use xlink:href="#DejaVuSans-37"/>
     <use xlink:href="#DejaVuSans-33" x="63.623047"/>
     <use xlink:href="#DejaVuSans-33" x="127.246094"/>
     <use xlink:href="#DejaVuSans-31" x="190.869141"/>
     <use xlink:href="#DejaVuSans-39" x="254.492188"/>
     <use xlink:href="#DejaVuSans-34" x="318.115234"/>
     <use xlink:href="#DejaVuSans-34" x="381.738281"/>
     <use xlink:href="#DejaVuSans-33" x="445.361328"/>
    </g>
   </g>
   <g id="text_21">
    <!-- 7.5664 -->
    <g style="fill: #ffb74d" transform="translate(384.020162 179.108352) scale(0.14 -0.14)">
     <use xlink:href="#DejaVuSans-37"/>
     <use xlink:href="#DejaVuSans-2e" x="63.623047"/>
     <use xlink:href="#DejaVuSans-35" x="95.410156"/>
     <use xlink:href="#DejaVuSans-36" x="159.033203"/>
     <use xlink:href="#DejaVuSans-36" x="222.65625"/>
     <use xlink:href="#DejaVuSans-34" x="286.279297"/>
    </g>
   </g>
   <g id="text_22">
    <!-- +3.9316 -->
    <g style="fill: #ffb74d" transform="translate(533.501581 179.108352) scale(0.14 -0.14)">
     <defs>
      <path id="DejaVuSans-2b" d="M 2944 4013 
L 2944 2272 
L 4684 2272 
L 4684 1741 
L 2944 1741 
L 2944 0 
L 2419 0 
L 2419 1741 
L 678 1741 
L 678 2272 
L 2419 2272 
L 2419 4013 
L 2944 4013 
z
" transform="scale(0.015625)"/>
     </defs>
     <use xlink:href="#DejaVuSans-2b"/>
     <use xlink:href="#DejaVuSans-33" x="83.789062"/>
     <use xlink:href="#DejaVuSans-2e" x="147.412109"/>
     <use xlink:href="#DejaVuSans-39" x="179.199219"/>
     <use xlink:href="#DejaVuSans-33" x="242.822266"/>
     <use xlink:href="#DejaVuSans-31" x="306.445312"/>
     <use xlink:href="#DejaVuSans-36" x="370.068359"/>
    </g>
   </g>
   <g id="text_23">
    <!-- 0 -->
    <g style="fill: #c8ccd2" transform="translate(80.41985 206.917056) scale(0.14 -0.14)">
     <use xlink:href="#DejaVuSans-30"/>
    </g>
   </g>
   <g id="text_24">
    <!-- 73319442 -->
    <g style="fill: #ffb74d" transform="translate(191.6452 206.917056) scale(0.14 -0.14)">
     <use xlink:href="#DejaVuSans-37"/>
     <use xlink:href="#DejaVuSans-33" x="63.623047"/>
     <use xlink:href="#DejaVuSans-33" x="127.246094"/>
     <use xlink:href="#DejaVuSans-31" x="190.869141"/>
     <use xlink:href="#DejaVuSans-39" x="254.492188"/>
     <use xlink:href="#DejaVuSans-34" x="318.115234"/>
     <use xlink:href="#DejaVuSans-34" x="381.738281"/>
     <use xlink:href="#DejaVuSans-32" x="445.361328"/>
    </g>
   </g>
   <g id="text_25">
    <!-- 7.7227 -->
    <g style="fill: #ffb74d" transform="translate(384.020162 206.917056) scale(0.14 -0.14)">
     <use xlink:href="#DejaVuSans-37"/>
     <use xlink:href="#DejaVuSans-2e" x="63.623047"/>
     <use xlink:href="#DejaVuSans-37" x="95.410156"/>
     <use xlink:href="#DejaVuSans-32" x="159.033203"/>
     <use xlink:href="#DejaVuSans-32" x="222.65625"/>
     <use xlink:href="#DejaVuSans-37" x="286.279297"/>
    </g>
   </g>
   <g id="text_26">
    <!-- +2.7773 -->
    <g style="fill: #ffb74d" transform="translate(533.501581 206.917056) scale(0.14 -0.14)">
     <use xlink:href="#DejaVuSans-2b"/>
     <use xlink:href="#DejaVuSans-32" x="83.789062"/>
     <use xlink:href="#DejaVuSans-2e" x="147.412109"/>
     <use xlink:href="#DejaVuSans-37" x="179.199219"/>
     <use xlink:href="#DejaVuSans-37" x="242.822266"/>
     <use xlink:href="#DejaVuSans-37" x="306.445312"/>
     <use xlink:href="#DejaVuSans-33" x="370.068359"/>
    </g>
   </g>
   <g id="text_27">
    <!-- 1 -->
    <g style="fill: #c8ccd2" transform="translate(80.41985 234.72576) scale(0.14 -0.14)">
     <use xlink:href="#DejaVuSans-31"/>
    </g>
   </g>
   <g id="text_28">
    <!-- 2 -->
    <g style="fill: #ffffff" transform="translate(222.82145 234.72576) scale(0.14 -0.14)">
     <use xlink:href="#DejaVuSans-32"/>
    </g>
   </g>
   <g id="text_29">
    <!-- 5.2500 -->
    <g style="fill: #ffffff" transform="translate(384.020162 234.72576) scale(0.14 -0.14)">
     <use xlink:href="#DejaVuSans-35"/>
     <use xlink:href="#DejaVuSans-2e" x="63.623047"/>
     <use xlink:href="#DejaVuSans-32" x="95.410156"/>
     <use xlink:href="#DejaVuSans-35" x="159.033203"/>
     <use xlink:href="#DejaVuSans-30" x="222.65625"/>
     <use xlink:href="#DejaVuSans-30" x="286.279297"/>
    </g>
   </g>
   <g id="text_30">
    <!-- −0.0538 -->
    <g style="fill: #ffffff" transform="translate(533.501581 234.72576) scale(0.14 -0.14)">
     <use xlink:href="#DejaVuSans-2212"/>
     <use xlink:href="#DejaVuSans-30" x="83.789062"/>
     <use xlink:href="#DejaVuSans-2e" x="147.412109"/>
     <use xlink:href="#DejaVuSans-30" x="179.199219"/>
     <use xlink:href="#DejaVuSans-35" x="242.822266"/>
     <use xlink:href="#DejaVuSans-33" x="306.445312"/>
     <use xlink:href="#DejaVuSans-38" x="370.068359"/>
    </g>
   </g>
   <g id="text_31">
    <!-- 1 -->
    <g style="fill: #c8ccd2" transform="translate(80.41985 262.534464) scale(0.14 -0.14)">
     <use xlink:href="#DejaVuSans-31"/>
    </g>
   </g>
   <g id="text_32">
    <!-- 0 -->
    <g style="fill: #ffffff" transform="translate(222.82145 262.534464) scale(0.14 -0.14)">
     <use xlink:href="#DejaVuSans-30"/>
    </g>
   </g>
   <g id="text_33">
    <!-- 5.5234 -->
    <g style="fill: #ffffff" transform="translate(384.020162 262.534464) scale(0.14 -0.14)">
     <use xlink:href="#DejaVuSans-35"/>
     <use xlink:href="#DejaVuSans-2e" x="63.623047"/>
     <use xlink:href="#DejaVuSans-35" x="95.410156"/>
     <use xlink:href="#DejaVuSans-32" x="159.033203"/>
     <use xlink:href="#DejaVuSans-33" x="222.65625"/>
     <use xlink:href="#DejaVuSans-34" x="286.279297"/>
    </g>
   </g>
   <g id="text_34">
    <!-- +1.5049 -->
    <g style="fill: #ffffff" transform="translate(533.501581 262.534464) scale(0.14 -0.14)">
     <use xlink:href="#DejaVuSans-2b"/>
     <use xlink:href="#DejaVuSans-31" x="83.789062"/>
     <use xlink:href="#DejaVuSans-2e" x="147.412109"/>
     <use xlink:href="#DejaVuSans-35" x="179.199219"/>
     <use xlink:href="#DejaVuSans-30" x="242.822266"/>
     <use xlink:href="#DejaVuSans-34" x="306.445312"/>
     <use xlink:href="#DejaVuSans-39" x="370.068359"/>
    </g>
   </g>
   <g id="text_35">
    <!-- ⋮ -->
    <g style="fill: #c8ccd2" transform="translate(76.8736 286.129728) scale(0.16 -0.16)">
     <use xlink:href="#DejaVuSans-22ee"/>
    </g>
   </g>
   <g id="text_36">
    <!-- ⋮ -->
    <g style="fill: #c8ccd2" transform="translate(219.2752 286.129728) scale(0.16 -0.16)">
     <use xlink:href="#DejaVuSans-22ee"/>
    </g>
   </g>
   <g id="text_37">
    <!-- ⋮ -->
    <g style="fill: #c8ccd2" transform="translate(400.5136 286.129728) scale(0.16 -0.16)">
     <use xlink:href="#DejaVuSans-22ee"/>
    </g>
   </g>
   <g id="text_38">
    <!-- ⋮ -->
    <g style="fill: #c8ccd2" transform="translate(555.8608 286.129728) scale(0.16 -0.16)">
     <use xlink:href="#DejaVuSans-22ee"/>
    </g>
   </g>
   <g id="text_39">
    <!-- 1,195,952,496 rows   =   74,747,031 points  ×  16 neighbours -->
    <g style="fill: #ffffff" transform="translate(105.876016 302.1408) scale(0.13 -0.13)">
     <defs>
      <path id="DejaVuSans-Bold-2c" d="M 653 1209 
L 1778 1209 
L 1778 256 
L 1006 -909 
L 341 -909 
L 653 256 
L 653 1209 
z
" transform="scale(0.015625)"/>
      <path id="DejaVuSans-Bold-39" d="M 641 103 
L 641 966 
Q 928 831 1190 764 
Q 1453 697 1709 697 
Q 2247 697 2547 995 
Q 2847 1294 2900 1881 
Q 2688 1725 2447 1647 
Q 2206 1569 1925 1569 
Q 1209 1569 770 1986 
Q 331 2403 331 3084 
Q 331 3838 820 4291 
Q 1309 4744 2131 4744 
Q 3044 4744 3544 4128 
Q 4044 3513 4044 2388 
Q 4044 1231 3459 570 
Q 2875 -91 1856 -91 
Q 1528 -91 1228 -42 
Q 928 6 641 103 
z
M 2125 2350 
Q 2441 2350 2600 2554 
Q 2759 2759 2759 3169 
Q 2759 3575 2600 3781 
Q 2441 3988 2125 3988 
Q 1809 3988 1650 3781 
Q 1491 3575 1491 3169 
Q 1491 2759 1650 2554 
Q 1809 2350 2125 2350 
z
" transform="scale(0.015625)"/>
      <path id="DejaVuSans-Bold-35" d="M 678 4666 
L 3669 4666 
L 3669 3781 
L 1638 3781 
L 1638 3059 
Q 1775 3097 1914 3117 
Q 2053 3138 2203 3138 
Q 3056 3138 3531 2711 
Q 4006 2284 4006 1522 
Q 4006 766 3489 337 
Q 2972 -91 2053 -91 
Q 1656 -91 1267 -14 
Q 878 63 494 219 
L 494 1166 
Q 875 947 1217 837 
Q 1559 728 1863 728 
Q 2300 728 2551 942 
Q 2803 1156 2803 1522 
Q 2803 1891 2551 2103 
Q 2300 2316 1863 2316 
Q 1603 2316 1309 2248 
Q 1016 2181 678 2041 
L 678 4666 
z
" transform="scale(0.015625)"/>
      <path id="DejaVuSans-Bold-32" d="M 1844 884 
L 3897 884 
L 3897 0 
L 506 0 
L 506 884 
L 2209 2388 
Q 2438 2594 2547 2791 
Q 2656 2988 2656 3200 
Q 2656 3528 2436 3728 
Q 2216 3928 1850 3928 
Q 1569 3928 1234 3808 
Q 900 3688 519 3450 
L 519 4475 
Q 925 4609 1322 4679 
Q 1719 4750 2100 4750 
Q 2938 4750 3402 4381 
Q 3866 4013 3866 3353 
Q 3866 2972 3669 2642 
Q 3472 2313 2841 1759 
L 1844 884 
z
" transform="scale(0.015625)"/>
      <path id="DejaVuSans-Bold-34" d="M 2356 3675 
L 1038 1722 
L 2356 1722 
L 2356 3675 
z
M 2156 4666 
L 3494 4666 
L 3494 1722 
L 4159 1722 
L 4159 850 
L 3494 850 
L 3494 0 
L 2356 0 
L 2356 850 
L 288 850 
L 288 1881 
L 2156 4666 
z
" transform="scale(0.015625)"/>
      <path id="DejaVuSans-Bold-36" d="M 2316 2303 
Q 2000 2303 1842 2098 
Q 1684 1894 1684 1484 
Q 1684 1075 1842 870 
Q 2000 666 2316 666 
Q 2634 666 2792 870 
Q 2950 1075 2950 1484 
Q 2950 1894 2792 2098 
Q 2634 2303 2316 2303 
z
M 3803 4544 
L 3803 3681 
Q 3506 3822 3243 3889 
Q 2981 3956 2731 3956 
Q 2194 3956 1894 3657 
Q 1594 3359 1544 2772 
Q 1750 2925 1990 3001 
Q 2231 3078 2516 3078 
Q 3231 3078 3670 2659 
Q 4109 2241 4109 1563 
Q 4109 813 3618 361 
Q 3128 -91 2303 -91 
Q 1394 -91 895 523 
Q 397 1138 397 2266 
Q 397 3422 980 4083 
Q 1563 4744 2578 4744 
Q 2900 4744 3203 4694 
Q 3506 4644 3803 4544 
z
" transform="scale(0.015625)"/>
      <path id="DejaVuSans-Bold-20" transform="scale(0.015625)"/>
      <path id="DejaVuSans-Bold-77" d="M 225 3500 
L 1313 3500 
L 1900 1088 
L 2491 3500 
L 3425 3500 
L 4013 1113 
L 4603 3500 
L 5691 3500 
L 4769 0 
L 3547 0 
L 2956 2406 
L 2369 0 
L 1147 0 
L 225 3500 
z
" transform="scale(0.015625)"/>
      <path id="DejaVuSans-Bold-3d" d="M 678 3084 
L 4684 3084 
L 4684 2350 
L 678 2350 
L 678 3084 
z
M 678 1663 
L 4684 1663 
L 4684 922 
L 678 922 
L 678 1663 
z
" transform="scale(0.015625)"/>
      <path id="DejaVuSans-Bold-37" d="M 428 4666 
L 3944 4666 
L 3944 3988 
L 2125 0 
L 953 0 
L 2675 3781 
L 428 3781 
L 428 4666 
z
" transform="scale(0.015625)"/>
      <path id="DejaVuSans-Bold-30" d="M 2944 2338 
Q 2944 3213 2780 3570 
Q 2616 3928 2228 3928 
Q 1841 3928 1675 3570 
Q 1509 3213 1509 2338 
Q 1509 1453 1675 1090 
Q 1841 728 2228 728 
Q 2613 728 2778 1090 
Q 2944 1453 2944 2338 
z
M 4147 2328 
Q 4147 1169 3647 539 
Q 3147 -91 2228 -91 
Q 1306 -91 806 539 
Q 306 1169 306 2328 
Q 306 3491 806 4120 
Q 1306 4750 2228 4750 
Q 3147 4750 3647 4120 
Q 4147 3491 4147 2328 
z
" transform="scale(0.015625)"/>
      <path id="DejaVuSans-Bold-33" d="M 2981 2516 
Q 3453 2394 3698 2092 
Q 3944 1791 3944 1325 
Q 3944 631 3412 270 
Q 2881 -91 1863 -91 
Q 1503 -91 1142 -33 
Q 781 25 428 141 
L 428 1069 
Q 766 900 1098 814 
Q 1431 728 1753 728 
Q 2231 728 2486 893 
Q 2741 1059 2741 1369 
Q 2741 1688 2480 1852 
Q 2219 2016 1709 2016 
L 1228 2016 
L 1228 2791 
L 1734 2791 
Q 2188 2791 2409 2933 
Q 2631 3075 2631 3366 
Q 2631 3634 2415 3781 
Q 2200 3928 1806 3928 
Q 1516 3928 1219 3862 
Q 922 3797 628 3669 
L 628 4550 
Q 984 4650 1334 4700 
Q 1684 4750 2022 4750 
Q 2931 4750 3382 4451 
Q 3834 4153 3834 3553 
Q 3834 3144 3618 2883 
Q 3403 2622 2981 2516 
z
" transform="scale(0.015625)"/>
      <path id="DejaVuSans-Bold-d7" d="M 4563 3359 
L 3206 2003 
L 4563 653 
L 4038 128 
L 2681 1478 
L 1325 128 
L 800 653 
L 2156 2003 
L 800 3359 
L 1325 3884 
L 2681 2528 
L 4038 3884 
L 4563 3359 
z
" transform="scale(0.015625)"/>
     </defs>
     <use xlink:href="#DejaVuSans-Bold-31"/>
     <use xlink:href="#DejaVuSans-Bold-2c" x="69.580078"/>
     <use xlink:href="#DejaVuSans-Bold-31" x="107.568359"/>
     <use xlink:href="#DejaVuSans-Bold-39" x="177.148438"/>
     <use xlink:href="#DejaVuSans-Bold-35" x="246.728516"/>
     <use xlink:href="#DejaVuSans-Bold-2c" x="316.308594"/>
     <use xlink:href="#DejaVuSans-Bold-39" x="354.296875"/>
     <use xlink:href="#DejaVuSans-Bold-35" x="423.876953"/>
     <use xlink:href="#DejaVuSans-Bold-32" x="493.457031"/>
     <use xlink:href="#DejaVuSans-Bold-2c" x="563.037109"/>
     <use xlink:href="#DejaVuSans-Bold-34" x="601.025391"/>
     <use xlink:href="#DejaVuSans-Bold-39" x="670.605469"/>
     <use xlink:href="#DejaVuSans-Bold-36" x="740.185547"/>
     <use xlink:href="#DejaVuSans-Bold-20" x="809.765625"/>
     <use xlink:href="#DejaVuSans-Bold-72" x="844.580078"/>
     <use xlink:href="#DejaVuSans-Bold-6f" x="893.896484"/>
     <use xlink:href="#DejaVuSans-Bold-77" x="962.597656"/>
     <use xlink:href="#DejaVuSans-Bold-73" x="1054.980469"/>
     <use xlink:href="#DejaVuSans-Bold-20" x="1114.501953"/>
     <use xlink:href="#DejaVuSans-Bold-20" x="1149.316406"/>
     <use xlink:href="#DejaVuSans-Bold-20" x="1184.130859"/>
     <use xlink:href="#DejaVuSans-Bold-3d" x="1218.945312"/>
     <use xlink:href="#DejaVuSans-Bold-20" x="1302.734375"/>
     <use xlink:href="#DejaVuSans-Bold-20" x="1337.548828"/>
     <use xlink:href="#DejaVuSans-Bold-20" x="1372.363281"/>
     <use xlink:href="#DejaVuSans-Bold-37" x="1407.177734"/>
     <use xlink:href="#DejaVuSans-Bold-34" x="1476.757812"/>
     <use xlink:href="#DejaVuSans-Bold-2c" x="1546.337891"/>
     <use xlink:href="#DejaVuSans-Bold-37" x="1584.326172"/>
     <use xlink:href="#DejaVuSans-Bold-34" x="1653.90625"/>
     <use xlink:href="#DejaVuSans-Bold-37" x="1723.486328"/>
     <use xlink:href="#DejaVuSans-Bold-2c" x="1793.066406"/>
     <use xlink:href="#DejaVuSans-Bold-30" x="1831.054688"/>
     <use xlink:href="#DejaVuSans-Bold-33" x="1900.634766"/>
     <use xlink:href="#DejaVuSans-Bold-31" x="1970.214844"/>
     <use xlink:href="#DejaVuSans-Bold-20" x="2039.794922"/>
     <use xlink:href="#DejaVuSans-Bold-70" x="2074.609375"/>
     <use xlink:href="#DejaVuSans-Bold-6f" x="2146.191406"/>
     <use xlink:href="#DejaVuSans-Bold-69" x="2214.892578"/>
     <use xlink:href="#DejaVuSans-Bold-6e" x="2249.169922"/>
     <use xlink:href="#DejaVuSans-Bold-74" x="2320.361328"/>
     <use xlink:href="#DejaVuSans-Bold-73" x="2368.164062"/>
     <use xlink:href="#DejaVuSans-Bold-20" x="2427.685547"/>
     <use xlink:href="#DejaVuSans-Bold-20" x="2462.5"/>
     <use xlink:href="#DejaVuSans-Bold-d7" x="2497.314453"/>
     <use xlink:href="#DejaVuSans-Bold-20" x="2581.103516"/>
     <use xlink:href="#DejaVuSans-Bold-20" x="2615.917969"/>
     <use xlink:href="#DejaVuSans-Bold-31" x="2650.732422"/>
     <use xlink:href="#DejaVuSans-Bold-36" x="2720.3125"/>
     <use xlink:href="#DejaVuSans-Bold-20" x="2789.892578"/>
     <use xlink:href="#DejaVuSans-Bold-6e" x="2824.707031"/>
     <use xlink:href="#DejaVuSans-Bold-65" x="2895.898438"/>
     <use xlink:href="#DejaVuSans-Bold-69" x="2963.720703"/>
     <use xlink:href="#DejaVuSans-Bold-67" x="2997.998047"/>
     <use xlink:href="#DejaVuSans-Bold-68" x="3069.580078"/>
     <use xlink:href="#DejaVuSans-Bold-62" x="3140.771484"/>
     <use xlink:href="#DejaVuSans-Bold-6f" x="3212.353516"/>
     <use xlink:href="#DejaVuSans-Bold-75" x="3281.054688"/>
     <use xlink:href="#DejaVuSans-Bold-72" x="3352.246094"/>
     <use xlink:href="#DejaVuSans-Bold-73" x="3401.5625"/>
    </g>
   </g>
   <g id="text_40">
    <!-- orange = neighbour from another survey (cross-track) → here the surveys disagree -->
    <g style="fill: #ffb74d" transform="translate(100.780156 322.365312) scale(0.11 -0.11)">
     <defs>
      <path id="DejaVuSans-Oblique-72" d="M 2853 2969 
Q 2766 3016 2653 3041 
Q 2541 3066 2413 3066 
Q 1953 3066 1609 2717 
Q 1266 2369 1153 1784 
L 800 0 
L 225 0 
L 909 3500 
L 1484 3500 
L 1375 2956 
Q 1603 3259 1920 3421 
Q 2238 3584 2597 3584 
Q 2691 3584 2781 3573 
Q 2872 3563 2963 3538 
L 2853 2969 
z
" transform="scale(0.015625)"/>
      <path id="DejaVuSans-Oblique-67" d="M 3816 3500 
L 3219 434 
Q 3047 -456 2561 -893 
Q 2075 -1331 1253 -1331 
Q 950 -1331 690 -1286 
Q 431 -1241 206 -1147 
L 313 -588 
Q 525 -725 762 -790 
Q 1000 -856 1269 -856 
Q 1816 -856 2167 -557 
Q 2519 -259 2631 300 
L 2681 563 
Q 2441 288 2122 144 
Q 1803 0 1434 0 
Q 903 0 598 351 
Q 294 703 294 1319 
Q 294 1803 478 2267 
Q 663 2731 997 3091 
Q 1219 3328 1514 3456 
Q 1809 3584 2131 3584 
Q 2484 3584 2746 3420 
Q 3009 3256 3138 2956 
L 3238 3500 
L 3816 3500 
z
M 2950 2216 
Q 2950 2641 2750 2872 
Q 2550 3103 2181 3103 
Q 1953 3103 1747 3012 
Q 1541 2922 1394 2759 
Q 1156 2491 1023 2127 
Q 891 1763 891 1375 
Q 891 944 1092 712 
Q 1294 481 1672 481 
Q 2219 481 2584 976 
Q 2950 1472 2950 2216 
z
" transform="scale(0.015625)"/>
      <path id="DejaVuSans-Oblique-3d" d="M 678 2906 
L 4684 2906 
L 4684 2381 
L 678 2381 
L 678 2906 
z
M 678 1631 
L 4684 1631 
L 4684 1100 
L 678 1100 
L 678 1631 
z
" transform="scale(0.015625)"/>
      <path id="DejaVuSans-Oblique-62" d="M 3169 2138 
Q 3169 2591 2961 2847 
Q 2753 3103 2388 3103 
Q 2122 3103 1889 2973 
Q 1656 2844 1484 2597 
Q 1303 2338 1198 1995 
Q 1094 1653 1094 1313 
Q 1094 881 1298 636 
Q 1503 391 1863 391 
Q 2134 391 2365 517 
Q 2597 644 2772 891 
Q 2950 1147 3059 1487 
Q 3169 1828 3169 2138 
z
M 1381 2969 
Q 1594 3256 1914 3420 
Q 2234 3584 2584 3584 
Q 3122 3584 3439 3221 
Q 3756 2859 3756 2241 
Q 3756 1734 3570 1259 
Q 3384 784 3041 416 
Q 2816 172 2522 40 
Q 2228 -91 1906 -91 
Q 1566 -91 1316 65 
Q 1066 222 909 531 
L 806 0 
L 231 0 
L 1178 4863 
L 1753 4863 
L 1381 2969 
z
" transform="scale(0.015625)"/>
      <path id="DejaVuSans-Oblique-75" d="M 428 1388 
L 838 3500 
L 1416 3500 
L 1006 1409 
Q 975 1256 961 1147 
Q 947 1038 947 966 
Q 947 700 1109 554 
Q 1272 409 1569 409 
Q 2031 409 2368 721 
Q 2706 1034 2809 1563 
L 3194 3500 
L 3769 3500 
L 3091 0 
L 2516 0 
L 2631 550 
Q 2388 244 2052 76 
Q 1716 -91 1338 -91 
Q 878 -91 622 161 
Q 366 413 366 863 
Q 366 956 381 1097 
Q 397 1238 428 1388 
z
" transform="scale(0.015625)"/>
      <path id="DejaVuSans-Oblique-66" d="M 3059 4863 
L 2969 4384 
L 2419 4384 
Q 2106 4384 1964 4261 
Q 1822 4138 1753 3809 
L 1691 3500 
L 2638 3500 
L 2553 3053 
L 1606 3053 
L 1013 0 
L 434 0 
L 1031 3053 
L 481 3053 
L 563 3500 
L 1113 3500 
L 1159 3744 
Q 1278 4363 1576 4613 
Q 1875 4863 2516 4863 
L 3059 4863 
z
" transform="scale(0.015625)"/>
      <path id="DejaVuSans-Oblique-6d" d="M 5747 2113 
L 5338 0 
L 4763 0 
L 5166 2094 
Q 5191 2228 5203 2325 
Q 5216 2422 5216 2491 
Q 5216 2772 5059 2928 
Q 4903 3084 4622 3084 
Q 4203 3084 3875 2770 
Q 3547 2456 3450 1953 
L 3066 0 
L 2491 0 
L 2900 2094 
Q 2925 2209 2937 2307 
Q 2950 2406 2950 2484 
Q 2950 2769 2794 2926 
Q 2638 3084 2363 3084 
Q 1938 3084 1609 2770 
Q 1281 2456 1184 1953 
L 800 0 
L 225 0 
L 909 3500 
L 1484 3500 
L 1375 2956 
Q 1609 3263 1923 3423 
Q 2238 3584 2597 3584 
Q 2978 3584 3223 3384 
Q 3469 3184 3519 2828 
Q 3781 3197 4126 3390 
Q 4472 3584 4856 3584 
Q 5306 3584 5551 3325 
Q 5797 3066 5797 2591 
Q 5797 2488 5784 2364 
Q 5772 2241 5747 2113 
z
" transform="scale(0.015625)"/>
      <path id="DejaVuSans-Oblique-76" d="M 459 3500 
L 1069 3500 
L 1581 525 
L 3256 3500 
L 3866 3500 
L 1875 0 
L 1100 0 
L 459 3500 
z
" transform="scale(0.015625)"/>
      <path id="DejaVuSans-Oblique-79" d="M 1588 -325 
Q 1188 -997 936 -1164 
Q 684 -1331 294 -1331 
L -159 -1331 
L -63 -850 
L 269 -850 
Q 509 -850 678 -719 
Q 847 -588 1056 -206 
L 1234 128 
L 459 3500 
L 1069 3500 
L 1650 819 
L 3256 3500 
L 3859 3500 
L 1588 -325 
z
" transform="scale(0.015625)"/>
      <path id="DejaVuSans-Oblique-63" d="M 3431 3366 
L 3316 2797 
Q 3109 2947 2876 3022 
Q 2644 3097 2394 3097 
Q 2119 3097 1870 3000 
Q 1622 2903 1453 2725 
Q 1184 2453 1037 2087 
Q 891 1722 891 1331 
Q 891 859 1127 628 
Q 1363 397 1844 397 
Q 2081 397 2348 469 
Q 2616 541 2906 684 
L 2797 116 
Q 2547 13 2283 -39 
Q 2019 -91 1741 -91 
Q 1044 -91 669 257 
Q 294 606 294 1253 
Q 294 1797 489 2255 
Q 684 2713 1069 3078 
Q 1331 3328 1684 3456 
Q 2038 3584 2456 3584 
Q 2700 3584 2940 3529 
Q 3181 3475 3431 3366 
z
" transform="scale(0.015625)"/>
      <path id="DejaVuSans-Oblique-2d" d="M 391 2009 
L 2075 2009 
L 1978 1497 
L 288 1497 
L 391 2009 
z
" transform="scale(0.015625)"/>
      <path id="DejaVuSans-Oblique-2192" d="M 5050 2147 
L 5050 1866 
L 3822 638 
L 3447 1013 
L 4175 1741 
L 366 1741 
L 366 2272 
L 4175 2272 
L 3447 3000 
L 3822 3375 
L 5050 2147 
z
" transform="scale(0.015625)"/>
      <path id="DejaVuSans-Oblique-64" d="M 2675 525 
Q 2444 222 2128 65 
Q 1813 -91 1428 -91 
Q 903 -91 598 267 
Q 294 625 294 1247 
Q 294 1766 478 2236 
Q 663 2706 1013 3078 
Q 1244 3325 1534 3454 
Q 1825 3584 2144 3584 
Q 2481 3584 2739 3421 
Q 2997 3259 3138 2956 
L 3513 4863 
L 4091 4863 
L 3144 0 
L 2566 0 
L 2675 525 
z
M 891 1350 
Q 891 897 1095 644 
Q 1300 391 1663 391 
Q 1931 391 2161 520 
Q 2391 650 2566 903 
Q 2750 1166 2856 1509 
Q 2963 1853 2963 2188 
Q 2963 2622 2758 2865 
Q 2553 3109 2194 3109 
Q 1922 3109 1687 2981 
Q 1453 2853 1288 2613 
Q 1106 2353 998 2009 
Q 891 1666 891 1350 
z
" transform="scale(0.015625)"/>
     </defs>
     <use xlink:href="#DejaVuSans-Oblique-6f"/>
     <use xlink:href="#DejaVuSans-Oblique-72" x="61.181641"/>
     <use xlink:href="#DejaVuSans-Oblique-61" x="102.294922"/>
     <use xlink:href="#DejaVuSans-Oblique-6e" x="163.574219"/>
     <use xlink:href="#DejaVuSans-Oblique-67" x="226.953125"/>
     <use xlink:href="#DejaVuSans-Oblique-65" x="290.429688"/>
     <use xlink:href="#DejaVuSans-Oblique-20" x="351.953125"/>
     <use xlink:href="#DejaVuSans-Oblique-3d" x="383.740234"/>
     <use xlink:href="#DejaVuSans-Oblique-20" x="467.529297"/>
     <use xlink:href="#DejaVuSans-Oblique-6e" x="499.316406"/>
     <use xlink:href="#DejaVuSans-Oblique-65" x="562.695312"/>
     <use xlink:href="#DejaVuSans-Oblique-69" x="624.21875"/>
     <use xlink:href="#DejaVuSans-Oblique-67" x="652.001953"/>
     <use xlink:href="#DejaVuSans-Oblique-68" x="715.478516"/>
     <use xlink:href="#DejaVuSans-Oblique-62" x="778.857422"/>
     <use xlink:href="#DejaVuSans-Oblique-6f" x="842.333984"/>
     <use xlink:href="#DejaVuSans-Oblique-75" x="903.515625"/>
     <use xlink:href="#DejaVuSans-Oblique-72" x="966.894531"/>
     <use xlink:href="#DejaVuSans-Oblique-20" x="1008.007812"/>
     <use xlink:href="#DejaVuSans-Oblique-66" x="1039.794922"/>
     <use xlink:href="#DejaVuSans-Oblique-72" x="1075"/>
     <use xlink:href="#DejaVuSans-Oblique-6f" x="1116.113281"/>
     <use xlink:href="#DejaVuSans-Oblique-6d" x="1177.294922"/>
     <use xlink:href="#DejaVuSans-Oblique-20" x="1274.707031"/>
     <use xlink:href="#DejaVuSans-Oblique-61" x="1306.494141"/>
     <use xlink:href="#DejaVuSans-Oblique-6e" x="1367.773438"/>
     <use xlink:href="#DejaVuSans-Oblique-6f" x="1431.152344"/>
     <use xlink:href="#DejaVuSans-Oblique-74" x="1492.333984"/>
     <use xlink:href="#DejaVuSans-Oblique-68" x="1531.542969"/>
     <use xlink:href="#DejaVuSans-Oblique-65" x="1594.921875"/>
     <use xlink:href="#DejaVuSans-Oblique-72" x="1656.445312"/>
     <use xlink:href="#DejaVuSans-Oblique-20" x="1697.558594"/>
     <use xlink:href="#DejaVuSans-Oblique-73" x="1729.345703"/>
     <use xlink:href="#DejaVuSans-Oblique-75" x="1781.445312"/>
     <use xlink:href="#DejaVuSans-Oblique-72" x="1844.824219"/>
     <use xlink:href="#DejaVuSans-Oblique-76" x="1885.9375"/>
     <use xlink:href="#DejaVuSans-Oblique-65" x="1945.117188"/>
     <use xlink:href="#DejaVuSans-Oblique-79" x="2006.640625"/>
     <use xlink:href="#DejaVuSans-Oblique-20" x="2065.820312"/>
     <use xlink:href="#DejaVuSans-Oblique-28" x="2097.607422"/>
     <use xlink:href="#DejaVuSans-Oblique-63" x="2136.621094"/>
     <use xlink:href="#DejaVuSans-Oblique-72" x="2191.601562"/>
     <use xlink:href="#DejaVuSans-Oblique-6f" x="2232.714844"/>
     <use xlink:href="#DejaVuSans-Oblique-73" x="2293.896484"/>
     <use xlink:href="#DejaVuSans-Oblique-73" x="2345.996094"/>
     <use xlink:href="#DejaVuSans-Oblique-2d" x="2398.095703"/>
     <use xlink:href="#DejaVuSans-Oblique-74" x="2434.179688"/>
     <use xlink:href="#DejaVuSans-Oblique-72" x="2473.388672"/>
     <use xlink:href="#DejaVuSans-Oblique-61" x="2514.501953"/>
     <use xlink:href="#DejaVuSans-Oblique-63" x="2575.78125"/>
     <use xlink:href="#DejaVuSans-Oblique-6b" x="2630.761719"/>
     <use xlink:href="#DejaVuSans-Oblique-29" x="2688.671875"/>
     <use xlink:href="#DejaVuSans-Oblique-20" x="2727.685547"/>
     <use xlink:href="#DejaVuSans-Oblique-2192" x="2759.472656"/>
     <use xlink:href="#DejaVuSans-Oblique-20" x="2843.261719"/>
     <use xlink:href="#DejaVuSans-Oblique-68" x="2875.048828"/>
     <use xlink:href="#DejaVuSans-Oblique-65" x="2938.427734"/>
     <use xlink:href="#DejaVuSans-Oblique-72" x="2999.951172"/>
     <use xlink:href="#DejaVuSans-Oblique-65" x="3041.064453"/>
     <use xlink:href="#DejaVuSans-Oblique-20" x="3102.587891"/>
     <use xlink:href="#DejaVuSans-Oblique-74" x="3134.375"/>
     <use xlink:href="#DejaVuSans-Oblique-68" x="3173.583984"/>
     <use xlink:href="#DejaVuSans-Oblique-65" x="3236.962891"/>
     <use xlink:href="#DejaVuSans-Oblique-20" x="3298.486328"/>
     <use xlink:href="#DejaVuSans-Oblique-73" x="3330.273438"/>
     <use xlink:href="#DejaVuSans-Oblique-75" x="3382.373047"/>
     <use xlink:href="#DejaVuSans-Oblique-72" x="3445.751953"/>
     <use xlink:href="#DejaVuSans-Oblique-76" x="3486.865234"/>
     <use xlink:href="#DejaVuSans-Oblique-65" x="3546.044922"/>
     <use xlink:href="#DejaVuSans-Oblique-79" x="3607.568359"/>
     <use xlink:href="#DejaVuSans-Oblique-73" x="3666.748047"/>
     <use xlink:href="#DejaVuSans-Oblique-20" x="3718.847656"/>
     <use xlink:href="#DejaVuSans-Oblique-64" x="3750.634766"/>
     <use xlink:href="#DejaVuSans-Oblique-69" x="3814.111328"/>
     <use xlink:href="#DejaVuSans-Oblique-73" x="3841.894531"/>
     <use xlink:href="#DejaVuSans-Oblique-61" x="3893.994141"/>
     <use xlink:href="#DejaVuSans-Oblique-67" x="3955.273438"/>
     <use xlink:href="#DejaVuSans-Oblique-72" x="4018.75"/>
     <use xlink:href="#DejaVuSans-Oblique-65" x="4059.863281"/>
     <use xlink:href="#DejaVuSans-Oblique-65" x="4121.386719"/>
    </g>
   </g>
   <g id="text_41">
    <!-- how the two features are computed: -->
    <g style="fill: #9aa0a8" transform="translate(46.0368 359.02224) scale(0.12 -0.12)">
     <defs>
      <path id="DejaVuSans-Oblique-70" d="M 3175 2156 
Q 3175 2616 2975 2859 
Q 2775 3103 2400 3103 
Q 2144 3103 1911 2972 
Q 1678 2841 1497 2591 
Q 1319 2344 1212 1994 
Q 1106 1644 1106 1300 
Q 1106 863 1306 627 
Q 1506 391 1875 391 
Q 2147 391 2380 519 
Q 2613 647 2778 891 
Q 2956 1147 3065 1494 
Q 3175 1841 3175 2156 
z
M 1394 2969 
Q 1625 3272 1939 3428 
Q 2253 3584 2638 3584 
Q 3175 3584 3472 3232 
Q 3769 2881 3769 2247 
Q 3769 1728 3584 1258 
Q 3400 788 3053 416 
Q 2822 169 2531 39 
Q 2241 -91 1919 -91 
Q 1547 -91 1294 64 
Q 1041 219 916 525 
L 556 -1331 
L -19 -1331 
L 922 3500 
L 1497 3500 
L 1394 2969 
z
" transform="scale(0.015625)"/>
      <path id="DejaVuSans-Oblique-3a" d="M 978 3309 
L 1638 3309 
L 1484 2516 
L 825 2516 
L 978 3309 
z
M 488 794 
L 1147 794 
L 991 0 
L 331 0 
L 488 794 
z
" transform="scale(0.015625)"/>
     </defs>
     <use xlink:href="#DejaVuSans-Oblique-68"/>
     <use xlink:href="#DejaVuSans-Oblique-6f" x="63.378906"/>
     <use xlink:href="#DejaVuSans-Oblique-77" x="124.560547"/>
     <use xlink:href="#DejaVuSans-Oblique-20" x="206.347656"/>
     <use xlink:href="#DejaVuSans-Oblique-74" x="238.134766"/>
     <use xlink:href="#DejaVuSans-Oblique-68" x="277.34375"/>
     <use xlink:href="#DejaVuSans-Oblique-65" x="340.722656"/>
     <use xlink:href="#DejaVuSans-Oblique-20" x="402.246094"/>
     <use xlink:href="#DejaVuSans-Oblique-74" x="434.033203"/>
     <use xlink:href="#DejaVuSans-Oblique-77" x="473.242188"/>
     <use xlink:href="#DejaVuSans-Oblique-6f" x="555.029297"/>
     <use xlink:href="#DejaVuSans-Oblique-20" x="616.210938"/>
     <use xlink:href="#DejaVuSans-Oblique-66" x="647.998047"/>
     <use xlink:href="#DejaVuSans-Oblique-65" x="683.203125"/>
     <use xlink:href="#DejaVuSans-Oblique-61" x="744.726562"/>
     <use xlink:href="#DejaVuSans-Oblique-74" x="806.005859"/>
     <use xlink:href="#DejaVuSans-Oblique-75" x="845.214844"/>
     <use xlink:href="#DejaVuSans-Oblique-72" x="908.59375"/>
     <use xlink:href="#DejaVuSans-Oblique-65" x="949.707031"/>
     <use xlink:href="#DejaVuSans-Oblique-73" x="1011.230469"/>
     <use xlink:href="#DejaVuSans-Oblique-20" x="1063.330078"/>
     <use xlink:href="#DejaVuSans-Oblique-61" x="1095.117188"/>
     <use xlink:href="#DejaVuSans-Oblique-72" x="1156.396484"/>
     <use xlink:href="#DejaVuSans-Oblique-65" x="1197.509766"/>
     <use xlink:href="#DejaVuSans-Oblique-20" x="1259.033203"/>
     <use xlink:href="#DejaVuSans-Oblique-63" x="1290.820312"/>
     <use xlink:href="#DejaVuSans-Oblique-6f" x="1345.800781"/>
     <use xlink:href="#DejaVuSans-Oblique-6d" x="1406.982422"/>
     <use xlink:href="#DejaVuSans-Oblique-70" x="1504.394531"/>
     <use xlink:href="#DejaVuSans-Oblique-75" x="1567.871094"/>
     <use xlink:href="#DejaVuSans-Oblique-74" x="1631.25"/>
     <use xlink:href="#DejaVuSans-Oblique-65" x="1670.458984"/>
     <use xlink:href="#DejaVuSans-Oblique-64" x="1731.982422"/>
     <use xlink:href="#DejaVuSans-Oblique-3a" x="1795.458984"/>
    </g>
   </g>
   <g id="text_42">
    <!-- log1p_dist -->
    <g style="fill: #6fd3ff" transform="translate(46.0368 380.08944) scale(0.135 -0.135)">
     <use xlink:href="#DejaVuSans-Bold-6c"/>
     <use xlink:href="#DejaVuSans-Bold-6f" x="34.277344"/>
     <use xlink:href="#DejaVuSans-Bold-67" x="102.978516"/>
     <use xlink:href="#DejaVuSans-Bold-31" x="174.560547"/>
     <use xlink:href="#DejaVuSans-Bold-70" x="244.140625"/>
     <use xlink:href="#DejaVuSans-Bold-5f" x="315.722656"/>
     <use xlink:href="#DejaVuSans-Bold-64" x="365.722656"/>
     <use xlink:href="#DejaVuSans-Bold-69" x="437.304688"/>
     <use xlink:href="#DejaVuSans-Bold-73" x="471.582031"/>
     <use xlink:href="#DejaVuSans-Bold-74" x="531.103516"/>
    </g>
   </g>
   <g id="text_43">
    <!-- $=\ \ln(1+d),\quad d=\sqrt{\Delta x^2+\Delta y^2}$ -->
    <g style="fill: #ffffff" transform="translate(181.9656 380.08944) scale(0.135 -0.135)">
     <defs>
      <path id="DejaVuSans-3d" d="M 678 2906 
L 4684 2906 
L 4684 2381 
L 678 2381 
L 678 2906 
z
M 678 1631 
L 4684 1631 
L 4684 1100 
L 678 1100 
L 678 1631 
z
" transform="scale(0.015625)"/>
      <path id="DejaVuSans-6c" d="M 603 4863 
L 1178 4863 
L 1178 0 
L 603 0 
L 603 4863 
z
" transform="scale(0.015625)"/>
      <path id="DejaVuSans-6e" d="M 3513 2113 
L 3513 0 
L 2938 0 
L 2938 2094 
Q 2938 2591 2744 2837 
Q 2550 3084 2163 3084 
Q 1697 3084 1428 2787 
Q 1159 2491 1159 1978 
L 1159 0 
L 581 0 
L 581 3500 
L 1159 3500 
L 1159 2956 
Q 1366 3272 1645 3428 
Q 1925 3584 2291 3584 
Q 2894 3584 3203 3211 
Q 3513 2838 3513 2113 
z
" transform="scale(0.015625)"/>
      <path id="DejaVuSans-28" d="M 1984 4856 
Q 1566 4138 1362 3434 
Q 1159 2731 1159 2009 
Q 1159 1288 1364 580 
Q 1569 -128 1984 -844 
L 1484 -844 
Q 1016 -109 783 600 
Q 550 1309 550 2009 
Q 550 2706 781 3412 
Q 1013 4119 1484 4856 
L 1984 4856 
z
" transform="scale(0.015625)"/>
      <path id="DejaVuSans-29" d="M 513 4856 
L 1013 4856 
Q 1481 4119 1714 3412 
Q 1947 2706 1947 2009 
Q 1947 1309 1714 600 
Q 1481 -109 1013 -844 
L 513 -844 
Q 928 -128 1133 580 
Q 1338 1288 1338 2009 
Q 1338 2731 1133 3434 
Q 928 4138 513 4856 
z
" transform="scale(0.015625)"/>
      <path id="DejaVuSans-2c" d="M 750 794 
L 1409 794 
L 1409 256 
L 897 -744 
L 494 -744 
L 750 256 
L 750 794 
z
" transform="scale(0.015625)"/>
      <path id="STIXSizeOneSym-Regular-221a" d="M 6970 9933 
L 3373 -1888 
L 3104 -1888 
L 1626 2918 
Q 1555 3149 1465 3251 
Q 1376 3354 1229 3354 
Q 1011 3354 794 3181 
L 717 3309 
L 1766 4115 
L 1926 4115 
L 3379 -602 
L 3405 -602 
L 6605 9933 
L 6970 9933 
z
" transform="scale(0.015625)"/>
      <path id="DejaVuSans-394" d="M 2188 4044 
L 906 525 
L 3472 525 
L 2188 4044 
z
M 50 0 
L 1831 4666 
L 2547 4666 
L 4325 0 
L 50 0 
z
" transform="scale(0.015625)"/>
      <path id="DejaVuSans-Oblique-78" d="M 3841 3500 
L 2234 1784 
L 3219 0 
L 2559 0 
L 1819 1388 
L 531 0 
L -166 0 
L 1556 1844 
L 641 3500 
L 1300 3500 
L 1972 2234 
L 3144 3500 
L 3841 3500 
z
" transform="scale(0.015625)"/>
     </defs>
     <use xlink:href="#DejaVuSans-3d" transform="translate(19.482422 0.578125)"/>
     <use xlink:href="#DejaVuSans-6c" transform="translate(155.224285 0.578125)"/>
     <use xlink:href="#DejaVuSans-6e" transform="translate(183.007488 0.578125)"/>
     <use xlink:href="#DejaVuSans-28" transform="translate(246.386394 0.578125)"/>
     <use xlink:href="#DejaVuSans-31" transform="translate(285.400066 0.578125)"/>
     <use xlink:href="#DejaVuSans-2b" transform="translate(368.505535 0.578125)"/>
     <use xlink:href="#DejaVuSans-Oblique-64" transform="translate(471.777019 0.578125)"/>
     <use xlink:href="#DejaVuSans-29" transform="translate(535.253582 0.578125)"/>
     <use xlink:href="#DejaVuSans-2c" transform="translate(574.267253 0.578125)"/>
     <use xlink:href="#DejaVuSans-Oblique-64" transform="translate(722.948894 0.578125)"/>
     <use xlink:href="#DejaVuSans-3d" transform="translate(805.907878 0.578125)"/>
     <use xlink:href="#STIXSizeOneSym-Regular-221a" transform="translate(909.179363 2.5) scale(0.770324)"/>
     <use xlink:href="#DejaVuSans-394" transform="translate(1003.068355 0.515625)"/>
     <use xlink:href="#DejaVuSans-Oblique-78" transform="translate(1071.476558 0.515625)"/>
     <use xlink:href="#DejaVuSans-32" transform="translate(1135.122392 38.796875) scale(0.7)"/>
     <use xlink:href="#DejaVuSans-2b" transform="translate(1201.875321 0.515625)"/>
     <use xlink:href="#DejaVuSans-394" transform="translate(1305.146806 0.515625)"/>
     <use xlink:href="#DejaVuSans-Oblique-79" transform="translate(1373.555009 0.515625)"/>
     <use xlink:href="#DejaVuSans-32" transform="translate(1437.200842 38.796875) scale(0.7)"/>
     <path d="M 990.568355 115.5 
L 990.568355 121.75 
L 1496.97135 121.75 
L 1496.97135 115.5 
L 990.568355 115.5 
z
"/>
    </g>
   </g>
   <g id="text_44">
    <!-- signed_grad -->
    <g style="fill: #6fd3ff" transform="translate(46.0368 405.37008) scale(0.135 -0.135)">
     <use xlink:href="#DejaVuSans-Bold-73"/>
     <use xlink:href="#DejaVuSans-Bold-69" x="59.521484"/>
     <use xlink:href="#DejaVuSans-Bold-67" x="93.798828"/>
     <use xlink:href="#DejaVuSans-Bold-6e" x="165.380859"/>
     <use xlink:href="#DejaVuSans-Bold-65" x="236.572266"/>
     <use xlink:href="#DejaVuSans-Bold-64" x="304.394531"/>
     <use xlink:href="#DejaVuSans-Bold-5f" x="375.976562"/>
     <use xlink:href="#DejaVuSans-Bold-67" x="425.976562"/>
     <use xlink:href="#DejaVuSans-Bold-72" x="497.558594"/>
     <use xlink:href="#DejaVuSans-Bold-61" x="546.875"/>
     <use xlink:href="#DejaVuSans-Bold-64" x="614.355469"/>
    </g>
   </g>
   <g id="text_45">
    <!-- $=\ \mathrm{sign}(\Delta H/d)\,\ln(1+|\Delta H/d|)\,/\,\mathrm{scale}$ -->
    <g style="fill: #ffffff" transform="translate(181.9656 405.37008) scale(0.135 -0.135)">
     <defs>
      <path id="DejaVuSans-73" d="M 2834 3397 
L 2834 2853 
Q 2591 2978 2328 3040 
Q 2066 3103 1784 3103 
Q 1356 3103 1142 2972 
Q 928 2841 928 2578 
Q 928 2378 1081 2264 
Q 1234 2150 1697 2047 
L 1894 2003 
Q 2506 1872 2764 1633 
Q 3022 1394 3022 966 
Q 3022 478 2636 193 
Q 2250 -91 1575 -91 
Q 1294 -91 989 -36 
Q 684 19 347 128 
L 347 722 
Q 666 556 975 473 
Q 1284 391 1588 391 
Q 1994 391 2212 530 
Q 2431 669 2431 922 
Q 2431 1156 2273 1281 
Q 2116 1406 1581 1522 
L 1381 1569 
Q 847 1681 609 1914 
Q 372 2147 372 2553 
Q 372 3047 722 3315 
Q 1072 3584 1716 3584 
Q 2034 3584 2315 3537 
Q 2597 3491 2834 3397 
z
" transform="scale(0.015625)"/>
      <path id="DejaVuSans-69" d="M 603 3500 
L 1178 3500 
L 1178 0 
L 603 0 
L 603 3500 
z
M 603 4863 
L 1178 4863 
L 1178 4134 
L 603 4134 
L 603 4863 
z
" transform="scale(0.015625)"/>
      <path id="DejaVuSans-67" d="M 2906 1791 
Q 2906 2416 2648 2759 
Q 2391 3103 1925 3103 
Q 1463 3103 1205 2759 
Q 947 2416 947 1791 
Q 947 1169 1205 825 
Q 1463 481 1925 481 
Q 2391 481 2648 825 
Q 2906 1169 2906 1791 
z
M 3481 434 
Q 3481 -459 3084 -895 
Q 2688 -1331 1869 -1331 
Q 1566 -1331 1297 -1286 
Q 1028 -1241 775 -1147 
L 775 -588 
Q 1028 -725 1275 -790 
Q 1522 -856 1778 -856 
Q 2344 -856 2625 -561 
Q 2906 -266 2906 331 
L 2906 616 
Q 2728 306 2450 153 
Q 2172 0 1784 0 
Q 1141 0 747 490 
Q 353 981 353 1791 
Q 353 2603 747 3093 
Q 1141 3584 1784 3584 
Q 2172 3584 2450 3431 
Q 2728 3278 2906 2969 
L 2906 3500 
L 3481 3500 
L 3481 434 
z
" transform="scale(0.015625)"/>
      <path id="DejaVuSans-Oblique-48" d="M 1081 4666 
L 1716 4666 
L 1344 2753 
L 3634 2753 
L 4006 4666 
L 4641 4666 
L 3731 0 
L 3097 0 
L 3531 2222 
L 1241 2222 
L 806 0 
L 172 0 
L 1081 4666 
z
" transform="scale(0.015625)"/>
      <path id="DejaVuSans-2f" d="M 1625 4666 
L 2156 4666 
L 531 -594 
L 0 -594 
L 1625 4666 
z
" transform="scale(0.015625)"/>
      <path id="DejaVuSans-7c" d="M 1344 4891 
L 1344 -1509 
L 813 -1509 
L 813 4891 
L 1344 4891 
z
" transform="scale(0.015625)"/>
      <path id="DejaVuSans-63" d="M 3122 3366 
L 3122 2828 
Q 2878 2963 2633 3030 
Q 2388 3097 2138 3097 
Q 1578 3097 1268 2742 
Q 959 2388 959 1747 
Q 959 1106 1268 751 
Q 1578 397 2138 397 
Q 2388 397 2633 464 
Q 2878 531 3122 666 
L 3122 134 
Q 2881 22 2623 -34 
Q 2366 -91 2075 -91 
Q 1284 -91 818 406 
Q 353 903 353 1747 
Q 353 2603 823 3093 
Q 1294 3584 2113 3584 
Q 2378 3584 2631 3529 
Q 2884 3475 3122 3366 
z
" transform="scale(0.015625)"/>
      <path id="DejaVuSans-61" d="M 2194 1759 
Q 1497 1759 1228 1600 
Q 959 1441 959 1056 
Q 959 750 1161 570 
Q 1363 391 1709 391 
Q 2188 391 2477 730 
Q 2766 1069 2766 1631 
L 2766 1759 
L 2194 1759 
z
M 3341 1997 
L 3341 0 
L 2766 0 
L 2766 531 
Q 2569 213 2275 61 
Q 1981 -91 1556 -91 
Q 1019 -91 701 211 
Q 384 513 384 1019 
Q 384 1609 779 1909 
Q 1175 2209 1959 2209 
L 2766 2209 
L 2766 2266 
Q 2766 2663 2505 2880 
Q 2244 3097 1772 3097 
Q 1472 3097 1187 3025 
Q 903 2953 641 2809 
L 641 3341 
Q 956 3463 1253 3523 
Q 1550 3584 1831 3584 
Q 2591 3584 2966 3190 
Q 3341 2797 3341 1997 
z
" transform="scale(0.015625)"/>
      <path id="DejaVuSans-65" d="M 3597 1894 
L 3597 1613 
L 953 1613 
Q 991 1019 1311 708 
Q 1631 397 2203 397 
Q 2534 397 2845 478 
Q 3156 559 3463 722 
L 3463 178 
Q 3153 47 2828 -22 
Q 2503 -91 2169 -91 
Q 1331 -91 842 396 
Q 353 884 353 1716 
Q 353 2575 817 3079 
Q 1281 3584 2069 3584 
Q 2775 3584 3186 3129 
Q 3597 2675 3597 1894 
z
M 3022 2063 
Q 3016 2534 2758 2815 
Q 2500 3097 2075 3097 
Q 1594 3097 1305 2825 
Q 1016 2553 972 2059 
L 3022 2063 
z
" transform="scale(0.015625)"/>
     </defs>
     <use xlink:href="#DejaVuSans-3d" transform="translate(19.482422 0.578125)"/>
     <use xlink:href="#DejaVuSans-73" transform="translate(155.224285 0.578125)"/>
     <use xlink:href="#DejaVuSans-69" transform="translate(207.323894 0.578125)"/>
     <use xlink:href="#DejaVuSans-67" transform="translate(235.107097 0.578125)"/>
     <use xlink:href="#DejaVuSans-6e" transform="translate(298.58366 0.578125)"/>
     <use xlink:href="#DejaVuSans-28" transform="translate(361.962566 0.578125)"/>
     <use xlink:href="#DejaVuSans-394" transform="translate(400.976238 0.578125)"/>
     <use xlink:href="#DejaVuSans-Oblique-48" transform="translate(469.384441 0.578125)"/>
     <use xlink:href="#DejaVuSans-2f" transform="translate(544.579753 0.578125)"/>
     <use xlink:href="#DejaVuSans-Oblique-64" transform="translate(578.27116 0.578125)"/>
     <use xlink:href="#DejaVuSans-29" transform="translate(641.747722 0.578125)"/>
     <use xlink:href="#DejaVuSans-6c" transform="translate(696.99707 0.578125)"/>
     <use xlink:href="#DejaVuSans-6e" transform="translate(724.780273 0.578125)"/>
     <use xlink:href="#DejaVuSans-28" transform="translate(788.15918 0.578125)"/>
     <use xlink:href="#DejaVuSans-31" transform="translate(827.172852 0.578125)"/>
     <use xlink:href="#DejaVuSans-2b" transform="translate(910.27832 0.578125)"/>
     <use xlink:href="#DejaVuSans-7c" transform="translate(1013.549805 0.578125)"/>
     <use xlink:href="#DejaVuSans-394" transform="translate(1047.241211 0.578125)"/>
     <use xlink:href="#DejaVuSans-Oblique-48" transform="translate(1115.649414 0.578125)"/>
     <use xlink:href="#DejaVuSans-2f" transform="translate(1190.844727 0.578125)"/>
     <use xlink:href="#DejaVuSans-Oblique-64" transform="translate(1224.536133 0.578125)"/>
     <use xlink:href="#DejaVuSans-7c" transform="translate(1288.012695 0.578125)"/>
     <use xlink:href="#DejaVuSans-29" transform="translate(1321.704102 0.578125)"/>
     <use xlink:href="#DejaVuSans-2f" transform="translate(1376.95345 0.578125)"/>
     <use xlink:href="#DejaVuSans-73" transform="translate(1426.880532 0.578125)"/>
     <use xlink:href="#DejaVuSans-63" transform="translate(1478.980142 0.578125)"/>
     <use xlink:href="#DejaVuSans-61" transform="translate(1533.96061 0.578125)"/>
     <use xlink:href="#DejaVuSans-6c" transform="translate(1595.239907 0.578125)"/>
     <use xlink:href="#DejaVuSans-65" transform="translate(1623.02311 0.578125)"/>
    </g>
   </g>
  </g>
 </g>
 <defs>
  <clipPath id="p8dcb1039f2">
   <rect x="7.2" y="7.2" width="647.28" height="421.344"/>
  </clipPath>
 </defs>
</svg>
