<?xml version="1.0" encoding="utf-8" standalone="no"?>
<!DOCTYPE svg PUBLIC "-//W3C//DTD SVG 1.1//EN"
  "http://www.w3.org/Graphics/SVG/1.1/DTD/svg11.dtd">
<svg xmlns:xlink="http://www.w3.org/1999/xlink" width="662.76pt" height="320.328pt" viewBox="0 0 662.76 320.328" xmlns="http://www.w3.org/2000/svg" version="1.1">
 <metadata>
  <rdf:RDF xmlns:dc="http://purl.org/dc/elements/1.1/" xmlns:cc="http://creativecommons.org/ns#" xmlns:rdf="http://www.w3.org/1999/02/22-rdf-syntax-ns#">
   <cc:Work>
    <dc:type rdf:resource="http://purl.org/dc/dcmitype/StillImage"/>
    <dc:date>2026-06-09T13:42:36.979965</dc:date>
    <dc:format>image/svg+xml</dc:format>
    <dc:creator>
     <cc:Agent>
      <dc:title>Matplotlib v3.8.4, https://matplotlib.org/</dc:title>
     </cc:Agent>
    </dc:creator>
   </cc:Work>
  </rdf:RDF>
 </metadata>
 <defs>
  <style type="text/css">*{stroke-linejoin: round; stroke-linecap: butt}</style>
 </defs>
 <g id="figure_1">
  <g id="patch_1">
   <path d="M 0 320.328 
L 662.76 320.328 
L 662.76 0 
L 0 0 
L 0 320.328 
z
" style="fill: none; opacity: 0"/>
  </g>
  <g id="axes_1">
   <g id="patch_2">
    <path d="M 12.69504 319.432032 
L 650.06496 319.432032 
Q 663.23376 319.432032 663.23376 313.111872 
L 663.23376 76.737888 
Q 663.23376 70.417728 650.06496 70.417728 
L 12.69504 70.417728 
Q -0.47376 70.417728 -0.47376 76.737888 
L -0.47376 313.111872 
Q -0.47376 319.432032 12.69504 319.432032 
z
" clip-path="url(#p202e50a5f1)" style="fill: #0d141f; fill-opacity: 0.55; stroke: #6fd3ff; stroke-width: 1.6; stroke-linejoin: miter"/>
   </g>
   <g id="patch_3">
    <path d="M 12.69504 61.885512 
L 650.06496 61.885512 
Q 663.23376 61.885512 663.23376 55.565352 
L 663.23376 10.376208 
Q 663.23376 4.056048 650.06496 4.056048 
L 12.69504 4.056048 
Q -0.47376 4.056048 -0.47376 10.376208 
L -0.47376 55.565352 
Q -0.47376 61.885512 12.69504 61.885512 
z
" clip-path="url(#p202e50a5f1)" style="fill: #0d141f; fill-opacity: 0.55; stroke: #ffb74d; stroke-width: 1.6; stroke-linejoin: miter"/>
   </g>
   <g id="text_1">
    <!-- 8 raw physics inputs  —  everything below is a product of these -->
    <g style="fill: #c8ccd2" transform="translate(108.874063 23.403565) scale(0.14 -0.14)">
     <defs>
      <path id="DejaVuSans-38" d="M 2034 2216 
Q 1584 2216 1326 1975 
Q 1069 1734 1069 1313 
Q 1069 891 1326 650 
Q 1584 409 2034 409 
Q 2484 409 2743 651 
Q 3003 894 3003 1313 
Q 3003 1734 2745 1975 
Q 2488 2216 2034 2216 
z
M 1403 2484 
Q 997 2584 770 2862 
Q 544 3141 544 3541 
Q 544 4100 942 4425 
Q 1341 4750 2034 4750 
Q 2731 4750 3128 4425 
Q 3525 4100 3525 3541 
Q 3525 3141 3298 2862 
Q 3072 2584 2669 2484 
Q 3125 2378 3379 2068 
Q 3634 1759 3634 1313 
Q 3634 634 3220 271 
Q 2806 -91 2034 -91 
Q 1263 -91 848 271 
Q 434 634 434 1313 
Q 434 1759 690 2068 
Q 947 2378 1403 2484 
z
M 1172 3481 
Q 1172 3119 1398 2916 
Q 1625 2713 2034 2713 
Q 2441 2713 2670 2916 
Q 2900 3119 2900 3481 
Q 2900 3844 2670 4047 
Q 2441 4250 2034 4250 
Q 1625 4250 1398 4047 
Q 1172 3844 1172 3481 
z
" transform="scale(0.015625)"/>
      <path id="DejaVuSans-20" transform="scale(0.015625)"/>
      <path id="DejaVuSans-72" d="M 2631 2963 
Q 2534 3019 2420 3045 
Q 2306 3072 2169 3072 
Q 1681 3072 1420 2755 
Q 1159 2438 1159 1844 
L 1159 0 
L 581 0 
L 581 3500 
L 1159 3500 
L 1159 2956 
Q 1341 3275 1631 3429 
Q 1922 3584 2338 3584 
Q 2397 3584 2469 3576 
Q 2541 3569 2628 3553 
L 2631 2963 
z
" transform="scale(0.015625)"/>
      <path id="DejaVuSans-61" d="M 2194 1759 
Q 1497 1759 1228 1600 
Q 959 1441 959 1056 
Q 959 750 1161 570 
Q 1363 391 1709 391 
Q 2188 391 2477 730 
Q 2766 1069 2766 1631 
L 2766 1759 
L 2194 1759 
z
M 3341 1997 
L 3341 0 
L 2766 0 
L 2766 531 
Q 2569 213 2275 61 
Q 1981 -91 1556 -91 
Q 1019 -91 701 211 
Q 384 513 384 1019 
Q 384 1609 779 1909 
Q 1175 2209 1959 2209 
L 2766 2209 
L 2766 2266 
Q 2766 2663 2505 2880 
Q 2244 3097 1772 3097 
Q 1472 3097 1187 3025 
Q 903 2953 641 2809 
L 641 3341 
Q 956 3463 1253 3523 
Q 1550 3584 1831 3584 
Q 2591 3584 2966 3190 
Q 3341 2797 3341 1997 
z
" transform="scale(0.015625)"/>
      <path id="DejaVuSans-77" d="M 269 3500 
L 844 3500 
L 1563 769 
L 2278 3500 
L 2956 3500 
L 3675 769 
L 4391 3500 
L 4966 3500 
L 4050 0 
L 3372 0 
L 2619 2869 
L 1863 0 
L 1184 0 
L 269 3500 
z
" transform="scale(0.015625)"/>
      <path id="DejaVuSans-70" d="M 1159 525 
L 1159 -1331 
L 581 -1331 
L 581 3500 
L 1159 3500 
L 1159 2969 
Q 1341 3281 1617 3432 
Q 1894 3584 2278 3584 
Q 2916 3584 3314 3078 
Q 3713 2572 3713 1747 
Q 3713 922 3314 415 
Q 2916 -91 2278 -91 
Q 1894 -91 1617 61 
Q 1341 213 1159 525 
z
M 3116 1747 
Q 3116 2381 2855 2742 
Q 2594 3103 2138 3103 
Q 1681 3103 1420 2742 
Q 1159 2381 1159 1747 
Q 1159 1113 1420 752 
Q 1681 391 2138 391 
Q 2594 391 2855 752 
Q 3116 1113 3116 1747 
z
" transform="scale(0.015625)"/>
      <path id="DejaVuSans-68" d="M 3513 2113 
L 3513 0 
L 2938 0 
L 2938 2094 
Q 2938 2591 2744 2837 
Q 2550 3084 2163 3084 
Q 1697 3084 1428 2787 
Q 1159 2491 1159 1978 
L 1159 0 
L 581 0 
L 581 4863 
L 1159 4863 
L 1159 2956 
Q 1366 3272 1645 3428 
Q 1925 3584 2291 3584 
Q 2894 3584 3203 3211 
Q 3513 2838 3513 2113 
z
" transform="scale(0.015625)"/>
      <path id="DejaVuSans-79" d="M 2059 -325 
Q 1816 -950 1584 -1140 
Q 1353 -1331 966 -1331 
L 506 -1331 
L 506 -850 
L 844 -850 
Q 1081 -850 1212 -737 
Q 1344 -625 1503 -206 
L 1606 56 
L 191 3500 
L 800 3500 
L 1894 763 
L 2988 3500 
L 3597 3500 
L 2059 -325 
z
" transform="scale(0.015625)"/>
      <path id="DejaVuSans-73" d="M 2834 3397 
L 2834 2853 
Q 2591 2978 2328 3040 
Q 2066 3103 1784 3103 
Q 1356 3103 1142 2972 
Q 928 2841 928 2578 
Q 928 2378 1081 2264 
Q 1234 2150 1697 2047 
L 1894 2003 
Q 2506 1872 2764 1633 
Q 3022 1394 3022 966 
Q 3022 478 2636 193 
Q 2250 -91 1575 -91 
Q 1294 -91 989 -36 
Q 684 19 347 128 
L 347 722 
Q 666 556 975 473 
Q 1284 391 1588 391 
Q 1994 391 2212 530 
Q 2431 669 2431 922 
Q 2431 1156 2273 1281 
Q 2116 1406 1581 1522 
L 1381 1569 
Q 847 1681 609 1914 
Q 372 2147 372 2553 
Q 372 3047 722 3315 
Q 1072 3584 1716 3584 
Q 2034 3584 2315 3537 
Q 2597 3491 2834 3397 
z
" transform="scale(0.015625)"/>
      <path id="DejaVuSans-69" d="M 603 3500 
L 1178 3500 
L 1178 0 
L 603 0 
L 603 3500 
z
M 603 4863 
L 1178 4863 
L 1178 4134 
L 603 4134 
L 603 4863 
z
" transform="scale(0.015625)"/>
      <path id="DejaVuSans-63" d="M 3122 3366 
L 3122 2828 
Q 2878 2963 2633 3030 
Q 2388 3097 2138 3097 
Q 1578 3097 1268 2742 
Q 959 2388 959 1747 
Q 959 1106 1268 751 
Q 1578 397 2138 397 
Q 2388 397 2633 464 
Q 2878 531 3122 666 
L 3122 134 
Q 2881 22 2623 -34 
Q 2366 -91 2075 -91 
Q 1284 -91 818 406 
Q 353 903 353 1747 
Q 353 2603 823 3093 
Q 1294 3584 2113 3584 
Q 2378 3584 2631 3529 
Q 2884 3475 3122 3366 
z
" transform="scale(0.015625)"/>
      <path id="DejaVuSans-6e" d="M 3513 2113 
L 3513 0 
L 2938 0 
L 2938 2094 
Q 2938 2591 2744 2837 
Q 2550 3084 2163 3084 
Q 1697 3084 1428 2787 
Q 1159 2491 1159 1978 
L 1159 0 
L 581 0 
L 581 3500 
L 1159 3500 
L 1159 2956 
Q 1366 3272 1645 3428 
Q 1925 3584 2291 3584 
Q 2894 3584 3203 3211 
Q 3513 2838 3513 2113 
z
" transform="scale(0.015625)"/>
      <path id="DejaVuSans-75" d="M 544 1381 
L 544 3500 
L 1119 3500 
L 1119 1403 
Q 1119 906 1312 657 
Q 1506 409 1894 409 
Q 2359 409 2629 706 
Q 2900 1003 2900 1516 
L 2900 3500 
L 3475 3500 
L 3475 0 
L 2900 0 
L 2900 538 
Q 2691 219 2414 64 
Q 2138 -91 1772 -91 
Q 1169 -91 856 284 
Q 544 659 544 1381 
z
M 1991 3584 
L 1991 3584 
z
" transform="scale(0.015625)"/>
      <path id="DejaVuSans-74" d="M 1172 4494 
L 1172 3500 
L 2356 3500 
L 2356 3053 
L 1172 3053 
L 1172 1153 
Q 1172 725 1289 603 
Q 1406 481 1766 481 
L 2356 481 
L 2356 0 
L 1766 0 
Q 1100 0 847 248 
Q 594 497 594 1153 
L 594 3053 
L 172 3053 
L 172 3500 
L 594 3500 
L 594 4494 
L 1172 4494 
z
" transform="scale(0.015625)"/>
      <path id="DejaVuSans-2014" d="M 313 1978 
L 6088 1978 
L 6088 1528 
L 313 1528 
L 313 1978 
z
" transform="scale(0.015625)"/>
      <path id="DejaVuSans-65" d="M 3597 1894 
L 3597 1613 
L 953 1613 
Q 991 1019 1311 708 
Q 1631 397 2203 397 
Q 2534 397 2845 478 
Q 3156 559 3463 722 
L 3463 178 
Q 3153 47 2828 -22 
Q 2503 -91 2169 -91 
Q 1331 -91 842 396 
Q 353 884 353 1716 
Q 353 2575 817 3079 
Q 1281 3584 2069 3584 
Q 2775 3584 3186 3129 
Q 3597 2675 3597 1894 
z
M 3022 2063 
Q 3016 2534 2758 2815 
Q 2500 3097 2075 3097 
Q 1594 3097 1305 2825 
Q 1016 2553 972 2059 
L 3022 2063 
z
" transform="scale(0.015625)"/>
      <path id="DejaVuSans-76" d="M 191 3500 
L 800 3500 
L 1894 563 
L 2988 3500 
L 3597 3500 
L 2284 0 
L 1503 0 
L 191 3500 
z
" transform="scale(0.015625)"/>
      <path id="DejaVuSans-67" d="M 2906 1791 
Q 2906 2416 2648 2759 
Q 2391 3103 1925 3103 
Q 1463 3103 1205 2759 
Q 947 2416 947 1791 
Q 947 1169 1205 825 
Q 1463 481 1925 481 
Q 2391 481 2648 825 
Q 2906 1169 2906 1791 
z
M 3481 434 
Q 3481 -459 3084 -895 
Q 2688 -1331 1869 -1331 
Q 1566 -1331 1297 -1286 
Q 1028 -1241 775 -1147 
L 775 -588 
Q 1028 -725 1275 -790 
Q 1522 -856 1778 -856 
Q 2344 -856 2625 -561 
Q 2906 -266 2906 331 
L 2906 616 
Q 2728 306 2450 153 
Q 2172 0 1784 0 
Q 1141 0 747 490 
Q 353 981 353 1791 
Q 353 2603 747 3093 
Q 1141 3584 1784 3584 
Q 2172 3584 2450 3431 
Q 2728 3278 2906 2969 
L 2906 3500 
L 3481 3500 
L 3481 434 
z
" transform="scale(0.015625)"/>
      <path id="DejaVuSans-62" d="M 3116 1747 
Q 3116 2381 2855 2742 
Q 2594 3103 2138 3103 
Q 1681 3103 1420 2742 
Q 1159 2381 1159 1747 
Q 1159 1113 1420 752 
Q 1681 391 2138 391 
Q 2594 391 2855 752 
Q 3116 1113 3116 1747 
z
M 1159 2969 
Q 1341 3281 1617 3432 
Q 1894 3584 2278 3584 
Q 2916 3584 3314 3078 
Q 3713 2572 3713 1747 
Q 3713 922 3314 415 
Q 2916 -91 2278 -91 
Q 1894 -91 1617 61 
Q 1341 213 1159 525 
L 1159 0 
L 581 0 
L 581 4863 
L 1159 4863 
L 1159 2969 
z
" transform="scale(0.015625)"/>
      <path id="DejaVuSans-6c" d="M 603 4863 
L 1178 4863 
L 1178 0 
L 603 0 
L 603 4863 
z
" transform="scale(0.015625)"/>
      <path id="DejaVuSans-6f" d="M 1959 3097 
Q 1497 3097 1228 2736 
Q 959 2375 959 1747 
Q 959 1119 1226 758 
Q 1494 397 1959 397 
Q 2419 397 2687 759 
Q 2956 1122 2956 1747 
Q 2956 2369 2687 2733 
Q 2419 3097 1959 3097 
z
M 1959 3584 
Q 2709 3584 3137 3096 
Q 3566 2609 3566 1747 
Q 3566 888 3137 398 
Q 2709 -91 1959 -91 
Q 1206 -91 779 398 
Q 353 888 353 1747 
Q 353 2609 779 3096 
Q 1206 3584 1959 3584 
z
" transform="scale(0.015625)"/>
      <path id="DejaVuSans-64" d="M 2906 2969 
L 2906 4863 
L 3481 4863 
L 3481 0 
L 2906 0 
L 2906 525 
Q 2725 213 2448 61 
Q 2172 -91 1784 -91 
Q 1150 -91 751 415 
Q 353 922 353 1747 
Q 353 2572 751 3078 
Q 1150 3584 1784 3584 
Q 2172 3584 2448 3432 
Q 2725 3281 2906 2969 
z
M 947 1747 
Q 947 1113 1208 752 
Q 1469 391 1925 391 
Q 2381 391 2643 752 
Q 2906 1113 2906 1747 
Q 2906 2381 2643 2742 
Q 2381 3103 1925 3103 
Q 1469 3103 1208 2742 
Q 947 2381 947 1747 
z
" transform="scale(0.015625)"/>
      <path id="DejaVuSans-66" d="M 2375 4863 
L 2375 4384 
L 1825 4384 
Q 1516 4384 1395 4259 
Q 1275 4134 1275 3809 
L 1275 3500 
L 2222 3500 
L 2222 3053 
L 1275 3053 
L 1275 0 
L 697 0 
L 697 3053 
L 147 3053 
L 147 3500 
L 697 3500 
L 697 3744 
Q 697 4328 969 4595 
Q 1241 4863 1831 4863 
L 2375 4863 
z
" transform="scale(0.015625)"/>
     </defs>
     <use xlink:href="#DejaVuSans-38"/>
     <use xlink:href="#DejaVuSans-20" x="63.623047"/>
     <use xlink:href="#DejaVuSans-72" x="95.410156"/>
     <use xlink:href="#DejaVuSans-61" x="136.523438"/>
     <use xlink:href="#DejaVuSans-77" x="197.802734"/>
     <use xlink:href="#DejaVuSans-20" x="279.589844"/>
     <use xlink:href="#DejaVuSans-70" x="311.376953"/>
     <use xlink:href="#DejaVuSans-68" x="374.853516"/>
     <use xlink:href="#DejaVuSans-79" x="438.232422"/>
     <use xlink:href="#DejaVuSans-73" x="497.412109"/>
     <use xlink:href="#DejaVuSans-69" x="549.511719"/>
     <use xlink:href="#DejaVuSans-63" x="577.294922"/>
     <use xlink:href="#DejaVuSans-73" x="632.275391"/>
     <use xlink:href="#DejaVuSans-20" x="684.375"/>
     <use xlink:href="#DejaVuSans-69" x="716.162109"/>
     <use xlink:href="#DejaVuSans-6e" x="743.945312"/>
     <use xlink:href="#DejaVuSans-70" x="807.324219"/>
     <use xlink:href="#DejaVuSans-75" x="870.800781"/>
     <use xlink:href="#DejaVuSans-74" x="934.179688"/>
     <use xlink:href="#DejaVuSans-73" x="973.388672"/>
     <use xlink:href="#DejaVuSans-20" x="1025.488281"/>
     <use xlink:href="#DejaVuSans-20" x="1057.275391"/>
     <use xlink:href="#DejaVuSans-2014" x="1089.0625"/>
     <use xlink:href="#DejaVuSans-20" x="1189.0625"/>
     <use xlink:href="#DejaVuSans-20" x="1220.849609"/>
     <use xlink:href="#DejaVuSans-65" x="1252.636719"/>
     <use xlink:href="#DejaVuSans-76" x="1314.160156"/>
     <use xlink:href="#DejaVuSans-65" x="1373.339844"/>
     <use xlink:href="#DejaVuSans-72" x="1434.863281"/>
     <use xlink:href="#DejaVuSans-79" x="1475.976562"/>
     <use xlink:href="#DejaVuSans-74" x="1535.15625"/>
     <use xlink:href="#DejaVuSans-68" x="1574.365234"/>
     <use xlink:href="#DejaVuSans-69" x="1637.744141"/>
     <use xlink:href="#DejaVuSans-6e" x="1665.527344"/>
     <use xlink:href="#DejaVuSans-67" x="1728.90625"/>
     <use xlink:href="#DejaVuSans-20" x="1792.382812"/>
     <use xlink:href="#DejaVuSans-62" x="1824.169922"/>
     <use xlink:href="#DejaVuSans-65" x="1887.646484"/>
     <use xlink:href="#DejaVuSans-6c" x="1949.169922"/>
     <use xlink:href="#DejaVuSans-6f" x="1976.953125"/>
     <use xlink:href="#DejaVuSans-77" x="2038.134766"/>
     <use xlink:href="#DejaVuSans-20" x="2119.921875"/>
     <use xlink:href="#DejaVuSans-69" x="2151.708984"/>
     <use xlink:href="#DejaVuSans-73" x="2179.492188"/>
     <use xlink:href="#DejaVuSans-20" x="2231.591797"/>
     <use xlink:href="#DejaVuSans-61" x="2263.378906"/>
     <use xlink:href="#DejaVuSans-20" x="2324.658203"/>
     <use xlink:href="#DejaVuSans-70" x="2356.445312"/>
     <use xlink:href="#DejaVuSans-72" x="2419.921875"/>
     <use xlink:href="#DejaVuSans-6f" x="2458.785156"/>
     <use xlink:href="#DejaVuSans-64" x="2519.966797"/>
     <use xlink:href="#DejaVuSans-75" x="2583.443359"/>
     <use xlink:href="#DejaVuSans-63" x="2646.822266"/>
     <use xlink:href="#DejaVuSans-74" x="2701.802734"/>
     <use xlink:href="#DejaVuSans-20" x="2741.011719"/>
     <use xlink:href="#DejaVuSans-6f" x="2772.798828"/>
     <use xlink:href="#DejaVuSans-66" x="2833.980469"/>
     <use xlink:href="#DejaVuSans-20" x="2869.185547"/>
     <use xlink:href="#DejaVuSans-74" x="2900.972656"/>
     <use xlink:href="#DejaVuSans-68" x="2940.181641"/>
     <use xlink:href="#DejaVuSans-65" x="3003.560547"/>
     <use xlink:href="#DejaVuSans-73" x="3065.083984"/>
     <use xlink:href="#DejaVuSans-65" x="3117.183594"/>
    </g>
   </g>
   <g id="text_2">
    <!-- ice_thickness · bed_evel · z · s · vx · vy · smb · temp -->
    <g style="fill: #ffb74d" transform="translate(49.930391 51.307214) scale(0.17 -0.17)">
     <defs>
      <path id="DejaVuSansMono-Bold-69" d="M 691 3500 
L 2503 3500 
L 2503 703 
L 3641 703 
L 3641 0 
L 447 0 
L 447 703 
L 1588 703 
L 1588 2797 
L 691 2797 
L 691 3500 
z
M 1588 5203 
L 2503 5203 
L 2503 4134 
L 1588 4134 
L 1588 5203 
z
" transform="scale(0.015625)"/>
      <path id="DejaVuSansMono-Bold-63" d="M 3316 178 
Q 3084 44 2818 -23 
Q 2553 -91 2247 -91 
Q 1438 -91 981 396 
Q 525 884 525 1747 
Q 525 2613 984 3102 
Q 1444 3591 2253 3591 
Q 2534 3591 2795 3525 
Q 3056 3459 3316 3322 
L 3316 2484 
Q 3116 2656 2877 2748 
Q 2638 2841 2381 2841 
Q 1934 2841 1693 2556 
Q 1453 2272 1453 1747 
Q 1453 1222 1693 940 
Q 1934 659 2381 659 
Q 2647 659 2878 748 
Q 3109 838 3316 1019 
L 3316 178 
z
" transform="scale(0.015625)"/>
      <path id="DejaVuSansMono-Bold-65" d="M 3444 172 
Q 3125 41 2794 -25 
Q 2463 -91 2094 -91 
Q 1216 -91 752 379 
Q 288 850 288 1734 
Q 288 2591 734 3087 
Q 1181 3584 1953 3584 
Q 2731 3584 3161 3123 
Q 3591 2663 3591 1825 
L 3591 1453 
L 1219 1453 
Q 1222 1041 1462 837 
Q 1703 634 2181 634 
Q 2497 634 2803 725 
Q 3109 816 3444 1013 
L 3444 172 
z
M 2669 2141 
Q 2663 2503 2483 2689 
Q 2303 2875 1953 2875 
Q 1638 2875 1450 2683 
Q 1263 2491 1228 2138 
L 2669 2141 
z
" transform="scale(0.015625)"/>
      <path id="DejaVuSansMono-Bold-5f" d="M 3853 -916 
L 3853 -1509 
L 0 -1509 
L 0 -916 
L 3853 -916 
z
" transform="scale(0.015625)"/>
      <path id="DejaVuSansMono-Bold-74" d="M 2156 4494 
L 2156 3500 
L 3353 3500 
L 3353 2797 
L 2156 2797 
L 2156 1141 
Q 2156 906 2270 804 
Q 2384 703 2650 703 
L 3353 703 
L 3353 0 
L 2584 0 
Q 1797 0 1519 251 
Q 1241 503 1241 1184 
L 1241 2797 
L 347 2797 
L 347 3500 
L 1241 3500 
L 1241 4494 
L 2156 4494 
z
" transform="scale(0.015625)"/>
      <path id="DejaVuSansMono-Bold-68" d="M 3347 2272 
L 3347 0 
L 2438 0 
L 2438 2131 
Q 2438 2509 2330 2671 
Q 2222 2834 1978 2834 
Q 1728 2834 1587 2614 
Q 1447 2394 1447 2003 
L 1447 0 
L 538 0 
L 538 4863 
L 1447 4863 
L 1447 2975 
Q 1544 3266 1778 3425 
Q 2013 3584 2344 3584 
Q 2841 3584 3094 3254 
Q 3347 2925 3347 2272 
z
" transform="scale(0.015625)"/>
      <path id="DejaVuSansMono-Bold-6b" d="M 544 4863 
L 1459 4863 
L 1459 2309 
L 2559 3500 
L 3669 3500 
L 2344 2194 
L 3744 0 
L 2731 0 
L 1772 1638 
L 1459 1338 
L 1459 0 
L 544 0 
L 544 4863 
z
" transform="scale(0.015625)"/>
      <path id="DejaVuSansMono-Bold-6e" d="M 3347 2272 
L 3347 0 
L 2438 0 
L 2438 2131 
Q 2438 2513 2330 2677 
Q 2222 2841 1978 2841 
Q 1731 2841 1589 2619 
Q 1447 2397 1447 2003 
L 1447 0 
L 538 0 
L 538 3500 
L 1447 3500 
L 1447 2975 
Q 1544 3266 1778 3425 
Q 2013 3584 2344 3584 
Q 2841 3584 3094 3254 
Q 3347 2925 3347 2272 
z
" transform="scale(0.015625)"/>
      <path id="DejaVuSansMono-Bold-73" d="M 3097 3391 
L 3097 2591 
Q 2844 2753 2570 2836 
Q 2297 2919 2022 2919 
Q 1716 2919 1559 2830 
Q 1403 2741 1403 2566 
Q 1403 2316 2072 2159 
L 2106 2150 
L 2369 2088 
Q 2869 1969 3101 1705 
Q 3334 1441 3334 991 
Q 3334 450 2979 179 
Q 2625 -91 1913 -91 
Q 1597 -91 1265 -36 
Q 934 19 594 128 
L 594 928 
Q 897 756 1211 665 
Q 1525 575 1819 575 
Q 2141 575 2306 669 
Q 2472 763 2472 941 
Q 2472 1116 2355 1209 
Q 2238 1303 1797 1409 
L 1544 1466 
Q 1019 1584 778 1837 
Q 538 2091 538 2516 
Q 538 3022 903 3303 
Q 1269 3584 1931 3584 
Q 2228 3584 2523 3536 
Q 2819 3488 3097 3391 
z
" transform="scale(0.015625)"/>
      <path id="DejaVuSansMono-Bold-20" transform="scale(0.015625)"/>
      <path id="DejaVuSansMono-Bold-b7" d="M 1403 2797 
L 2444 2797 
L 2444 1656 
L 1403 1656 
L 1403 2797 
z
" transform="scale(0.015625)"/>
      <path id="DejaVuSansMono-Bold-62" d="M 2656 1741 
Q 2656 2247 2487 2534 
Q 2319 2822 2022 2822 
Q 1725 2822 1553 2534 
Q 1381 2247 1381 1741 
Q 1381 1234 1553 946 
Q 1725 659 2022 659 
Q 2319 659 2487 946 
Q 2656 1234 2656 1741 
z
M 1381 3003 
Q 1550 3294 1773 3439 
Q 1997 3584 2278 3584 
Q 2900 3584 3236 3109 
Q 3572 2634 3572 1747 
Q 3572 872 3240 390 
Q 2909 -91 2309 -91 
Q 1994 -91 1759 62 
Q 1525 216 1381 519 
L 1381 0 
L 469 0 
L 469 4863 
L 1381 4863 
L 1381 3003 
z
" transform="scale(0.015625)"/>
      <path id="DejaVuSansMono-Bold-64" d="M 2472 3003 
L 2472 4863 
L 3384 4863 
L 3384 0 
L 2472 0 
L 2472 519 
Q 2325 216 2092 62 
Q 1859 -91 1544 -91 
Q 944 -91 612 390 
Q 281 872 281 1747 
Q 281 2634 617 3109 
Q 953 3584 1575 3584 
Q 1856 3584 2079 3439 
Q 2303 3294 2472 3003 
z
M 1197 1741 
Q 1197 1234 1365 946 
Q 1534 659 1831 659 
Q 2128 659 2300 946 
Q 2472 1234 2472 1741 
Q 2472 2247 2300 2534 
Q 2128 2822 1831 2822 
Q 1534 2822 1365 2534 
Q 1197 2247 1197 1741 
z
" transform="scale(0.015625)"/>
      <path id="DejaVuSansMono-Bold-76" d="M 3603 3500 
L 2491 0 
L 1363 0 
L 250 3500 
L 1178 3500 
L 1925 769 
L 2675 3500 
L 3603 3500 
z
" transform="scale(0.015625)"/>
      <path id="DejaVuSansMono-Bold-6c" d="M 1209 1459 
L 1209 4159 
L 281 4159 
L 281 4863 
L 2125 4863 
L 2125 1459 
Q 2125 1047 2253 875 
Q 2381 703 2688 703 
L 3419 703 
L 3419 0 
L 2431 0 
Q 1778 0 1493 337 
Q 1209 675 1209 1459 
z
" transform="scale(0.015625)"/>
      <path id="DejaVuSansMono-Bold-7a" d="M 581 3500 
L 3378 3500 
L 3378 2784 
L 1538 684 
L 3378 684 
L 3378 0 
L 506 0 
L 506 716 
L 2350 2816 
L 581 2816 
L 581 3500 
z
" transform="scale(0.015625)"/>
      <path id="DejaVuSansMono-Bold-78" d="M 3578 3500 
L 2400 1825 
L 3681 0 
L 2613 0 
L 1925 1178 
L 1241 0 
L 172 0 
L 1466 1825 
L 275 3500 
L 1344 3500 
L 1925 2456 
L 2509 3500 
L 3578 3500 
z
" transform="scale(0.015625)"/>
      <path id="DejaVuSansMono-Bold-79" d="M 2222 -378 
Q 2038 -872 1780 -1098 
Q 1522 -1325 1153 -1325 
L 397 -1325 
L 397 -628 
L 769 -628 
Q 1050 -628 1181 -533 
Q 1313 -438 1447 -91 
L 1516 97 
L 184 3500 
L 1147 3500 
L 1947 1228 
L 2713 3500 
L 3675 3500 
L 2222 -378 
z
" transform="scale(0.015625)"/>
      <path id="DejaVuSansMono-Bold-6d" d="M 2156 3150 
Q 2259 3372 2418 3478 
Q 2578 3584 2809 3584 
Q 3263 3584 3436 3271 
Q 3609 2959 3609 1972 
L 3609 0 
L 2859 0 
L 2859 2247 
Q 2859 2638 2800 2769 
Q 2741 2900 2584 2900 
Q 2428 2900 2365 2765 
Q 2303 2631 2303 2247 
L 2303 0 
L 1563 0 
L 1563 2247 
Q 1563 2631 1500 2765 
Q 1438 2900 1281 2900 
Q 1125 2900 1065 2769 
Q 1006 2638 1006 2247 
L 1006 0 
L 256 0 
L 256 3500 
L 922 3500 
L 922 3138 
Q 1000 3344 1172 3464 
Q 1344 3584 1556 3584 
Q 1769 3584 1944 3457 
Q 2119 3331 2156 3150 
z
" transform="scale(0.015625)"/>
      <path id="DejaVuSansMono-Bold-70" d="M 1381 494 
L 1381 -1331 
L 469 -1331 
L 469 3500 
L 1381 3500 
L 1381 2975 
Q 1525 3278 1759 3431 
Q 1994 3584 2309 3584 
Q 2909 3584 3240 3103 
Q 3572 2622 3572 1747 
Q 3572 859 3236 384 
Q 2900 -91 2278 -91 
Q 1997 -91 1773 54 
Q 1550 200 1381 494 
z
M 2656 1753 
Q 2656 2259 2487 2546 
Q 2319 2834 2022 2834 
Q 1725 2834 1553 2546 
Q 1381 2259 1381 1753 
Q 1381 1247 1553 959 
Q 1725 672 2022 672 
Q 2319 672 2487 959 
Q 2656 1247 2656 1753 
z
" transform="scale(0.015625)"/>
     </defs>
     <use xlink:href="#DejaVuSansMono-Bold-69"/>
     <use xlink:href="#DejaVuSansMono-Bold-63" x="60.205078"/>
     <use xlink:href="#DejaVuSansMono-Bold-65" x="120.410156"/>
     <use xlink:href="#DejaVuSansMono-Bold-5f" x="180.615234"/>
     <use xlink:href="#DejaVuSansMono-Bold-74" x="240.820312"/>
     <use xlink:href="#DejaVuSansMono-Bold-68" x="301.025391"/>
     <use xlink:href="#DejaVuSansMono-Bold-69" x="361.230469"/>
     <use xlink:href="#DejaVuSansMono-Bold-63" x="421.435547"/>
     <use xlink:href="#DejaVuSansMono-Bold-6b" x="481.640625"/>
     <use xlink:href="#DejaVuSansMono-Bold-6e" x="541.845703"/>
     <use xlink:href="#DejaVuSansMono-Bold-65" x="602.050781"/>
     <use xlink:href="#DejaVuSansMono-Bold-73" x="662.255859"/>
     <use xlink:href="#DejaVuSansMono-Bold-73" x="722.460938"/>
     <use xlink:href="#DejaVuSansMono-Bold-20" x="782.666016"/>
     <use xlink:href="#DejaVuSansMono-Bold-b7" x="842.871094"/>
     <use xlink:href="#DejaVuSansMono-Bold-20" x="903.076172"/>
     <use xlink:href="#DejaVuSansMono-Bold-62" x="963.28125"/>
     <use xlink:href="#DejaVuSansMono-Bold-65" x="1023.486328"/>
     <use xlink:href="#DejaVuSansMono-Bold-64" x="1083.691406"/>
     <use xlink:href="#DejaVuSansMono-Bold-5f" x="1143.896484"/>
     <use xlink:href="#DejaVuSansMono-Bold-65" x="1204.101562"/>
     <use xlink:href="#DejaVuSansMono-Bold-76" x="1264.306641"/>
     <use xlink:href="#DejaVuSansMono-Bold-65" x="1324.511719"/>
     <use xlink:href="#DejaVuSansMono-Bold-6c" x="1384.716797"/>
     <use xlink:href="#DejaVuSansMono-Bold-20" x="1444.921875"/>
     <use xlink:href="#DejaVuSansMono-Bold-b7" x="1505.126953"/>
     <use xlink:href="#DejaVuSansMono-Bold-20" x="1565.332031"/>
     <use xlink:href="#DejaVuSansMono-Bold-7a" x="1625.537109"/>
     <use xlink:href="#DejaVuSansMono-Bold-20" x="1685.742188"/>
     <use xlink:href="#DejaVuSansMono-Bold-b7" x="1745.947266"/>
     <use xlink:href="#DejaVuSansMono-Bold-20" x="1806.152344"/>
     <use xlink:href="#DejaVuSansMono-Bold-73" x="1866.357422"/>
     <use xlink:href="#DejaVuSansMono-Bold-20" x="1926.5625"/>
     <use xlink:href="#DejaVuSansMono-Bold-b7" x="1986.767578"/>
     <use xlink:href="#DejaVuSansMono-Bold-20" x="2046.972656"/>
     <use xlink:href="#DejaVuSansMono-Bold-76" x="2107.177734"/>
     <use xlink:href="#DejaVuSansMono-Bold-78" x="2167.382812"/>
     <use xlink:href="#DejaVuSansMono-Bold-20" x="2227.587891"/>
     <use xlink:href="#DejaVuSansMono-Bold-b7" x="2287.792969"/>
     <use xlink:href="#DejaVuSansMono-Bold-20" x="2347.998047"/>
     <use xlink:href="#DejaVuSansMono-Bold-76" x="2408.203125"/>
     <use xlink:href="#DejaVuSansMono-Bold-79" x="2468.408203"/>
     <use xlink:href="#DejaVuSansMono-Bold-20" x="2528.613281"/>
     <use xlink:href="#DejaVuSansMono-Bold-b7" x="2588.818359"/>
     <use xlink:href="#DejaVuSansMono-Bold-20" x="2649.023438"/>
     <use xlink:href="#DejaVuSansMono-Bold-73" x="2709.228516"/>
     <use xlink:href="#DejaVuSansMono-Bold-6d" x="2769.433594"/>
     <use xlink:href="#DejaVuSansMono-Bold-62" x="2829.638672"/>
     <use xlink:href="#DejaVuSansMono-Bold-20" x="2889.84375"/>
     <use xlink:href="#DejaVuSansMono-Bold-b7" x="2950.048828"/>
     <use xlink:href="#DejaVuSansMono-Bold-20" x="3010.253906"/>
     <use xlink:href="#DejaVuSansMono-Bold-74" x="3070.458984"/>
     <use xlink:href="#DejaVuSansMono-Bold-65" x="3130.664062"/>
     <use xlink:href="#DejaVuSansMono-Bold-6d" x="3190.869141"/>
     <use xlink:href="#DejaVuSansMono-Bold-70" x="3251.074219"/>
    </g>
   </g>
   <g id="text_3">
    <!-- 11 node features  —  physics only, each built from the marked inputs -->
    <g style="fill: #6fd3ff" transform="translate(58.87875 89.710558) scale(0.14 -0.14)">
     <defs>
      <path id="DejaVuSans-Bold-31" d="M 750 831 
L 1813 831 
L 1813 3847 
L 722 3622 
L 722 4441 
L 1806 4666 
L 2950 4666 
L 2950 831 
L 4013 831 
L 4013 0 
L 750 0 
L 750 831 
z
" transform="scale(0.015625)"/>
      <path id="DejaVuSans-Bold-20" transform="scale(0.015625)"/>
      <path id="DejaVuSans-Bold-6e" d="M 4056 2131 
L 4056 0 
L 2931 0 
L 2931 347 
L 2931 1631 
Q 2931 2084 2911 2256 
Q 2891 2428 2841 2509 
Q 2775 2619 2662 2680 
Q 2550 2741 2406 2741 
Q 2056 2741 1856 2470 
Q 1656 2200 1656 1722 
L 1656 0 
L 538 0 
L 538 3500 
L 1656 3500 
L 1656 2988 
Q 1909 3294 2193 3439 
Q 2478 3584 2822 3584 
Q 3428 3584 3742 3212 
Q 4056 2841 4056 2131 
z
" transform="scale(0.015625)"/>
      <path id="DejaVuSans-Bold-6f" d="M 2203 2784 
Q 1831 2784 1636 2517 
Q 1441 2250 1441 1747 
Q 1441 1244 1636 976 
Q 1831 709 2203 709 
Q 2569 709 2762 976 
Q 2956 1244 2956 1747 
Q 2956 2250 2762 2517 
Q 2569 2784 2203 2784 
z
M 2203 3584 
Q 3106 3584 3614 3096 
Q 4122 2609 4122 1747 
Q 4122 884 3614 396 
Q 3106 -91 2203 -91 
Q 1297 -91 786 396 
Q 275 884 275 1747 
Q 275 2609 786 3096 
Q 1297 3584 2203 3584 
z
" transform="scale(0.015625)"/>
      <path id="DejaVuSans-Bold-64" d="M 2919 2988 
L 2919 4863 
L 4044 4863 
L 4044 0 
L 2919 0 
L 2919 506 
Q 2688 197 2409 53 
Q 2131 -91 1766 -91 
Q 1119 -91 703 423 
Q 288 938 288 1747 
Q 288 2556 703 3070 
Q 1119 3584 1766 3584 
Q 2128 3584 2408 3439 
Q 2688 3294 2919 2988 
z
M 2181 722 
Q 2541 722 2730 984 
Q 2919 1247 2919 1747 
Q 2919 2247 2730 2509 
Q 2541 2772 2181 2772 
Q 1825 2772 1636 2509 
Q 1447 2247 1447 1747 
Q 1447 1247 1636 984 
Q 1825 722 2181 722 
z
" transform="scale(0.015625)"/>
      <path id="DejaVuSans-Bold-65" d="M 4031 1759 
L 4031 1441 
L 1416 1441 
Q 1456 1047 1700 850 
Q 1944 653 2381 653 
Q 2734 653 3104 758 
Q 3475 863 3866 1075 
L 3866 213 
Q 3469 63 3072 -14 
Q 2675 -91 2278 -91 
Q 1328 -91 801 392 
Q 275 875 275 1747 
Q 275 2603 792 3093 
Q 1309 3584 2216 3584 
Q 3041 3584 3536 3087 
Q 4031 2591 4031 1759 
z
M 2881 2131 
Q 2881 2450 2695 2645 
Q 2509 2841 2209 2841 
Q 1884 2841 1681 2658 
Q 1478 2475 1428 2131 
L 2881 2131 
z
" transform="scale(0.015625)"/>
      <path id="DejaVuSans-Bold-66" d="M 2841 4863 
L 2841 4128 
L 2222 4128 
Q 1984 4128 1890 4042 
Q 1797 3956 1797 3744 
L 1797 3500 
L 2753 3500 
L 2753 2700 
L 1797 2700 
L 1797 0 
L 678 0 
L 678 2700 
L 122 2700 
L 122 3500 
L 678 3500 
L 678 3744 
Q 678 4316 997 4589 
Q 1316 4863 1984 4863 
L 2841 4863 
z
" transform="scale(0.015625)"/>
      <path id="DejaVuSans-Bold-61" d="M 2106 1575 
Q 1756 1575 1579 1456 
Q 1403 1338 1403 1106 
Q 1403 894 1545 773 
Q 1688 653 1941 653 
Q 2256 653 2472 879 
Q 2688 1106 2688 1447 
L 2688 1575 
L 2106 1575 
z
M 3816 1997 
L 3816 0 
L 2688 0 
L 2688 519 
Q 2463 200 2181 54 
Q 1900 -91 1497 -91 
Q 953 -91 614 226 
Q 275 544 275 1050 
Q 275 1666 698 1953 
Q 1122 2241 2028 2241 
L 2688 2241 
L 2688 2328 
Q 2688 2594 2478 2717 
Q 2269 2841 1825 2841 
Q 1466 2841 1156 2769 
Q 847 2697 581 2553 
L 581 3406 
Q 941 3494 1303 3539 
Q 1666 3584 2028 3584 
Q 2975 3584 3395 3211 
Q 3816 2838 3816 1997 
z
" transform="scale(0.015625)"/>
      <path id="DejaVuSans-Bold-74" d="M 1759 4494 
L 1759 3500 
L 2913 3500 
L 2913 2700 
L 1759 2700 
L 1759 1216 
Q 1759 972 1856 886 
Q 1953 800 2241 800 
L 2816 800 
L 2816 0 
L 1856 0 
Q 1194 0 917 276 
Q 641 553 641 1216 
L 641 2700 
L 84 2700 
L 84 3500 
L 641 3500 
L 641 4494 
L 1759 4494 
z
" transform="scale(0.015625)"/>
      <path id="DejaVuSans-Bold-75" d="M 500 1363 
L 500 3500 
L 1625 3500 
L 1625 3150 
Q 1625 2866 1622 2436 
Q 1619 2006 1619 1863 
Q 1619 1441 1641 1255 
Q 1663 1069 1716 984 
Q 1784 875 1895 815 
Q 2006 756 2150 756 
Q 2500 756 2700 1025 
Q 2900 1294 2900 1772 
L 2900 3500 
L 4019 3500 
L 4019 0 
L 2900 0 
L 2900 506 
Q 2647 200 2364 54 
Q 2081 -91 1741 -91 
Q 1134 -91 817 281 
Q 500 653 500 1363 
z
" transform="scale(0.015625)"/>
      <path id="DejaVuSans-Bold-72" d="M 3138 2547 
Q 2991 2616 2845 2648 
Q 2700 2681 2553 2681 
Q 2122 2681 1889 2404 
Q 1656 2128 1656 1613 
L 1656 0 
L 538 0 
L 538 3500 
L 1656 3500 
L 1656 2925 
Q 1872 3269 2151 3426 
Q 2431 3584 2822 3584 
Q 2878 3584 2943 3579 
Q 3009 3575 3134 3559 
L 3138 2547 
z
" transform="scale(0.015625)"/>
      <path id="DejaVuSans-Bold-73" d="M 3272 3391 
L 3272 2541 
Q 2913 2691 2578 2766 
Q 2244 2841 1947 2841 
Q 1628 2841 1473 2761 
Q 1319 2681 1319 2516 
Q 1319 2381 1436 2309 
Q 1553 2238 1856 2203 
L 2053 2175 
Q 2913 2066 3209 1816 
Q 3506 1566 3506 1031 
Q 3506 472 3093 190 
Q 2681 -91 1863 -91 
Q 1516 -91 1145 -36 
Q 775 19 384 128 
L 384 978 
Q 719 816 1070 734 
Q 1422 653 1784 653 
Q 2113 653 2278 743 
Q 2444 834 2444 1013 
Q 2444 1163 2330 1236 
Q 2216 1309 1875 1350 
L 1678 1375 
Q 931 1469 631 1722 
Q 331 1975 331 2491 
Q 331 3047 712 3315 
Q 1094 3584 1881 3584 
Q 2191 3584 2531 3537 
Q 2872 3491 3272 3391 
z
" transform="scale(0.015625)"/>
      <path id="DejaVuSans-Bold-2014" d="M 344 2156 
L 6056 2156 
L 6056 1350 
L 344 1350 
L 344 2156 
z
" transform="scale(0.015625)"/>
      <path id="DejaVuSans-Bold-70" d="M 1656 506 
L 1656 -1331 
L 538 -1331 
L 538 3500 
L 1656 3500 
L 1656 2988 
Q 1888 3294 2169 3439 
Q 2450 3584 2816 3584 
Q 3463 3584 3878 3070 
Q 4294 2556 4294 1747 
Q 4294 938 3878 423 
Q 3463 -91 2816 -91 
Q 2450 -91 2169 54 
Q 1888 200 1656 506 
z
M 2400 2772 
Q 2041 2772 1848 2508 
Q 1656 2244 1656 1747 
Q 1656 1250 1848 986 
Q 2041 722 2400 722 
Q 2759 722 2948 984 
Q 3138 1247 3138 1747 
Q 3138 2247 2948 2509 
Q 2759 2772 2400 2772 
z
" transform="scale(0.015625)"/>
      <path id="DejaVuSans-Bold-68" d="M 4056 2131 
L 4056 0 
L 2931 0 
L 2931 347 
L 2931 1625 
Q 2931 2084 2911 2256 
Q 2891 2428 2841 2509 
Q 2775 2619 2662 2680 
Q 2550 2741 2406 2741 
Q 2056 2741 1856 2470 
Q 1656 2200 1656 1722 
L 1656 0 
L 538 0 
L 538 4863 
L 1656 4863 
L 1656 2988 
Q 1909 3294 2193 3439 
Q 2478 3584 2822 3584 
Q 3428 3584 3742 3212 
Q 4056 2841 4056 2131 
z
" transform="scale(0.015625)"/>
      <path id="DejaVuSans-Bold-79" d="M 78 3500 
L 1197 3500 
L 2138 1125 
L 2938 3500 
L 4056 3500 
L 2584 -331 
Q 2363 -916 2067 -1148 
Q 1772 -1381 1288 -1381 
L 641 -1381 
L 641 -647 
L 991 -647 
Q 1275 -647 1404 -556 
Q 1534 -466 1606 -231 
L 1638 -134 
L 78 3500 
z
" transform="scale(0.015625)"/>
      <path id="DejaVuSans-Bold-69" d="M 538 3500 
L 1656 3500 
L 1656 0 
L 538 0 
L 538 3500 
z
M 538 4863 
L 1656 4863 
L 1656 3950 
L 538 3950 
L 538 4863 
z
" transform="scale(0.015625)"/>
      <path id="DejaVuSans-Bold-63" d="M 3366 3391 
L 3366 2478 
Q 3138 2634 2908 2709 
Q 2678 2784 2431 2784 
Q 1963 2784 1702 2511 
Q 1441 2238 1441 1747 
Q 1441 1256 1702 982 
Q 1963 709 2431 709 
Q 2694 709 2930 787 
Q 3166 866 3366 1019 
L 3366 103 
Q 3103 6 2833 -42 
Q 2563 -91 2291 -91 
Q 1344 -91 809 395 
Q 275 881 275 1747 
Q 275 2613 809 3098 
Q 1344 3584 2291 3584 
Q 2566 3584 2833 3536 
Q 3100 3488 3366 3391 
z
" transform="scale(0.015625)"/>
      <path id="DejaVuSans-Bold-6c" d="M 538 4863 
L 1656 4863 
L 1656 0 
L 538 0 
L 538 4863 
z
" transform="scale(0.015625)"/>
      <path id="DejaVuSans-Bold-2c" d="M 653 1209 
L 1778 1209 
L 1778 256 
L 1006 -909 
L 341 -909 
L 653 256 
L 653 1209 
z
" transform="scale(0.015625)"/>
      <path id="DejaVuSans-Bold-62" d="M 2400 722 
Q 2759 722 2948 984 
Q 3138 1247 3138 1747 
Q 3138 2247 2948 2509 
Q 2759 2772 2400 2772 
Q 2041 2772 1848 2508 
Q 1656 2244 1656 1747 
Q 1656 1250 1848 986 
Q 2041 722 2400 722 
z
M 1656 2988 
Q 1888 3294 2169 3439 
Q 2450 3584 2816 3584 
Q 3463 3584 3878 3070 
Q 4294 2556 4294 1747 
Q 4294 938 3878 423 
Q 3463 -91 2816 -91 
Q 2450 -91 2169 54 
Q 1888 200 1656 506 
L 1656 0 
L 538 0 
L 538 4863 
L 1656 4863 
L 1656 2988 
z
" transform="scale(0.015625)"/>
      <path id="DejaVuSans-Bold-6d" d="M 3781 2919 
Q 3994 3244 4286 3414 
Q 4578 3584 4928 3584 
Q 5531 3584 5847 3212 
Q 6163 2841 6163 2131 
L 6163 0 
L 5038 0 
L 5038 1825 
Q 5041 1866 5042 1909 
Q 5044 1953 5044 2034 
Q 5044 2406 4934 2573 
Q 4825 2741 4581 2741 
Q 4263 2741 4089 2478 
Q 3916 2216 3909 1719 
L 3909 0 
L 2784 0 
L 2784 1825 
Q 2784 2406 2684 2573 
Q 2584 2741 2328 2741 
Q 2006 2741 1831 2477 
Q 1656 2213 1656 1722 
L 1656 0 
L 531 0 
L 531 3500 
L 1656 3500 
L 1656 2988 
Q 1863 3284 2130 3434 
Q 2397 3584 2719 3584 
Q 3081 3584 3359 3409 
Q 3638 3234 3781 2919 
z
" transform="scale(0.015625)"/>
      <path id="DejaVuSans-Bold-6b" d="M 538 4863 
L 1656 4863 
L 1656 2216 
L 2944 3500 
L 4244 3500 
L 2534 1894 
L 4378 0 
L 3022 0 
L 1656 1459 
L 1656 0 
L 538 0 
L 538 4863 
z
" transform="scale(0.015625)"/>
     </defs>
     <use xlink:href="#DejaVuSans-Bold-31"/>
     <use xlink:href="#DejaVuSans-Bold-31" x="69.580078"/>
     <use xlink:href="#DejaVuSans-Bold-20" x="139.160156"/>
     <use xlink:href="#DejaVuSans-Bold-6e" x="173.974609"/>
     <use xlink:href="#DejaVuSans-Bold-6f" x="245.166016"/>
     <use xlink:href="#DejaVuSans-Bold-64" x="313.867188"/>
     <use xlink:href="#DejaVuSans-Bold-65" x="385.449219"/>
     <use xlink:href="#DejaVuSans-Bold-20" x="453.271484"/>
     <use xlink:href="#DejaVuSans-Bold-66" x="488.085938"/>
     <use xlink:href="#DejaVuSans-Bold-65" x="531.591797"/>
     <use xlink:href="#DejaVuSans-Bold-61" x="599.414062"/>
     <use xlink:href="#DejaVuSans-Bold-74" x="666.894531"/>
     <use xlink:href="#DejaVuSans-Bold-75" x="714.697266"/>
     <use xlink:href="#DejaVuSans-Bold-72" x="785.888672"/>
     <use xlink:href="#DejaVuSans-Bold-65" x="835.205078"/>
     <use xlink:href="#DejaVuSans-Bold-73" x="903.027344"/>
     <use xlink:href="#DejaVuSans-Bold-20" x="962.548828"/>
     <use xlink:href="#DejaVuSans-Bold-20" x="997.363281"/>
     <use xlink:href="#DejaVuSans-Bold-2014" x="1032.177734"/>
     <use xlink:href="#DejaVuSans-Bold-20" x="1132.177734"/>
     <use xlink:href="#DejaVuSans-Bold-20" x="1166.992188"/>
     <use xlink:href="#DejaVuSans-Bold-70" x="1201.806641"/>
     <use xlink:href="#DejaVuSans-Bold-68" x="1273.388672"/>
     <use xlink:href="#DejaVuSans-Bold-79" x="1344.580078"/>
     <use xlink:href="#DejaVuSans-Bold-73" x="1409.765625"/>
     <use xlink:href="#DejaVuSans-Bold-69" x="1469.287109"/>
     <use xlink:href="#DejaVuSans-Bold-63" x="1503.564453"/>
     <use xlink:href="#DejaVuSans-Bold-73" x="1562.841797"/>
     <use xlink:href="#DejaVuSans-Bold-20" x="1622.363281"/>
     <use xlink:href="#DejaVuSans-Bold-6f" x="1657.177734"/>
     <use xlink:href="#DejaVuSans-Bold-6e" x="1725.878906"/>
     <use xlink:href="#DejaVuSans-Bold-6c" x="1797.070312"/>
     <use xlink:href="#DejaVuSans-Bold-79" x="1831.347656"/>
     <use xlink:href="#DejaVuSans-Bold-2c" x="1888.783203"/>
     <use xlink:href="#DejaVuSans-Bold-20" x="1926.771484"/>
     <use xlink:href="#DejaVuSans-Bold-65" x="1961.585938"/>
     <use xlink:href="#DejaVuSans-Bold-61" x="2029.408203"/>
     <use xlink:href="#DejaVuSans-Bold-63" x="2096.888672"/>
     <use xlink:href="#DejaVuSans-Bold-68" x="2156.166016"/>
     <use xlink:href="#DejaVuSans-Bold-20" x="2227.357422"/>
     <use xlink:href="#DejaVuSans-Bold-62" x="2262.171875"/>
     <use xlink:href="#DejaVuSans-Bold-75" x="2333.753906"/>
     <use xlink:href="#DejaVuSans-Bold-69" x="2404.945312"/>
     <use xlink:href="#DejaVuSans-Bold-6c" x="2439.222656"/>
     <use xlink:href="#DejaVuSans-Bold-74" x="2473.5"/>
     <use xlink:href="#DejaVuSans-Bold-20" x="2521.302734"/>
     <use xlink:href="#DejaVuSans-Bold-66" x="2556.117188"/>
     <use xlink:href="#DejaVuSans-Bold-72" x="2599.623047"/>
     <use xlink:href="#DejaVuSans-Bold-6f" x="2648.939453"/>
     <use xlink:href="#DejaVuSans-Bold-6d" x="2717.640625"/>
     <use xlink:href="#DejaVuSans-Bold-20" x="2821.839844"/>
     <use xlink:href="#DejaVuSans-Bold-74" x="2856.654297"/>
     <use xlink:href="#DejaVuSans-Bold-68" x="2904.457031"/>
     <use xlink:href="#DejaVuSans-Bold-65" x="2975.648438"/>
     <use xlink:href="#DejaVuSans-Bold-20" x="3043.470703"/>
     <use xlink:href="#DejaVuSans-Bold-6d" x="3078.285156"/>
     <use xlink:href="#DejaVuSans-Bold-61" x="3182.484375"/>
     <use xlink:href="#DejaVuSans-Bold-72" x="3249.964844"/>
     <use xlink:href="#DejaVuSans-Bold-6b" x="3299.28125"/>
     <use xlink:href="#DejaVuSans-Bold-65" x="3363.160156"/>
     <use xlink:href="#DejaVuSans-Bold-64" x="3430.982422"/>
     <use xlink:href="#DejaVuSans-Bold-20" x="3502.564453"/>
     <use xlink:href="#DejaVuSans-Bold-69" x="3537.378906"/>
     <use xlink:href="#DejaVuSans-Bold-6e" x="3571.65625"/>
     <use xlink:href="#DejaVuSans-Bold-70" x="3642.847656"/>
     <use xlink:href="#DejaVuSans-Bold-75" x="3714.429688"/>
     <use xlink:href="#DejaVuSans-Bold-74" x="3785.621094"/>
     <use xlink:href="#DejaVuSans-Bold-73" x="3833.423828"/>
    </g>
   </g>
   <g id="text_4">
    <!-- no coords / track / time / BedMachine -->
    <g style="fill: #9aa0a8" transform="translate(232.953984 311.585104) scale(0.105 -0.105)">
     <defs>
      <path id="DejaVuSans-Oblique-6e" d="M 3566 2113 
L 3156 0 
L 2578 0 
L 2988 2091 
Q 3016 2238 3031 2350 
Q 3047 2463 3047 2528 
Q 3047 2791 2881 2937 
Q 2716 3084 2419 3084 
Q 1956 3084 1622 2776 
Q 1288 2469 1184 1941 
L 800 0 
L 225 0 
L 903 3500 
L 1478 3500 
L 1363 2950 
Q 1603 3253 1940 3418 
Q 2278 3584 2650 3584 
Q 3113 3584 3367 3334 
Q 3622 3084 3622 2631 
Q 3622 2519 3608 2391 
Q 3594 2263 3566 2113 
z
" transform="scale(0.015625)"/>
      <path id="DejaVuSans-Oblique-6f" d="M 1625 -91 
Q 1009 -91 651 289 
Q 294 669 294 1325 
Q 294 1706 417 2101 
Q 541 2497 738 2766 
Q 1047 3184 1428 3384 
Q 1809 3584 2291 3584 
Q 2888 3584 3255 3212 
Q 3622 2841 3622 2241 
Q 3622 1825 3500 1412 
Q 3378 1000 3181 728 
Q 2875 309 2494 109 
Q 2113 -91 1625 -91 
z
M 891 1344 
Q 891 869 1089 633 
Q 1288 397 1691 397 
Q 2269 397 2648 901 
Q 3028 1406 3028 2181 
Q 3028 2634 2825 2865 
Q 2622 3097 2228 3097 
Q 1903 3097 1650 2945 
Q 1397 2794 1197 2484 
Q 1050 2253 970 1956 
Q 891 1659 891 1344 
z
" transform="scale(0.015625)"/>
      <path id="DejaVuSans-Oblique-20" transform="scale(0.015625)"/>
      <path id="DejaVuSans-Oblique-63" d="M 3431 3366 
L 3316 2797 
Q 3109 2947 2876 3022 
Q 2644 3097 2394 3097 
Q 2119 3097 1870 3000 
Q 1622 2903 1453 2725 
Q 1184 2453 1037 2087 
Q 891 1722 891 1331 
Q 891 859 1127 628 
Q 1363 397 1844 397 
Q 2081 397 2348 469 
Q 2616 541 2906 684 
L 2797 116 
Q 2547 13 2283 -39 
Q 2019 -91 1741 -91 
Q 1044 -91 669 257 
Q 294 606 294 1253 
Q 294 1797 489 2255 
Q 684 2713 1069 3078 
Q 1331 3328 1684 3456 
Q 2038 3584 2456 3584 
Q 2700 3584 2940 3529 
Q 3181 3475 3431 3366 
z
" transform="scale(0.015625)"/>
      <path id="DejaVuSans-Oblique-72" d="M 2853 2969 
Q 2766 3016 2653 3041 
Q 2541 3066 2413 3066 
Q 1953 3066 1609 2717 
Q 1266 2369 1153 1784 
L 800 0 
L 225 0 
L 909 3500 
L 1484 3500 
L 1375 2956 
Q 1603 3259 1920 3421 
Q 2238 3584 2597 3584 
Q 2691 3584 2781 3573 
Q 2872 3563 2963 3538 
L 2853 2969 
z
" transform="scale(0.015625)"/>
      <path id="DejaVuSans-Oblique-64" d="M 2675 525 
Q 2444 222 2128 65 
Q 1813 -91 1428 -91 
Q 903 -91 598 267 
Q 294 625 294 1247 
Q 294 1766 478 2236 
Q 663 2706 1013 3078 
Q 1244 3325 1534 3454 
Q 1825 3584 2144 3584 
Q 2481 3584 2739 3421 
Q 2997 3259 3138 2956 
L 3513 4863 
L 4091 4863 
L 3144 0 
L 2566 0 
L 2675 525 
z
M 891 1350 
Q 891 897 1095 644 
Q 1300 391 1663 391 
Q 1931 391 2161 520 
Q 2391 650 2566 903 
Q 2750 1166 2856 1509 
Q 2963 1853 2963 2188 
Q 2963 2622 2758 2865 
Q 2553 3109 2194 3109 
Q 1922 3109 1687 2981 
Q 1453 2853 1288 2613 
Q 1106 2353 998 2009 
Q 891 1666 891 1350 
z
" transform="scale(0.015625)"/>
      <path id="DejaVuSans-Oblique-73" d="M 3200 3397 
L 3091 2853 
Q 2863 2978 2609 3040 
Q 2356 3103 2088 3103 
Q 1634 3103 1373 2948 
Q 1113 2794 1113 2528 
Q 1113 2219 1719 2053 
Q 1766 2041 1788 2034 
L 1972 1978 
Q 2547 1819 2739 1644 
Q 2931 1469 2931 1166 
Q 2931 609 2489 259 
Q 2047 -91 1331 -91 
Q 1053 -91 747 -37 
Q 441 16 72 128 
L 184 722 
Q 500 559 806 475 
Q 1113 391 1394 391 
Q 1816 391 2080 572 
Q 2344 753 2344 1031 
Q 2344 1331 1650 1516 
L 1591 1531 
L 1394 1581 
Q 956 1697 753 1886 
Q 550 2075 550 2369 
Q 550 2928 970 3256 
Q 1391 3584 2113 3584 
Q 2397 3584 2667 3537 
Q 2938 3491 3200 3397 
z
" transform="scale(0.015625)"/>
      <path id="DejaVuSans-Oblique-2f" d="M 2175 4666 
L 2731 4666 
L 84 -594 
L -469 -594 
L 2175 4666 
z
" transform="scale(0.015625)"/>
      <path id="DejaVuSans-Oblique-74" d="M 2706 3500 
L 2619 3053 
L 1472 3053 
L 1100 1153 
Q 1081 1047 1072 975 
Q 1063 903 1063 863 
Q 1063 663 1183 572 
Q 1303 481 1569 481 
L 2150 481 
L 2053 0 
L 1503 0 
Q 991 0 739 200 
Q 488 400 488 806 
Q 488 878 497 964 
Q 506 1050 525 1153 
L 897 3053 
L 409 3053 
L 500 3500 
L 978 3500 
L 1172 4494 
L 1747 4494 
L 1556 3500 
L 2706 3500 
z
" transform="scale(0.015625)"/>
      <path id="DejaVuSans-Oblique-61" d="M 3438 1997 
L 3047 0 
L 2472 0 
L 2578 531 
Q 2325 219 2001 64 
Q 1678 -91 1281 -91 
Q 834 -91 548 182 
Q 263 456 263 884 
Q 263 1497 752 1853 
Q 1241 2209 2100 2209 
L 2900 2209 
L 2931 2363 
Q 2938 2388 2941 2417 
Q 2944 2447 2944 2509 
Q 2944 2788 2717 2942 
Q 2491 3097 2081 3097 
Q 1800 3097 1504 3025 
Q 1209 2953 897 2809 
L 997 3341 
Q 1322 3463 1633 3523 
Q 1944 3584 2234 3584 
Q 2853 3584 3176 3315 
Q 3500 3047 3500 2534 
Q 3500 2431 3484 2292 
Q 3469 2153 3438 1997 
z
M 2816 1759 
L 2241 1759 
Q 1534 1759 1195 1570 
Q 856 1381 856 984 
Q 856 709 1029 553 
Q 1203 397 1509 397 
Q 1978 397 2328 733 
Q 2678 1069 2791 1631 
L 2816 1759 
z
" transform="scale(0.015625)"/>
      <path id="DejaVuSans-Oblique-6b" d="M 1172 4863 
L 1747 4863 
L 1197 2028 
L 3169 3500 
L 3916 3500 
L 1716 1825 
L 3322 0 
L 2625 0 
L 1131 1709 
L 800 0 
L 225 0 
L 1172 4863 
z
" transform="scale(0.015625)"/>
      <path id="DejaVuSans-Oblique-69" d="M 1172 4863 
L 1747 4863 
L 1606 4134 
L 1031 4134 
L 1172 4863 
z
M 909 3500 
L 1484 3500 
L 800 0 
L 225 0 
L 909 3500 
z
" transform="scale(0.015625)"/>
      <path id="DejaVuSans-Oblique-6d" d="M 5747 2113 
L 5338 0 
L 4763 0 
L 5166 2094 
Q 5191 2228 5203 2325 
Q 5216 2422 5216 2491 
Q 5216 2772 5059 2928 
Q 4903 3084 4622 3084 
Q 4203 3084 3875 2770 
Q 3547 2456 3450 1953 
L 3066 0 
L 2491 0 
L 2900 2094 
Q 2925 2209 2937 2307 
Q 2950 2406 2950 2484 
Q 2950 2769 2794 2926 
Q 2638 3084 2363 3084 
Q 1938 3084 1609 2770 
Q 1281 2456 1184 1953 
L 800 0 
L 225 0 
L 909 3500 
L 1484 3500 
L 1375 2956 
Q 1609 3263 1923 3423 
Q 2238 3584 2597 3584 
Q 2978 3584 3223 3384 
Q 3469 3184 3519 2828 
Q 3781 3197 4126 3390 
Q 4472 3584 4856 3584 
Q 5306 3584 5551 3325 
Q 5797 3066 5797 2591 
Q 5797 2488 5784 2364 
Q 5772 2241 5747 2113 
z
" transform="scale(0.015625)"/>
      <path id="DejaVuSans-Oblique-65" d="M 3078 2063 
Q 3088 2113 3092 2166 
Q 3097 2219 3097 2272 
Q 3097 2653 2873 2875 
Q 2650 3097 2266 3097 
Q 1838 3097 1509 2826 
Q 1181 2556 1013 2059 
L 3078 2063 
z
M 3578 1613 
L 903 1613 
Q 884 1494 878 1425 
Q 872 1356 872 1306 
Q 872 872 1139 634 
Q 1406 397 1894 397 
Q 2269 397 2603 481 
Q 2938 566 3225 728 
L 3116 159 
Q 2806 34 2476 -28 
Q 2147 -91 1806 -91 
Q 1078 -91 686 257 
Q 294 606 294 1247 
Q 294 1794 489 2264 
Q 684 2734 1063 3103 
Q 1306 3334 1642 3459 
Q 1978 3584 2356 3584 
Q 2950 3584 3301 3228 
Q 3653 2872 3653 2272 
Q 3653 2128 3634 1964 
Q 3616 1800 3578 1613 
z
" transform="scale(0.015625)"/>
      <path id="DejaVuSans-Oblique-42" d="M 1081 4666 
L 2694 4666 
Q 3350 4666 3675 4422 
Q 4000 4178 4000 3688 
Q 4000 3238 3720 2911 
Q 3441 2584 2988 2516 
Q 3375 2428 3569 2181 
Q 3763 1934 3763 1522 
Q 3763 819 3242 409 
Q 2722 0 1819 0 
L 172 0 
L 1081 4666 
z
M 1234 2228 
L 903 519 
L 1919 519 
Q 2491 519 2800 781 
Q 3109 1044 3109 1522 
Q 3109 1891 2904 2059 
Q 2700 2228 2247 2228 
L 1234 2228 
z
M 1606 4147 
L 1331 2741 
L 2272 2741 
Q 2775 2741 3058 2959 
Q 3341 3178 3341 3566 
Q 3341 3869 3150 4008 
Q 2959 4147 2541 4147 
L 1606 4147 
z
" transform="scale(0.015625)"/>
      <path id="DejaVuSans-Oblique-4d" d="M 1081 4666 
L 2028 4666 
L 2572 1522 
L 4378 4666 
L 5350 4666 
L 4441 0 
L 3828 0 
L 4622 4091 
L 2791 897 
L 2175 897 
L 1581 4103 
L 788 0 
L 172 0 
L 1081 4666 
z
" transform="scale(0.015625)"/>
      <path id="DejaVuSans-Oblique-68" d="M 3566 2113 
L 3156 0 
L 2578 0 
L 2988 2091 
Q 3016 2238 3031 2350 
Q 3047 2463 3047 2528 
Q 3047 2791 2881 2937 
Q 2716 3084 2419 3084 
Q 1956 3084 1617 2771 
Q 1278 2459 1178 1941 
L 800 0 
L 225 0 
L 1172 4863 
L 1747 4863 
L 1375 2950 
Q 1594 3244 1934 3414 
Q 2275 3584 2650 3584 
Q 3113 3584 3367 3334 
Q 3622 3084 3622 2631 
Q 3622 2519 3608 2391 
Q 3594 2263 3566 2113 
z
" transform="scale(0.015625)"/>
     </defs>
     <use xlink:href="#DejaVuSans-Oblique-6e"/>
     <use xlink:href="#DejaVuSans-Oblique-6f" x="63.378906"/>
     <use xlink:href="#DejaVuSans-Oblique-20" x="124.560547"/>
     <use xlink:href="#DejaVuSans-Oblique-63" x="156.347656"/>
     <use xlink:href="#DejaVuSans-Oblique-6f" x="211.328125"/>
     <use xlink:href="#DejaVuSans-Oblique-6f" x="272.509766"/>
     <use xlink:href="#DejaVuSans-Oblique-72" x="333.691406"/>
     <use xlink:href="#DejaVuSans-Oblique-64" x="374.804688"/>
     <use xlink:href="#DejaVuSans-Oblique-73" x="438.28125"/>
     <use xlink:href="#DejaVuSans-Oblique-20" x="490.380859"/>
     <use xlink:href="#DejaVuSans-Oblique-2f" x="522.167969"/>
     <use xlink:href="#DejaVuSans-Oblique-20" x="555.859375"/>
     <use xlink:href="#DejaVuSans-Oblique-74" x="587.646484"/>
     <use xlink:href="#DejaVuSans-Oblique-72" x="626.855469"/>
     <use xlink:href="#DejaVuSans-Oblique-61" x="667.96875"/>
     <use xlink:href="#DejaVuSans-Oblique-63" x="729.248047"/>
     <use xlink:href="#DejaVuSans-Oblique-6b" x="784.228516"/>
     <use xlink:href="#DejaVuSans-Oblique-20" x="842.138672"/>
     <use xlink:href="#DejaVuSans-Oblique-2f" x="873.925781"/>
     <use xlink:href="#DejaVuSans-Oblique-20" x="907.617188"/>
     <use xlink:href="#DejaVuSans-Oblique-74" x="939.404297"/>
     <use xlink:href="#DejaVuSans-Oblique-69" x="978.613281"/>
     <use xlink:href="#DejaVuSans-Oblique-6d" x="1006.396484"/>
     <use xlink:href="#DejaVuSans-Oblique-65" x="1103.808594"/>
     <use xlink:href="#DejaVuSans-Oblique-20" x="1165.332031"/>
     <use xlink:href="#DejaVuSans-Oblique-2f" x="1197.119141"/>
     <use xlink:href="#DejaVuSans-Oblique-20" x="1230.810547"/>
     <use xlink:href="#DejaVuSans-Oblique-42" x="1262.597656"/>
     <use xlink:href="#DejaVuSans-Oblique-65" x="1331.201172"/>
     <use xlink:href="#DejaVuSans-Oblique-64" x="1392.724609"/>
     <use xlink:href="#DejaVuSans-Oblique-4d" x="1456.201172"/>
     <use xlink:href="#DejaVuSans-Oblique-61" x="1542.480469"/>
     <use xlink:href="#DejaVuSans-Oblique-63" x="1603.759766"/>
     <use xlink:href="#DejaVuSans-Oblique-68" x="1658.740234"/>
     <use xlink:href="#DejaVuSans-Oblique-69" x="1722.119141"/>
     <use xlink:href="#DejaVuSans-Oblique-6e" x="1749.902344"/>
     <use xlink:href="#DejaVuSans-Oblique-65" x="1813.28125"/>
    </g>
   </g>
   <g id="text_5">
    <!-- 1   -->
    <g style="fill: #9aa0a8" transform="translate(31.7898 119.683896) scale(0.135 -0.135)">
     <defs>
      <path id="DejaVuSansMono-31" d="M 844 531 
L 1825 531 
L 1825 4097 
L 769 3859 
L 769 4434 
L 1819 4666 
L 2450 4666 
L 2450 531 
L 3419 531 
L 3419 0 
L 844 0 
L 844 531 
z
" transform="scale(0.015625)"/>
      <path id="DejaVuSansMono-20" transform="scale(0.015625)"/>
     </defs>
     <use xlink:href="#DejaVuSansMono-31"/>
     <use xlink:href="#DejaVuSansMono-20" x="60.205078"/>
     <use xlink:href="#DejaVuSansMono-20" x="120.410156"/>
    </g>
   </g>
   <g id="text_6">
    <!-- sl_ice -->
    <g style="fill: #6fd3ff" transform="translate(56.0898 119.818896) scale(0.135 -0.135)">
     <use xlink:href="#DejaVuSansMono-Bold-73"/>
     <use xlink:href="#DejaVuSansMono-Bold-6c" x="60.205078"/>
     <use xlink:href="#DejaVuSansMono-Bold-5f" x="120.410156"/>
     <use xlink:href="#DejaVuSansMono-Bold-69" x="180.615234"/>
     <use xlink:href="#DejaVuSansMono-Bold-63" x="240.820312"/>
     <use xlink:href="#DejaVuSansMono-Bold-65" x="301.025391"/>
    </g>
   </g>
   <g id="text_7">
    <!--  =  -->
    <g style="fill: #9aa0a8" transform="translate(104.6898 119.683896) scale(0.135 -0.135)">
     <defs>
      <path id="DejaVuSansMono-3d" d="M 275 1638 
L 3578 1638 
L 3578 1100 
L 275 1100 
L 275 1638 
z
M 275 2906 
L 3578 2906 
L 3578 2375 
L 275 2375 
L 275 2906 
z
" transform="scale(0.015625)"/>
     </defs>
     <use xlink:href="#DejaVuSansMono-20"/>
     <use xlink:href="#DejaVuSansMono-3d" x="60.205078"/>
     <use xlink:href="#DejaVuSansMono-20" x="120.410156"/>
    </g>
   </g>
   <g id="text_8">
    <!-- ln(1+ -->
    <g style="fill: #ffffff" transform="translate(128.9898 119.683896) scale(0.135 -0.135)">
     <defs>
      <path id="DejaVuSansMono-6c" d="M 1997 1269 
Q 1997 881 2139 684 
Q 2281 488 2559 488 
L 3231 488 
L 3231 0 
L 2503 0 
Q 1988 0 1705 331 
Q 1422 663 1422 1269 
L 1422 4447 
L 500 4447 
L 500 4897 
L 1997 4897 
L 1997 1269 
z
" transform="scale(0.015625)"/>
      <path id="DejaVuSansMono-6e" d="M 3284 2169 
L 3284 0 
L 2706 0 
L 2706 2169 
Q 2706 2641 2540 2862 
Q 2375 3084 2022 3084 
Q 1619 3084 1401 2798 
Q 1184 2513 1184 1978 
L 1184 0 
L 609 0 
L 609 3500 
L 1184 3500 
L 1184 2975 
Q 1338 3275 1600 3429 
Q 1863 3584 2222 3584 
Q 2756 3584 3020 3232 
Q 3284 2881 3284 2169 
z
" transform="scale(0.015625)"/>
      <path id="DejaVuSansMono-28" d="M 2766 4856 
Q 2350 4144 2145 3436 
Q 1941 2728 1941 2009 
Q 1941 1294 2145 584 
Q 2350 -125 2766 -844 
L 2266 -844 
Q 1794 -100 1562 604 
Q 1331 1309 1331 2009 
Q 1331 2706 1562 3412 
Q 1794 4119 2266 4856 
L 2766 4856 
z
" transform="scale(0.015625)"/>
      <path id="DejaVuSansMono-2b" d="M 2188 3659 
L 2188 2272 
L 3578 2272 
L 3578 1741 
L 2188 1741 
L 2188 353 
L 1663 353 
L 1663 1741 
L 275 1741 
L 275 2272 
L 1663 2272 
L 1663 3659 
L 2188 3659 
z
" transform="scale(0.015625)"/>
     </defs>
     <use xlink:href="#DejaVuSansMono-6c"/>
     <use xlink:href="#DejaVuSansMono-6e" x="60.205078"/>
     <use xlink:href="#DejaVuSansMono-28" x="120.410156"/>
     <use xlink:href="#DejaVuSansMono-31" x="180.615234"/>
     <use xlink:href="#DejaVuSansMono-2b" x="240.820312"/>
    </g>
   </g>
   <g id="text_9">
    <!-- ice_thickness -->
    <g style="fill: #ffb74d" transform="translate(169.4898 119.818896) scale(0.135 -0.135)">
     <use xlink:href="#DejaVuSansMono-Bold-69"/>
     <use xlink:href="#DejaVuSansMono-Bold-63" x="60.205078"/>
     <use xlink:href="#DejaVuSansMono-Bold-65" x="120.410156"/>
     <use xlink:href="#DejaVuSansMono-Bold-5f" x="180.615234"/>
     <use xlink:href="#DejaVuSansMono-Bold-74" x="240.820312"/>
     <use xlink:href="#DejaVuSansMono-Bold-68" x="301.025391"/>
     <use xlink:href="#DejaVuSansMono-Bold-69" x="361.230469"/>
     <use xlink:href="#DejaVuSansMono-Bold-63" x="421.435547"/>
     <use xlink:href="#DejaVuSansMono-Bold-6b" x="481.640625"/>
     <use xlink:href="#DejaVuSansMono-Bold-6e" x="541.845703"/>
     <use xlink:href="#DejaVuSansMono-Bold-65" x="602.050781"/>
     <use xlink:href="#DejaVuSansMono-Bold-73" x="662.255859"/>
     <use xlink:href="#DejaVuSansMono-Bold-73" x="722.460938"/>
    </g>
   </g>
   <g id="text_10">
    <!-- ) -->
    <g style="fill: #ffffff" transform="translate(274.7898 119.683896) scale(0.135 -0.135)">
     <defs>
      <path id="DejaVuSansMono-29" d="M 1088 4856 
L 1588 4856 
Q 2059 4119 2290 3412 
Q 2522 2706 2522 2009 
Q 2522 1306 2290 600 
Q 2059 -106 1588 -844 
L 1088 -844 
Q 1503 -119 1708 590 
Q 1913 1300 1913 2009 
Q 1913 2722 1708 3431 
Q 1503 4141 1088 4856 
z
" transform="scale(0.015625)"/>
     </defs>
     <use xlink:href="#DejaVuSansMono-29"/>
    </g>
   </g>
   <g id="text_11">
    <!-- 2   -->
    <g style="fill: #9aa0a8" transform="translate(31.7898 152.864736) scale(0.135 -0.135)">
     <defs>
      <path id="DejaVuSansMono-32" d="M 1166 531 
L 3309 531 
L 3309 0 
L 475 0 
L 475 531 
Q 1059 1147 1496 1619 
Q 1934 2091 2100 2284 
Q 2413 2666 2522 2902 
Q 2631 3138 2631 3384 
Q 2631 3775 2401 3997 
Q 2172 4219 1772 4219 
Q 1488 4219 1175 4116 
Q 863 4013 513 3803 
L 513 4441 
Q 834 4594 1145 4672 
Q 1456 4750 1759 4750 
Q 2444 4750 2861 4386 
Q 3278 4022 3278 3431 
Q 3278 3131 3139 2831 
Q 3000 2531 2688 2169 
Q 2513 1966 2180 1606 
Q 1847 1247 1166 531 
z
" transform="scale(0.015625)"/>
     </defs>
     <use xlink:href="#DejaVuSansMono-32"/>
     <use xlink:href="#DejaVuSansMono-20" x="60.205078"/>
     <use xlink:href="#DejaVuSansMono-20" x="120.410156"/>
    </g>
   </g>
   <g id="text_12">
    <!-- bed_evel -->
    <g style="fill: #ffb74d" transform="translate(56.0898 152.641142) scale(0.135 -0.135)">
     <use xlink:href="#DejaVuSansMono-Bold-62"/>
     <use xlink:href="#DejaVuSansMono-Bold-65" x="60.205078"/>
     <use xlink:href="#DejaVuSansMono-Bold-64" x="120.410156"/>
     <use xlink:href="#DejaVuSansMono-Bold-5f" x="180.615234"/>
     <use xlink:href="#DejaVuSansMono-Bold-65" x="240.820312"/>
     <use xlink:href="#DejaVuSansMono-Bold-76" x="301.025391"/>
     <use xlink:href="#DejaVuSansMono-Bold-65" x="361.230469"/>
     <use xlink:href="#DejaVuSansMono-Bold-6c" x="421.435547"/>
    </g>
   </g>
   <g id="text_13">
    <!-- 3   -->
    <g style="fill: #9aa0a8" transform="translate(31.7898 186.045576) scale(0.135 -0.135)">
     <defs>
      <path id="DejaVuSansMono-33" d="M 2425 2497 
Q 2884 2375 3128 2064 
Q 3372 1753 3372 1288 
Q 3372 644 2939 276 
Q 2506 -91 1741 -91 
Q 1419 -91 1084 -31 
Q 750 28 428 141 
L 428 769 
Q 747 603 1056 522 
Q 1366 441 1672 441 
Q 2191 441 2469 675 
Q 2747 909 2747 1350 
Q 2747 1756 2469 1995 
Q 2191 2234 1716 2234 
L 1234 2234 
L 1234 2753 
L 1716 2753 
Q 2150 2753 2394 2943 
Q 2638 3134 2638 3475 
Q 2638 3834 2411 4026 
Q 2184 4219 1766 4219 
Q 1488 4219 1191 4156 
Q 894 4094 569 3969 
L 569 4550 
Q 947 4650 1242 4700 
Q 1538 4750 1766 4750 
Q 2447 4750 2855 4408 
Q 3263 4066 3263 3500 
Q 3263 3116 3048 2859 
Q 2834 2603 2425 2497 
z
" transform="scale(0.015625)"/>
     </defs>
     <use xlink:href="#DejaVuSansMono-33"/>
     <use xlink:href="#DejaVuSansMono-20" x="60.205078"/>
     <use xlink:href="#DejaVuSansMono-20" x="120.410156"/>
    </g>
   </g>
   <g id="text_14">
    <!-- geom_resid -->
    <g style="fill: #6fd3ff" transform="translate(56.0898 186.180576) scale(0.135 -0.135)">
     <defs>
      <path id="DejaVuSansMono-Bold-67" d="M 2509 1806 
Q 2509 2275 2331 2558 
Q 2153 2841 1863 2841 
Q 1575 2841 1398 2559 
Q 1222 2278 1222 1806 
Q 1222 1331 1398 1050 
Q 1575 769 1863 769 
Q 2153 769 2331 1051 
Q 2509 1334 2509 1806 
z
M 3425 263 
Q 3425 -578 3045 -951 
Q 2666 -1325 1813 -1325 
Q 1525 -1325 1244 -1283 
Q 963 -1241 672 -1153 
L 672 -313 
Q 931 -456 1200 -525 
Q 1469 -594 1753 -594 
Q 2141 -594 2325 -411 
Q 2509 -228 2509 159 
L 2509 538 
Q 2375 288 2153 166 
Q 1931 44 1613 44 
Q 1013 44 659 512 
Q 306 981 306 1784 
Q 306 2616 659 3103 
Q 1013 3591 1606 3591 
Q 1906 3591 2140 3450 
Q 2375 3309 2509 3053 
L 2509 3500 
L 3425 3500 
L 3425 263 
z
" transform="scale(0.015625)"/>
      <path id="DejaVuSansMono-Bold-6f" d="M 1925 2841 
Q 1597 2841 1409 2552 
Q 1222 2263 1222 1747 
Q 1222 1231 1409 942 
Q 1597 653 1925 653 
Q 2256 653 2443 942 
Q 2631 1231 2631 1747 
Q 2631 2263 2443 2552 
Q 2256 2841 1925 2841 
z
M 306 1747 
Q 306 2594 745 3089 
Q 1184 3584 1925 3584 
Q 2669 3584 3108 3089 
Q 3547 2594 3547 1747 
Q 3547 900 3108 404 
Q 2669 -91 1925 -91 
Q 1184 -91 745 404 
Q 306 900 306 1747 
z
" transform="scale(0.015625)"/>
      <path id="DejaVuSansMono-Bold-72" d="M 3597 2534 
Q 3447 2672 3245 2740 
Q 3044 2809 2803 2809 
Q 2513 2809 2295 2707 
Q 2078 2606 1959 2413 
Q 1884 2294 1854 2125 
Q 1825 1956 1825 1613 
L 1825 0 
L 909 0 
L 909 3500 
L 1825 3500 
L 1825 2956 
Q 1959 3256 2237 3420 
Q 2516 3584 2888 3584 
Q 3075 3584 3254 3539 
Q 3434 3494 3597 3406 
L 3597 2534 
z
" transform="scale(0.015625)"/>
     </defs>
     <use xlink:href="#DejaVuSansMono-Bold-67"/>
     <use xlink:href="#DejaVuSansMono-Bold-65" x="60.205078"/>
     <use xlink:href="#DejaVuSansMono-Bold-6f" x="120.410156"/>
     <use xlink:href="#DejaVuSansMono-Bold-6d" x="180.615234"/>
     <use xlink:href="#DejaVuSansMono-Bold-5f" x="240.820312"/>
     <use xlink:href="#DejaVuSansMono-Bold-72" x="301.025391"/>
     <use xlink:href="#DejaVuSansMono-Bold-65" x="361.230469"/>
     <use xlink:href="#DejaVuSansMono-Bold-73" x="421.435547"/>
     <use xlink:href="#DejaVuSansMono-Bold-69" x="481.640625"/>
     <use xlink:href="#DejaVuSansMono-Bold-64" x="541.845703"/>
    </g>
   </g>
   <g id="text_15">
    <!--  =  -->
    <g style="fill: #9aa0a8" transform="translate(137.0898 186.045576) scale(0.135 -0.135)">
     <use xlink:href="#DejaVuSansMono-20"/>
     <use xlink:href="#DejaVuSansMono-3d" x="60.205078"/>
     <use xlink:href="#DejaVuSansMono-20" x="120.410156"/>
    </g>
   </g>
   <g id="text_16">
    <!-- z -->
    <g style="fill: #ffb74d" transform="translate(161.3898 186.009716) scale(0.135 -0.135)">
     <use xlink:href="#DejaVuSansMono-Bold-7a"/>
    </g>
   </g>
   <g id="text_17">
    <!--  −  -->
    <g style="fill: #ffffff" transform="translate(169.4898 186.045576) scale(0.135 -0.135)">
     <defs>
      <path id="DejaVuSansMono-2212" d="M 275 2272 
L 3578 2272 
L 3578 1741 
L 275 1741 
L 275 2272 
z
" transform="scale(0.015625)"/>
     </defs>
     <use xlink:href="#DejaVuSansMono-20"/>
     <use xlink:href="#DejaVuSansMono-2212" x="60.205078"/>
     <use xlink:href="#DejaVuSansMono-20" x="120.410156"/>
    </g>
   </g>
   <g id="text_18">
    <!-- bed_evel -->
    <g style="fill: #ffb74d" transform="translate(193.7898 185.821982) scale(0.135 -0.135)">
     <use xlink:href="#DejaVuSansMono-Bold-62"/>
     <use xlink:href="#DejaVuSansMono-Bold-65" x="60.205078"/>
     <use xlink:href="#DejaVuSansMono-Bold-64" x="120.410156"/>
     <use xlink:href="#DejaVuSansMono-Bold-5f" x="180.615234"/>
     <use xlink:href="#DejaVuSansMono-Bold-65" x="240.820312"/>
     <use xlink:href="#DejaVuSansMono-Bold-76" x="301.025391"/>
     <use xlink:href="#DejaVuSansMono-Bold-65" x="361.230469"/>
     <use xlink:href="#DejaVuSansMono-Bold-6c" x="421.435547"/>
    </g>
   </g>
   <g id="text_19">
    <!--  −  -->
    <g style="fill: #ffffff" transform="translate(258.5898 186.045576) scale(0.135 -0.135)">
     <use xlink:href="#DejaVuSansMono-20"/>
     <use xlink:href="#DejaVuSansMono-2212" x="60.205078"/>
     <use xlink:href="#DejaVuSansMono-20" x="120.410156"/>
    </g>
   </g>
   <g id="text_20">
    <!-- ice_thickness -->
    <g style="fill: #ffb74d" transform="translate(282.8898 186.180576) scale(0.135 -0.135)">
     <use xlink:href="#DejaVuSansMono-Bold-69"/>
     <use xlink:href="#DejaVuSansMono-Bold-63" x="60.205078"/>
     <use xlink:href="#DejaVuSansMono-Bold-65" x="120.410156"/>
     <use xlink:href="#DejaVuSansMono-Bold-5f" x="180.615234"/>
     <use xlink:href="#DejaVuSansMono-Bold-74" x="240.820312"/>
     <use xlink:href="#DejaVuSansMono-Bold-68" x="301.025391"/>
     <use xlink:href="#DejaVuSansMono-Bold-69" x="361.230469"/>
     <use xlink:href="#DejaVuSansMono-Bold-63" x="421.435547"/>
     <use xlink:href="#DejaVuSansMono-Bold-6b" x="481.640625"/>
     <use xlink:href="#DejaVuSansMono-Bold-6e" x="541.845703"/>
     <use xlink:href="#DejaVuSansMono-Bold-65" x="602.050781"/>
     <use xlink:href="#DejaVuSansMono-Bold-73" x="662.255859"/>
     <use xlink:href="#DejaVuSansMono-Bold-73" x="722.460938"/>
    </g>
   </g>
   <g id="text_21">
    <!-- 4   -->
    <g style="fill: #9aa0a8" transform="translate(31.7898 219.226416) scale(0.135 -0.135)">
     <defs>
      <path id="DejaVuSansMono-34" d="M 2297 4091 
L 825 1625 
L 2297 1625 
L 2297 4091 
z
M 2194 4666 
L 2925 4666 
L 2925 1625 
L 3547 1625 
L 3547 1113 
L 2925 1113 
L 2925 0 
L 2297 0 
L 2297 1113 
L 319 1113 
L 319 1709 
L 2194 4666 
z
" transform="scale(0.015625)"/>
     </defs>
     <use xlink:href="#DejaVuSansMono-34"/>
     <use xlink:href="#DejaVuSansMono-20" x="60.205078"/>
     <use xlink:href="#DejaVuSansMono-20" x="120.410156"/>
    </g>
   </g>
   <g id="text_22">
    <!-- surf_minus_bed -->
    <g style="fill: #6fd3ff" transform="translate(56.0898 219.361416) scale(0.135 -0.135)">
     <defs>
      <path id="DejaVuSansMono-Bold-75" d="M 500 1222 
L 500 3500 
L 1416 3500 
L 1416 1363 
Q 1416 984 1522 821 
Q 1628 659 1875 659 
Q 2122 659 2261 878 
Q 2400 1097 2400 1491 
L 2400 3500 
L 3316 3500 
L 3316 0 
L 2400 0 
L 2400 519 
Q 2303 228 2070 68 
Q 1838 -91 1509 -91 
Q 1009 -91 754 240 
Q 500 572 500 1222 
z
" transform="scale(0.015625)"/>
      <path id="DejaVuSansMono-Bold-66" d="M 2309 3806 
L 2309 3500 
L 3384 3500 
L 3384 2797 
L 2309 2797 
L 2309 0 
L 1394 0 
L 1394 2797 
L 544 2797 
L 544 3500 
L 1394 3500 
L 1394 3744 
Q 1394 4375 1656 4619 
Q 1919 4863 2631 4863 
L 3384 4863 
L 3384 4159 
L 2669 4159 
Q 2463 4159 2389 4084 
Q 2316 4009 2309 3806 
z
" transform="scale(0.015625)"/>
     </defs>
     <use xlink:href="#DejaVuSansMono-Bold-73"/>
     <use xlink:href="#DejaVuSansMono-Bold-75" x="60.205078"/>
     <use xlink:href="#DejaVuSansMono-Bold-72" x="120.410156"/>
     <use xlink:href="#DejaVuSansMono-Bold-66" x="180.615234"/>
     <use xlink:href="#DejaVuSansMono-Bold-5f" x="240.820312"/>
     <use xlink:href="#DejaVuSansMono-Bold-6d" x="301.025391"/>
     <use xlink:href="#DejaVuSansMono-Bold-69" x="361.230469"/>
     <use xlink:href="#DejaVuSansMono-Bold-6e" x="421.435547"/>
     <use xlink:href="#DejaVuSansMono-Bold-75" x="481.640625"/>
     <use xlink:href="#DejaVuSansMono-Bold-73" x="541.845703"/>
     <use xlink:href="#DejaVuSansMono-Bold-5f" x="602.050781"/>
     <use xlink:href="#DejaVuSansMono-Bold-62" x="662.255859"/>
     <use xlink:href="#DejaVuSansMono-Bold-65" x="722.460938"/>
     <use xlink:href="#DejaVuSansMono-Bold-64" x="782.666016"/>
    </g>
   </g>
   <g id="text_23">
    <!--  =  -->
    <g style="fill: #9aa0a8" transform="translate(169.4898 219.226416) scale(0.135 -0.135)">
     <use xlink:href="#DejaVuSansMono-20"/>
     <use xlink:href="#DejaVuSansMono-3d" x="60.205078"/>
     <use xlink:href="#DejaVuSansMono-20" x="120.410156"/>
    </g>
   </g>
   <g id="text_24">
    <!-- z -->
    <g style="fill: #ffb74d" transform="translate(193.7898 219.190556) scale(0.135 -0.135)">
     <use xlink:href="#DejaVuSansMono-Bold-7a"/>
    </g>
   </g>
   <g id="text_25">
    <!--  −  -->
    <g style="fill: #ffffff" transform="translate(201.8898 219.226416) scale(0.135 -0.135)">
     <use xlink:href="#DejaVuSansMono-20"/>
     <use xlink:href="#DejaVuSansMono-2212" x="60.205078"/>
     <use xlink:href="#DejaVuSansMono-20" x="120.410156"/>
    </g>
   </g>
   <g id="text_26">
    <!-- bed_evel -->
    <g style="fill: #ffb74d" transform="translate(226.1898 219.002822) scale(0.135 -0.135)">
     <use xlink:href="#DejaVuSansMono-Bold-62"/>
     <use xlink:href="#DejaVuSansMono-Bold-65" x="60.205078"/>
     <use xlink:href="#DejaVuSansMono-Bold-64" x="120.410156"/>
     <use xlink:href="#DejaVuSansMono-Bold-5f" x="180.615234"/>
     <use xlink:href="#DejaVuSansMono-Bold-65" x="240.820312"/>
     <use xlink:href="#DejaVuSansMono-Bold-76" x="301.025391"/>
     <use xlink:href="#DejaVuSansMono-Bold-65" x="361.230469"/>
     <use xlink:href="#DejaVuSansMono-Bold-6c" x="421.435547"/>
    </g>
   </g>
   <g id="text_27">
    <!-- 5   -->
    <g style="fill: #9aa0a8" transform="translate(31.7898 252.407256) scale(0.135 -0.135)">
     <defs>
      <path id="DejaVuSansMono-35" d="M 647 4666 
L 3009 4666 
L 3009 4134 
L 1222 4134 
L 1222 2988 
Q 1356 3038 1492 3061 
Q 1628 3084 1766 3084 
Q 2491 3084 2916 2656 
Q 3341 2228 3341 1497 
Q 3341 759 2895 334 
Q 2450 -91 1678 -91 
Q 1306 -91 998 -41 
Q 691 9 447 109 
L 447 750 
Q 734 594 1025 517 
Q 1316 441 1619 441 
Q 2141 441 2423 716 
Q 2706 991 2706 1497 
Q 2706 1997 2414 2275 
Q 2122 2553 1600 2553 
Q 1347 2553 1106 2495 
Q 866 2438 647 2322 
L 647 4666 
z
" transform="scale(0.015625)"/>
     </defs>
     <use xlink:href="#DejaVuSansMono-35"/>
     <use xlink:href="#DejaVuSansMono-20" x="60.205078"/>
     <use xlink:href="#DejaVuSansMono-20" x="120.410156"/>
    </g>
   </g>
   <g id="text_28">
    <!-- log_speed -->
    <g style="fill: #6fd3ff" transform="translate(56.0898 252.183662) scale(0.135 -0.135)">
     <use xlink:href="#DejaVuSansMono-Bold-6c"/>
     <use xlink:href="#DejaVuSansMono-Bold-6f" x="60.205078"/>
     <use xlink:href="#DejaVuSansMono-Bold-67" x="120.410156"/>
     <use xlink:href="#DejaVuSansMono-Bold-5f" x="180.615234"/>
     <use xlink:href="#DejaVuSansMono-Bold-73" x="240.820312"/>
     <use xlink:href="#DejaVuSansMono-Bold-70" x="301.025391"/>
     <use xlink:href="#DejaVuSansMono-Bold-65" x="361.230469"/>
     <use xlink:href="#DejaVuSansMono-Bold-65" x="421.435547"/>
     <use xlink:href="#DejaVuSansMono-Bold-64" x="481.640625"/>
    </g>
   </g>
   <g id="text_29">
    <!--  =  -->
    <g style="fill: #9aa0a8" transform="translate(128.9898 252.407256) scale(0.135 -0.135)">
     <use xlink:href="#DejaVuSansMono-20"/>
     <use xlink:href="#DejaVuSansMono-3d" x="60.205078"/>
     <use xlink:href="#DejaVuSansMono-20" x="120.410156"/>
    </g>
   </g>
   <g id="text_30">
    <!-- ln(1+√( -->
    <g style="fill: #ffffff" transform="translate(153.2898 252.407256) scale(0.135 -0.135)">
     <defs>
      <path id="DejaVuSansMono-221a" d="M 313 2291 
L 184 2681 
L 1094 2988 
L 1778 703 
L 3238 5300 
L 3700 5300 
L 3700 4891 
L 3553 4891 
L 1972 -122 
L 1575 -122 
L 806 2456 
L 313 2291 
z
" transform="scale(0.015625)"/>
     </defs>
     <use xlink:href="#DejaVuSansMono-6c"/>
     <use xlink:href="#DejaVuSansMono-6e" x="60.205078"/>
     <use xlink:href="#DejaVuSansMono-28" x="120.410156"/>
     <use xlink:href="#DejaVuSansMono-31" x="180.615234"/>
     <use xlink:href="#DejaVuSansMono-2b" x="240.820312"/>
     <use xlink:href="#DejaVuSansMono-221a" x="301.025391"/>
     <use xlink:href="#DejaVuSansMono-28" x="361.230469"/>
    </g>
   </g>
   <g id="text_31">
    <!-- vx -->
    <g style="fill: #ffb74d" transform="translate(209.9898 252.371396) scale(0.135 -0.135)">
     <use xlink:href="#DejaVuSansMono-Bold-76"/>
     <use xlink:href="#DejaVuSansMono-Bold-78" x="60.205078"/>
    </g>
   </g>
   <g id="text_32">
    <!-- ²+ -->
    <g style="fill: #ffffff" transform="translate(226.1898 252.407256) scale(0.135 -0.135)">
     <defs>
      <path id="DejaVuSansMono-b2" d="M 1509 2444 
L 2791 2444 
L 2791 2088 
L 1006 2088 
L 1006 2431 
L 1728 3138 
Q 2044 3441 2170 3631 
Q 2297 3822 2297 3981 
Q 2297 4172 2140 4290 
Q 1984 4409 1728 4409 
Q 1575 4409 1398 4353 
Q 1222 4297 1025 4184 
L 1025 4575 
Q 1228 4663 1417 4706 
Q 1606 4750 1791 4750 
Q 2234 4750 2503 4542 
Q 2772 4334 2772 4000 
Q 2772 3822 2656 3636 
Q 2541 3450 2169 3084 
L 1509 2444 
z
" transform="scale(0.015625)"/>
     </defs>
     <use xlink:href="#DejaVuSansMono-b2"/>
     <use xlink:href="#DejaVuSansMono-2b" x="60.205078"/>
    </g>
   </g>
   <g id="text_33">
    <!-- vy -->
    <g style="fill: #ffb74d" transform="translate(242.3898 252.371396) scale(0.135 -0.135)">
     <use xlink:href="#DejaVuSansMono-Bold-76"/>
     <use xlink:href="#DejaVuSansMono-Bold-79" x="60.205078"/>
    </g>
   </g>
   <g id="text_34">
    <!-- ²)) -->
    <g style="fill: #ffffff" transform="translate(258.5898 252.407256) scale(0.135 -0.135)">
     <use xlink:href="#DejaVuSansMono-b2"/>
     <use xlink:href="#DejaVuSansMono-29" x="60.205078"/>
     <use xlink:href="#DejaVuSansMono-29" x="120.410156"/>
    </g>
   </g>
   <g id="text_35">
    <!-- 6   -->
    <g style="fill: #9aa0a8" transform="translate(31.7898 285.588096) scale(0.135 -0.135)">
     <defs>
      <path id="DejaVuSansMono-36" d="M 3097 4563 
L 3097 3981 
Q 2900 4097 2678 4158 
Q 2456 4219 2216 4219 
Q 1616 4219 1306 3767 
Q 997 3316 997 2438 
Q 1147 2750 1412 2917 
Q 1678 3084 2022 3084 
Q 2697 3084 3067 2670 
Q 3438 2256 3438 1497 
Q 3438 741 3056 325 
Q 2675 -91 1984 -91 
Q 1172 -91 794 492 
Q 416 1075 416 2328 
Q 416 3509 870 4129 
Q 1325 4750 2188 4750 
Q 2419 4750 2650 4701 
Q 2881 4653 3097 4563 
z
M 1972 2591 
Q 1569 2591 1337 2300 
Q 1106 2009 1106 1497 
Q 1106 984 1337 693 
Q 1569 403 1972 403 
Q 2391 403 2603 679 
Q 2816 956 2816 1497 
Q 2816 2041 2603 2316 
Q 2391 2591 1972 2591 
z
" transform="scale(0.015625)"/>
     </defs>
     <use xlink:href="#DejaVuSansMono-36"/>
     <use xlink:href="#DejaVuSansMono-20" x="60.205078"/>
     <use xlink:href="#DejaVuSansMono-20" x="120.410156"/>
    </g>
   </g>
   <g id="text_36">
    <!-- s -->
    <g style="fill: #ffb74d" transform="translate(56.0898 285.552236) scale(0.135 -0.135)">
     <use xlink:href="#DejaVuSansMono-Bold-73"/>
    </g>
   </g>
   <g id="text_37">
    <!-- 7   -->
    <g style="fill: #9aa0a8" transform="translate(423.5616 119.683896) scale(0.135 -0.135)">
     <defs>
      <path id="DejaVuSansMono-37" d="M 434 4666 
L 3372 4666 
L 3372 4397 
L 1703 0 
L 1044 0 
L 2669 4134 
L 434 4134 
L 434 4666 
z
" transform="scale(0.015625)"/>
     </defs>
     <use xlink:href="#DejaVuSansMono-37"/>
     <use xlink:href="#DejaVuSansMono-20" x="60.205078"/>
     <use xlink:href="#DejaVuSansMono-20" x="120.410156"/>
    </g>
   </g>
   <g id="text_38">
    <!-- z -->
    <g style="fill: #ffb74d" transform="translate(447.8616 119.648036) scale(0.135 -0.135)">
     <use xlink:href="#DejaVuSansMono-Bold-7a"/>
    </g>
   </g>
   <g id="text_39">
    <!-- 8   -->
    <g style="fill: #9aa0a8" transform="translate(423.5616 152.864736) scale(0.135 -0.135)">
     <defs>
      <path id="DejaVuSansMono-38" d="M 1925 2216 
Q 1503 2216 1273 1980 
Q 1044 1744 1044 1313 
Q 1044 881 1276 642 
Q 1509 403 1925 403 
Q 2350 403 2579 639 
Q 2809 875 2809 1313 
Q 2809 1741 2576 1978 
Q 2344 2216 1925 2216 
z
M 1375 2478 
Q 972 2581 745 2862 
Q 519 3144 519 3541 
Q 519 4097 897 4423 
Q 1275 4750 1925 4750 
Q 2578 4750 2956 4423 
Q 3334 4097 3334 3541 
Q 3334 3144 3107 2862 
Q 2881 2581 2478 2478 
Q 2947 2375 3195 2062 
Q 3444 1750 3444 1253 
Q 3444 622 3041 265 
Q 2638 -91 1925 -91 
Q 1213 -91 811 264 
Q 409 619 409 1247 
Q 409 1747 657 2061 
Q 906 2375 1375 2478 
z
M 1147 3481 
Q 1147 3106 1347 2909 
Q 1547 2713 1925 2713 
Q 2306 2713 2506 2909 
Q 2706 3106 2706 3481 
Q 2706 3863 2507 4063 
Q 2309 4263 1925 4263 
Q 1547 4263 1347 4061 
Q 1147 3859 1147 3481 
z
" transform="scale(0.015625)"/>
     </defs>
     <use xlink:href="#DejaVuSansMono-38"/>
     <use xlink:href="#DejaVuSansMono-20" x="60.205078"/>
     <use xlink:href="#DejaVuSansMono-20" x="120.410156"/>
    </g>
   </g>
   <g id="text_40">
    <!-- smb -->
    <g style="fill: #ffb74d" transform="translate(447.8616 152.828876) scale(0.135 -0.135)">
     <use xlink:href="#DejaVuSansMono-Bold-73"/>
     <use xlink:href="#DejaVuSansMono-Bold-6d" x="60.205078"/>
     <use xlink:href="#DejaVuSansMono-Bold-62" x="120.410156"/>
    </g>
   </g>
   <g id="text_41">
    <!-- 9   -->
    <g style="fill: #9aa0a8" transform="translate(423.5616 186.045576) scale(0.135 -0.135)">
     <defs>
      <path id="DejaVuSansMono-39" d="M 1863 2069 
Q 2266 2069 2495 2359 
Q 2725 2650 2725 3163 
Q 2725 3675 2495 3965 
Q 2266 4256 1863 4256 
Q 1444 4256 1231 3979 
Q 1019 3703 1019 3163 
Q 1019 2619 1230 2344 
Q 1441 2069 1863 2069 
z
M 738 97 
L 738 678 
Q 934 563 1156 502 
Q 1378 441 1619 441 
Q 2219 441 2526 892 
Q 2834 1344 2834 2222 
Q 2688 1909 2422 1742 
Q 2156 1575 1813 1575 
Q 1138 1575 767 1990 
Q 397 2406 397 3169 
Q 397 3922 776 4336 
Q 1156 4750 1850 4750 
Q 2663 4750 3041 4165 
Q 3419 3581 3419 2328 
Q 3419 1150 2964 529 
Q 2509 -91 1644 -91 
Q 1416 -91 1184 -42 
Q 953 6 738 97 
z
" transform="scale(0.015625)"/>
     </defs>
     <use xlink:href="#DejaVuSansMono-39"/>
     <use xlink:href="#DejaVuSansMono-20" x="60.205078"/>
     <use xlink:href="#DejaVuSansMono-20" x="120.410156"/>
    </g>
   </g>
   <g id="text_42">
    <!-- temp -->
    <g style="fill: #ffb74d" transform="translate(447.8616 186.009716) scale(0.135 -0.135)">
     <use xlink:href="#DejaVuSansMono-Bold-74"/>
     <use xlink:href="#DejaVuSansMono-Bold-65" x="60.205078"/>
     <use xlink:href="#DejaVuSansMono-Bold-6d" x="120.410156"/>
     <use xlink:href="#DejaVuSansMono-Bold-70" x="180.615234"/>
    </g>
   </g>
   <g id="text_43">
    <!-- 10  -->
    <g style="fill: #9aa0a8" transform="translate(423.5616 219.226416) scale(0.135 -0.135)">
     <defs>
      <path id="DejaVuSansMono-30" d="M 1509 2344 
Q 1509 2516 1629 2641 
Q 1750 2766 1919 2766 
Q 2094 2766 2219 2641 
Q 2344 2516 2344 2344 
Q 2344 2169 2220 2047 
Q 2097 1925 1919 1925 
Q 1744 1925 1626 2044 
Q 1509 2163 1509 2344 
z
M 1925 4250 
Q 1484 4250 1267 3775 
Q 1050 3300 1050 2328 
Q 1050 1359 1267 884 
Q 1484 409 1925 409 
Q 2369 409 2586 884 
Q 2803 1359 2803 2328 
Q 2803 3300 2586 3775 
Q 2369 4250 1925 4250 
z
M 1925 4750 
Q 2672 4750 3055 4137 
Q 3438 3525 3438 2328 
Q 3438 1134 3055 521 
Q 2672 -91 1925 -91 
Q 1178 -91 797 521 
Q 416 1134 416 2328 
Q 416 3525 797 4137 
Q 1178 4750 1925 4750 
z
" transform="scale(0.015625)"/>
     </defs>
     <use xlink:href="#DejaVuSansMono-31"/>
     <use xlink:href="#DejaVuSansMono-30" x="60.205078"/>
     <use xlink:href="#DejaVuSansMono-20" x="120.410156"/>
    </g>
   </g>
   <g id="text_44">
    <!-- dir_x -->
    <g style="fill: #6fd3ff" transform="translate(447.8616 219.361416) scale(0.135 -0.135)">
     <use xlink:href="#DejaVuSansMono-Bold-64"/>
     <use xlink:href="#DejaVuSansMono-Bold-69" x="60.205078"/>
     <use xlink:href="#DejaVuSansMono-Bold-72" x="120.410156"/>
     <use xlink:href="#DejaVuSansMono-Bold-5f" x="180.615234"/>
     <use xlink:href="#DejaVuSansMono-Bold-78" x="240.820312"/>
    </g>
   </g>
   <g id="text_45">
    <!--  =  -->
    <g style="fill: #9aa0a8" transform="translate(488.3616 219.226416) scale(0.135 -0.135)">
     <use xlink:href="#DejaVuSansMono-20"/>
     <use xlink:href="#DejaVuSansMono-3d" x="60.205078"/>
     <use xlink:href="#DejaVuSansMono-20" x="120.410156"/>
    </g>
   </g>
   <g id="text_46">
    <!-- vx -->
    <g style="fill: #ffb74d" transform="translate(512.6616 219.190556) scale(0.135 -0.135)">
     <use xlink:href="#DejaVuSansMono-Bold-76"/>
     <use xlink:href="#DejaVuSansMono-Bold-78" x="60.205078"/>
    </g>
   </g>
   <g id="text_47">
    <!--  / √( -->
    <g style="fill: #ffffff" transform="translate(528.8616 219.226416) scale(0.135 -0.135)">
     <defs>
      <path id="DejaVuSansMono-2f" d="M 2778 4666 
L 3372 4666 
L 916 -594 
L 319 -594 
L 2778 4666 
z
" transform="scale(0.015625)"/>
     </defs>
     <use xlink:href="#DejaVuSansMono-20"/>
     <use xlink:href="#DejaVuSansMono-2f" x="60.205078"/>
     <use xlink:href="#DejaVuSansMono-20" x="120.410156"/>
     <use xlink:href="#DejaVuSansMono-221a" x="180.615234"/>
     <use xlink:href="#DejaVuSansMono-28" x="240.820312"/>
    </g>
   </g>
   <g id="text_48">
    <!-- vx -->
    <g style="fill: #ffb74d" transform="translate(569.3616 219.190556) scale(0.135 -0.135)">
     <use xlink:href="#DejaVuSansMono-Bold-76"/>
     <use xlink:href="#DejaVuSansMono-Bold-78" x="60.205078"/>
    </g>
   </g>
   <g id="text_49">
    <!-- ²+ -->
    <g style="fill: #ffffff" transform="translate(585.5616 219.226416) scale(0.135 -0.135)">
     <use xlink:href="#DejaVuSansMono-b2"/>
     <use xlink:href="#DejaVuSansMono-2b" x="60.205078"/>
    </g>
   </g>
   <g id="text_50">
    <!-- vy -->
    <g style="fill: #ffb74d" transform="translate(601.7616 219.190556) scale(0.135 -0.135)">
     <use xlink:href="#DejaVuSansMono-Bold-76"/>
     <use xlink:href="#DejaVuSansMono-Bold-79" x="60.205078"/>
    </g>
   </g>
   <g id="text_51">
    <!-- ²) -->
    <g style="fill: #ffffff" transform="translate(617.9616 219.226416) scale(0.135 -0.135)">
     <use xlink:href="#DejaVuSansMono-b2"/>
     <use xlink:href="#DejaVuSansMono-29" x="60.205078"/>
    </g>
   </g>
   <g id="text_52">
    <!-- 11  -->
    <g style="fill: #9aa0a8" transform="translate(423.5616 252.407256) scale(0.135 -0.135)">
     <use xlink:href="#DejaVuSansMono-31"/>
     <use xlink:href="#DejaVuSansMono-31" x="60.205078"/>
     <use xlink:href="#DejaVuSansMono-20" x="120.410156"/>
    </g>
   </g>
   <g id="text_53">
    <!-- dir_y -->
    <g style="fill: #6fd3ff" transform="translate(447.8616 252.542256) scale(0.135 -0.135)">
     <use xlink:href="#DejaVuSansMono-Bold-64"/>
     <use xlink:href="#DejaVuSansMono-Bold-69" x="60.205078"/>
     <use xlink:href="#DejaVuSansMono-Bold-72" x="120.410156"/>
     <use xlink:href="#DejaVuSansMono-Bold-5f" x="180.615234"/>
     <use xlink:href="#DejaVuSansMono-Bold-79" x="240.820312"/>
    </g>
   </g>
   <g id="text_54">
    <!--  =  -->
    <g style="fill: #9aa0a8" transform="translate(488.3616 252.407256) scale(0.135 -0.135)">
     <use xlink:href="#DejaVuSansMono-20"/>
     <use xlink:href="#DejaVuSansMono-3d" x="60.205078"/>
     <use xlink:href="#DejaVuSansMono-20" x="120.410156"/>
    </g>
   </g>
   <g id="text_55">
    <!-- vy -->
    <g style="fill: #ffb74d" transform="translate(512.6616 252.371396) scale(0.135 -0.135)">
     <use xlink:href="#DejaVuSansMono-Bold-76"/>
     <use xlink:href="#DejaVuSansMono-Bold-79" x="60.205078"/>
    </g>
   </g>
   <g id="text_56">
    <!--  / √( -->
    <g style="fill: #ffffff" transform="translate(528.8616 252.407256) scale(0.135 -0.135)">
     <use xlink:href="#DejaVuSansMono-20"/>
     <use xlink:href="#DejaVuSansMono-2f" x="60.205078"/>
     <use xlink:href="#DejaVuSansMono-20" x="120.410156"/>
     <use xlink:href="#DejaVuSansMono-221a" x="180.615234"/>
     <use xlink:href="#DejaVuSansMono-28" x="240.820312"/>
    </g>
   </g>
   <g id="text_57">
    <!-- vx -->
    <g style="fill: #ffb74d" transform="translate(569.3616 252.371396) scale(0.135 -0.135)">
     <use xlink:href="#DejaVuSansMono-Bold-76"/>
     <use xlink:href="#DejaVuSansMono-Bold-78" x="60.205078"/>
    </g>
   </g>
   <g id="text_58">
    <!-- ²+ -->
    <g style="fill: #ffffff" transform="translate(585.5616 252.407256) scale(0.135 -0.135)">
     <use xlink:href="#DejaVuSansMono-b2"/>
     <use xlink:href="#DejaVuSansMono-2b" x="60.205078"/>
    </g>
   </g>
   <g id="text_59">
    <!-- vy -->
    <g style="fill: #ffb74d" transform="translate(601.7616 252.371396) scale(0.135 -0.135)">
     <use xlink:href="#DejaVuSansMono-Bold-76"/>
     <use xlink:href="#DejaVuSansMono-Bold-79" x="60.205078"/>
    </g>
   </g>
   <g id="text_60">
    <!-- ²) -->
    <g style="fill: #ffffff" transform="translate(617.9616 252.407256) scale(0.135 -0.135)">
     <use xlink:href="#DejaVuSansMono-b2"/>
     <use xlink:href="#DejaVuSansMono-29" x="60.205078"/>
    </g>
   </g>
  </g>
 </g>
 <defs>
  <clipPath id="p202e50a5f1">
   <rect x="2.16" y="2.16" width="658.44" height="316.008"/>
  </clipPath>
 </defs>
</svg>
