<?xml version="1.0" encoding="utf-8" standalone="no"?>
<!DOCTYPE svg PUBLIC "-//W3C//DTD SVG 1.1//EN"
  "http://www.w3.org/Graphics/SVG/1.1/DTD/svg11.dtd">
<svg xmlns:xlink="http://www.w3.org/1999/xlink" width="639.36pt" height="252.792pt" viewBox="0 0 639.36 252.792" xmlns="http://www.w3.org/2000/svg" version="1.1">
 <metadata>
  <rdf:RDF xmlns:dc="http://purl.org/dc/elements/1.1/" xmlns:cc="http://creativecommons.org/ns#" xmlns:rdf="http://www.w3.org/1999/02/22-rdf-syntax-ns#">
   <cc:Work>
    <dc:type rdf:resource="http://purl.org/dc/dcmitype/StillImage"/>
    <dc:date>2026-06-09T14:20:49.841172</dc:date>
    <dc:format>image/svg+xml</dc:format>
    <dc:creator>
     <cc:Agent>
      <dc:title>Matplotlib v3.8.4, https://matplotlib.org/</dc:title>
     </cc:Agent>
    </dc:creator>
   </cc:Work>
  </rdf:RDF>
 </metadata>
 <defs>
  <style type="text/css">*{stroke-linejoin: round; stroke-linecap: butt}</style>
 </defs>
 <g id="figure_1">
  <g id="patch_1">
   <path d="M 0 252.792 
L 639.36 252.792 
L 639.36 0 
L 0 0 
L 0 252.792 
z
" style="fill: none"/>
  </g>
  <g id="axes_1">
   <g id="patch_2">
    <path d="M 23.76144 175.504752 
L 146.87856 175.504752 
Q 159.37776 175.504752 159.37776 170.736912 
L 159.37776 46.296288 
Q 159.37776 41.528448 146.87856 41.528448 
L 23.76144 41.528448 
Q 11.26224 41.528448 11.26224 46.296288 
L 11.26224 170.736912 
Q 11.26224 175.504752 23.76144 175.504752 
z
" clip-path="url(#pd0aeb90cde)" style="fill: #0d141f; fill-opacity: 0.55; stroke: #6fd3ff; stroke-width: 1.5; stroke-linejoin: miter"/>
   </g>
   <g id="patch_3">
    <path d="M 180.00144 175.504752 
L 303.11856 175.504752 
Q 315.61776 175.504752 315.61776 170.736912 
L 315.61776 46.296288 
Q 315.61776 41.528448 303.11856 41.528448 
L 180.00144 41.528448 
Q 167.50224 41.528448 167.50224 46.296288 
L 167.50224 170.736912 
Q 167.50224 175.504752 180.00144 175.504752 
z
" clip-path="url(#pd0aeb90cde)" style="fill: #0d141f; fill-opacity: 0.55; stroke: #ffffff; stroke-width: 1.5; stroke-linejoin: miter"/>
   </g>
   <g id="patch_4">
    <path d="M 336.24144 175.504752 
L 459.35856 175.504752 
Q 471.85776 175.504752 471.85776 170.736912 
L 471.85776 46.296288 
Q 471.85776 41.528448 459.35856 41.528448 
L 336.24144 41.528448 
Q 323.74224 41.528448 323.74224 46.296288 
L 323.74224 170.736912 
Q 323.74224 175.504752 336.24144 175.504752 
z
" clip-path="url(#pd0aeb90cde)" style="fill: #0d141f; fill-opacity: 0.55; stroke: #5ae0a0; stroke-width: 1.5; stroke-linejoin: miter"/>
   </g>
   <g id="patch_5">
    <path d="M 492.48144 175.504752 
L 615.59856 175.504752 
Q 628.09776 175.504752 628.09776 170.736912 
L 628.09776 46.296288 
Q 628.09776 41.528448 615.59856 41.528448 
L 492.48144 41.528448 
Q 479.98224 41.528448 479.98224 46.296288 
L 479.98224 170.736912 
Q 479.98224 175.504752 492.48144 175.504752 
z
" clip-path="url(#pd0aeb90cde)" style="fill: #0d141f; fill-opacity: 0.55; stroke: #ffb74d; stroke-width: 1.5; stroke-linejoin: miter"/>
   </g>
   <g id="text_1">
    <!-- AUC ≈ 0.86 -->
    <g style="fill: #6fd3ff" transform="translate(22.42 93.77203) scale(0.2 -0.2)">
     <defs>
      <path id="DejaVuSans-Bold-41" d="M 3419 850 
L 1538 850 
L 1241 0 
L 31 0 
L 1759 4666 
L 3194 4666 
L 4922 0 
L 3713 0 
L 3419 850 
z
M 1838 1716 
L 3116 1716 
L 2478 3572 
L 1838 1716 
z
" transform="scale(0.015625)"/>
      <path id="DejaVuSans-Bold-55" d="M 588 4666 
L 1791 4666 
L 1791 1869 
Q 1791 1291 1980 1042 
Q 2169 794 2597 794 
Q 3028 794 3217 1042 
Q 3406 1291 3406 1869 
L 3406 4666 
L 4609 4666 
L 4609 1869 
Q 4609 878 4112 393 
Q 3616 -91 2597 -91 
Q 1581 -91 1084 393 
Q 588 878 588 1869 
L 588 4666 
z
" transform="scale(0.015625)"/>
      <path id="DejaVuSans-Bold-43" d="M 4288 256 
Q 3956 84 3597 -3 
Q 3238 -91 2847 -91 
Q 1681 -91 1000 561 
Q 319 1213 319 2328 
Q 319 3447 1000 4098 
Q 1681 4750 2847 4750 
Q 3238 4750 3597 4662 
Q 3956 4575 4288 4403 
L 4288 3438 
Q 3953 3666 3628 3772 
Q 3303 3878 2944 3878 
Q 2300 3878 1931 3465 
Q 1563 3053 1563 2328 
Q 1563 1606 1931 1193 
Q 2300 781 2944 781 
Q 3303 781 3628 887 
Q 3953 994 4288 1222 
L 4288 256 
z
" transform="scale(0.015625)"/>
      <path id="DejaVuSans-Bold-20" transform="scale(0.015625)"/>
      <path id="DejaVuSans-Bold-2248" d="M 4684 3309 
L 4684 2547 
Q 4353 2297 4073 2189 
Q 3794 2081 3494 2081 
Q 3159 2081 2713 2263 
Q 2669 2281 2644 2291 
Q 2622 2300 2575 2319 
Q 2091 2509 1797 2509 
Q 1522 2509 1253 2389 
Q 984 2269 678 2009 
L 678 2772 
Q 1006 3016 1286 3123 
Q 1566 3231 1869 3231 
Q 2213 3231 2672 3047 
Q 2703 3034 2719 3028 
Q 2744 3019 2788 3000 
Q 3272 2809 3566 2809 
Q 3834 2809 4098 2926 
Q 4363 3044 4684 3309 
z
M 4684 2003 
L 4684 1241 
Q 4353 991 4073 883 
Q 3794 775 3494 775 
Q 3159 775 2713 956 
Q 2669 975 2641 988 
Q 2622 994 2575 1013 
Q 2091 1203 1797 1203 
Q 1522 1203 1253 1084 
Q 984 966 678 703 
L 678 1466 
Q 1013 1716 1291 1823 
Q 1569 1931 1869 1931 
Q 2203 1931 2650 1750 
Q 2697 1731 2719 1722 
Q 2744 1713 2788 1697 
Q 3272 1503 3566 1503 
Q 3834 1503 4098 1620 
Q 4363 1738 4684 2003 
z
" transform="scale(0.015625)"/>
      <path id="DejaVuSans-Bold-30" d="M 2944 2338 
Q 2944 3213 2780 3570 
Q 2616 3928 2228 3928 
Q 1841 3928 1675 3570 
Q 1509 3213 1509 2338 
Q 1509 1453 1675 1090 
Q 1841 728 2228 728 
Q 2613 728 2778 1090 
Q 2944 1453 2944 2338 
z
M 4147 2328 
Q 4147 1169 3647 539 
Q 3147 -91 2228 -91 
Q 1306 -91 806 539 
Q 306 1169 306 2328 
Q 306 3491 806 4120 
Q 1306 4750 2228 4750 
Q 3147 4750 3647 4120 
Q 4147 3491 4147 2328 
z
" transform="scale(0.015625)"/>
      <path id="DejaVuSans-Bold-2e" d="M 653 1209 
L 1778 1209 
L 1778 0 
L 653 0 
L 653 1209 
z
" transform="scale(0.015625)"/>
      <path id="DejaVuSans-Bold-38" d="M 2228 2088 
Q 1891 2088 1709 1903 
Q 1528 1719 1528 1375 
Q 1528 1031 1709 848 
Q 1891 666 2228 666 
Q 2563 666 2741 848 
Q 2919 1031 2919 1375 
Q 2919 1722 2741 1905 
Q 2563 2088 2228 2088 
z
M 1350 2484 
Q 925 2613 709 2878 
Q 494 3144 494 3541 
Q 494 4131 934 4440 
Q 1375 4750 2228 4750 
Q 3075 4750 3515 4442 
Q 3956 4134 3956 3541 
Q 3956 3144 3739 2878 
Q 3522 2613 3097 2484 
Q 3572 2353 3814 2058 
Q 4056 1763 4056 1313 
Q 4056 619 3595 264 
Q 3134 -91 2228 -91 
Q 1319 -91 855 264 
Q 391 619 391 1313 
Q 391 1763 633 2058 
Q 875 2353 1350 2484 
z
M 1631 3419 
Q 1631 3141 1786 2991 
Q 1941 2841 2228 2841 
Q 2509 2841 2662 2991 
Q 2816 3141 2816 3419 
Q 2816 3697 2662 3845 
Q 2509 3994 2228 3994 
Q 1941 3994 1786 3844 
Q 1631 3694 1631 3419 
z
" transform="scale(0.015625)"/>
      <path id="DejaVuSans-Bold-36" d="M 2316 2303 
Q 2000 2303 1842 2098 
Q 1684 1894 1684 1484 
Q 1684 1075 1842 870 
Q 2000 666 2316 666 
Q 2634 666 2792 870 
Q 2950 1075 2950 1484 
Q 2950 1894 2792 2098 
Q 2634 2303 2316 2303 
z
M 3803 4544 
L 3803 3681 
Q 3506 3822 3243 3889 
Q 2981 3956 2731 3956 
Q 2194 3956 1894 3657 
Q 1594 3359 1544 2772 
Q 1750 2925 1990 3001 
Q 2231 3078 2516 3078 
Q 3231 3078 3670 2659 
Q 4109 2241 4109 1563 
Q 4109 813 3618 361 
Q 3128 -91 2303 -91 
Q 1394 -91 895 523 
Q 397 1138 397 2266 
Q 397 3422 980 4083 
Q 1563 4744 2578 4744 
Q 2900 4744 3203 4694 
Q 3506 4644 3803 4544 
z
" transform="scale(0.015625)"/>
     </defs>
     <use xlink:href="#DejaVuSans-Bold-41"/>
     <use xlink:href="#DejaVuSans-Bold-55" x="74.267578"/>
     <use xlink:href="#DejaVuSans-Bold-43" x="155.46875"/>
     <use xlink:href="#DejaVuSans-Bold-20" x="228.857422"/>
     <use xlink:href="#DejaVuSans-Bold-2248" x="263.671875"/>
     <use xlink:href="#DejaVuSans-Bold-20" x="347.460938"/>
     <use xlink:href="#DejaVuSans-Bold-30" x="382.275391"/>
     <use xlink:href="#DejaVuSans-Bold-2e" x="451.855469"/>
     <use xlink:href="#DejaVuSans-Bold-38" x="489.84375"/>
     <use xlink:href="#DejaVuSans-Bold-36" x="559.423828"/>
    </g>
   </g>
   <g id="text_2">
    <!-- cross-region -->
    <g style="fill: #ffffff" transform="translate(53.21543 131.041325) scale(0.105 -0.105)">
     <defs>
      <path id="DejaVuSans-63" d="M 3122 3366 
L 3122 2828 
Q 2878 2963 2633 3030 
Q 2388 3097 2138 3097 
Q 1578 3097 1268 2742 
Q 959 2388 959 1747 
Q 959 1106 1268 751 
Q 1578 397 2138 397 
Q 2388 397 2633 464 
Q 2878 531 3122 666 
L 3122 134 
Q 2881 22 2623 -34 
Q 2366 -91 2075 -91 
Q 1284 -91 818 406 
Q 353 903 353 1747 
Q 353 2603 823 3093 
Q 1294 3584 2113 3584 
Q 2378 3584 2631 3529 
Q 2884 3475 3122 3366 
z
" transform="scale(0.015625)"/>
      <path id="DejaVuSans-72" d="M 2631 2963 
Q 2534 3019 2420 3045 
Q 2306 3072 2169 3072 
Q 1681 3072 1420 2755 
Q 1159 2438 1159 1844 
L 1159 0 
L 581 0 
L 581 3500 
L 1159 3500 
L 1159 2956 
Q 1341 3275 1631 3429 
Q 1922 3584 2338 3584 
Q 2397 3584 2469 3576 
Q 2541 3569 2628 3553 
L 2631 2963 
z
" transform="scale(0.015625)"/>
      <path id="DejaVuSans-6f" d="M 1959 3097 
Q 1497 3097 1228 2736 
Q 959 2375 959 1747 
Q 959 1119 1226 758 
Q 1494 397 1959 397 
Q 2419 397 2687 759 
Q 2956 1122 2956 1747 
Q 2956 2369 2687 2733 
Q 2419 3097 1959 3097 
z
M 1959 3584 
Q 2709 3584 3137 3096 
Q 3566 2609 3566 1747 
Q 3566 888 3137 398 
Q 2709 -91 1959 -91 
Q 1206 -91 779 398 
Q 353 888 353 1747 
Q 353 2609 779 3096 
Q 1206 3584 1959 3584 
z
" transform="scale(0.015625)"/>
      <path id="DejaVuSans-73" d="M 2834 3397 
L 2834 2853 
Q 2591 2978 2328 3040 
Q 2066 3103 1784 3103 
Q 1356 3103 1142 2972 
Q 928 2841 928 2578 
Q 928 2378 1081 2264 
Q 1234 2150 1697 2047 
L 1894 2003 
Q 2506 1872 2764 1633 
Q 3022 1394 3022 966 
Q 3022 478 2636 193 
Q 2250 -91 1575 -91 
Q 1294 -91 989 -36 
Q 684 19 347 128 
L 347 722 
Q 666 556 975 473 
Q 1284 391 1588 391 
Q 1994 391 2212 530 
Q 2431 669 2431 922 
Q 2431 1156 2273 1281 
Q 2116 1406 1581 1522 
L 1381 1569 
Q 847 1681 609 1914 
Q 372 2147 372 2553 
Q 372 3047 722 3315 
Q 1072 3584 1716 3584 
Q 2034 3584 2315 3537 
Q 2597 3491 2834 3397 
z
" transform="scale(0.015625)"/>
      <path id="DejaVuSans-2d" d="M 313 2009 
L 1997 2009 
L 1997 1497 
L 313 1497 
L 313 2009 
z
" transform="scale(0.015625)"/>
      <path id="DejaVuSans-65" d="M 3597 1894 
L 3597 1613 
L 953 1613 
Q 991 1019 1311 708 
Q 1631 397 2203 397 
Q 2534 397 2845 478 
Q 3156 559 3463 722 
L 3463 178 
Q 3153 47 2828 -22 
Q 2503 -91 2169 -91 
Q 1331 -91 842 396 
Q 353 884 353 1716 
Q 353 2575 817 3079 
Q 1281 3584 2069 3584 
Q 2775 3584 3186 3129 
Q 3597 2675 3597 1894 
z
M 3022 2063 
Q 3016 2534 2758 2815 
Q 2500 3097 2075 3097 
Q 1594 3097 1305 2825 
Q 1016 2553 972 2059 
L 3022 2063 
z
" transform="scale(0.015625)"/>
      <path id="DejaVuSans-67" d="M 2906 1791 
Q 2906 2416 2648 2759 
Q 2391 3103 1925 3103 
Q 1463 3103 1205 2759 
Q 947 2416 947 1791 
Q 947 1169 1205 825 
Q 1463 481 1925 481 
Q 2391 481 2648 825 
Q 2906 1169 2906 1791 
z
M 3481 434 
Q 3481 -459 3084 -895 
Q 2688 -1331 1869 -1331 
Q 1566 -1331 1297 -1286 
Q 1028 -1241 775 -1147 
L 775 -588 
Q 1028 -725 1275 -790 
Q 1522 -856 1778 -856 
Q 2344 -856 2625 -561 
Q 2906 -266 2906 331 
L 2906 616 
Q 2728 306 2450 153 
Q 2172 0 1784 0 
Q 1141 0 747 490 
Q 353 981 353 1791 
Q 353 2603 747 3093 
Q 1141 3584 1784 3584 
Q 2172 3584 2450 3431 
Q 2728 3278 2906 2969 
L 2906 3500 
L 3481 3500 
L 3481 434 
z
" transform="scale(0.015625)"/>
      <path id="DejaVuSans-69" d="M 603 3500 
L 1178 3500 
L 1178 0 
L 603 0 
L 603 3500 
z
M 603 4863 
L 1178 4863 
L 1178 4134 
L 603 4134 
L 603 4863 
z
" transform="scale(0.015625)"/>
      <path id="DejaVuSans-6e" d="M 3513 2113 
L 3513 0 
L 2938 0 
L 2938 2094 
Q 2938 2591 2744 2837 
Q 2550 3084 2163 3084 
Q 1697 3084 1428 2787 
Q 1159 2491 1159 1978 
L 1159 0 
L 581 0 
L 581 3500 
L 1159 3500 
L 1159 2956 
Q 1366 3272 1645 3428 
Q 1925 3584 2291 3584 
Q 2894 3584 3203 3211 
Q 3513 2838 3513 2113 
z
" transform="scale(0.015625)"/>
     </defs>
     <use xlink:href="#DejaVuSans-63"/>
     <use xlink:href="#DejaVuSans-72" x="54.980469"/>
     <use xlink:href="#DejaVuSans-6f" x="93.84375"/>
     <use xlink:href="#DejaVuSans-73" x="155.025391"/>
     <use xlink:href="#DejaVuSans-73" x="207.125"/>
     <use xlink:href="#DejaVuSans-2d" x="259.224609"/>
     <use xlink:href="#DejaVuSans-72" x="295.308594"/>
     <use xlink:href="#DejaVuSans-65" x="334.171875"/>
     <use xlink:href="#DejaVuSans-67" x="395.695312"/>
     <use xlink:href="#DejaVuSans-69" x="459.171875"/>
     <use xlink:href="#DejaVuSans-6f" x="486.955078"/>
     <use xlink:href="#DejaVuSans-6e" x="548.136719"/>
    </g>
    <!-- train one half -->
    <g style="fill: #ffffff" transform="translate(50.142539 143.596864) scale(0.105 -0.105)">
     <defs>
      <path id="DejaVuSans-74" d="M 1172 4494 
L 1172 3500 
L 2356 3500 
L 2356 3053 
L 1172 3053 
L 1172 1153 
Q 1172 725 1289 603 
Q 1406 481 1766 481 
L 2356 481 
L 2356 0 
L 1766 0 
Q 1100 0 847 248 
Q 594 497 594 1153 
L 594 3053 
L 172 3053 
L 172 3500 
L 594 3500 
L 594 4494 
L 1172 4494 
z
" transform="scale(0.015625)"/>
      <path id="DejaVuSans-61" d="M 2194 1759 
Q 1497 1759 1228 1600 
Q 959 1441 959 1056 
Q 959 750 1161 570 
Q 1363 391 1709 391 
Q 2188 391 2477 730 
Q 2766 1069 2766 1631 
L 2766 1759 
L 2194 1759 
z
M 3341 1997 
L 3341 0 
L 2766 0 
L 2766 531 
Q 2569 213 2275 61 
Q 1981 -91 1556 -91 
Q 1019 -91 701 211 
Q 384 513 384 1019 
Q 384 1609 779 1909 
Q 1175 2209 1959 2209 
L 2766 2209 
L 2766 2266 
Q 2766 2663 2505 2880 
Q 2244 3097 1772 3097 
Q 1472 3097 1187 3025 
Q 903 2953 641 2809 
L 641 3341 
Q 956 3463 1253 3523 
Q 1550 3584 1831 3584 
Q 2591 3584 2966 3190 
Q 3341 2797 3341 1997 
z
" transform="scale(0.015625)"/>
      <path id="DejaVuSans-20" transform="scale(0.015625)"/>
      <path id="DejaVuSans-68" d="M 3513 2113 
L 3513 0 
L 2938 0 
L 2938 2094 
Q 2938 2591 2744 2837 
Q 2550 3084 2163 3084 
Q 1697 3084 1428 2787 
Q 1159 2491 1159 1978 
L 1159 0 
L 581 0 
L 581 4863 
L 1159 4863 
L 1159 2956 
Q 1366 3272 1645 3428 
Q 1925 3584 2291 3584 
Q 2894 3584 3203 3211 
Q 3513 2838 3513 2113 
z
" transform="scale(0.015625)"/>
      <path id="DejaVuSans-6c" d="M 603 4863 
L 1178 4863 
L 1178 0 
L 603 0 
L 603 4863 
z
" transform="scale(0.015625)"/>
      <path id="DejaVuSans-66" d="M 2375 4863 
L 2375 4384 
L 1825 4384 
Q 1516 4384 1395 4259 
Q 1275 4134 1275 3809 
L 1275 3500 
L 2222 3500 
L 2222 3053 
L 1275 3053 
L 1275 0 
L 697 0 
L 697 3053 
L 147 3053 
L 147 3500 
L 697 3500 
L 697 3744 
Q 697 4328 969 4595 
Q 1241 4863 1831 4863 
L 2375 4863 
z
" transform="scale(0.015625)"/>
     </defs>
     <use xlink:href="#DejaVuSans-74"/>
     <use xlink:href="#DejaVuSans-72" x="39.208984"/>
     <use xlink:href="#DejaVuSans-61" x="80.322266"/>
     <use xlink:href="#DejaVuSans-69" x="141.601562"/>
     <use xlink:href="#DejaVuSans-6e" x="169.384766"/>
     <use xlink:href="#DejaVuSans-20" x="232.763672"/>
     <use xlink:href="#DejaVuSans-6f" x="264.550781"/>
     <use xlink:href="#DejaVuSans-6e" x="325.732422"/>
     <use xlink:href="#DejaVuSans-65" x="389.111328"/>
     <use xlink:href="#DejaVuSans-20" x="450.634766"/>
     <use xlink:href="#DejaVuSans-68" x="482.421875"/>
     <use xlink:href="#DejaVuSans-61" x="545.800781"/>
     <use xlink:href="#DejaVuSans-6c" x="607.080078"/>
     <use xlink:href="#DejaVuSans-66" x="634.863281"/>
    </g>
    <!-- predict the other -->
    <g style="fill: #ffffff" transform="translate(41.041172 156.152403) scale(0.105 -0.105)">
     <defs>
      <path id="DejaVuSans-70" d="M 1159 525 
L 1159 -1331 
L 581 -1331 
L 581 3500 
L 1159 3500 
L 1159 2969 
Q 1341 3281 1617 3432 
Q 1894 3584 2278 3584 
Q 2916 3584 3314 3078 
Q 3713 2572 3713 1747 
Q 3713 922 3314 415 
Q 2916 -91 2278 -91 
Q 1894 -91 1617 61 
Q 1341 213 1159 525 
z
M 3116 1747 
Q 3116 2381 2855 2742 
Q 2594 3103 2138 3103 
Q 1681 3103 1420 2742 
Q 1159 2381 1159 1747 
Q 1159 1113 1420 752 
Q 1681 391 2138 391 
Q 2594 391 2855 752 
Q 3116 1113 3116 1747 
z
" transform="scale(0.015625)"/>
      <path id="DejaVuSans-64" d="M 2906 2969 
L 2906 4863 
L 3481 4863 
L 3481 0 
L 2906 0 
L 2906 525 
Q 2725 213 2448 61 
Q 2172 -91 1784 -91 
Q 1150 -91 751 415 
Q 353 922 353 1747 
Q 353 2572 751 3078 
Q 1150 3584 1784 3584 
Q 2172 3584 2448 3432 
Q 2725 3281 2906 2969 
z
M 947 1747 
Q 947 1113 1208 752 
Q 1469 391 1925 391 
Q 2381 391 2643 752 
Q 2906 1113 2906 1747 
Q 2906 2381 2643 2742 
Q 2381 3103 1925 3103 
Q 1469 3103 1208 2742 
Q 947 2381 947 1747 
z
" transform="scale(0.015625)"/>
     </defs>
     <use xlink:href="#DejaVuSans-70"/>
     <use xlink:href="#DejaVuSans-72" x="63.476562"/>
     <use xlink:href="#DejaVuSans-65" x="102.339844"/>
     <use xlink:href="#DejaVuSans-64" x="163.863281"/>
     <use xlink:href="#DejaVuSans-69" x="227.339844"/>
     <use xlink:href="#DejaVuSans-63" x="255.123047"/>
     <use xlink:href="#DejaVuSans-74" x="310.103516"/>
     <use xlink:href="#DejaVuSans-20" x="349.3125"/>
     <use xlink:href="#DejaVuSans-74" x="381.099609"/>
     <use xlink:href="#DejaVuSans-68" x="420.308594"/>
     <use xlink:href="#DejaVuSans-65" x="483.6875"/>
     <use xlink:href="#DejaVuSans-20" x="545.210938"/>
     <use xlink:href="#DejaVuSans-6f" x="576.998047"/>
     <use xlink:href="#DejaVuSans-74" x="638.179688"/>
     <use xlink:href="#DejaVuSans-68" x="677.388672"/>
     <use xlink:href="#DejaVuSans-65" x="740.767578"/>
     <use xlink:href="#DejaVuSans-72" x="802.291016"/>
    </g>
   </g>
   <g id="text_3">
    <!-- 74.7M -->
    <g style="fill: #ffffff" transform="translate(200.011875 94.87578) scale(0.24 -0.24)">
     <defs>
      <path id="DejaVuSans-Bold-37" d="M 428 4666 
L 3944 4666 
L 3944 3988 
L 2125 0 
L 953 0 
L 2675 3781 
L 428 3781 
L 428 4666 
z
" transform="scale(0.015625)"/>
      <path id="DejaVuSans-Bold-34" d="M 2356 3675 
L 1038 1722 
L 2356 1722 
L 2356 3675 
z
M 2156 4666 
L 3494 4666 
L 3494 1722 
L 4159 1722 
L 4159 850 
L 3494 850 
L 3494 0 
L 2356 0 
L 2356 850 
L 288 850 
L 288 1881 
L 2156 4666 
z
" transform="scale(0.015625)"/>
      <path id="DejaVuSans-Bold-4d" d="M 588 4666 
L 2119 4666 
L 3181 2169 
L 4250 4666 
L 5778 4666 
L 5778 0 
L 4641 0 
L 4641 3413 
L 3566 897 
L 2803 897 
L 1728 3413 
L 1728 0 
L 588 0 
L 588 4666 
z
" transform="scale(0.015625)"/>
     </defs>
     <use xlink:href="#DejaVuSans-Bold-37"/>
     <use xlink:href="#DejaVuSans-Bold-34" x="69.580078"/>
     <use xlink:href="#DejaVuSans-Bold-2e" x="139.160156"/>
     <use xlink:href="#DejaVuSans-Bold-37" x="177.148438"/>
     <use xlink:href="#DejaVuSans-Bold-4d" x="246.728516"/>
    </g>
   </g>
   <g id="text_4">
    <!-- points scored -->
    <g style="fill: #ffffff" transform="translate(206.330039 137.319094) scale(0.105 -0.105)">
     <use xlink:href="#DejaVuSans-70"/>
     <use xlink:href="#DejaVuSans-6f" x="63.476562"/>
     <use xlink:href="#DejaVuSans-69" x="124.658203"/>
     <use xlink:href="#DejaVuSans-6e" x="152.441406"/>
     <use xlink:href="#DejaVuSans-74" x="215.820312"/>
     <use xlink:href="#DejaVuSans-73" x="255.029297"/>
     <use xlink:href="#DejaVuSans-20" x="307.128906"/>
     <use xlink:href="#DejaVuSans-73" x="338.916016"/>
     <use xlink:href="#DejaVuSans-63" x="391.015625"/>
     <use xlink:href="#DejaVuSans-6f" x="445.996094"/>
     <use xlink:href="#DejaVuSans-72" x="507.177734"/>
     <use xlink:href="#DejaVuSans-65" x="546.041016"/>
     <use xlink:href="#DejaVuSans-64" x="607.564453"/>
    </g>
    <!-- (cross-fit / out-of-fold) -->
    <g style="fill: #ffffff" transform="translate(184.381758 149.874633) scale(0.105 -0.105)">
     <defs>
      <path id="DejaVuSans-28" d="M 1984 4856 
Q 1566 4138 1362 3434 
Q 1159 2731 1159 2009 
Q 1159 1288 1364 580 
Q 1569 -128 1984 -844 
L 1484 -844 
Q 1016 -109 783 600 
Q 550 1309 550 2009 
Q 550 2706 781 3412 
Q 1013 4119 1484 4856 
L 1984 4856 
z
" transform="scale(0.015625)"/>
      <path id="DejaVuSans-2f" d="M 1625 4666 
L 2156 4666 
L 531 -594 
L 0 -594 
L 1625 4666 
z
" transform="scale(0.015625)"/>
      <path id="DejaVuSans-75" d="M 544 1381 
L 544 3500 
L 1119 3500 
L 1119 1403 
Q 1119 906 1312 657 
Q 1506 409 1894 409 
Q 2359 409 2629 706 
Q 2900 1003 2900 1516 
L 2900 3500 
L 3475 3500 
L 3475 0 
L 2900 0 
L 2900 538 
Q 2691 219 2414 64 
Q 2138 -91 1772 -91 
Q 1169 -91 856 284 
Q 544 659 544 1381 
z
M 1991 3584 
L 1991 3584 
z
" transform="scale(0.015625)"/>
      <path id="DejaVuSans-29" d="M 513 4856 
L 1013 4856 
Q 1481 4119 1714 3412 
Q 1947 2706 1947 2009 
Q 1947 1309 1714 600 
Q 1481 -109 1013 -844 
L 513 -844 
Q 928 -128 1133 580 
Q 1338 1288 1338 2009 
Q 1338 2731 1133 3434 
Q 928 4138 513 4856 
z
" transform="scale(0.015625)"/>
     </defs>
     <use xlink:href="#DejaVuSans-28"/>
     <use xlink:href="#DejaVuSans-63" x="39.013672"/>
     <use xlink:href="#DejaVuSans-72" x="93.994141"/>
     <use xlink:href="#DejaVuSans-6f" x="132.857422"/>
     <use xlink:href="#DejaVuSans-73" x="194.039062"/>
     <use xlink:href="#DejaVuSans-73" x="246.138672"/>
     <use xlink:href="#DejaVuSans-2d" x="298.238281"/>
     <use xlink:href="#DejaVuSans-66" x="334.322266"/>
     <use xlink:href="#DejaVuSans-69" x="369.527344"/>
     <use xlink:href="#DejaVuSans-74" x="397.310547"/>
     <use xlink:href="#DejaVuSans-20" x="436.519531"/>
     <use xlink:href="#DejaVuSans-2f" x="468.306641"/>
     <use xlink:href="#DejaVuSans-20" x="501.998047"/>
     <use xlink:href="#DejaVuSans-6f" x="533.785156"/>
     <use xlink:href="#DejaVuSans-75" x="594.966797"/>
     <use xlink:href="#DejaVuSans-74" x="658.345703"/>
     <use xlink:href="#DejaVuSans-2d" x="697.554688"/>
     <use xlink:href="#DejaVuSans-6f" x="735.513672"/>
     <use xlink:href="#DejaVuSans-66" x="796.695312"/>
     <use xlink:href="#DejaVuSans-2d" x="826.400391"/>
     <use xlink:href="#DejaVuSans-66" x="862.484375"/>
     <use xlink:href="#DejaVuSans-6f" x="897.689453"/>
     <use xlink:href="#DejaVuSans-6c" x="958.871094"/>
     <use xlink:href="#DejaVuSans-64" x="986.654297"/>
     <use xlink:href="#DejaVuSans-29" x="1050.130859"/>
    </g>
   </g>
   <g id="text_5">
    <!-- 703k -->
    <g style="fill: #5ae0a0" transform="translate(364.771875 94.87578) scale(0.24 -0.24)">
     <defs>
      <path id="DejaVuSans-Bold-33" d="M 2981 2516 
Q 3453 2394 3698 2092 
Q 3944 1791 3944 1325 
Q 3944 631 3412 270 
Q 2881 -91 1863 -91 
Q 1503 -91 1142 -33 
Q 781 25 428 141 
L 428 1069 
Q 766 900 1098 814 
Q 1431 728 1753 728 
Q 2231 728 2486 893 
Q 2741 1059 2741 1369 
Q 2741 1688 2480 1852 
Q 2219 2016 1709 2016 
L 1228 2016 
L 1228 2791 
L 1734 2791 
Q 2188 2791 2409 2933 
Q 2631 3075 2631 3366 
Q 2631 3634 2415 3781 
Q 2200 3928 1806 3928 
Q 1516 3928 1219 3862 
Q 922 3797 628 3669 
L 628 4550 
Q 984 4650 1334 4700 
Q 1684 4750 2022 4750 
Q 2931 4750 3382 4451 
Q 3834 4153 3834 3553 
Q 3834 3144 3618 2883 
Q 3403 2622 2981 2516 
z
" transform="scale(0.015625)"/>
      <path id="DejaVuSans-Bold-6b" d="M 538 4863 
L 1656 4863 
L 1656 2216 
L 2944 3500 
L 4244 3500 
L 2534 1894 
L 4378 0 
L 3022 0 
L 1656 1459 
L 1656 0 
L 538 0 
L 538 4863 
z
" transform="scale(0.015625)"/>
     </defs>
     <use xlink:href="#DejaVuSans-Bold-37"/>
     <use xlink:href="#DejaVuSans-Bold-30" x="69.580078"/>
     <use xlink:href="#DejaVuSans-Bold-33" x="139.160156"/>
     <use xlink:href="#DejaVuSans-Bold-6b" x="208.740234"/>
    </g>
   </g>
   <g id="text_6">
    <!-- high-confidence -->
    <g style="fill: #ffffff" transform="translate(355.719609 137.173079) scale(0.105 -0.105)">
     <use xlink:href="#DejaVuSans-68"/>
     <use xlink:href="#DejaVuSans-69" x="63.378906"/>
     <use xlink:href="#DejaVuSans-67" x="91.162109"/>
     <use xlink:href="#DejaVuSans-68" x="154.638672"/>
     <use xlink:href="#DejaVuSans-2d" x="218.017578"/>
     <use xlink:href="#DejaVuSans-63" x="254.101562"/>
     <use xlink:href="#DejaVuSans-6f" x="309.082031"/>
     <use xlink:href="#DejaVuSans-6e" x="370.263672"/>
     <use xlink:href="#DejaVuSans-66" x="433.642578"/>
     <use xlink:href="#DejaVuSans-69" x="468.847656"/>
     <use xlink:href="#DejaVuSans-64" x="496.630859"/>
     <use xlink:href="#DejaVuSans-65" x="560.107422"/>
     <use xlink:href="#DejaVuSans-6e" x="621.630859"/>
     <use xlink:href="#DejaVuSans-63" x="685.009766"/>
     <use xlink:href="#DejaVuSans-65" x="739.990234"/>
    </g>
    <!-- p_outlier &gt; 0.7 -->
    <g style="fill: #ffffff" transform="translate(358.853203 149.728618) scale(0.105 -0.105)">
     <defs>
      <path id="DejaVuSans-5f" d="M 3263 -1063 
L 3263 -1509 
L -63 -1509 
L -63 -1063 
L 3263 -1063 
z
" transform="scale(0.015625)"/>
      <path id="DejaVuSans-3e" d="M 678 3150 
L 678 3719 
L 4684 2266 
L 4684 1747 
L 678 294 
L 678 863 
L 3897 2003 
L 678 3150 
z
" transform="scale(0.015625)"/>
      <path id="DejaVuSans-30" d="M 2034 4250 
Q 1547 4250 1301 3770 
Q 1056 3291 1056 2328 
Q 1056 1369 1301 889 
Q 1547 409 2034 409 
Q 2525 409 2770 889 
Q 3016 1369 3016 2328 
Q 3016 3291 2770 3770 
Q 2525 4250 2034 4250 
z
M 2034 4750 
Q 2819 4750 3233 4129 
Q 3647 3509 3647 2328 
Q 3647 1150 3233 529 
Q 2819 -91 2034 -91 
Q 1250 -91 836 529 
Q 422 1150 422 2328 
Q 422 3509 836 4129 
Q 1250 4750 2034 4750 
z
" transform="scale(0.015625)"/>
      <path id="DejaVuSans-2e" d="M 684 794 
L 1344 794 
L 1344 0 
L 684 0 
L 684 794 
z
" transform="scale(0.015625)"/>
      <path id="DejaVuSans-37" d="M 525 4666 
L 3525 4666 
L 3525 4397 
L 1831 0 
L 1172 0 
L 2766 4134 
L 525 4134 
L 525 4666 
z
" transform="scale(0.015625)"/>
     </defs>
     <use xlink:href="#DejaVuSans-70"/>
     <use xlink:href="#DejaVuSans-5f" x="63.476562"/>
     <use xlink:href="#DejaVuSans-6f" x="113.476562"/>
     <use xlink:href="#DejaVuSans-75" x="174.658203"/>
     <use xlink:href="#DejaVuSans-74" x="238.037109"/>
     <use xlink:href="#DejaVuSans-6c" x="277.246094"/>
     <use xlink:href="#DejaVuSans-69" x="305.029297"/>
     <use xlink:href="#DejaVuSans-65" x="332.8125"/>
     <use xlink:href="#DejaVuSans-72" x="394.335938"/>
     <use xlink:href="#DejaVuSans-20" x="435.449219"/>
     <use xlink:href="#DejaVuSans-3e" x="467.236328"/>
     <use xlink:href="#DejaVuSans-20" x="551.025391"/>
     <use xlink:href="#DejaVuSans-30" x="582.8125"/>
     <use xlink:href="#DejaVuSans-2e" x="646.435547"/>
     <use xlink:href="#DejaVuSans-37" x="678.222656"/>
    </g>
   </g>
   <g id="text_7">
    <!-- 1.95M -->
    <g style="fill: #ffb74d" transform="translate(512.491875 94.87578) scale(0.24 -0.24)">
     <defs>
      <path id="DejaVuSans-Bold-31" d="M 750 831 
L 1813 831 
L 1813 3847 
L 722 3622 
L 722 4441 
L 1806 4666 
L 2950 4666 
L 2950 831 
L 4013 831 
L 4013 0 
L 750 0 
L 750 831 
z
" transform="scale(0.015625)"/>
      <path id="DejaVuSans-Bold-39" d="M 641 103 
L 641 966 
Q 928 831 1190 764 
Q 1453 697 1709 697 
Q 2247 697 2547 995 
Q 2847 1294 2900 1881 
Q 2688 1725 2447 1647 
Q 2206 1569 1925 1569 
Q 1209 1569 770 1986 
Q 331 2403 331 3084 
Q 331 3838 820 4291 
Q 1309 4744 2131 4744 
Q 3044 4744 3544 4128 
Q 4044 3513 4044 2388 
Q 4044 1231 3459 570 
Q 2875 -91 1856 -91 
Q 1528 -91 1228 -42 
Q 928 6 641 103 
z
M 2125 2350 
Q 2441 2350 2600 2554 
Q 2759 2759 2759 3169 
Q 2759 3575 2600 3781 
Q 2441 3988 2125 3988 
Q 1809 3988 1650 3781 
Q 1491 3575 1491 3169 
Q 1491 2759 1650 2554 
Q 1809 2350 2125 2350 
z
" transform="scale(0.015625)"/>
      <path id="DejaVuSans-Bold-35" d="M 678 4666 
L 3669 4666 
L 3669 3781 
L 1638 3781 
L 1638 3059 
Q 1775 3097 1914 3117 
Q 2053 3138 2203 3138 
Q 3056 3138 3531 2711 
Q 4006 2284 4006 1522 
Q 4006 766 3489 337 
Q 2972 -91 2053 -91 
Q 1656 -91 1267 -14 
Q 878 63 494 219 
L 494 1166 
Q 875 947 1217 837 
Q 1559 728 1863 728 
Q 2300 728 2551 942 
Q 2803 1156 2803 1522 
Q 2803 1891 2551 2103 
Q 2300 2316 1863 2316 
Q 1603 2316 1309 2248 
Q 1016 2181 678 2041 
L 678 4666 
z
" transform="scale(0.015625)"/>
     </defs>
     <use xlink:href="#DejaVuSans-Bold-31"/>
     <use xlink:href="#DejaVuSans-Bold-2e" x="69.580078"/>
     <use xlink:href="#DejaVuSans-Bold-39" x="107.568359"/>
     <use xlink:href="#DejaVuSans-Bold-35" x="177.148438"/>
     <use xlink:href="#DejaVuSans-Bold-4d" x="246.728516"/>
    </g>
   </g>
   <g id="text_8">
    <!-- flagged -->
    <g style="fill: #ffffff" transform="translate(534.286875 137.173079) scale(0.105 -0.105)">
     <use xlink:href="#DejaVuSans-66"/>
     <use xlink:href="#DejaVuSans-6c" x="35.205078"/>
     <use xlink:href="#DejaVuSans-61" x="62.988281"/>
     <use xlink:href="#DejaVuSans-67" x="124.267578"/>
     <use xlink:href="#DejaVuSans-67" x="187.744141"/>
     <use xlink:href="#DejaVuSans-65" x="251.220703"/>
     <use xlink:href="#DejaVuSans-64" x="312.744141"/>
    </g>
    <!-- p_outlier &gt; 0.5 -->
    <g style="fill: #ffffff" transform="translate(515.093203 149.728618) scale(0.105 -0.105)">
     <defs>
      <path id="DejaVuSans-35" d="M 691 4666 
L 3169 4666 
L 3169 4134 
L 1269 4134 
L 1269 2991 
Q 1406 3038 1543 3061 
Q 1681 3084 1819 3084 
Q 2600 3084 3056 2656 
Q 3513 2228 3513 1497 
Q 3513 744 3044 326 
Q 2575 -91 1722 -91 
Q 1428 -91 1123 -41 
Q 819 9 494 109 
L 494 744 
Q 775 591 1075 516 
Q 1375 441 1709 441 
Q 2250 441 2565 725 
Q 2881 1009 2881 1497 
Q 2881 1984 2565 2268 
Q 2250 2553 1709 2553 
Q 1456 2553 1204 2497 
Q 953 2441 691 2322 
L 691 4666 
z
" transform="scale(0.015625)"/>
     </defs>
     <use xlink:href="#DejaVuSans-70"/>
     <use xlink:href="#DejaVuSans-5f" x="63.476562"/>
     <use xlink:href="#DejaVuSans-6f" x="113.476562"/>
     <use xlink:href="#DejaVuSans-75" x="174.658203"/>
     <use xlink:href="#DejaVuSans-74" x="238.037109"/>
     <use xlink:href="#DejaVuSans-6c" x="277.246094"/>
     <use xlink:href="#DejaVuSans-69" x="305.029297"/>
     <use xlink:href="#DejaVuSans-65" x="332.8125"/>
     <use xlink:href="#DejaVuSans-72" x="394.335938"/>
     <use xlink:href="#DejaVuSans-20" x="435.449219"/>
     <use xlink:href="#DejaVuSans-3e" x="467.236328"/>
     <use xlink:href="#DejaVuSans-20" x="551.025391"/>
     <use xlink:href="#DejaVuSans-30" x="582.8125"/>
     <use xlink:href="#DejaVuSans-2e" x="646.435547"/>
     <use xlink:href="#DejaVuSans-35" x="678.222656"/>
    </g>
   </g>
  </g>
 </g>
 <defs>
  <clipPath id="pd0aeb90cde">
   <rect x="7.2" y="7.2" width="624.96" height="238.392"/>
  </clipPath>
 </defs>
</svg>
