<?xml version="1.0" encoding="utf-8" standalone="no"?>
<!DOCTYPE svg PUBLIC "-//W3C//DTD SVG 1.1//EN"
  "http://www.w3.org/Graphics/SVG/1.1/DTD/svg11.dtd">
<svg xmlns:xlink="http://www.w3.org/1999/xlink" width="583.56pt" height="324.864pt" viewBox="0 0 583.56 324.864" xmlns="http://www.w3.org/2000/svg" version="1.1">
 <metadata>
  <rdf:RDF xmlns:dc="http://purl.org/dc/elements/1.1/" xmlns:cc="http://creativecommons.org/ns#" xmlns:rdf="http://www.w3.org/1999/02/22-rdf-syntax-ns#">
   <cc:Work>
    <dc:type rdf:resource="http://purl.org/dc/dcmitype/StillImage"/>
    <dc:date>2026-06-09T14:20:42.031486</dc:date>
    <dc:format>image/svg+xml</dc:format>
    <dc:creator>
     <cc:Agent>
      <dc:title>Matplotlib v3.8.4, https://matplotlib.org/</dc:title>
     </cc:Agent>
    </dc:creator>
   </cc:Work>
  </rdf:RDF>
 </metadata>
 <defs>
  <style type="text/css">*{stroke-linejoin: round; stroke-linecap: butt}</style>
 </defs>
 <g id="figure_1">
  <g id="patch_1">
   <path d="M 0 324.864 
L 583.56 324.864 
L 583.56 0 
L 0 0 
L 0 324.864 
z
" style="fill: none"/>
  </g>
  <g id="axes_1">
   <g id="patch_2">
    <path d="M 390.038287 138.767063 
Q 318.41556 146.82395 248.459374 154.693368 
" clip-path="url(#p3f10d46ba8)" style="fill: none; opacity: 0.9; stroke: #6fd3ff; stroke-width: 1.5; stroke-linecap: round"/>
    <path d="M 253.917424 156.695787 
L 248.459374 154.693368 
L 253.336139 151.528378 
z
" clip-path="url(#p3f10d46ba8)" style="fill: #6fd3ff; opacity: 0.9; stroke: #6fd3ff; stroke-width: 1.5; stroke-linecap: round"/>
   </g>
   <g id="patch_3">
    <path d="M 268.48521 102.456912 
Q 254.856349 124.251688 242.116657 144.624537 
" clip-path="url(#p3f10d46ba8)" style="fill: none; opacity: 0.9; stroke: #6fd3ff; stroke-width: 1.5; stroke-linecap: round"/>
    <path d="M 247.078159 141.594109 
L 242.116657 144.624537 
L 242.669216 138.837078 
z
" clip-path="url(#p3f10d46ba8)" style="fill: #6fd3ff; opacity: 0.9; stroke: #6fd3ff; stroke-width: 1.5; stroke-linecap: round"/>
   </g>
   <g id="patch_4">
    <path d="M 117.184192 116.578981 
Q 170.337268 134.485083 221.901052 151.855788 
" clip-path="url(#p3f10d46ba8)" style="fill: none; opacity: 0.9; stroke: #6fd3ff; stroke-width: 1.5; stroke-linecap: round"/>
    <path d="M 217.803213 147.731747 
L 221.901052 151.855788 
L 216.143116 152.659635 
z
" clip-path="url(#p3f10d46ba8)" style="fill: #6fd3ff; opacity: 0.9; stroke: #6fd3ff; stroke-width: 1.5; stroke-linecap: round"/>
   </g>
   <g id="patch_5">
    <path d="M 79.689713 173.678377 
Q 151.31244 165.62149 221.268626 157.752072 
" clip-path="url(#p3f10d46ba8)" style="fill: none; opacity: 0.9; stroke: #6fd3ff; stroke-width: 1.5; stroke-linecap: round"/>
    <path d="M 215.810576 155.749653 
L 221.268626 157.752072 
L 216.391861 160.917062 
z
" clip-path="url(#p3f10d46ba8)" style="fill: #6fd3ff; opacity: 0.9; stroke: #6fd3ff; stroke-width: 1.5; stroke-linecap: round"/>
   </g>
   <g id="patch_6">
    <path d="M 201.24279 209.988528 
Q 214.871651 188.193752 227.611343 167.820903 
" clip-path="url(#p3f10d46ba8)" style="fill: none; opacity: 0.9; stroke: #6fd3ff; stroke-width: 1.5; stroke-linecap: round"/>
    <path d="M 222.649841 170.851331 
L 227.611343 167.820903 
L 227.058784 173.608362 
z
" clip-path="url(#p3f10d46ba8)" style="fill: #6fd3ff; opacity: 0.9; stroke: #6fd3ff; stroke-width: 1.5; stroke-linecap: round"/>
   </g>
   <g id="patch_7">
    <path d="M 352.543808 195.866459 
Q 299.390732 177.960357 247.826948 160.589652 
" clip-path="url(#p3f10d46ba8)" style="fill: none; opacity: 0.9; stroke: #6fd3ff; stroke-width: 1.5; stroke-linecap: round"/>
    <path d="M 251.924787 164.713693 
L 247.826948 160.589652 
L 253.584884 159.785805 
z
" clip-path="url(#p3f10d46ba8)" style="fill: #6fd3ff; opacity: 0.9; stroke: #6fd3ff; stroke-width: 1.5; stroke-linecap: round"/>
   </g>
   <g id="patch_8">
    <path d="M 265.319045 156.22272 
Q 362.922974 156.22272 458.290834 156.22272 
" clip-path="url(#p3f10d46ba8)" style="fill: none; stroke: #5ae0a0; stroke-width: 2; stroke-linecap: round"/>
    <path d="M 451.890834 153.02272 
L 458.290834 156.22272 
L 451.890834 159.42272 
z
" clip-path="url(#p3f10d46ba8)" style="fill: #5ae0a0; stroke: #5ae0a0; stroke-width: 2; stroke-linecap: round"/>
   </g>
   <g id="text_1">
    <!-- [ log1p_dist , signed_grad ] -->
    <g style="fill: #c8ccd2" transform="translate(341.360401 119.245203) scale(0.1 -0.1)">
     <defs>
      <path id="DejaVuSans-5b" d="M 550 4863 
L 1875 4863 
L 1875 4416 
L 1125 4416 
L 1125 -397 
L 1875 -397 
L 1875 -844 
L 550 -844 
L 550 4863 
z
" transform="scale(0.015625)"/>
      <path id="DejaVuSans-20" transform="scale(0.015625)"/>
      <path id="DejaVuSans-6c" d="M 603 4863 
L 1178 4863 
L 1178 0 
L 603 0 
L 603 4863 
z
" transform="scale(0.015625)"/>
      <path id="DejaVuSans-6f" d="M 1959 3097 
Q 1497 3097 1228 2736 
Q 959 2375 959 1747 
Q 959 1119 1226 758 
Q 1494 397 1959 397 
Q 2419 397 2687 759 
Q 2956 1122 2956 1747 
Q 2956 2369 2687 2733 
Q 2419 3097 1959 3097 
z
M 1959 3584 
Q 2709 3584 3137 3096 
Q 3566 2609 3566 1747 
Q 3566 888 3137 398 
Q 2709 -91 1959 -91 
Q 1206 -91 779 398 
Q 353 888 353 1747 
Q 353 2609 779 3096 
Q 1206 3584 1959 3584 
z
" transform="scale(0.015625)"/>
      <path id="DejaVuSans-67" d="M 2906 1791 
Q 2906 2416 2648 2759 
Q 2391 3103 1925 3103 
Q 1463 3103 1205 2759 
Q 947 2416 947 1791 
Q 947 1169 1205 825 
Q 1463 481 1925 481 
Q 2391 481 2648 825 
Q 2906 1169 2906 1791 
z
M 3481 434 
Q 3481 -459 3084 -895 
Q 2688 -1331 1869 -1331 
Q 1566 -1331 1297 -1286 
Q 1028 -1241 775 -1147 
L 775 -588 
Q 1028 -725 1275 -790 
Q 1522 -856 1778 -856 
Q 2344 -856 2625 -561 
Q 2906 -266 2906 331 
L 2906 616 
Q 2728 306 2450 153 
Q 2172 0 1784 0 
Q 1141 0 747 490 
Q 353 981 353 1791 
Q 353 2603 747 3093 
Q 1141 3584 1784 3584 
Q 2172 3584 2450 3431 
Q 2728 3278 2906 2969 
L 2906 3500 
L 3481 3500 
L 3481 434 
z
" transform="scale(0.015625)"/>
      <path id="DejaVuSans-31" d="M 794 531 
L 1825 531 
L 1825 4091 
L 703 3866 
L 703 4441 
L 1819 4666 
L 2450 4666 
L 2450 531 
L 3481 531 
L 3481 0 
L 794 0 
L 794 531 
z
" transform="scale(0.015625)"/>
      <path id="DejaVuSans-70" d="M 1159 525 
L 1159 -1331 
L 581 -1331 
L 581 3500 
L 1159 3500 
L 1159 2969 
Q 1341 3281 1617 3432 
Q 1894 3584 2278 3584 
Q 2916 3584 3314 3078 
Q 3713 2572 3713 1747 
Q 3713 922 3314 415 
Q 2916 -91 2278 -91 
Q 1894 -91 1617 61 
Q 1341 213 1159 525 
z
M 3116 1747 
Q 3116 2381 2855 2742 
Q 2594 3103 2138 3103 
Q 1681 3103 1420 2742 
Q 1159 2381 1159 1747 
Q 1159 1113 1420 752 
Q 1681 391 2138 391 
Q 2594 391 2855 752 
Q 3116 1113 3116 1747 
z
" transform="scale(0.015625)"/>
      <path id="DejaVuSans-5f" d="M 3263 -1063 
L 3263 -1509 
L -63 -1509 
L -63 -1063 
L 3263 -1063 
z
" transform="scale(0.015625)"/>
      <path id="DejaVuSans-64" d="M 2906 2969 
L 2906 4863 
L 3481 4863 
L 3481 0 
L 2906 0 
L 2906 525 
Q 2725 213 2448 61 
Q 2172 -91 1784 -91 
Q 1150 -91 751 415 
Q 353 922 353 1747 
Q 353 2572 751 3078 
Q 1150 3584 1784 3584 
Q 2172 3584 2448 3432 
Q 2725 3281 2906 2969 
z
M 947 1747 
Q 947 1113 1208 752 
Q 1469 391 1925 391 
Q 2381 391 2643 752 
Q 2906 1113 2906 1747 
Q 2906 2381 2643 2742 
Q 2381 3103 1925 3103 
Q 1469 3103 1208 2742 
Q 947 2381 947 1747 
z
" transform="scale(0.015625)"/>
      <path id="DejaVuSans-69" d="M 603 3500 
L 1178 3500 
L 1178 0 
L 603 0 
L 603 3500 
z
M 603 4863 
L 1178 4863 
L 1178 4134 
L 603 4134 
L 603 4863 
z
" transform="scale(0.015625)"/>
      <path id="DejaVuSans-73" d="M 2834 3397 
L 2834 2853 
Q 2591 2978 2328 3040 
Q 2066 3103 1784 3103 
Q 1356 3103 1142 2972 
Q 928 2841 928 2578 
Q 928 2378 1081 2264 
Q 1234 2150 1697 2047 
L 1894 2003 
Q 2506 1872 2764 1633 
Q 3022 1394 3022 966 
Q 3022 478 2636 193 
Q 2250 -91 1575 -91 
Q 1294 -91 989 -36 
Q 684 19 347 128 
L 347 722 
Q 666 556 975 473 
Q 1284 391 1588 391 
Q 1994 391 2212 530 
Q 2431 669 2431 922 
Q 2431 1156 2273 1281 
Q 2116 1406 1581 1522 
L 1381 1569 
Q 847 1681 609 1914 
Q 372 2147 372 2553 
Q 372 3047 722 3315 
Q 1072 3584 1716 3584 
Q 2034 3584 2315 3537 
Q 2597 3491 2834 3397 
z
" transform="scale(0.015625)"/>
      <path id="DejaVuSans-74" d="M 1172 4494 
L 1172 3500 
L 2356 3500 
L 2356 3053 
L 1172 3053 
L 1172 1153 
Q 1172 725 1289 603 
Q 1406 481 1766 481 
L 2356 481 
L 2356 0 
L 1766 0 
Q 1100 0 847 248 
Q 594 497 594 1153 
L 594 3053 
L 172 3053 
L 172 3500 
L 594 3500 
L 594 4494 
L 1172 4494 
z
" transform="scale(0.015625)"/>
      <path id="DejaVuSans-2c" d="M 750 794 
L 1409 794 
L 1409 256 
L 897 -744 
L 494 -744 
L 750 256 
L 750 794 
z
" transform="scale(0.015625)"/>
      <path id="DejaVuSans-6e" d="M 3513 2113 
L 3513 0 
L 2938 0 
L 2938 2094 
Q 2938 2591 2744 2837 
Q 2550 3084 2163 3084 
Q 1697 3084 1428 2787 
Q 1159 2491 1159 1978 
L 1159 0 
L 581 0 
L 581 3500 
L 1159 3500 
L 1159 2956 
Q 1366 3272 1645 3428 
Q 1925 3584 2291 3584 
Q 2894 3584 3203 3211 
Q 3513 2838 3513 2113 
z
" transform="scale(0.015625)"/>
      <path id="DejaVuSans-65" d="M 3597 1894 
L 3597 1613 
L 953 1613 
Q 991 1019 1311 708 
Q 1631 397 2203 397 
Q 2534 397 2845 478 
Q 3156 559 3463 722 
L 3463 178 
Q 3153 47 2828 -22 
Q 2503 -91 2169 -91 
Q 1331 -91 842 396 
Q 353 884 353 1716 
Q 353 2575 817 3079 
Q 1281 3584 2069 3584 
Q 2775 3584 3186 3129 
Q 3597 2675 3597 1894 
z
M 3022 2063 
Q 3016 2534 2758 2815 
Q 2500 3097 2075 3097 
Q 1594 3097 1305 2825 
Q 1016 2553 972 2059 
L 3022 2063 
z
" transform="scale(0.015625)"/>
      <path id="DejaVuSans-72" d="M 2631 2963 
Q 2534 3019 2420 3045 
Q 2306 3072 2169 3072 
Q 1681 3072 1420 2755 
Q 1159 2438 1159 1844 
L 1159 0 
L 581 0 
L 581 3500 
L 1159 3500 
L 1159 2956 
Q 1341 3275 1631 3429 
Q 1922 3584 2338 3584 
Q 2397 3584 2469 3576 
Q 2541 3569 2628 3553 
L 2631 2963 
z
" transform="scale(0.015625)"/>
      <path id="DejaVuSans-61" d="M 2194 1759 
Q 1497 1759 1228 1600 
Q 959 1441 959 1056 
Q 959 750 1161 570 
Q 1363 391 1709 391 
Q 2188 391 2477 730 
Q 2766 1069 2766 1631 
L 2766 1759 
L 2194 1759 
z
M 3341 1997 
L 3341 0 
L 2766 0 
L 2766 531 
Q 2569 213 2275 61 
Q 1981 -91 1556 -91 
Q 1019 -91 701 211 
Q 384 513 384 1019 
Q 384 1609 779 1909 
Q 1175 2209 1959 2209 
L 2766 2209 
L 2766 2266 
Q 2766 2663 2505 2880 
Q 2244 3097 1772 3097 
Q 1472 3097 1187 3025 
Q 903 2953 641 2809 
L 641 3341 
Q 956 3463 1253 3523 
Q 1550 3584 1831 3584 
Q 2591 3584 2966 3190 
Q 3341 2797 3341 1997 
z
" transform="scale(0.015625)"/>
      <path id="DejaVuSans-5d" d="M 1947 4863 
L 1947 -844 
L 622 -844 
L 622 -397 
L 1369 -397 
L 1369 4416 
L 622 4416 
L 622 4863 
L 1947 4863 
z
" transform="scale(0.015625)"/>
     </defs>
     <use xlink:href="#DejaVuSans-5b"/>
     <use xlink:href="#DejaVuSans-20" x="39.013672"/>
     <use xlink:href="#DejaVuSans-6c" x="70.800781"/>
     <use xlink:href="#DejaVuSans-6f" x="98.583984"/>
     <use xlink:href="#DejaVuSans-67" x="159.765625"/>
     <use xlink:href="#DejaVuSans-31" x="223.242188"/>
     <use xlink:href="#DejaVuSans-70" x="286.865234"/>
     <use xlink:href="#DejaVuSans-5f" x="350.341797"/>
     <use xlink:href="#DejaVuSans-64" x="400.341797"/>
     <use xlink:href="#DejaVuSans-69" x="463.818359"/>
     <use xlink:href="#DejaVuSans-73" x="491.601562"/>
     <use xlink:href="#DejaVuSans-74" x="543.701172"/>
     <use xlink:href="#DejaVuSans-20" x="582.910156"/>
     <use xlink:href="#DejaVuSans-2c" x="614.697266"/>
     <use xlink:href="#DejaVuSans-20" x="646.484375"/>
     <use xlink:href="#DejaVuSans-73" x="678.271484"/>
     <use xlink:href="#DejaVuSans-69" x="730.371094"/>
     <use xlink:href="#DejaVuSans-67" x="758.154297"/>
     <use xlink:href="#DejaVuSans-6e" x="821.630859"/>
     <use xlink:href="#DejaVuSans-65" x="885.009766"/>
     <use xlink:href="#DejaVuSans-64" x="946.533203"/>
     <use xlink:href="#DejaVuSans-5f" x="1010.009766"/>
     <use xlink:href="#DejaVuSans-67" x="1060.009766"/>
     <use xlink:href="#DejaVuSans-72" x="1123.486328"/>
     <use xlink:href="#DejaVuSans-61" x="1164.599609"/>
     <use xlink:href="#DejaVuSans-64" x="1225.878906"/>
     <use xlink:href="#DejaVuSans-20" x="1289.355469"/>
     <use xlink:href="#DejaVuSans-5d" x="1321.142578"/>
    </g>
   </g>
   <g id="text_2">
    <!-- p_outlier -->
    <g style="fill: #5ae0a0" transform="translate(473.412987 159.891157) scale(0.14 -0.14)">
     <defs>
      <path id="DejaVuSans-Bold-70" d="M 1656 506 
L 1656 -1331 
L 538 -1331 
L 538 3500 
L 1656 3500 
L 1656 2988 
Q 1888 3294 2169 3439 
Q 2450 3584 2816 3584 
Q 3463 3584 3878 3070 
Q 4294 2556 4294 1747 
Q 4294 938 3878 423 
Q 3463 -91 2816 -91 
Q 2450 -91 2169 54 
Q 1888 200 1656 506 
z
M 2400 2772 
Q 2041 2772 1848 2508 
Q 1656 2244 1656 1747 
Q 1656 1250 1848 986 
Q 2041 722 2400 722 
Q 2759 722 2948 984 
Q 3138 1247 3138 1747 
Q 3138 2247 2948 2509 
Q 2759 2772 2400 2772 
z
" transform="scale(0.015625)"/>
      <path id="DejaVuSans-Bold-5f" d="M 3200 -916 
L 3200 -1509 
L 0 -1509 
L 0 -916 
L 3200 -916 
z
" transform="scale(0.015625)"/>
      <path id="DejaVuSans-Bold-6f" d="M 2203 2784 
Q 1831 2784 1636 2517 
Q 1441 2250 1441 1747 
Q 1441 1244 1636 976 
Q 1831 709 2203 709 
Q 2569 709 2762 976 
Q 2956 1244 2956 1747 
Q 2956 2250 2762 2517 
Q 2569 2784 2203 2784 
z
M 2203 3584 
Q 3106 3584 3614 3096 
Q 4122 2609 4122 1747 
Q 4122 884 3614 396 
Q 3106 -91 2203 -91 
Q 1297 -91 786 396 
Q 275 884 275 1747 
Q 275 2609 786 3096 
Q 1297 3584 2203 3584 
z
" transform="scale(0.015625)"/>
      <path id="DejaVuSans-Bold-75" d="M 500 1363 
L 500 3500 
L 1625 3500 
L 1625 3150 
Q 1625 2866 1622 2436 
Q 1619 2006 1619 1863 
Q 1619 1441 1641 1255 
Q 1663 1069 1716 984 
Q 1784 875 1895 815 
Q 2006 756 2150 756 
Q 2500 756 2700 1025 
Q 2900 1294 2900 1772 
L 2900 3500 
L 4019 3500 
L 4019 0 
L 2900 0 
L 2900 506 
Q 2647 200 2364 54 
Q 2081 -91 1741 -91 
Q 1134 -91 817 281 
Q 500 653 500 1363 
z
" transform="scale(0.015625)"/>
      <path id="DejaVuSans-Bold-74" d="M 1759 4494 
L 1759 3500 
L 2913 3500 
L 2913 2700 
L 1759 2700 
L 1759 1216 
Q 1759 972 1856 886 
Q 1953 800 2241 800 
L 2816 800 
L 2816 0 
L 1856 0 
Q 1194 0 917 276 
Q 641 553 641 1216 
L 641 2700 
L 84 2700 
L 84 3500 
L 641 3500 
L 641 4494 
L 1759 4494 
z
" transform="scale(0.015625)"/>
      <path id="DejaVuSans-Bold-6c" d="M 538 4863 
L 1656 4863 
L 1656 0 
L 538 0 
L 538 4863 
z
" transform="scale(0.015625)"/>
      <path id="DejaVuSans-Bold-69" d="M 538 3500 
L 1656 3500 
L 1656 0 
L 538 0 
L 538 3500 
z
M 538 4863 
L 1656 4863 
L 1656 3950 
L 538 3950 
L 538 4863 
z
" transform="scale(0.015625)"/>
      <path id="DejaVuSans-Bold-65" d="M 4031 1759 
L 4031 1441 
L 1416 1441 
Q 1456 1047 1700 850 
Q 1944 653 2381 653 
Q 2734 653 3104 758 
Q 3475 863 3866 1075 
L 3866 213 
Q 3469 63 3072 -14 
Q 2675 -91 2278 -91 
Q 1328 -91 801 392 
Q 275 875 275 1747 
Q 275 2603 792 3093 
Q 1309 3584 2216 3584 
Q 3041 3584 3536 3087 
Q 4031 2591 4031 1759 
z
M 2881 2131 
Q 2881 2450 2695 2645 
Q 2509 2841 2209 2841 
Q 1884 2841 1681 2658 
Q 1478 2475 1428 2131 
L 2881 2131 
z
" transform="scale(0.015625)"/>
      <path id="DejaVuSans-Bold-72" d="M 3138 2547 
Q 2991 2616 2845 2648 
Q 2700 2681 2553 2681 
Q 2122 2681 1889 2404 
Q 1656 2128 1656 1613 
L 1656 0 
L 538 0 
L 538 3500 
L 1656 3500 
L 1656 2925 
Q 1872 3269 2151 3426 
Q 2431 3584 2822 3584 
Q 2878 3584 2943 3579 
Q 3009 3575 3134 3559 
L 3138 2547 
z
" transform="scale(0.015625)"/>
     </defs>
     <use xlink:href="#DejaVuSans-Bold-70"/>
     <use xlink:href="#DejaVuSans-Bold-5f" x="71.582031"/>
     <use xlink:href="#DejaVuSans-Bold-6f" x="121.582031"/>
     <use xlink:href="#DejaVuSans-Bold-75" x="190.283203"/>
     <use xlink:href="#DejaVuSans-Bold-74" x="261.474609"/>
     <use xlink:href="#DejaVuSans-Bold-6c" x="309.277344"/>
     <use xlink:href="#DejaVuSans-Bold-69" x="343.554688"/>
     <use xlink:href="#DejaVuSans-Bold-65" x="377.832031"/>
     <use xlink:href="#DejaVuSans-Bold-72" x="445.654297"/>
    </g>
   </g>
   <g id="text_3">
    <!-- each point's score is built from its neighbourhood — 3 layers + JumpingKnowledge -->
    <g style="fill: #ffffff" transform="translate(43.153125 280.40832) scale(0.12 -0.12)">
     <defs>
      <path id="DejaVuSans-63" d="M 3122 3366 
L 3122 2828 
Q 2878 2963 2633 3030 
Q 2388 3097 2138 3097 
Q 1578 3097 1268 2742 
Q 959 2388 959 1747 
Q 959 1106 1268 751 
Q 1578 397 2138 397 
Q 2388 397 2633 464 
Q 2878 531 3122 666 
L 3122 134 
Q 2881 22 2623 -34 
Q 2366 -91 2075 -91 
Q 1284 -91 818 406 
Q 353 903 353 1747 
Q 353 2603 823 3093 
Q 1294 3584 2113 3584 
Q 2378 3584 2631 3529 
Q 2884 3475 3122 3366 
z
" transform="scale(0.015625)"/>
      <path id="DejaVuSans-68" d="M 3513 2113 
L 3513 0 
L 2938 0 
L 2938 2094 
Q 2938 2591 2744 2837 
Q 2550 3084 2163 3084 
Q 1697 3084 1428 2787 
Q 1159 2491 1159 1978 
L 1159 0 
L 581 0 
L 581 4863 
L 1159 4863 
L 1159 2956 
Q 1366 3272 1645 3428 
Q 1925 3584 2291 3584 
Q 2894 3584 3203 3211 
Q 3513 2838 3513 2113 
z
" transform="scale(0.015625)"/>
      <path id="DejaVuSans-27" d="M 1147 4666 
L 1147 2931 
L 616 2931 
L 616 4666 
L 1147 4666 
z
" transform="scale(0.015625)"/>
      <path id="DejaVuSans-62" d="M 3116 1747 
Q 3116 2381 2855 2742 
Q 2594 3103 2138 3103 
Q 1681 3103 1420 2742 
Q 1159 2381 1159 1747 
Q 1159 1113 1420 752 
Q 1681 391 2138 391 
Q 2594 391 2855 752 
Q 3116 1113 3116 1747 
z
M 1159 2969 
Q 1341 3281 1617 3432 
Q 1894 3584 2278 3584 
Q 2916 3584 3314 3078 
Q 3713 2572 3713 1747 
Q 3713 922 3314 415 
Q 2916 -91 2278 -91 
Q 1894 -91 1617 61 
Q 1341 213 1159 525 
L 1159 0 
L 581 0 
L 581 4863 
L 1159 4863 
L 1159 2969 
z
" transform="scale(0.015625)"/>
      <path id="DejaVuSans-75" d="M 544 1381 
L 544 3500 
L 1119 3500 
L 1119 1403 
Q 1119 906 1312 657 
Q 1506 409 1894 409 
Q 2359 409 2629 706 
Q 2900 1003 2900 1516 
L 2900 3500 
L 3475 3500 
L 3475 0 
L 2900 0 
L 2900 538 
Q 2691 219 2414 64 
Q 2138 -91 1772 -91 
Q 1169 -91 856 284 
Q 544 659 544 1381 
z
M 1991 3584 
L 1991 3584 
z
" transform="scale(0.015625)"/>
      <path id="DejaVuSans-66" d="M 2375 4863 
L 2375 4384 
L 1825 4384 
Q 1516 4384 1395 4259 
Q 1275 4134 1275 3809 
L 1275 3500 
L 2222 3500 
L 2222 3053 
L 1275 3053 
L 1275 0 
L 697 0 
L 697 3053 
L 147 3053 
L 147 3500 
L 697 3500 
L 697 3744 
Q 697 4328 969 4595 
Q 1241 4863 1831 4863 
L 2375 4863 
z
" transform="scale(0.015625)"/>
      <path id="DejaVuSans-6d" d="M 3328 2828 
Q 3544 3216 3844 3400 
Q 4144 3584 4550 3584 
Q 5097 3584 5394 3201 
Q 5691 2819 5691 2113 
L 5691 0 
L 5113 0 
L 5113 2094 
Q 5113 2597 4934 2840 
Q 4756 3084 4391 3084 
Q 3944 3084 3684 2787 
Q 3425 2491 3425 1978 
L 3425 0 
L 2847 0 
L 2847 2094 
Q 2847 2600 2669 2842 
Q 2491 3084 2119 3084 
Q 1678 3084 1418 2786 
Q 1159 2488 1159 1978 
L 1159 0 
L 581 0 
L 581 3500 
L 1159 3500 
L 1159 2956 
Q 1356 3278 1631 3431 
Q 1906 3584 2284 3584 
Q 2666 3584 2933 3390 
Q 3200 3197 3328 2828 
z
" transform="scale(0.015625)"/>
      <path id="DejaVuSans-2014" d="M 313 1978 
L 6088 1978 
L 6088 1528 
L 313 1528 
L 313 1978 
z
" transform="scale(0.015625)"/>
      <path id="DejaVuSans-33" d="M 2597 2516 
Q 3050 2419 3304 2112 
Q 3559 1806 3559 1356 
Q 3559 666 3084 287 
Q 2609 -91 1734 -91 
Q 1441 -91 1130 -33 
Q 819 25 488 141 
L 488 750 
Q 750 597 1062 519 
Q 1375 441 1716 441 
Q 2309 441 2620 675 
Q 2931 909 2931 1356 
Q 2931 1769 2642 2001 
Q 2353 2234 1838 2234 
L 1294 2234 
L 1294 2753 
L 1863 2753 
Q 2328 2753 2575 2939 
Q 2822 3125 2822 3475 
Q 2822 3834 2567 4026 
Q 2313 4219 1838 4219 
Q 1578 4219 1281 4162 
Q 984 4106 628 3988 
L 628 4550 
Q 988 4650 1302 4700 
Q 1616 4750 1894 4750 
Q 2613 4750 3031 4423 
Q 3450 4097 3450 3541 
Q 3450 3153 3228 2886 
Q 3006 2619 2597 2516 
z
" transform="scale(0.015625)"/>
      <path id="DejaVuSans-79" d="M 2059 -325 
Q 1816 -950 1584 -1140 
Q 1353 -1331 966 -1331 
L 506 -1331 
L 506 -850 
L 844 -850 
Q 1081 -850 1212 -737 
Q 1344 -625 1503 -206 
L 1606 56 
L 191 3500 
L 800 3500 
L 1894 763 
L 2988 3500 
L 3597 3500 
L 2059 -325 
z
" transform="scale(0.015625)"/>
      <path id="DejaVuSans-2b" d="M 2944 4013 
L 2944 2272 
L 4684 2272 
L 4684 1741 
L 2944 1741 
L 2944 0 
L 2419 0 
L 2419 1741 
L 678 1741 
L 678 2272 
L 2419 2272 
L 2419 4013 
L 2944 4013 
z
" transform="scale(0.015625)"/>
      <path id="DejaVuSans-4a" d="M 628 4666 
L 1259 4666 
L 1259 325 
Q 1259 -519 939 -900 
Q 619 -1281 -91 -1281 
L -331 -1281 
L -331 -750 
L -134 -750 
Q 284 -750 456 -515 
Q 628 -281 628 325 
L 628 4666 
z
" transform="scale(0.015625)"/>
      <path id="DejaVuSans-4b" d="M 628 4666 
L 1259 4666 
L 1259 2694 
L 3353 4666 
L 4166 4666 
L 1850 2491 
L 4331 0 
L 3500 0 
L 1259 2247 
L 1259 0 
L 628 0 
L 628 4666 
z
" transform="scale(0.015625)"/>
      <path id="DejaVuSans-77" d="M 269 3500 
L 844 3500 
L 1563 769 
L 2278 3500 
L 2956 3500 
L 3675 769 
L 4391 3500 
L 4966 3500 
L 4050 0 
L 3372 0 
L 2619 2869 
L 1863 0 
L 1184 0 
L 269 3500 
z
" transform="scale(0.015625)"/>
     </defs>
     <use xlink:href="#DejaVuSans-65"/>
     <use xlink:href="#DejaVuSans-61" x="61.523438"/>
     <use xlink:href="#DejaVuSans-63" x="122.802734"/>
     <use xlink:href="#DejaVuSans-68" x="177.783203"/>
     <use xlink:href="#DejaVuSans-20" x="241.162109"/>
     <use xlink:href="#DejaVuSans-70" x="272.949219"/>
     <use xlink:href="#DejaVuSans-6f" x="336.425781"/>
     <use xlink:href="#DejaVuSans-69" x="397.607422"/>
     <use xlink:href="#DejaVuSans-6e" x="425.390625"/>
     <use xlink:href="#DejaVuSans-74" x="488.769531"/>
     <use xlink:href="#DejaVuSans-27" x="527.978516"/>
     <use xlink:href="#DejaVuSans-73" x="555.46875"/>
     <use xlink:href="#DejaVuSans-20" x="607.568359"/>
     <use xlink:href="#DejaVuSans-73" x="639.355469"/>
     <use xlink:href="#DejaVuSans-63" x="691.455078"/>
     <use xlink:href="#DejaVuSans-6f" x="746.435547"/>
     <use xlink:href="#DejaVuSans-72" x="807.617188"/>
     <use xlink:href="#DejaVuSans-65" x="846.480469"/>
     <use xlink:href="#DejaVuSans-20" x="908.003906"/>
     <use xlink:href="#DejaVuSans-69" x="939.791016"/>
     <use xlink:href="#DejaVuSans-73" x="967.574219"/>
     <use xlink:href="#DejaVuSans-20" x="1019.673828"/>
     <use xlink:href="#DejaVuSans-62" x="1051.460938"/>
     <use xlink:href="#DejaVuSans-75" x="1114.9375"/>
     <use xlink:href="#DejaVuSans-69" x="1178.316406"/>
     <use xlink:href="#DejaVuSans-6c" x="1206.099609"/>
     <use xlink:href="#DejaVuSans-74" x="1233.882812"/>
     <use xlink:href="#DejaVuSans-20" x="1273.091797"/>
     <use xlink:href="#DejaVuSans-66" x="1304.878906"/>
     <use xlink:href="#DejaVuSans-72" x="1340.083984"/>
     <use xlink:href="#DejaVuSans-6f" x="1378.947266"/>
     <use xlink:href="#DejaVuSans-6d" x="1440.128906"/>
     <use xlink:href="#DejaVuSans-20" x="1537.541016"/>
     <use xlink:href="#DejaVuSans-69" x="1569.328125"/>
     <use xlink:href="#DejaVuSans-74" x="1597.111328"/>
     <use xlink:href="#DejaVuSans-73" x="1636.320312"/>
     <use xlink:href="#DejaVuSans-20" x="1688.419922"/>
     <use xlink:href="#DejaVuSans-6e" x="1720.207031"/>
     <use xlink:href="#DejaVuSans-65" x="1783.585938"/>
     <use xlink:href="#DejaVuSans-69" x="1845.109375"/>
     <use xlink:href="#DejaVuSans-67" x="1872.892578"/>
     <use xlink:href="#DejaVuSans-68" x="1936.369141"/>
     <use xlink:href="#DejaVuSans-62" x="1999.748047"/>
     <use xlink:href="#DejaVuSans-6f" x="2063.224609"/>
     <use xlink:href="#DejaVuSans-75" x="2124.40625"/>
     <use xlink:href="#DejaVuSans-72" x="2187.785156"/>
     <use xlink:href="#DejaVuSans-68" x="2227.148438"/>
     <use xlink:href="#DejaVuSans-6f" x="2290.527344"/>
     <use xlink:href="#DejaVuSans-6f" x="2351.708984"/>
     <use xlink:href="#DejaVuSans-64" x="2412.890625"/>
     <use xlink:href="#DejaVuSans-20" x="2476.367188"/>
     <use xlink:href="#DejaVuSans-2014" x="2508.154297"/>
     <use xlink:href="#DejaVuSans-20" x="2608.154297"/>
     <use xlink:href="#DejaVuSans-33" x="2639.941406"/>
     <use xlink:href="#DejaVuSans-20" x="2703.564453"/>
     <use xlink:href="#DejaVuSans-6c" x="2735.351562"/>
     <use xlink:href="#DejaVuSans-61" x="2763.134766"/>
     <use xlink:href="#DejaVuSans-79" x="2824.414062"/>
     <use xlink:href="#DejaVuSans-65" x="2883.59375"/>
     <use xlink:href="#DejaVuSans-72" x="2945.117188"/>
     <use xlink:href="#DejaVuSans-73" x="2986.230469"/>
     <use xlink:href="#DejaVuSans-20" x="3038.330078"/>
     <use xlink:href="#DejaVuSans-2b" x="3070.117188"/>
     <use xlink:href="#DejaVuSans-20" x="3153.90625"/>
     <use xlink:href="#DejaVuSans-4a" x="3185.693359"/>
     <use xlink:href="#DejaVuSans-75" x="3215.185547"/>
     <use xlink:href="#DejaVuSans-6d" x="3278.564453"/>
     <use xlink:href="#DejaVuSans-70" x="3375.976562"/>
     <use xlink:href="#DejaVuSans-69" x="3439.453125"/>
     <use xlink:href="#DejaVuSans-6e" x="3467.236328"/>
     <use xlink:href="#DejaVuSans-67" x="3530.615234"/>
     <use xlink:href="#DejaVuSans-4b" x="3594.091797"/>
     <use xlink:href="#DejaVuSans-6e" x="3659.667969"/>
     <use xlink:href="#DejaVuSans-6f" x="3723.046875"/>
     <use xlink:href="#DejaVuSans-77" x="3784.228516"/>
     <use xlink:href="#DejaVuSans-6c" x="3866.015625"/>
     <use xlink:href="#DejaVuSans-65" x="3893.798828"/>
     <use xlink:href="#DejaVuSans-64" x="3955.322266"/>
     <use xlink:href="#DejaVuSans-67" x="4018.798828"/>
     <use xlink:href="#DejaVuSans-65" x="4082.275391"/>
    </g>
   </g>
   <g id="text_4">
    <!-- edge-gated: a smooth ramp passes, a sudden spike is flagged -->
    <g style="fill: #c8ccd2" transform="translate(128.203945 302.1408) scale(0.105 -0.105)">
     <defs>
      <path id="DejaVuSans-Oblique-65" d="M 3078 2063 
Q 3088 2113 3092 2166 
Q 3097 2219 3097 2272 
Q 3097 2653 2873 2875 
Q 2650 3097 2266 3097 
Q 1838 3097 1509 2826 
Q 1181 2556 1013 2059 
L 3078 2063 
z
M 3578 1613 
L 903 1613 
Q 884 1494 878 1425 
Q 872 1356 872 1306 
Q 872 872 1139 634 
Q 1406 397 1894 397 
Q 2269 397 2603 481 
Q 2938 566 3225 728 
L 3116 159 
Q 2806 34 2476 -28 
Q 2147 -91 1806 -91 
Q 1078 -91 686 257 
Q 294 606 294 1247 
Q 294 1794 489 2264 
Q 684 2734 1063 3103 
Q 1306 3334 1642 3459 
Q 1978 3584 2356 3584 
Q 2950 3584 3301 3228 
Q 3653 2872 3653 2272 
Q 3653 2128 3634 1964 
Q 3616 1800 3578 1613 
z
" transform="scale(0.015625)"/>
      <path id="DejaVuSans-Oblique-64" d="M 2675 525 
Q 2444 222 2128 65 
Q 1813 -91 1428 -91 
Q 903 -91 598 267 
Q 294 625 294 1247 
Q 294 1766 478 2236 
Q 663 2706 1013 3078 
Q 1244 3325 1534 3454 
Q 1825 3584 2144 3584 
Q 2481 3584 2739 3421 
Q 2997 3259 3138 2956 
L 3513 4863 
L 4091 4863 
L 3144 0 
L 2566 0 
L 2675 525 
z
M 891 1350 
Q 891 897 1095 644 
Q 1300 391 1663 391 
Q 1931 391 2161 520 
Q 2391 650 2566 903 
Q 2750 1166 2856 1509 
Q 2963 1853 2963 2188 
Q 2963 2622 2758 2865 
Q 2553 3109 2194 3109 
Q 1922 3109 1687 2981 
Q 1453 2853 1288 2613 
Q 1106 2353 998 2009 
Q 891 1666 891 1350 
z
" transform="scale(0.015625)"/>
      <path id="DejaVuSans-Oblique-67" d="M 3816 3500 
L 3219 434 
Q 3047 -456 2561 -893 
Q 2075 -1331 1253 -1331 
Q 950 -1331 690 -1286 
Q 431 -1241 206 -1147 
L 313 -588 
Q 525 -725 762 -790 
Q 1000 -856 1269 -856 
Q 1816 -856 2167 -557 
Q 2519 -259 2631 300 
L 2681 563 
Q 2441 288 2122 144 
Q 1803 0 1434 0 
Q 903 0 598 351 
Q 294 703 294 1319 
Q 294 1803 478 2267 
Q 663 2731 997 3091 
Q 1219 3328 1514 3456 
Q 1809 3584 2131 3584 
Q 2484 3584 2746 3420 
Q 3009 3256 3138 2956 
L 3238 3500 
L 3816 3500 
z
M 2950 2216 
Q 2950 2641 2750 2872 
Q 2550 3103 2181 3103 
Q 1953 3103 1747 3012 
Q 1541 2922 1394 2759 
Q 1156 2491 1023 2127 
Q 891 1763 891 1375 
Q 891 944 1092 712 
Q 1294 481 1672 481 
Q 2219 481 2584 976 
Q 2950 1472 2950 2216 
z
" transform="scale(0.015625)"/>
      <path id="DejaVuSans-Oblique-2d" d="M 391 2009 
L 2075 2009 
L 1978 1497 
L 288 1497 
L 391 2009 
z
" transform="scale(0.015625)"/>
      <path id="DejaVuSans-Oblique-61" d="M 3438 1997 
L 3047 0 
L 2472 0 
L 2578 531 
Q 2325 219 2001 64 
Q 1678 -91 1281 -91 
Q 834 -91 548 182 
Q 263 456 263 884 
Q 263 1497 752 1853 
Q 1241 2209 2100 2209 
L 2900 2209 
L 2931 2363 
Q 2938 2388 2941 2417 
Q 2944 2447 2944 2509 
Q 2944 2788 2717 2942 
Q 2491 3097 2081 3097 
Q 1800 3097 1504 3025 
Q 1209 2953 897 2809 
L 997 3341 
Q 1322 3463 1633 3523 
Q 1944 3584 2234 3584 
Q 2853 3584 3176 3315 
Q 3500 3047 3500 2534 
Q 3500 2431 3484 2292 
Q 3469 2153 3438 1997 
z
M 2816 1759 
L 2241 1759 
Q 1534 1759 1195 1570 
Q 856 1381 856 984 
Q 856 709 1029 553 
Q 1203 397 1509 397 
Q 1978 397 2328 733 
Q 2678 1069 2791 1631 
L 2816 1759 
z
" transform="scale(0.015625)"/>
      <path id="DejaVuSans-Oblique-74" d="M 2706 3500 
L 2619 3053 
L 1472 3053 
L 1100 1153 
Q 1081 1047 1072 975 
Q 1063 903 1063 863 
Q 1063 663 1183 572 
Q 1303 481 1569 481 
L 2150 481 
L 2053 0 
L 1503 0 
Q 991 0 739 200 
Q 488 400 488 806 
Q 488 878 497 964 
Q 506 1050 525 1153 
L 897 3053 
L 409 3053 
L 500 3500 
L 978 3500 
L 1172 4494 
L 1747 4494 
L 1556 3500 
L 2706 3500 
z
" transform="scale(0.015625)"/>
      <path id="DejaVuSans-Oblique-3a" d="M 978 3309 
L 1638 3309 
L 1484 2516 
L 825 2516 
L 978 3309 
z
M 488 794 
L 1147 794 
L 991 0 
L 331 0 
L 488 794 
z
" transform="scale(0.015625)"/>
      <path id="DejaVuSans-Oblique-20" transform="scale(0.015625)"/>
      <path id="DejaVuSans-Oblique-73" d="M 3200 3397 
L 3091 2853 
Q 2863 2978 2609 3040 
Q 2356 3103 2088 3103 
Q 1634 3103 1373 2948 
Q 1113 2794 1113 2528 
Q 1113 2219 1719 2053 
Q 1766 2041 1788 2034 
L 1972 1978 
Q 2547 1819 2739 1644 
Q 2931 1469 2931 1166 
Q 2931 609 2489 259 
Q 2047 -91 1331 -91 
Q 1053 -91 747 -37 
Q 441 16 72 128 
L 184 722 
Q 500 559 806 475 
Q 1113 391 1394 391 
Q 1816 391 2080 572 
Q 2344 753 2344 1031 
Q 2344 1331 1650 1516 
L 1591 1531 
L 1394 1581 
Q 956 1697 753 1886 
Q 550 2075 550 2369 
Q 550 2928 970 3256 
Q 1391 3584 2113 3584 
Q 2397 3584 2667 3537 
Q 2938 3491 3200 3397 
z
" transform="scale(0.015625)"/>
      <path id="DejaVuSans-Oblique-6d" d="M 5747 2113 
L 5338 0 
L 4763 0 
L 5166 2094 
Q 5191 2228 5203 2325 
Q 5216 2422 5216 2491 
Q 5216 2772 5059 2928 
Q 4903 3084 4622 3084 
Q 4203 3084 3875 2770 
Q 3547 2456 3450 1953 
L 3066 0 
L 2491 0 
L 2900 2094 
Q 2925 2209 2937 2307 
Q 2950 2406 2950 2484 
Q 2950 2769 2794 2926 
Q 2638 3084 2363 3084 
Q 1938 3084 1609 2770 
Q 1281 2456 1184 1953 
L 800 0 
L 225 0 
L 909 3500 
L 1484 3500 
L 1375 2956 
Q 1609 3263 1923 3423 
Q 2238 3584 2597 3584 
Q 2978 3584 3223 3384 
Q 3469 3184 3519 2828 
Q 3781 3197 4126 3390 
Q 4472 3584 4856 3584 
Q 5306 3584 5551 3325 
Q 5797 3066 5797 2591 
Q 5797 2488 5784 2364 
Q 5772 2241 5747 2113 
z
" transform="scale(0.015625)"/>
      <path id="DejaVuSans-Oblique-6f" d="M 1625 -91 
Q 1009 -91 651 289 
Q 294 669 294 1325 
Q 294 1706 417 2101 
Q 541 2497 738 2766 
Q 1047 3184 1428 3384 
Q 1809 3584 2291 3584 
Q 2888 3584 3255 3212 
Q 3622 2841 3622 2241 
Q 3622 1825 3500 1412 
Q 3378 1000 3181 728 
Q 2875 309 2494 109 
Q 2113 -91 1625 -91 
z
M 891 1344 
Q 891 869 1089 633 
Q 1288 397 1691 397 
Q 2269 397 2648 901 
Q 3028 1406 3028 2181 
Q 3028 2634 2825 2865 
Q 2622 3097 2228 3097 
Q 1903 3097 1650 2945 
Q 1397 2794 1197 2484 
Q 1050 2253 970 1956 
Q 891 1659 891 1344 
z
" transform="scale(0.015625)"/>
      <path id="DejaVuSans-Oblique-68" d="M 3566 2113 
L 3156 0 
L 2578 0 
L 2988 2091 
Q 3016 2238 3031 2350 
Q 3047 2463 3047 2528 
Q 3047 2791 2881 2937 
Q 2716 3084 2419 3084 
Q 1956 3084 1617 2771 
Q 1278 2459 1178 1941 
L 800 0 
L 225 0 
L 1172 4863 
L 1747 4863 
L 1375 2950 
Q 1594 3244 1934 3414 
Q 2275 3584 2650 3584 
Q 3113 3584 3367 3334 
Q 3622 3084 3622 2631 
Q 3622 2519 3608 2391 
Q 3594 2263 3566 2113 
z
" transform="scale(0.015625)"/>
      <path id="DejaVuSans-Oblique-72" d="M 2853 2969 
Q 2766 3016 2653 3041 
Q 2541 3066 2413 3066 
Q 1953 3066 1609 2717 
Q 1266 2369 1153 1784 
L 800 0 
L 225 0 
L 909 3500 
L 1484 3500 
L 1375 2956 
Q 1603 3259 1920 3421 
Q 2238 3584 2597 3584 
Q 2691 3584 2781 3573 
Q 2872 3563 2963 3538 
L 2853 2969 
z
" transform="scale(0.015625)"/>
      <path id="DejaVuSans-Oblique-70" d="M 3175 2156 
Q 3175 2616 2975 2859 
Q 2775 3103 2400 3103 
Q 2144 3103 1911 2972 
Q 1678 2841 1497 2591 
Q 1319 2344 1212 1994 
Q 1106 1644 1106 1300 
Q 1106 863 1306 627 
Q 1506 391 1875 391 
Q 2147 391 2380 519 
Q 2613 647 2778 891 
Q 2956 1147 3065 1494 
Q 3175 1841 3175 2156 
z
M 1394 2969 
Q 1625 3272 1939 3428 
Q 2253 3584 2638 3584 
Q 3175 3584 3472 3232 
Q 3769 2881 3769 2247 
Q 3769 1728 3584 1258 
Q 3400 788 3053 416 
Q 2822 169 2531 39 
Q 2241 -91 1919 -91 
Q 1547 -91 1294 64 
Q 1041 219 916 525 
L 556 -1331 
L -19 -1331 
L 922 3500 
L 1497 3500 
L 1394 2969 
z
" transform="scale(0.015625)"/>
      <path id="DejaVuSans-Oblique-2c" d="M 575 794 
L 1234 794 
L 1131 256 
L 422 -744 
L 19 -744 
L 469 256 
L 575 794 
z
" transform="scale(0.015625)"/>
      <path id="DejaVuSans-Oblique-75" d="M 428 1388 
L 838 3500 
L 1416 3500 
L 1006 1409 
Q 975 1256 961 1147 
Q 947 1038 947 966 
Q 947 700 1109 554 
Q 1272 409 1569 409 
Q 2031 409 2368 721 
Q 2706 1034 2809 1563 
L 3194 3500 
L 3769 3500 
L 3091 0 
L 2516 0 
L 2631 550 
Q 2388 244 2052 76 
Q 1716 -91 1338 -91 
Q 878 -91 622 161 
Q 366 413 366 863 
Q 366 956 381 1097 
Q 397 1238 428 1388 
z
" transform="scale(0.015625)"/>
      <path id="DejaVuSans-Oblique-6e" d="M 3566 2113 
L 3156 0 
L 2578 0 
L 2988 2091 
Q 3016 2238 3031 2350 
Q 3047 2463 3047 2528 
Q 3047 2791 2881 2937 
Q 2716 3084 2419 3084 
Q 1956 3084 1622 2776 
Q 1288 2469 1184 1941 
L 800 0 
L 225 0 
L 903 3500 
L 1478 3500 
L 1363 2950 
Q 1603 3253 1940 3418 
Q 2278 3584 2650 3584 
Q 3113 3584 3367 3334 
Q 3622 3084 3622 2631 
Q 3622 2519 3608 2391 
Q 3594 2263 3566 2113 
z
" transform="scale(0.015625)"/>
      <path id="DejaVuSans-Oblique-69" d="M 1172 4863 
L 1747 4863 
L 1606 4134 
L 1031 4134 
L 1172 4863 
z
M 909 3500 
L 1484 3500 
L 800 0 
L 225 0 
L 909 3500 
z
" transform="scale(0.015625)"/>
      <path id="DejaVuSans-Oblique-6b" d="M 1172 4863 
L 1747 4863 
L 1197 2028 
L 3169 3500 
L 3916 3500 
L 1716 1825 
L 3322 0 
L 2625 0 
L 1131 1709 
L 800 0 
L 225 0 
L 1172 4863 
z
" transform="scale(0.015625)"/>
      <path id="DejaVuSans-Oblique-66" d="M 3059 4863 
L 2969 4384 
L 2419 4384 
Q 2106 4384 1964 4261 
Q 1822 4138 1753 3809 
L 1691 3500 
L 2638 3500 
L 2553 3053 
L 1606 3053 
L 1013 0 
L 434 0 
L 1031 3053 
L 481 3053 
L 563 3500 
L 1113 3500 
L 1159 3744 
Q 1278 4363 1576 4613 
Q 1875 4863 2516 4863 
L 3059 4863 
z
" transform="scale(0.015625)"/>
      <path id="DejaVuSans-Oblique-6c" d="M 1172 4863 
L 1747 4863 
L 800 0 
L 225 0 
L 1172 4863 
z
" transform="scale(0.015625)"/>
     </defs>
     <use xlink:href="#DejaVuSans-Oblique-65"/>
     <use xlink:href="#DejaVuSans-Oblique-64" x="61.523438"/>
     <use xlink:href="#DejaVuSans-Oblique-67" x="125"/>
     <use xlink:href="#DejaVuSans-Oblique-65" x="188.476562"/>
     <use xlink:href="#DejaVuSans-Oblique-2d" x="250"/>
     <use xlink:href="#DejaVuSans-Oblique-67" x="286.083984"/>
     <use xlink:href="#DejaVuSans-Oblique-61" x="349.560547"/>
     <use xlink:href="#DejaVuSans-Oblique-74" x="410.839844"/>
     <use xlink:href="#DejaVuSans-Oblique-65" x="450.048828"/>
     <use xlink:href="#DejaVuSans-Oblique-64" x="511.572266"/>
     <use xlink:href="#DejaVuSans-Oblique-3a" x="575.048828"/>
     <use xlink:href="#DejaVuSans-Oblique-20" x="608.740234"/>
     <use xlink:href="#DejaVuSans-Oblique-61" x="640.527344"/>
     <use xlink:href="#DejaVuSans-Oblique-20" x="701.806641"/>
     <use xlink:href="#DejaVuSans-Oblique-73" x="733.59375"/>
     <use xlink:href="#DejaVuSans-Oblique-6d" x="785.693359"/>
     <use xlink:href="#DejaVuSans-Oblique-6f" x="883.105469"/>
     <use xlink:href="#DejaVuSans-Oblique-6f" x="944.287109"/>
     <use xlink:href="#DejaVuSans-Oblique-74" x="1005.46875"/>
     <use xlink:href="#DejaVuSans-Oblique-68" x="1044.677734"/>
     <use xlink:href="#DejaVuSans-Oblique-20" x="1108.056641"/>
     <use xlink:href="#DejaVuSans-Oblique-72" x="1139.84375"/>
     <use xlink:href="#DejaVuSans-Oblique-61" x="1180.957031"/>
     <use xlink:href="#DejaVuSans-Oblique-6d" x="1242.236328"/>
     <use xlink:href="#DejaVuSans-Oblique-70" x="1339.648438"/>
     <use xlink:href="#DejaVuSans-Oblique-20" x="1403.125"/>
     <use xlink:href="#DejaVuSans-Oblique-70" x="1434.912109"/>
     <use xlink:href="#DejaVuSans-Oblique-61" x="1498.388672"/>
     <use xlink:href="#DejaVuSans-Oblique-73" x="1559.667969"/>
     <use xlink:href="#DejaVuSans-Oblique-73" x="1611.767578"/>
     <use xlink:href="#DejaVuSans-Oblique-65" x="1663.867188"/>
     <use xlink:href="#DejaVuSans-Oblique-73" x="1725.390625"/>
     <use xlink:href="#DejaVuSans-Oblique-2c" x="1777.490234"/>
     <use xlink:href="#DejaVuSans-Oblique-20" x="1809.277344"/>
     <use xlink:href="#DejaVuSans-Oblique-61" x="1841.064453"/>
     <use xlink:href="#DejaVuSans-Oblique-20" x="1902.34375"/>
     <use xlink:href="#DejaVuSans-Oblique-73" x="1934.130859"/>
     <use xlink:href="#DejaVuSans-Oblique-75" x="1986.230469"/>
     <use xlink:href="#DejaVuSans-Oblique-64" x="2049.609375"/>
     <use xlink:href="#DejaVuSans-Oblique-64" x="2113.085938"/>
     <use xlink:href="#DejaVuSans-Oblique-65" x="2176.5625"/>
     <use xlink:href="#DejaVuSans-Oblique-6e" x="2238.085938"/>
     <use xlink:href="#DejaVuSans-Oblique-20" x="2301.464844"/>
     <use xlink:href="#DejaVuSans-Oblique-73" x="2333.251953"/>
     <use xlink:href="#DejaVuSans-Oblique-70" x="2385.351562"/>
     <use xlink:href="#DejaVuSans-Oblique-69" x="2448.828125"/>
     <use xlink:href="#DejaVuSans-Oblique-6b" x="2476.611328"/>
     <use xlink:href="#DejaVuSans-Oblique-65" x="2534.521484"/>
     <use xlink:href="#DejaVuSans-Oblique-20" x="2596.044922"/>
     <use xlink:href="#DejaVuSans-Oblique-69" x="2627.832031"/>
     <use xlink:href="#DejaVuSans-Oblique-73" x="2655.615234"/>
     <use xlink:href="#DejaVuSans-Oblique-20" x="2707.714844"/>
     <use xlink:href="#DejaVuSans-Oblique-66" x="2739.501953"/>
     <use xlink:href="#DejaVuSans-Oblique-6c" x="2774.707031"/>
     <use xlink:href="#DejaVuSans-Oblique-61" x="2802.490234"/>
     <use xlink:href="#DejaVuSans-Oblique-67" x="2863.769531"/>
     <use xlink:href="#DejaVuSans-Oblique-67" x="2927.246094"/>
     <use xlink:href="#DejaVuSans-Oblique-65" x="2990.722656"/>
     <use xlink:href="#DejaVuSans-Oblique-64" x="3052.246094"/>
    </g>
   </g>
   <g id="PathCollection_1">
    <defs>
     <path id="m9a1d3db1d4" d="M 0 5.244044 
C 1.390737 5.244044 2.7247 4.691499 3.708099 3.708099 
C 4.691499 2.7247 5.244044 1.390737 5.244044 0 
C 5.244044 -1.390737 4.691499 -2.7247 3.708099 -3.708099 
C 2.7247 -4.691499 1.390737 -5.244044 0 -5.244044 
C -1.390737 -5.244044 -2.7247 -4.691499 -3.708099 -3.708099 
C -4.691499 -2.7247 -5.244044 -1.390737 -5.244044 0 
C -5.244044 1.390737 -4.691499 2.7247 -3.708099 3.708099 
C -2.7247 4.691499 -1.390737 5.244044 0 5.244044 
z
" style="stroke: #000000; stroke-width: 0.4"/>
    </defs>
    <g clip-path="url(#p3f10d46ba8)">
     <use xlink:href="#m9a1d3db1d4" x="397.985795" y="137.873043" style="fill: #6fd3ff; stroke: #000000; stroke-width: 0.4"/>
    </g>
   </g>
   <g id="PathCollection_2">
    <g clip-path="url(#p3f10d46ba8)">
     <use xlink:href="#m9a1d3db1d4" x="272.725702" y="95.675672" style="fill: #6fd3ff; stroke: #000000; stroke-width: 0.4"/>
    </g>
   </g>
   <g id="PathCollection_3">
    <g clip-path="url(#p3f10d46ba8)">
     <use xlink:href="#m9a1d3db1d4" x="109.603907" y="114.025349" style="fill: #6fd3ff; stroke: #000000; stroke-width: 0.4"/>
    </g>
   </g>
   <g id="PathCollection_4">
    <g clip-path="url(#p3f10d46ba8)">
     <use xlink:href="#m9a1d3db1d4" x="71.742205" y="174.572397" style="fill: #6fd3ff; stroke: #000000; stroke-width: 0.4"/>
    </g>
   </g>
   <g id="PathCollection_5">
    <g clip-path="url(#p3f10d46ba8)">
     <use xlink:href="#m9a1d3db1d4" x="197.002298" y="216.769768" style="fill: #6fd3ff; stroke: #000000; stroke-width: 0.4"/>
    </g>
   </g>
   <g id="PathCollection_6">
    <g clip-path="url(#p3f10d46ba8)">
     <use xlink:href="#m9a1d3db1d4" x="360.124093" y="198.420091" style="fill: #6fd3ff; stroke: #000000; stroke-width: 0.4"/>
    </g>
   </g>
   <g id="PathCollection_7">
    <defs>
     <path id="m0ca4e2ebda" d="M 0 7.745967 
C 2.054254 7.745967 4.024648 6.929803 5.477226 5.477226 
C 6.929803 4.024648 7.745967 2.054254 7.745967 0 
C 7.745967 -2.054254 6.929803 -4.024648 5.477226 -5.477226 
C 4.024648 -6.929803 2.054254 -7.745967 0 -7.745967 
C -2.054254 -7.745967 -4.024648 -6.929803 -5.477226 -5.477226 
C -6.929803 -4.024648 -7.745967 -2.054254 -7.745967 0 
C -7.745967 2.054254 -6.929803 4.024648 -5.477226 5.477226 
C -4.024648 6.929803 -2.054254 7.745967 0 7.745967 
z
" style="stroke: #000000"/>
    </defs>
    <g clip-path="url(#p3f10d46ba8)">
     <use xlink:href="#m0ca4e2ebda" x="234.864" y="156.22272" style="fill: #ffffff; stroke: #000000"/>
    </g>
   </g>
  </g>
 </g>
 <defs>
  <clipPath id="p3f10d46ba8">
   <rect x="7.2" y="7.2" width="569.16" height="310.464"/>
  </clipPath>
 </defs>
</svg>
