<?xml version="1.0" encoding="utf-8" standalone="no"?>
<!DOCTYPE svg PUBLIC "-//W3C//DTD SVG 1.1//EN"
  "http://www.w3.org/Graphics/SVG/1.1/DTD/svg11.dtd">
<svg xmlns:xlink="http://www.w3.org/1999/xlink" width="604.8pt" height="370.8pt" viewBox="0 0 604.8 370.8" xmlns="http://www.w3.org/2000/svg" version="1.1">
 <metadata>
  <rdf:RDF xmlns:dc="http://purl.org/dc/elements/1.1/" xmlns:cc="http://creativecommons.org/ns#" xmlns:rdf="http://www.w3.org/1999/02/22-rdf-syntax-ns#">
   <cc:Work>
    <dc:type rdf:resource="http://purl.org/dc/dcmitype/StillImage"/>
    <dc:date>2026-06-09T13:31:21.787445</dc:date>
    <dc:format>image/svg+xml</dc:format>
    <dc:creator>
     <cc:Agent>
      <dc:title>Matplotlib v3.8.4, https://matplotlib.org/</dc:title>
     </cc:Agent>
    </dc:creator>
   </cc:Work>
  </rdf:RDF>
 </metadata>
 <defs>
  <style type="text/css">*{stroke-linejoin: round; stroke-linecap: butt}</style>
 </defs>
 <g id="figure_1">
  <g id="patch_1">
   <path d="M 0 370.8 
L 604.8 370.8 
L 604.8 0 
L 0 0 
L 0 370.8 
z
" style="fill: none; opacity: 0"/>
  </g>
  <g id="axes_1">
   <g id="patch_2">
    <path d="M 66.528 304.056 
L 592.704 304.056 
L 592.704 81.576 
L 66.528 81.576 
L 66.528 304.056 
z
" style="fill: none"/>
   </g>
   <g id="matplotlib.axis_1">
    <g id="xtick_1">
     <g id="line2d_1">
      <path d="M 74.265882 304.056 
L 74.265882 81.576 
" clip-path="url(#p8a9a9cdea1)" style="fill: none; stroke: #ffffff; stroke-opacity: 0.15; stroke-width: 0.8; stroke-linecap: square"/>
     </g>
     <g id="line2d_2">
      <defs>
       <path id="md75f475708" d="M 0 0 
L 0 3.5 
" style="stroke: #f7f8fb; stroke-width: 0.8"/>
      </defs>
      <g>
       <use xlink:href="#md75f475708" x="74.265882" y="304.056" style="fill: #f7f8fb; stroke: #f7f8fb; stroke-width: 0.8"/>
      </g>
     </g>
     <g id="text_1">
      <!-- 1 -->
      <g style="fill: #f7f8fb" transform="translate(70.130257 320.933969) scale(0.13 -0.13)">
       <defs>
        <path id="DejaVuSans-31" d="M 794 531 
L 1825 531 
L 1825 4091 
L 703 3866 
L 703 4441 
L 1819 4666 
L 2450 4666 
L 2450 531 
L 3481 531 
L 3481 0 
L 794 0 
L 794 531 
z
" transform="scale(0.015625)"/>
       </defs>
       <use xlink:href="#DejaVuSans-31"/>
      </g>
     </g>
    </g>
    <g id="xtick_2">
     <g id="line2d_3">
      <path d="M 136.168941 304.056 
L 136.168941 81.576 
" clip-path="url(#p8a9a9cdea1)" style="fill: none; stroke: #ffffff; stroke-opacity: 0.15; stroke-width: 0.8; stroke-linecap: square"/>
     </g>
     <g id="line2d_4">
      <g>
       <use xlink:href="#md75f475708" x="136.168941" y="304.056" style="fill: #f7f8fb; stroke: #f7f8fb; stroke-width: 0.8"/>
      </g>
     </g>
     <g id="text_2">
      <!-- 5 -->
      <g style="fill: #f7f8fb" transform="translate(132.033316 320.933969) scale(0.13 -0.13)">
       <defs>
        <path id="DejaVuSans-35" d="M 691 4666 
L 3169 4666 
L 3169 4134 
L 1269 4134 
L 1269 2991 
Q 1406 3038 1543 3061 
Q 1681 3084 1819 3084 
Q 2600 3084 3056 2656 
Q 3513 2228 3513 1497 
Q 3513 744 3044 326 
Q 2575 -91 1722 -91 
Q 1428 -91 1123 -41 
Q 819 9 494 109 
L 494 744 
Q 775 591 1075 516 
Q 1375 441 1709 441 
Q 2250 441 2565 725 
Q 2881 1009 2881 1497 
Q 2881 1984 2565 2268 
Q 2250 2553 1709 2553 
Q 1456 2553 1204 2497 
Q 953 2441 691 2322 
L 691 4666 
z
" transform="scale(0.015625)"/>
       </defs>
       <use xlink:href="#DejaVuSans-35"/>
      </g>
     </g>
    </g>
    <g id="xtick_3">
     <g id="line2d_5">
      <path d="M 198.072 304.056 
L 198.072 81.576 
" clip-path="url(#p8a9a9cdea1)" style="fill: none; stroke: #ffffff; stroke-opacity: 0.15; stroke-width: 0.8; stroke-linecap: square"/>
     </g>
     <g id="line2d_6">
      <g>
       <use xlink:href="#md75f475708" x="198.072" y="304.056" style="fill: #f7f8fb; stroke: #f7f8fb; stroke-width: 0.8"/>
      </g>
     </g>
     <g id="text_3">
      <!-- 9 -->
      <g style="fill: #f7f8fb" transform="translate(193.936375 320.933969) scale(0.13 -0.13)">
       <defs>
        <path id="DejaVuSans-39" d="M 703 97 
L 703 672 
Q 941 559 1184 500 
Q 1428 441 1663 441 
Q 2288 441 2617 861 
Q 2947 1281 2994 2138 
Q 2813 1869 2534 1725 
Q 2256 1581 1919 1581 
Q 1219 1581 811 2004 
Q 403 2428 403 3163 
Q 403 3881 828 4315 
Q 1253 4750 1959 4750 
Q 2769 4750 3195 4129 
Q 3622 3509 3622 2328 
Q 3622 1225 3098 567 
Q 2575 -91 1691 -91 
Q 1453 -91 1209 -44 
Q 966 3 703 97 
z
M 1959 2075 
Q 2384 2075 2632 2365 
Q 2881 2656 2881 3163 
Q 2881 3666 2632 3958 
Q 2384 4250 1959 4250 
Q 1534 4250 1286 3958 
Q 1038 3666 1038 3163 
Q 1038 2656 1286 2365 
Q 1534 2075 1959 2075 
z
" transform="scale(0.015625)"/>
       </defs>
       <use xlink:href="#DejaVuSans-39"/>
      </g>
     </g>
    </g>
    <g id="xtick_4">
     <g id="line2d_7">
      <path d="M 259.975059 304.056 
L 259.975059 81.576 
" clip-path="url(#p8a9a9cdea1)" style="fill: none; stroke: #ffffff; stroke-opacity: 0.15; stroke-width: 0.8; stroke-linecap: square"/>
     </g>
     <g id="line2d_8">
      <g>
       <use xlink:href="#md75f475708" x="259.975059" y="304.056" style="fill: #f7f8fb; stroke: #f7f8fb; stroke-width: 0.8"/>
      </g>
     </g>
     <g id="text_4">
      <!-- 13 -->
      <g style="fill: #f7f8fb" transform="translate(251.703809 320.933969) scale(0.13 -0.13)">
       <defs>
        <path id="DejaVuSans-33" d="M 2597 2516 
Q 3050 2419 3304 2112 
Q 3559 1806 3559 1356 
Q 3559 666 3084 287 
Q 2609 -91 1734 -91 
Q 1441 -91 1130 -33 
Q 819 25 488 141 
L 488 750 
Q 750 597 1062 519 
Q 1375 441 1716 441 
Q 2309 441 2620 675 
Q 2931 909 2931 1356 
Q 2931 1769 2642 2001 
Q 2353 2234 1838 2234 
L 1294 2234 
L 1294 2753 
L 1863 2753 
Q 2328 2753 2575 2939 
Q 2822 3125 2822 3475 
Q 2822 3834 2567 4026 
Q 2313 4219 1838 4219 
Q 1578 4219 1281 4162 
Q 984 4106 628 3988 
L 628 4550 
Q 988 4650 1302 4700 
Q 1616 4750 1894 4750 
Q 2613 4750 3031 4423 
Q 3450 4097 3450 3541 
Q 3450 3153 3228 2886 
Q 3006 2619 2597 2516 
z
" transform="scale(0.015625)"/>
       </defs>
       <use xlink:href="#DejaVuSans-31"/>
       <use xlink:href="#DejaVuSans-33" x="63.623047"/>
      </g>
     </g>
    </g>
    <g id="xtick_5">
     <g id="line2d_9">
      <path d="M 321.878118 304.056 
L 321.878118 81.576 
" clip-path="url(#p8a9a9cdea1)" style="fill: none; stroke: #ffffff; stroke-opacity: 0.15; stroke-width: 0.8; stroke-linecap: square"/>
     </g>
     <g id="line2d_10">
      <g>
       <use xlink:href="#md75f475708" x="321.878118" y="304.056" style="fill: #f7f8fb; stroke: #f7f8fb; stroke-width: 0.8"/>
      </g>
     </g>
     <g id="text_5">
      <!-- 17 -->
      <g style="fill: #f7f8fb" transform="translate(313.606868 320.933969) scale(0.13 -0.13)">
       <defs>
        <path id="DejaVuSans-37" d="M 525 4666 
L 3525 4666 
L 3525 4397 
L 1831 0 
L 1172 0 
L 2766 4134 
L 525 4134 
L 525 4666 
z
" transform="scale(0.015625)"/>
       </defs>
       <use xlink:href="#DejaVuSans-31"/>
       <use xlink:href="#DejaVuSans-37" x="63.623047"/>
      </g>
     </g>
    </g>
    <g id="xtick_6">
     <g id="line2d_11">
      <path d="M 383.781176 304.056 
L 383.781176 81.576 
" clip-path="url(#p8a9a9cdea1)" style="fill: none; stroke: #ffffff; stroke-opacity: 0.15; stroke-width: 0.8; stroke-linecap: square"/>
     </g>
     <g id="line2d_12">
      <g>
       <use xlink:href="#md75f475708" x="383.781176" y="304.056" style="fill: #f7f8fb; stroke: #f7f8fb; stroke-width: 0.8"/>
      </g>
     </g>
     <g id="text_6">
      <!-- 21 -->
      <g style="fill: #f7f8fb" transform="translate(375.509926 320.933969) scale(0.13 -0.13)">
       <defs>
        <path id="DejaVuSans-32" d="M 1228 531 
L 3431 531 
L 3431 0 
L 469 0 
L 469 531 
Q 828 903 1448 1529 
Q 2069 2156 2228 2338 
Q 2531 2678 2651 2914 
Q 2772 3150 2772 3378 
Q 2772 3750 2511 3984 
Q 2250 4219 1831 4219 
Q 1534 4219 1204 4116 
Q 875 4013 500 3803 
L 500 4441 
Q 881 4594 1212 4672 
Q 1544 4750 1819 4750 
Q 2544 4750 2975 4387 
Q 3406 4025 3406 3419 
Q 3406 3131 3298 2873 
Q 3191 2616 2906 2266 
Q 2828 2175 2409 1742 
Q 1991 1309 1228 531 
z
" transform="scale(0.015625)"/>
       </defs>
       <use xlink:href="#DejaVuSans-32"/>
       <use xlink:href="#DejaVuSans-31" x="63.623047"/>
      </g>
     </g>
    </g>
    <g id="xtick_7">
     <g id="line2d_13">
      <path d="M 445.684235 304.056 
L 445.684235 81.576 
" clip-path="url(#p8a9a9cdea1)" style="fill: none; stroke: #ffffff; stroke-opacity: 0.15; stroke-width: 0.8; stroke-linecap: square"/>
     </g>
     <g id="line2d_14">
      <g>
       <use xlink:href="#md75f475708" x="445.684235" y="304.056" style="fill: #f7f8fb; stroke: #f7f8fb; stroke-width: 0.8"/>
      </g>
     </g>
     <g id="text_7">
      <!-- 25 -->
      <g style="fill: #f7f8fb" transform="translate(437.412985 320.933969) scale(0.13 -0.13)">
       <use xlink:href="#DejaVuSans-32"/>
       <use xlink:href="#DejaVuSans-35" x="63.623047"/>
      </g>
     </g>
    </g>
    <g id="xtick_8">
     <g id="line2d_15">
      <path d="M 507.587294 304.056 
L 507.587294 81.576 
" clip-path="url(#p8a9a9cdea1)" style="fill: none; stroke: #ffffff; stroke-opacity: 0.15; stroke-width: 0.8; stroke-linecap: square"/>
     </g>
     <g id="line2d_16">
      <g>
       <use xlink:href="#md75f475708" x="507.587294" y="304.056" style="fill: #f7f8fb; stroke: #f7f8fb; stroke-width: 0.8"/>
      </g>
     </g>
     <g id="text_8">
      <!-- 29 -->
      <g style="fill: #f7f8fb" transform="translate(499.316044 320.933969) scale(0.13 -0.13)">
       <use xlink:href="#DejaVuSans-32"/>
       <use xlink:href="#DejaVuSans-39" x="63.623047"/>
      </g>
     </g>
    </g>
    <g id="xtick_9">
     <g id="line2d_17">
      <path d="M 584.966118 304.056 
L 584.966118 81.576 
" clip-path="url(#p8a9a9cdea1)" style="fill: none; stroke: #ffffff; stroke-opacity: 0.15; stroke-width: 0.8; stroke-linecap: square"/>
     </g>
     <g id="line2d_18">
      <g>
       <use xlink:href="#md75f475708" x="584.966118" y="304.056" style="fill: #f7f8fb; stroke: #f7f8fb; stroke-width: 0.8"/>
      </g>
     </g>
     <g id="text_9">
      <!-- 34 -->
      <g style="fill: #f7f8fb" transform="translate(576.694868 320.933969) scale(0.13 -0.13)">
       <defs>
        <path id="DejaVuSans-34" d="M 2419 4116 
L 825 1625 
L 2419 1625 
L 2419 4116 
z
M 2253 4666 
L 3047 4666 
L 3047 1625 
L 3713 1625 
L 3713 1100 
L 3047 1100 
L 3047 0 
L 2419 0 
L 2419 1100 
L 313 1100 
L 313 1709 
L 2253 4666 
z
" transform="scale(0.015625)"/>
       </defs>
       <use xlink:href="#DejaVuSans-33"/>
       <use xlink:href="#DejaVuSans-34" x="63.623047"/>
      </g>
     </g>
    </g>
    <g id="text_10">
     <!-- Epoch -->
     <g style="fill: #f7f8fb" transform="translate(303.587406 340.554906) scale(0.17 -0.17)">
      <defs>
       <path id="DejaVuSans-45" d="M 628 4666 
L 3578 4666 
L 3578 4134 
L 1259 4134 
L 1259 2753 
L 3481 2753 
L 3481 2222 
L 1259 2222 
L 1259 531 
L 3634 531 
L 3634 0 
L 628 0 
L 628 4666 
z
" transform="scale(0.015625)"/>
       <path id="DejaVuSans-70" d="M 1159 525 
L 1159 -1331 
L 581 -1331 
L 581 3500 
L 1159 3500 
L 1159 2969 
Q 1341 3281 1617 3432 
Q 1894 3584 2278 3584 
Q 2916 3584 3314 3078 
Q 3713 2572 3713 1747 
Q 3713 922 3314 415 
Q 2916 -91 2278 -91 
Q 1894 -91 1617 61 
Q 1341 213 1159 525 
z
M 3116 1747 
Q 3116 2381 2855 2742 
Q 2594 3103 2138 3103 
Q 1681 3103 1420 2742 
Q 1159 2381 1159 1747 
Q 1159 1113 1420 752 
Q 1681 391 2138 391 
Q 2594 391 2855 752 
Q 3116 1113 3116 1747 
z
" transform="scale(0.015625)"/>
       <path id="DejaVuSans-6f" d="M 1959 3097 
Q 1497 3097 1228 2736 
Q 959 2375 959 1747 
Q 959 1119 1226 758 
Q 1494 397 1959 397 
Q 2419 397 2687 759 
Q 2956 1122 2956 1747 
Q 2956 2369 2687 2733 
Q 2419 3097 1959 3097 
z
M 1959 3584 
Q 2709 3584 3137 3096 
Q 3566 2609 3566 1747 
Q 3566 888 3137 398 
Q 2709 -91 1959 -91 
Q 1206 -91 779 398 
Q 353 888 353 1747 
Q 353 2609 779 3096 
Q 1206 3584 1959 3584 
z
" transform="scale(0.015625)"/>
       <path id="DejaVuSans-63" d="M 3122 3366 
L 3122 2828 
Q 2878 2963 2633 3030 
Q 2388 3097 2138 3097 
Q 1578 3097 1268 2742 
Q 959 2388 959 1747 
Q 959 1106 1268 751 
Q 1578 397 2138 397 
Q 2388 397 2633 464 
Q 2878 531 3122 666 
L 3122 134 
Q 2881 22 2623 -34 
Q 2366 -91 2075 -91 
Q 1284 -91 818 406 
Q 353 903 353 1747 
Q 353 2603 823 3093 
Q 1294 3584 2113 3584 
Q 2378 3584 2631 3529 
Q 2884 3475 3122 3366 
z
" transform="scale(0.015625)"/>
       <path id="DejaVuSans-68" d="M 3513 2113 
L 3513 0 
L 2938 0 
L 2938 2094 
Q 2938 2591 2744 2837 
Q 2550 3084 2163 3084 
Q 1697 3084 1428 2787 
Q 1159 2491 1159 1978 
L 1159 0 
L 581 0 
L 581 4863 
L 1159 4863 
L 1159 2956 
Q 1366 3272 1645 3428 
Q 1925 3584 2291 3584 
Q 2894 3584 3203 3211 
Q 3513 2838 3513 2113 
z
" transform="scale(0.015625)"/>
      </defs>
      <use xlink:href="#DejaVuSans-45"/>
      <use xlink:href="#DejaVuSans-70" x="63.183594"/>
      <use xlink:href="#DejaVuSans-6f" x="126.660156"/>
      <use xlink:href="#DejaVuSans-63" x="187.841797"/>
      <use xlink:href="#DejaVuSans-68" x="242.822266"/>
     </g>
    </g>
   </g>
   <g id="matplotlib.axis_2">
    <g id="ytick_1">
     <g id="line2d_19">
      <path d="M 66.528 279.21038 
L 592.704 279.21038 
" clip-path="url(#p8a9a9cdea1)" style="fill: none; stroke: #ffffff; stroke-opacity: 0.15; stroke-width: 0.8; stroke-linecap: square"/>
     </g>
     <g id="line2d_20">
      <defs>
       <path id="m344d4b639c" d="M 0 0 
L -3.5 0 
" style="stroke: #f7f8fb; stroke-width: 0.8"/>
      </defs>
      <g>
       <use xlink:href="#m344d4b639c" x="66.528" y="279.21038" style="fill: #f7f8fb; stroke: #f7f8fb; stroke-width: 0.8"/>
      </g>
     </g>
     <g id="text_11">
      <!-- 0.8 -->
      <g style="fill: #f7f8fb" transform="translate(38.853938 284.149364) scale(0.13 -0.13)">
       <defs>
        <path id="DejaVuSans-30" d="M 2034 4250 
Q 1547 4250 1301 3770 
Q 1056 3291 1056 2328 
Q 1056 1369 1301 889 
Q 1547 409 2034 409 
Q 2525 409 2770 889 
Q 3016 1369 3016 2328 
Q 3016 3291 2770 3770 
Q 2525 4250 2034 4250 
z
M 2034 4750 
Q 2819 4750 3233 4129 
Q 3647 3509 3647 2328 
Q 3647 1150 3233 529 
Q 2819 -91 2034 -91 
Q 1250 -91 836 529 
Q 422 1150 422 2328 
Q 422 3509 836 4129 
Q 1250 4750 2034 4750 
z
" transform="scale(0.015625)"/>
        <path id="DejaVuSans-2e" d="M 684 794 
L 1344 794 
L 1344 0 
L 684 0 
L 684 794 
z
" transform="scale(0.015625)"/>
        <path id="DejaVuSans-38" d="M 2034 2216 
Q 1584 2216 1326 1975 
Q 1069 1734 1069 1313 
Q 1069 891 1326 650 
Q 1584 409 2034 409 
Q 2484 409 2743 651 
Q 3003 894 3003 1313 
Q 3003 1734 2745 1975 
Q 2488 2216 2034 2216 
z
M 1403 2484 
Q 997 2584 770 2862 
Q 544 3141 544 3541 
Q 544 4100 942 4425 
Q 1341 4750 2034 4750 
Q 2731 4750 3128 4425 
Q 3525 4100 3525 3541 
Q 3525 3141 3298 2862 
Q 3072 2584 2669 2484 
Q 3125 2378 3379 2068 
Q 3634 1759 3634 1313 
Q 3634 634 3220 271 
Q 2806 -91 2034 -91 
Q 1263 -91 848 271 
Q 434 634 434 1313 
Q 434 1759 690 2068 
Q 947 2378 1403 2484 
z
M 1172 3481 
Q 1172 3119 1398 2916 
Q 1625 2713 2034 2713 
Q 2441 2713 2670 2916 
Q 2900 3119 2900 3481 
Q 2900 3844 2670 4047 
Q 2441 4250 2034 4250 
Q 1625 4250 1398 4047 
Q 1172 3844 1172 3481 
z
" transform="scale(0.015625)"/>
       </defs>
       <use xlink:href="#DejaVuSans-30"/>
       <use xlink:href="#DejaVuSans-2e" x="63.623047"/>
       <use xlink:href="#DejaVuSans-38" x="95.410156"/>
      </g>
     </g>
    </g>
    <g id="ytick_2">
     <g id="line2d_21">
      <path d="M 66.528 250.614853 
L 592.704 250.614853 
" clip-path="url(#p8a9a9cdea1)" style="fill: none; stroke: #ffffff; stroke-opacity: 0.15; stroke-width: 0.8; stroke-linecap: square"/>
     </g>
     <g id="line2d_22">
      <g>
       <use xlink:href="#m344d4b639c" x="66.528" y="250.614853" style="fill: #f7f8fb; stroke: #f7f8fb; stroke-width: 0.8"/>
      </g>
     </g>
     <g id="text_12">
      <!-- 1.0 -->
      <g style="fill: #f7f8fb" transform="translate(38.853938 255.553838) scale(0.13 -0.13)">
       <use xlink:href="#DejaVuSans-31"/>
       <use xlink:href="#DejaVuSans-2e" x="63.623047"/>
       <use xlink:href="#DejaVuSans-30" x="95.410156"/>
      </g>
     </g>
    </g>
    <g id="ytick_3">
     <g id="line2d_23">
      <path d="M 66.528 222.019327 
L 592.704 222.019327 
" clip-path="url(#p8a9a9cdea1)" style="fill: none; stroke: #ffffff; stroke-opacity: 0.15; stroke-width: 0.8; stroke-linecap: square"/>
     </g>
     <g id="line2d_24">
      <g>
       <use xlink:href="#m344d4b639c" x="66.528" y="222.019327" style="fill: #f7f8fb; stroke: #f7f8fb; stroke-width: 0.8"/>
      </g>
     </g>
     <g id="text_13">
      <!-- 1.2 -->
      <g style="fill: #f7f8fb" transform="translate(38.853938 226.958311) scale(0.13 -0.13)">
       <use xlink:href="#DejaVuSans-31"/>
       <use xlink:href="#DejaVuSans-2e" x="63.623047"/>
       <use xlink:href="#DejaVuSans-32" x="95.410156"/>
      </g>
     </g>
    </g>
    <g id="ytick_4">
     <g id="line2d_25">
      <path d="M 66.528 193.4238 
L 592.704 193.4238 
" clip-path="url(#p8a9a9cdea1)" style="fill: none; stroke: #ffffff; stroke-opacity: 0.15; stroke-width: 0.8; stroke-linecap: square"/>
     </g>
     <g id="line2d_26">
      <g>
       <use xlink:href="#m344d4b639c" x="66.528" y="193.4238" style="fill: #f7f8fb; stroke: #f7f8fb; stroke-width: 0.8"/>
      </g>
     </g>
     <g id="text_14">
      <!-- 1.4 -->
      <g style="fill: #f7f8fb" transform="translate(38.853938 198.362784) scale(0.13 -0.13)">
       <use xlink:href="#DejaVuSans-31"/>
       <use xlink:href="#DejaVuSans-2e" x="63.623047"/>
       <use xlink:href="#DejaVuSans-34" x="95.410156"/>
      </g>
     </g>
    </g>
    <g id="ytick_5">
     <g id="line2d_27">
      <path d="M 66.528 164.828273 
L 592.704 164.828273 
" clip-path="url(#p8a9a9cdea1)" style="fill: none; stroke: #ffffff; stroke-opacity: 0.15; stroke-width: 0.8; stroke-linecap: square"/>
     </g>
     <g id="line2d_28">
      <g>
       <use xlink:href="#m344d4b639c" x="66.528" y="164.828273" style="fill: #f7f8fb; stroke: #f7f8fb; stroke-width: 0.8"/>
      </g>
     </g>
     <g id="text_15">
      <!-- 1.6 -->
      <g style="fill: #f7f8fb" transform="translate(38.853938 169.767257) scale(0.13 -0.13)">
       <defs>
        <path id="DejaVuSans-36" d="M 2113 2584 
Q 1688 2584 1439 2293 
Q 1191 2003 1191 1497 
Q 1191 994 1439 701 
Q 1688 409 2113 409 
Q 2538 409 2786 701 
Q 3034 994 3034 1497 
Q 3034 2003 2786 2293 
Q 2538 2584 2113 2584 
z
M 3366 4563 
L 3366 3988 
Q 3128 4100 2886 4159 
Q 2644 4219 2406 4219 
Q 1781 4219 1451 3797 
Q 1122 3375 1075 2522 
Q 1259 2794 1537 2939 
Q 1816 3084 2150 3084 
Q 2853 3084 3261 2657 
Q 3669 2231 3669 1497 
Q 3669 778 3244 343 
Q 2819 -91 2113 -91 
Q 1303 -91 875 529 
Q 447 1150 447 2328 
Q 447 3434 972 4092 
Q 1497 4750 2381 4750 
Q 2619 4750 2861 4703 
Q 3103 4656 3366 4563 
z
" transform="scale(0.015625)"/>
       </defs>
       <use xlink:href="#DejaVuSans-31"/>
       <use xlink:href="#DejaVuSans-2e" x="63.623047"/>
       <use xlink:href="#DejaVuSans-36" x="95.410156"/>
      </g>
     </g>
    </g>
    <g id="ytick_6">
     <g id="line2d_29">
      <path d="M 66.528 136.232746 
L 592.704 136.232746 
" clip-path="url(#p8a9a9cdea1)" style="fill: none; stroke: #ffffff; stroke-opacity: 0.15; stroke-width: 0.8; stroke-linecap: square"/>
     </g>
     <g id="line2d_30">
      <g>
       <use xlink:href="#m344d4b639c" x="66.528" y="136.232746" style="fill: #f7f8fb; stroke: #f7f8fb; stroke-width: 0.8"/>
      </g>
     </g>
     <g id="text_16">
      <!-- 1.8 -->
      <g style="fill: #f7f8fb" transform="translate(38.853938 141.171731) scale(0.13 -0.13)">
       <use xlink:href="#DejaVuSans-31"/>
       <use xlink:href="#DejaVuSans-2e" x="63.623047"/>
       <use xlink:href="#DejaVuSans-38" x="95.410156"/>
      </g>
     </g>
    </g>
    <g id="ytick_7">
     <g id="line2d_31">
      <path d="M 66.528 107.63722 
L 592.704 107.63722 
" clip-path="url(#p8a9a9cdea1)" style="fill: none; stroke: #ffffff; stroke-opacity: 0.15; stroke-width: 0.8; stroke-linecap: square"/>
     </g>
     <g id="line2d_32">
      <g>
       <use xlink:href="#m344d4b639c" x="66.528" y="107.63722" style="fill: #f7f8fb; stroke: #f7f8fb; stroke-width: 0.8"/>
      </g>
     </g>
     <g id="text_17">
      <!-- 2.0 -->
      <g style="fill: #f7f8fb" transform="translate(38.853938 112.576204) scale(0.13 -0.13)">
       <use xlink:href="#DejaVuSans-32"/>
       <use xlink:href="#DejaVuSans-2e" x="63.623047"/>
       <use xlink:href="#DejaVuSans-30" x="95.410156"/>
      </g>
     </g>
    </g>
    <g id="text_18">
     <!-- Loss -->
     <g style="fill: #f7f8fb" transform="translate(31.318469 211.460219) rotate(-90) scale(0.17 -0.17)">
      <defs>
       <path id="DejaVuSans-4c" d="M 628 4666 
L 1259 4666 
L 1259 531 
L 3531 531 
L 3531 0 
L 628 0 
L 628 4666 
z
" transform="scale(0.015625)"/>
       <path id="DejaVuSans-73" d="M 2834 3397 
L 2834 2853 
Q 2591 2978 2328 3040 
Q 2066 3103 1784 3103 
Q 1356 3103 1142 2972 
Q 928 2841 928 2578 
Q 928 2378 1081 2264 
Q 1234 2150 1697 2047 
L 1894 2003 
Q 2506 1872 2764 1633 
Q 3022 1394 3022 966 
Q 3022 478 2636 193 
Q 2250 -91 1575 -91 
Q 1294 -91 989 -36 
Q 684 19 347 128 
L 347 722 
Q 666 556 975 473 
Q 1284 391 1588 391 
Q 1994 391 2212 530 
Q 2431 669 2431 922 
Q 2431 1156 2273 1281 
Q 2116 1406 1581 1522 
L 1381 1569 
Q 847 1681 609 1914 
Q 372 2147 372 2553 
Q 372 3047 722 3315 
Q 1072 3584 1716 3584 
Q 2034 3584 2315 3537 
Q 2597 3491 2834 3397 
z
" transform="scale(0.015625)"/>
      </defs>
      <use xlink:href="#DejaVuSans-4c"/>
      <use xlink:href="#DejaVuSans-6f" x="53.962891"/>
      <use xlink:href="#DejaVuSans-73" x="115.144531"/>
      <use xlink:href="#DejaVuSans-73" x="167.244141"/>
     </g>
    </g>
   </g>
   <g id="line2d_33">
    <path d="M 74.265882 107.311974 
L 89.741647 135.177642 
L 105.217412 147.682828 
L 120.693176 157.760499 
L 136.168941 166.12984 
L 151.644706 174.260408 
L 167.120471 180.697372 
L 182.596235 187.943129 
L 198.072 194.229414 
L 213.547765 200.345645 
L 229.023529 208.254962 
L 244.499294 212.052873 
L 259.975059 217.585578 
L 275.450824 223.669297 
L 290.926588 229.747696 
L 306.402353 234.37925 
L 321.878118 239.37744 
L 337.353882 244.367464 
L 352.829647 246.922609 
L 368.305412 250.412439 
L 383.781176 254.451867 
L 399.256941 259.017999 
L 414.732706 262.344577 
L 430.208471 265.345698 
L 445.684235 268.485695 
L 461.16 269.219491 
L 476.635765 272.402429 
L 492.111529 275.924126 
L 507.587294 276.710186 
L 523.063059 279.629981 
L 538.538824 280.128615 
L 554.014588 282.607451 
L 569.490353 286.840944 
L 584.966118 286.898684 
" clip-path="url(#p8a9a9cdea1)" style="fill: none; stroke: #6bd6ff; stroke-width: 2.8; stroke-linecap: square"/>
    <defs>
     <path id="m3225ea84d9" d="M 0 2.3 
C 0.609967 2.3 1.195034 2.057657 1.626346 1.626346 
C 2.057657 1.195034 2.3 0.609967 2.3 0 
C 2.3 -0.609967 2.057657 -1.195034 1.626346 -1.626346 
C 1.195034 -2.057657 0.609967 -2.3 0 -2.3 
C -0.609967 -2.3 -1.195034 -2.057657 -1.626346 -1.626346 
C -2.057657 -1.195034 -2.3 -0.609967 -2.3 0 
C -2.3 0.609967 -2.057657 1.195034 -1.626346 1.626346 
C -1.195034 2.057657 -0.609967 2.3 0 2.3 
z
" style="stroke: #6bd6ff; stroke-width: 1.2"/>
    </defs>
    <g clip-path="url(#p8a9a9cdea1)">
     <use xlink:href="#m3225ea84d9" x="74.265882" y="107.311974" style="fill: #0b111a; stroke: #6bd6ff; stroke-width: 1.2"/>
     <use xlink:href="#m3225ea84d9" x="89.741647" y="135.177642" style="fill: #0b111a; stroke: #6bd6ff; stroke-width: 1.2"/>
     <use xlink:href="#m3225ea84d9" x="105.217412" y="147.682828" style="fill: #0b111a; stroke: #6bd6ff; stroke-width: 1.2"/>
     <use xlink:href="#m3225ea84d9" x="120.693176" y="157.760499" style="fill: #0b111a; stroke: #6bd6ff; stroke-width: 1.2"/>
     <use xlink:href="#m3225ea84d9" x="136.168941" y="166.12984" style="fill: #0b111a; stroke: #6bd6ff; stroke-width: 1.2"/>
     <use xlink:href="#m3225ea84d9" x="151.644706" y="174.260408" style="fill: #0b111a; stroke: #6bd6ff; stroke-width: 1.2"/>
     <use xlink:href="#m3225ea84d9" x="167.120471" y="180.697372" style="fill: #0b111a; stroke: #6bd6ff; stroke-width: 1.2"/>
     <use xlink:href="#m3225ea84d9" x="182.596235" y="187.943129" style="fill: #0b111a; stroke: #6bd6ff; stroke-width: 1.2"/>
     <use xlink:href="#m3225ea84d9" x="198.072" y="194.229414" style="fill: #0b111a; stroke: #6bd6ff; stroke-width: 1.2"/>
     <use xlink:href="#m3225ea84d9" x="213.547765" y="200.345645" style="fill: #0b111a; stroke: #6bd6ff; stroke-width: 1.2"/>
     <use xlink:href="#m3225ea84d9" x="229.023529" y="208.254962" style="fill: #0b111a; stroke: #6bd6ff; stroke-width: 1.2"/>
     <use xlink:href="#m3225ea84d9" x="244.499294" y="212.052873" style="fill: #0b111a; stroke: #6bd6ff; stroke-width: 1.2"/>
     <use xlink:href="#m3225ea84d9" x="259.975059" y="217.585578" style="fill: #0b111a; stroke: #6bd6ff; stroke-width: 1.2"/>
     <use xlink:href="#m3225ea84d9" x="275.450824" y="223.669297" style="fill: #0b111a; stroke: #6bd6ff; stroke-width: 1.2"/>
     <use xlink:href="#m3225ea84d9" x="290.926588" y="229.747696" style="fill: #0b111a; stroke: #6bd6ff; stroke-width: 1.2"/>
     <use xlink:href="#m3225ea84d9" x="306.402353" y="234.37925" style="fill: #0b111a; stroke: #6bd6ff; stroke-width: 1.2"/>
     <use xlink:href="#m3225ea84d9" x="321.878118" y="239.37744" style="fill: #0b111a; stroke: #6bd6ff; stroke-width: 1.2"/>
     <use xlink:href="#m3225ea84d9" x="337.353882" y="244.367464" style="fill: #0b111a; stroke: #6bd6ff; stroke-width: 1.2"/>
     <use xlink:href="#m3225ea84d9" x="352.829647" y="246.922609" style="fill: #0b111a; stroke: #6bd6ff; stroke-width: 1.2"/>
     <use xlink:href="#m3225ea84d9" x="368.305412" y="250.412439" style="fill: #0b111a; stroke: #6bd6ff; stroke-width: 1.2"/>
     <use xlink:href="#m3225ea84d9" x="383.781176" y="254.451867" style="fill: #0b111a; stroke: #6bd6ff; stroke-width: 1.2"/>
     <use xlink:href="#m3225ea84d9" x="399.256941" y="259.017999" style="fill: #0b111a; stroke: #6bd6ff; stroke-width: 1.2"/>
     <use xlink:href="#m3225ea84d9" x="414.732706" y="262.344577" style="fill: #0b111a; stroke: #6bd6ff; stroke-width: 1.2"/>
     <use xlink:href="#m3225ea84d9" x="430.208471" y="265.345698" style="fill: #0b111a; stroke: #6bd6ff; stroke-width: 1.2"/>
     <use xlink:href="#m3225ea84d9" x="445.684235" y="268.485695" style="fill: #0b111a; stroke: #6bd6ff; stroke-width: 1.2"/>
     <use xlink:href="#m3225ea84d9" x="461.16" y="269.219491" style="fill: #0b111a; stroke: #6bd6ff; stroke-width: 1.2"/>
     <use xlink:href="#m3225ea84d9" x="476.635765" y="272.402429" style="fill: #0b111a; stroke: #6bd6ff; stroke-width: 1.2"/>
     <use xlink:href="#m3225ea84d9" x="492.111529" y="275.924126" style="fill: #0b111a; stroke: #6bd6ff; stroke-width: 1.2"/>
     <use xlink:href="#m3225ea84d9" x="507.587294" y="276.710186" style="fill: #0b111a; stroke: #6bd6ff; stroke-width: 1.2"/>
     <use xlink:href="#m3225ea84d9" x="523.063059" y="279.629981" style="fill: #0b111a; stroke: #6bd6ff; stroke-width: 1.2"/>
     <use xlink:href="#m3225ea84d9" x="538.538824" y="280.128615" style="fill: #0b111a; stroke: #6bd6ff; stroke-width: 1.2"/>
     <use xlink:href="#m3225ea84d9" x="554.014588" y="282.607451" style="fill: #0b111a; stroke: #6bd6ff; stroke-width: 1.2"/>
     <use xlink:href="#m3225ea84d9" x="569.490353" y="286.840944" style="fill: #0b111a; stroke: #6bd6ff; stroke-width: 1.2"/>
     <use xlink:href="#m3225ea84d9" x="584.966118" y="286.898684" style="fill: #0b111a; stroke: #6bd6ff; stroke-width: 1.2"/>
    </g>
   </g>
   <g id="line2d_34">
    <path d="M 74.265882 171.314344 
L 89.741647 169.88157 
L 105.217412 187.650111 
L 120.693176 191.358107 
L 136.168941 190.922711 
L 151.644706 201.741079 
L 167.120471 193.973617 
L 182.596235 204.652921 
L 198.072 212.859972 
L 213.547765 224.654993 
L 229.023529 220.36485 
L 244.499294 226.517471 
L 259.975059 229.198244 
L 275.450824 221.008459 
L 290.926588 242.527266 
L 306.402353 239.607839 
L 321.878118 242.745143 
L 337.353882 237.269827 
L 352.829647 226.566473 
L 368.305412 233.614514 
L 383.781176 253.256731 
L 399.256941 243.550637 
L 414.732706 243.841054 
L 430.208471 254.930409 
L 445.684235 237.288183 
L 461.16 253.771025 
L 476.635765 248.835841 
L 492.111529 244.53571 
L 507.587294 254.604012 
L 523.063059 254.05107 
L 538.538824 242.173256 
L 554.014588 248.284494 
L 569.490353 250.465511 
L 584.966118 250.649999 
" clip-path="url(#p8a9a9cdea1)" style="fill: none; stroke-dasharray: 8.14,3.52; stroke-dashoffset: 0; stroke: #6bd6ff; stroke-opacity: 0.92; stroke-width: 2.2"/>
    <defs>
     <path id="m33cb12918e" d="M 0 -2.2 
L -2.2 2.2 
L 2.2 2.2 
z
" style="stroke: #6bd6ff; stroke-opacity: 0.92; stroke-width: 1.1; stroke-linejoin: miter"/>
    </defs>
    <g clip-path="url(#p8a9a9cdea1)">
     <use xlink:href="#m33cb12918e" x="74.265882" y="171.314344" style="fill: #0b111a; fill-opacity: 0.92; stroke: #6bd6ff; stroke-opacity: 0.92; stroke-width: 1.1; stroke-linejoin: miter"/>
     <use xlink:href="#m33cb12918e" x="89.741647" y="169.88157" style="fill: #0b111a; fill-opacity: 0.92; stroke: #6bd6ff; stroke-opacity: 0.92; stroke-width: 1.1; stroke-linejoin: miter"/>
     <use xlink:href="#m33cb12918e" x="105.217412" y="187.650111" style="fill: #0b111a; fill-opacity: 0.92; stroke: #6bd6ff; stroke-opacity: 0.92; stroke-width: 1.1; stroke-linejoin: miter"/>
     <use xlink:href="#m33cb12918e" x="120.693176" y="191.358107" style="fill: #0b111a; fill-opacity: 0.92; stroke: #6bd6ff; stroke-opacity: 0.92; stroke-width: 1.1; stroke-linejoin: miter"/>
     <use xlink:href="#m33cb12918e" x="136.168941" y="190.922711" style="fill: #0b111a; fill-opacity: 0.92; stroke: #6bd6ff; stroke-opacity: 0.92; stroke-width: 1.1; stroke-linejoin: miter"/>
     <use xlink:href="#m33cb12918e" x="151.644706" y="201.741079" style="fill: #0b111a; fill-opacity: 0.92; stroke: #6bd6ff; stroke-opacity: 0.92; stroke-width: 1.1; stroke-linejoin: miter"/>
     <use xlink:href="#m33cb12918e" x="167.120471" y="193.973617" style="fill: #0b111a; fill-opacity: 0.92; stroke: #6bd6ff; stroke-opacity: 0.92; stroke-width: 1.1; stroke-linejoin: miter"/>
     <use xlink:href="#m33cb12918e" x="182.596235" y="204.652921" style="fill: #0b111a; fill-opacity: 0.92; stroke: #6bd6ff; stroke-opacity: 0.92; stroke-width: 1.1; stroke-linejoin: miter"/>
     <use xlink:href="#m33cb12918e" x="198.072" y="212.859972" style="fill: #0b111a; fill-opacity: 0.92; stroke: #6bd6ff; stroke-opacity: 0.92; stroke-width: 1.1; stroke-linejoin: miter"/>
     <use xlink:href="#m33cb12918e" x="213.547765" y="224.654993" style="fill: #0b111a; fill-opacity: 0.92; stroke: #6bd6ff; stroke-opacity: 0.92; stroke-width: 1.1; stroke-linejoin: miter"/>
     <use xlink:href="#m33cb12918e" x="229.023529" y="220.36485" style="fill: #0b111a; fill-opacity: 0.92; stroke: #6bd6ff; stroke-opacity: 0.92; stroke-width: 1.1; stroke-linejoin: miter"/>
     <use xlink:href="#m33cb12918e" x="244.499294" y="226.517471" style="fill: #0b111a; fill-opacity: 0.92; stroke: #6bd6ff; stroke-opacity: 0.92; stroke-width: 1.1; stroke-linejoin: miter"/>
     <use xlink:href="#m33cb12918e" x="259.975059" y="229.198244" style="fill: #0b111a; fill-opacity: 0.92; stroke: #6bd6ff; stroke-opacity: 0.92; stroke-width: 1.1; stroke-linejoin: miter"/>
     <use xlink:href="#m33cb12918e" x="275.450824" y="221.008459" style="fill: #0b111a; fill-opacity: 0.92; stroke: #6bd6ff; stroke-opacity: 0.92; stroke-width: 1.1; stroke-linejoin: miter"/>
     <use xlink:href="#m33cb12918e" x="290.926588" y="242.527266" style="fill: #0b111a; fill-opacity: 0.92; stroke: #6bd6ff; stroke-opacity: 0.92; stroke-width: 1.1; stroke-linejoin: miter"/>
     <use xlink:href="#m33cb12918e" x="306.402353" y="239.607839" style="fill: #0b111a; fill-opacity: 0.92; stroke: #6bd6ff; stroke-opacity: 0.92; stroke-width: 1.1; stroke-linejoin: miter"/>
     <use xlink:href="#m33cb12918e" x="321.878118" y="242.745143" style="fill: #0b111a; fill-opacity: 0.92; stroke: #6bd6ff; stroke-opacity: 0.92; stroke-width: 1.1; stroke-linejoin: miter"/>
     <use xlink:href="#m33cb12918e" x="337.353882" y="237.269827" style="fill: #0b111a; fill-opacity: 0.92; stroke: #6bd6ff; stroke-opacity: 0.92; stroke-width: 1.1; stroke-linejoin: miter"/>
     <use xlink:href="#m33cb12918e" x="352.829647" y="226.566473" style="fill: #0b111a; fill-opacity: 0.92; stroke: #6bd6ff; stroke-opacity: 0.92; stroke-width: 1.1; stroke-linejoin: miter"/>
     <use xlink:href="#m33cb12918e" x="368.305412" y="233.614514" style="fill: #0b111a; fill-opacity: 0.92; stroke: #6bd6ff; stroke-opacity: 0.92; stroke-width: 1.1; stroke-linejoin: miter"/>
     <use xlink:href="#m33cb12918e" x="383.781176" y="253.256731" style="fill: #0b111a; fill-opacity: 0.92; stroke: #6bd6ff; stroke-opacity: 0.92; stroke-width: 1.1; stroke-linejoin: miter"/>
     <use xlink:href="#m33cb12918e" x="399.256941" y="243.550637" style="fill: #0b111a; fill-opacity: 0.92; stroke: #6bd6ff; stroke-opacity: 0.92; stroke-width: 1.1; stroke-linejoin: miter"/>
     <use xlink:href="#m33cb12918e" x="414.732706" y="243.841054" style="fill: #0b111a; fill-opacity: 0.92; stroke: #6bd6ff; stroke-opacity: 0.92; stroke-width: 1.1; stroke-linejoin: miter"/>
     <use xlink:href="#m33cb12918e" x="430.208471" y="254.930409" style="fill: #0b111a; fill-opacity: 0.92; stroke: #6bd6ff; stroke-opacity: 0.92; stroke-width: 1.1; stroke-linejoin: miter"/>
     <use xlink:href="#m33cb12918e" x="445.684235" y="237.288183" style="fill: #0b111a; fill-opacity: 0.92; stroke: #6bd6ff; stroke-opacity: 0.92; stroke-width: 1.1; stroke-linejoin: miter"/>
     <use xlink:href="#m33cb12918e" x="461.16" y="253.771025" style="fill: #0b111a; fill-opacity: 0.92; stroke: #6bd6ff; stroke-opacity: 0.92; stroke-width: 1.1; stroke-linejoin: miter"/>
     <use xlink:href="#m33cb12918e" x="476.635765" y="248.835841" style="fill: #0b111a; fill-opacity: 0.92; stroke: #6bd6ff; stroke-opacity: 0.92; stroke-width: 1.1; stroke-linejoin: miter"/>
     <use xlink:href="#m33cb12918e" x="492.111529" y="244.53571" style="fill: #0b111a; fill-opacity: 0.92; stroke: #6bd6ff; stroke-opacity: 0.92; stroke-width: 1.1; stroke-linejoin: miter"/>
     <use xlink:href="#m33cb12918e" x="507.587294" y="254.604012" style="fill: #0b111a; fill-opacity: 0.92; stroke: #6bd6ff; stroke-opacity: 0.92; stroke-width: 1.1; stroke-linejoin: miter"/>
     <use xlink:href="#m33cb12918e" x="523.063059" y="254.05107" style="fill: #0b111a; fill-opacity: 0.92; stroke: #6bd6ff; stroke-opacity: 0.92; stroke-width: 1.1; stroke-linejoin: miter"/>
     <use xlink:href="#m33cb12918e" x="538.538824" y="242.173256" style="fill: #0b111a; fill-opacity: 0.92; stroke: #6bd6ff; stroke-opacity: 0.92; stroke-width: 1.1; stroke-linejoin: miter"/>
     <use xlink:href="#m33cb12918e" x="554.014588" y="248.284494" style="fill: #0b111a; fill-opacity: 0.92; stroke: #6bd6ff; stroke-opacity: 0.92; stroke-width: 1.1; stroke-linejoin: miter"/>
     <use xlink:href="#m33cb12918e" x="569.490353" y="250.465511" style="fill: #0b111a; fill-opacity: 0.92; stroke: #6bd6ff; stroke-opacity: 0.92; stroke-width: 1.1; stroke-linejoin: miter"/>
     <use xlink:href="#m33cb12918e" x="584.966118" y="250.649999" style="fill: #0b111a; fill-opacity: 0.92; stroke: #6bd6ff; stroke-opacity: 0.92; stroke-width: 1.1; stroke-linejoin: miter"/>
    </g>
   </g>
   <g id="line2d_35">
    <path d="M 74.265882 143.142545 
L 89.741647 174.863659 
L 105.217412 184.011808 
L 120.693176 193.998083 
L 136.168941 200.372829 
L 151.644706 204.636538 
L 167.120471 210.497678 
L 182.596235 216.445829 
L 198.072 221.165666 
L 213.547765 224.629427 
L 229.023529 228.891334 
L 244.499294 232.376506 
L 259.975059 236.708437 
L 275.450824 240.630486 
L 290.926588 242.423024 
L 306.402353 247.256916 
L 321.878118 249.720541 
L 337.353882 252.88754 
L 352.829647 256.015588 
L 368.305412 257.771848 
L 383.781176 261.661795 
L 399.256941 265.345609 
L 414.732706 266.267216 
L 430.208471 268.186515 
L 445.684235 270.803764 
L 461.16 273.1356 
L 476.635765 274.704377 
L 492.111529 278.272945 
L 507.587294 278.899819 
L 523.063059 282.072744 
L 538.538824 282.921571 
" clip-path="url(#p8a9a9cdea1)" style="fill: none; stroke: #ffb74d; stroke-width: 2.8; stroke-linecap: square"/>
    <defs>
     <path id="m45b0931282" d="M -2.3 2.3 
L 2.3 2.3 
L 2.3 -2.3 
L -2.3 -2.3 
z
" style="stroke: #ffb74d; stroke-width: 1.2; stroke-linejoin: miter"/>
    </defs>
    <g clip-path="url(#p8a9a9cdea1)">
     <use xlink:href="#m45b0931282" x="74.265882" y="143.142545" style="fill: #0b111a; stroke: #ffb74d; stroke-width: 1.2; stroke-linejoin: miter"/>
     <use xlink:href="#m45b0931282" x="89.741647" y="174.863659" style="fill: #0b111a; stroke: #ffb74d; stroke-width: 1.2; stroke-linejoin: miter"/>
     <use xlink:href="#m45b0931282" x="105.217412" y="184.011808" style="fill: #0b111a; stroke: #ffb74d; stroke-width: 1.2; stroke-linejoin: miter"/>
     <use xlink:href="#m45b0931282" x="120.693176" y="193.998083" style="fill: #0b111a; stroke: #ffb74d; stroke-width: 1.2; stroke-linejoin: miter"/>
     <use xlink:href="#m45b0931282" x="136.168941" y="200.372829" style="fill: #0b111a; stroke: #ffb74d; stroke-width: 1.2; stroke-linejoin: miter"/>
     <use xlink:href="#m45b0931282" x="151.644706" y="204.636538" style="fill: #0b111a; stroke: #ffb74d; stroke-width: 1.2; stroke-linejoin: miter"/>
     <use xlink:href="#m45b0931282" x="167.120471" y="210.497678" style="fill: #0b111a; stroke: #ffb74d; stroke-width: 1.2; stroke-linejoin: miter"/>
     <use xlink:href="#m45b0931282" x="182.596235" y="216.445829" style="fill: #0b111a; stroke: #ffb74d; stroke-width: 1.2; stroke-linejoin: miter"/>
     <use xlink:href="#m45b0931282" x="198.072" y="221.165666" style="fill: #0b111a; stroke: #ffb74d; stroke-width: 1.2; stroke-linejoin: miter"/>
     <use xlink:href="#m45b0931282" x="213.547765" y="224.629427" style="fill: #0b111a; stroke: #ffb74d; stroke-width: 1.2; stroke-linejoin: miter"/>
     <use xlink:href="#m45b0931282" x="229.023529" y="228.891334" style="fill: #0b111a; stroke: #ffb74d; stroke-width: 1.2; stroke-linejoin: miter"/>
     <use xlink:href="#m45b0931282" x="244.499294" y="232.376506" style="fill: #0b111a; stroke: #ffb74d; stroke-width: 1.2; stroke-linejoin: miter"/>
     <use xlink:href="#m45b0931282" x="259.975059" y="236.708437" style="fill: #0b111a; stroke: #ffb74d; stroke-width: 1.2; stroke-linejoin: miter"/>
     <use xlink:href="#m45b0931282" x="275.450824" y="240.630486" style="fill: #0b111a; stroke: #ffb74d; stroke-width: 1.2; stroke-linejoin: miter"/>
     <use xlink:href="#m45b0931282" x="290.926588" y="242.423024" style="fill: #0b111a; stroke: #ffb74d; stroke-width: 1.2; stroke-linejoin: miter"/>
     <use xlink:href="#m45b0931282" x="306.402353" y="247.256916" style="fill: #0b111a; stroke: #ffb74d; stroke-width: 1.2; stroke-linejoin: miter"/>
     <use xlink:href="#m45b0931282" x="321.878118" y="249.720541" style="fill: #0b111a; stroke: #ffb74d; stroke-width: 1.2; stroke-linejoin: miter"/>
     <use xlink:href="#m45b0931282" x="337.353882" y="252.88754" style="fill: #0b111a; stroke: #ffb74d; stroke-width: 1.2; stroke-linejoin: miter"/>
     <use xlink:href="#m45b0931282" x="352.829647" y="256.015588" style="fill: #0b111a; stroke: #ffb74d; stroke-width: 1.2; stroke-linejoin: miter"/>
     <use xlink:href="#m45b0931282" x="368.305412" y="257.771848" style="fill: #0b111a; stroke: #ffb74d; stroke-width: 1.2; stroke-linejoin: miter"/>
     <use xlink:href="#m45b0931282" x="383.781176" y="261.661795" style="fill: #0b111a; stroke: #ffb74d; stroke-width: 1.2; stroke-linejoin: miter"/>
     <use xlink:href="#m45b0931282" x="399.256941" y="265.345609" style="fill: #0b111a; stroke: #ffb74d; stroke-width: 1.2; stroke-linejoin: miter"/>
     <use xlink:href="#m45b0931282" x="414.732706" y="266.267216" style="fill: #0b111a; stroke: #ffb74d; stroke-width: 1.2; stroke-linejoin: miter"/>
     <use xlink:href="#m45b0931282" x="430.208471" y="268.186515" style="fill: #0b111a; stroke: #ffb74d; stroke-width: 1.2; stroke-linejoin: miter"/>
     <use xlink:href="#m45b0931282" x="445.684235" y="270.803764" style="fill: #0b111a; stroke: #ffb74d; stroke-width: 1.2; stroke-linejoin: miter"/>
     <use xlink:href="#m45b0931282" x="461.16" y="273.1356" style="fill: #0b111a; stroke: #ffb74d; stroke-width: 1.2; stroke-linejoin: miter"/>
     <use xlink:href="#m45b0931282" x="476.635765" y="274.704377" style="fill: #0b111a; stroke: #ffb74d; stroke-width: 1.2; stroke-linejoin: miter"/>
     <use xlink:href="#m45b0931282" x="492.111529" y="278.272945" style="fill: #0b111a; stroke: #ffb74d; stroke-width: 1.2; stroke-linejoin: miter"/>
     <use xlink:href="#m45b0931282" x="507.587294" y="278.899819" style="fill: #0b111a; stroke: #ffb74d; stroke-width: 1.2; stroke-linejoin: miter"/>
     <use xlink:href="#m45b0931282" x="523.063059" y="282.072744" style="fill: #0b111a; stroke: #ffb74d; stroke-width: 1.2; stroke-linejoin: miter"/>
     <use xlink:href="#m45b0931282" x="538.538824" y="282.921571" style="fill: #0b111a; stroke: #ffb74d; stroke-width: 1.2; stroke-linejoin: miter"/>
    </g>
   </g>
   <g id="line2d_36">
    <path d="M 74.265882 201.442566 
L 89.741647 209.706136 
L 105.217412 204.540804 
L 120.693176 216.174535 
L 136.168941 220.93539 
L 151.644706 211.912004 
L 167.120471 218.610161 
L 182.596235 228.590701 
L 198.072 238.008644 
L 213.547765 235.249724 
L 229.023529 240.659129 
L 244.499294 239.465826 
L 259.975059 231.277047 
L 275.450824 235.223476 
L 290.926588 241.269553 
L 306.402353 232.249456 
L 321.878118 242.229145 
L 337.353882 232.18537 
L 352.829647 226.20101 
L 368.305412 244.70092 
L 383.781176 247.909827 
L 399.256941 243.5166 
L 414.732706 241.803038 
L 430.208471 243.618729 
L 445.684235 235.2464 
L 461.16 230.157597 
L 476.635765 239.721542 
L 492.111529 225.636385 
L 507.587294 235.683432 
L 523.063059 230.547467 
L 538.538824 235.047272 
" clip-path="url(#p8a9a9cdea1)" style="fill: none; stroke-dasharray: 8.14,3.52; stroke-dashoffset: 0; stroke: #ffb74d; stroke-opacity: 0.92; stroke-width: 2.2"/>
    <defs>
     <path id="m9a241d19d7" d="M 0 -2.2 
L -2.2 2.2 
L 2.2 2.2 
z
" style="stroke: #ffb74d; stroke-opacity: 0.92; stroke-width: 1.1; stroke-linejoin: miter"/>
    </defs>
    <g clip-path="url(#p8a9a9cdea1)">
     <use xlink:href="#m9a241d19d7" x="74.265882" y="201.442566" style="fill: #0b111a; fill-opacity: 0.92; stroke: #ffb74d; stroke-opacity: 0.92; stroke-width: 1.1; stroke-linejoin: miter"/>
     <use xlink:href="#m9a241d19d7" x="89.741647" y="209.706136" style="fill: #0b111a; fill-opacity: 0.92; stroke: #ffb74d; stroke-opacity: 0.92; stroke-width: 1.1; stroke-linejoin: miter"/>
     <use xlink:href="#m9a241d19d7" x="105.217412" y="204.540804" style="fill: #0b111a; fill-opacity: 0.92; stroke: #ffb74d; stroke-opacity: 0.92; stroke-width: 1.1; stroke-linejoin: miter"/>
     <use xlink:href="#m9a241d19d7" x="120.693176" y="216.174535" style="fill: #0b111a; fill-opacity: 0.92; stroke: #ffb74d; stroke-opacity: 0.92; stroke-width: 1.1; stroke-linejoin: miter"/>
     <use xlink:href="#m9a241d19d7" x="136.168941" y="220.93539" style="fill: #0b111a; fill-opacity: 0.92; stroke: #ffb74d; stroke-opacity: 0.92; stroke-width: 1.1; stroke-linejoin: miter"/>
     <use xlink:href="#m9a241d19d7" x="151.644706" y="211.912004" style="fill: #0b111a; fill-opacity: 0.92; stroke: #ffb74d; stroke-opacity: 0.92; stroke-width: 1.1; stroke-linejoin: miter"/>
     <use xlink:href="#m9a241d19d7" x="167.120471" y="218.610161" style="fill: #0b111a; fill-opacity: 0.92; stroke: #ffb74d; stroke-opacity: 0.92; stroke-width: 1.1; stroke-linejoin: miter"/>
     <use xlink:href="#m9a241d19d7" x="182.596235" y="228.590701" style="fill: #0b111a; fill-opacity: 0.92; stroke: #ffb74d; stroke-opacity: 0.92; stroke-width: 1.1; stroke-linejoin: miter"/>
     <use xlink:href="#m9a241d19d7" x="198.072" y="238.008644" style="fill: #0b111a; fill-opacity: 0.92; stroke: #ffb74d; stroke-opacity: 0.92; stroke-width: 1.1; stroke-linejoin: miter"/>
     <use xlink:href="#m9a241d19d7" x="213.547765" y="235.249724" style="fill: #0b111a; fill-opacity: 0.92; stroke: #ffb74d; stroke-opacity: 0.92; stroke-width: 1.1; stroke-linejoin: miter"/>
     <use xlink:href="#m9a241d19d7" x="229.023529" y="240.659129" style="fill: #0b111a; fill-opacity: 0.92; stroke: #ffb74d; stroke-opacity: 0.92; stroke-width: 1.1; stroke-linejoin: miter"/>
     <use xlink:href="#m9a241d19d7" x="244.499294" y="239.465826" style="fill: #0b111a; fill-opacity: 0.92; stroke: #ffb74d; stroke-opacity: 0.92; stroke-width: 1.1; stroke-linejoin: miter"/>
     <use xlink:href="#m9a241d19d7" x="259.975059" y="231.277047" style="fill: #0b111a; fill-opacity: 0.92; stroke: #ffb74d; stroke-opacity: 0.92; stroke-width: 1.1; stroke-linejoin: miter"/>
     <use xlink:href="#m9a241d19d7" x="275.450824" y="235.223476" style="fill: #0b111a; fill-opacity: 0.92; stroke: #ffb74d; stroke-opacity: 0.92; stroke-width: 1.1; stroke-linejoin: miter"/>
     <use xlink:href="#m9a241d19d7" x="290.926588" y="241.269553" style="fill: #0b111a; fill-opacity: 0.92; stroke: #ffb74d; stroke-opacity: 0.92; stroke-width: 1.1; stroke-linejoin: miter"/>
     <use xlink:href="#m9a241d19d7" x="306.402353" y="232.249456" style="fill: #0b111a; fill-opacity: 0.92; stroke: #ffb74d; stroke-opacity: 0.92; stroke-width: 1.1; stroke-linejoin: miter"/>
     <use xlink:href="#m9a241d19d7" x="321.878118" y="242.229145" style="fill: #0b111a; fill-opacity: 0.92; stroke: #ffb74d; stroke-opacity: 0.92; stroke-width: 1.1; stroke-linejoin: miter"/>
     <use xlink:href="#m9a241d19d7" x="337.353882" y="232.18537" style="fill: #0b111a; fill-opacity: 0.92; stroke: #ffb74d; stroke-opacity: 0.92; stroke-width: 1.1; stroke-linejoin: miter"/>
     <use xlink:href="#m9a241d19d7" x="352.829647" y="226.20101" style="fill: #0b111a; fill-opacity: 0.92; stroke: #ffb74d; stroke-opacity: 0.92; stroke-width: 1.1; stroke-linejoin: miter"/>
     <use xlink:href="#m9a241d19d7" x="368.305412" y="244.70092" style="fill: #0b111a; fill-opacity: 0.92; stroke: #ffb74d; stroke-opacity: 0.92; stroke-width: 1.1; stroke-linejoin: miter"/>
     <use xlink:href="#m9a241d19d7" x="383.781176" y="247.909827" style="fill: #0b111a; fill-opacity: 0.92; stroke: #ffb74d; stroke-opacity: 0.92; stroke-width: 1.1; stroke-linejoin: miter"/>
     <use xlink:href="#m9a241d19d7" x="399.256941" y="243.5166" style="fill: #0b111a; fill-opacity: 0.92; stroke: #ffb74d; stroke-opacity: 0.92; stroke-width: 1.1; stroke-linejoin: miter"/>
     <use xlink:href="#m9a241d19d7" x="414.732706" y="241.803038" style="fill: #0b111a; fill-opacity: 0.92; stroke: #ffb74d; stroke-opacity: 0.92; stroke-width: 1.1; stroke-linejoin: miter"/>
     <use xlink:href="#m9a241d19d7" x="430.208471" y="243.618729" style="fill: #0b111a; fill-opacity: 0.92; stroke: #ffb74d; stroke-opacity: 0.92; stroke-width: 1.1; stroke-linejoin: miter"/>
     <use xlink:href="#m9a241d19d7" x="445.684235" y="235.2464" style="fill: #0b111a; fill-opacity: 0.92; stroke: #ffb74d; stroke-opacity: 0.92; stroke-width: 1.1; stroke-linejoin: miter"/>
     <use xlink:href="#m9a241d19d7" x="461.16" y="230.157597" style="fill: #0b111a; fill-opacity: 0.92; stroke: #ffb74d; stroke-opacity: 0.92; stroke-width: 1.1; stroke-linejoin: miter"/>
     <use xlink:href="#m9a241d19d7" x="476.635765" y="239.721542" style="fill: #0b111a; fill-opacity: 0.92; stroke: #ffb74d; stroke-opacity: 0.92; stroke-width: 1.1; stroke-linejoin: miter"/>
     <use xlink:href="#m9a241d19d7" x="492.111529" y="225.636385" style="fill: #0b111a; fill-opacity: 0.92; stroke: #ffb74d; stroke-opacity: 0.92; stroke-width: 1.1; stroke-linejoin: miter"/>
     <use xlink:href="#m9a241d19d7" x="507.587294" y="235.683432" style="fill: #0b111a; fill-opacity: 0.92; stroke: #ffb74d; stroke-opacity: 0.92; stroke-width: 1.1; stroke-linejoin: miter"/>
     <use xlink:href="#m9a241d19d7" x="523.063059" y="230.547467" style="fill: #0b111a; fill-opacity: 0.92; stroke: #ffb74d; stroke-opacity: 0.92; stroke-width: 1.1; stroke-linejoin: miter"/>
     <use xlink:href="#m9a241d19d7" x="538.538824" y="235.047272" style="fill: #0b111a; fill-opacity: 0.92; stroke: #ffb74d; stroke-opacity: 0.92; stroke-width: 1.1; stroke-linejoin: miter"/>
    </g>
   </g>
   <g id="patch_3">
    <path d="M 66.528 304.056 
L 66.528 81.576 
" style="fill: none; opacity: 0.55; stroke: #f7f8fb; stroke-width: 0.8; stroke-linejoin: miter; stroke-linecap: square"/>
   </g>
   <g id="patch_4">
    <path d="M 592.704 304.056 
L 592.704 81.576 
" style="fill: none; opacity: 0.55; stroke: #f7f8fb; stroke-width: 0.8; stroke-linejoin: miter; stroke-linecap: square"/>
   </g>
   <g id="patch_5">
    <path d="M 66.528 304.056 
L 592.704 304.056 
" style="fill: none; opacity: 0.55; stroke: #f7f8fb; stroke-width: 0.8; stroke-linejoin: miter; stroke-linecap: square"/>
   </g>
   <g id="patch_6">
    <path d="M 66.528 81.576 
L 592.704 81.576 
" style="fill: none; opacity: 0.55; stroke: #f7f8fb; stroke-width: 0.8; stroke-linejoin: miter; stroke-linecap: square"/>
   </g>
   <g id="text_19">
    <!-- max 120 epochs, early stopping  |  A stopped 34 (best 24) ;  B stopped 31 (best 21) -->
    <g style="fill: #aeb6c2" transform="translate(67.301547 76.403934) scale(0.125 -0.125)">
     <defs>
      <path id="DejaVuSans-Oblique-6d" d="M 5747 2113 
L 5338 0 
L 4763 0 
L 5166 2094 
Q 5191 2228 5203 2325 
Q 5216 2422 5216 2491 
Q 5216 2772 5059 2928 
Q 4903 3084 4622 3084 
Q 4203 3084 3875 2770 
Q 3547 2456 3450 1953 
L 3066 0 
L 2491 0 
L 2900 2094 
Q 2925 2209 2937 2307 
Q 2950 2406 2950 2484 
Q 2950 2769 2794 2926 
Q 2638 3084 2363 3084 
Q 1938 3084 1609 2770 
Q 1281 2456 1184 1953 
L 800 0 
L 225 0 
L 909 3500 
L 1484 3500 
L 1375 2956 
Q 1609 3263 1923 3423 
Q 2238 3584 2597 3584 
Q 2978 3584 3223 3384 
Q 3469 3184 3519 2828 
Q 3781 3197 4126 3390 
Q 4472 3584 4856 3584 
Q 5306 3584 5551 3325 
Q 5797 3066 5797 2591 
Q 5797 2488 5784 2364 
Q 5772 2241 5747 2113 
z
" transform="scale(0.015625)"/>
      <path id="DejaVuSans-Oblique-61" d="M 3438 1997 
L 3047 0 
L 2472 0 
L 2578 531 
Q 2325 219 2001 64 
Q 1678 -91 1281 -91 
Q 834 -91 548 182 
Q 263 456 263 884 
Q 263 1497 752 1853 
Q 1241 2209 2100 2209 
L 2900 2209 
L 2931 2363 
Q 2938 2388 2941 2417 
Q 2944 2447 2944 2509 
Q 2944 2788 2717 2942 
Q 2491 3097 2081 3097 
Q 1800 3097 1504 3025 
Q 1209 2953 897 2809 
L 997 3341 
Q 1322 3463 1633 3523 
Q 1944 3584 2234 3584 
Q 2853 3584 3176 3315 
Q 3500 3047 3500 2534 
Q 3500 2431 3484 2292 
Q 3469 2153 3438 1997 
z
M 2816 1759 
L 2241 1759 
Q 1534 1759 1195 1570 
Q 856 1381 856 984 
Q 856 709 1029 553 
Q 1203 397 1509 397 
Q 1978 397 2328 733 
Q 2678 1069 2791 1631 
L 2816 1759 
z
" transform="scale(0.015625)"/>
      <path id="DejaVuSans-Oblique-78" d="M 3841 3500 
L 2234 1784 
L 3219 0 
L 2559 0 
L 1819 1388 
L 531 0 
L -166 0 
L 1556 1844 
L 641 3500 
L 1300 3500 
L 1972 2234 
L 3144 3500 
L 3841 3500 
z
" transform="scale(0.015625)"/>
      <path id="DejaVuSans-Oblique-20" transform="scale(0.015625)"/>
      <path id="DejaVuSans-Oblique-31" d="M 416 531 
L 1447 531 
L 2144 4122 
L 978 3897 
L 1088 4441 
L 2247 4666 
L 2881 4666 
L 2075 531 
L 3103 531 
L 3003 0 
L 313 0 
L 416 531 
z
" transform="scale(0.015625)"/>
      <path id="DejaVuSans-Oblique-32" d="M 2950 2253 
L 934 525 
L 3163 525 
L 3053 0 
L 25 0 
L 128 531 
L 2234 2338 
Q 2656 2703 2832 2979 
Q 3009 3256 3009 3547 
Q 3009 3850 2796 4040 
Q 2584 4231 2241 4231 
Q 1944 4231 1581 4125 
Q 1219 4019 806 3816 
L 922 4441 
Q 1309 4594 1662 4672 
Q 2016 4750 2316 4750 
Q 2928 4750 3301 4425 
Q 3675 4100 3675 3572 
Q 3675 3216 3497 2892 
Q 3319 2569 2950 2253 
z
" transform="scale(0.015625)"/>
      <path id="DejaVuSans-Oblique-30" d="M 2444 4750 
Q 3078 4750 3414 4328 
Q 3750 3906 3750 3116 
Q 3750 2516 3592 1923 
Q 3434 1331 3150 863 
Q 2859 394 2467 151 
Q 2075 -91 1600 -91 
Q 988 -91 653 334 
Q 319 759 319 1544 
Q 319 2138 480 2733 
Q 641 3328 928 3794 
Q 1216 4263 1602 4506 
Q 1988 4750 2444 4750 
z
M 2406 4250 
Q 2169 4250 1955 4123 
Q 1741 3997 1569 3750 
Q 1281 3338 1111 2720 
Q 941 2103 941 1453 
Q 941 938 1123 673 
Q 1306 409 1663 409 
Q 1913 409 2125 536 
Q 2338 663 2509 909 
Q 2794 1319 2961 1936 
Q 3128 2553 3128 3206 
Q 3128 3722 2945 3986 
Q 2763 4250 2406 4250 
z
" transform="scale(0.015625)"/>
      <path id="DejaVuSans-Oblique-65" d="M 3078 2063 
Q 3088 2113 3092 2166 
Q 3097 2219 3097 2272 
Q 3097 2653 2873 2875 
Q 2650 3097 2266 3097 
Q 1838 3097 1509 2826 
Q 1181 2556 1013 2059 
L 3078 2063 
z
M 3578 1613 
L 903 1613 
Q 884 1494 878 1425 
Q 872 1356 872 1306 
Q 872 872 1139 634 
Q 1406 397 1894 397 
Q 2269 397 2603 481 
Q 2938 566 3225 728 
L 3116 159 
Q 2806 34 2476 -28 
Q 2147 -91 1806 -91 
Q 1078 -91 686 257 
Q 294 606 294 1247 
Q 294 1794 489 2264 
Q 684 2734 1063 3103 
Q 1306 3334 1642 3459 
Q 1978 3584 2356 3584 
Q 2950 3584 3301 3228 
Q 3653 2872 3653 2272 
Q 3653 2128 3634 1964 
Q 3616 1800 3578 1613 
z
" transform="scale(0.015625)"/>
      <path id="DejaVuSans-Oblique-70" d="M 3175 2156 
Q 3175 2616 2975 2859 
Q 2775 3103 2400 3103 
Q 2144 3103 1911 2972 
Q 1678 2841 1497 2591 
Q 1319 2344 1212 1994 
Q 1106 1644 1106 1300 
Q 1106 863 1306 627 
Q 1506 391 1875 391 
Q 2147 391 2380 519 
Q 2613 647 2778 891 
Q 2956 1147 3065 1494 
Q 3175 1841 3175 2156 
z
M 1394 2969 
Q 1625 3272 1939 3428 
Q 2253 3584 2638 3584 
Q 3175 3584 3472 3232 
Q 3769 2881 3769 2247 
Q 3769 1728 3584 1258 
Q 3400 788 3053 416 
Q 2822 169 2531 39 
Q 2241 -91 1919 -91 
Q 1547 -91 1294 64 
Q 1041 219 916 525 
L 556 -1331 
L -19 -1331 
L 922 3500 
L 1497 3500 
L 1394 2969 
z
" transform="scale(0.015625)"/>
      <path id="DejaVuSans-Oblique-6f" d="M 1625 -91 
Q 1009 -91 651 289 
Q 294 669 294 1325 
Q 294 1706 417 2101 
Q 541 2497 738 2766 
Q 1047 3184 1428 3384 
Q 1809 3584 2291 3584 
Q 2888 3584 3255 3212 
Q 3622 2841 3622 2241 
Q 3622 1825 3500 1412 
Q 3378 1000 3181 728 
Q 2875 309 2494 109 
Q 2113 -91 1625 -91 
z
M 891 1344 
Q 891 869 1089 633 
Q 1288 397 1691 397 
Q 2269 397 2648 901 
Q 3028 1406 3028 2181 
Q 3028 2634 2825 2865 
Q 2622 3097 2228 3097 
Q 1903 3097 1650 2945 
Q 1397 2794 1197 2484 
Q 1050 2253 970 1956 
Q 891 1659 891 1344 
z
" transform="scale(0.015625)"/>
      <path id="DejaVuSans-Oblique-63" d="M 3431 3366 
L 3316 2797 
Q 3109 2947 2876 3022 
Q 2644 3097 2394 3097 
Q 2119 3097 1870 3000 
Q 1622 2903 1453 2725 
Q 1184 2453 1037 2087 
Q 891 1722 891 1331 
Q 891 859 1127 628 
Q 1363 397 1844 397 
Q 2081 397 2348 469 
Q 2616 541 2906 684 
L 2797 116 
Q 2547 13 2283 -39 
Q 2019 -91 1741 -91 
Q 1044 -91 669 257 
Q 294 606 294 1253 
Q 294 1797 489 2255 
Q 684 2713 1069 3078 
Q 1331 3328 1684 3456 
Q 2038 3584 2456 3584 
Q 2700 3584 2940 3529 
Q 3181 3475 3431 3366 
z
" transform="scale(0.015625)"/>
      <path id="DejaVuSans-Oblique-68" d="M 3566 2113 
L 3156 0 
L 2578 0 
L 2988 2091 
Q 3016 2238 3031 2350 
Q 3047 2463 3047 2528 
Q 3047 2791 2881 2937 
Q 2716 3084 2419 3084 
Q 1956 3084 1617 2771 
Q 1278 2459 1178 1941 
L 800 0 
L 225 0 
L 1172 4863 
L 1747 4863 
L 1375 2950 
Q 1594 3244 1934 3414 
Q 2275 3584 2650 3584 
Q 3113 3584 3367 3334 
Q 3622 3084 3622 2631 
Q 3622 2519 3608 2391 
Q 3594 2263 3566 2113 
z
" transform="scale(0.015625)"/>
      <path id="DejaVuSans-Oblique-73" d="M 3200 3397 
L 3091 2853 
Q 2863 2978 2609 3040 
Q 2356 3103 2088 3103 
Q 1634 3103 1373 2948 
Q 1113 2794 1113 2528 
Q 1113 2219 1719 2053 
Q 1766 2041 1788 2034 
L 1972 1978 
Q 2547 1819 2739 1644 
Q 2931 1469 2931 1166 
Q 2931 609 2489 259 
Q 2047 -91 1331 -91 
Q 1053 -91 747 -37 
Q 441 16 72 128 
L 184 722 
Q 500 559 806 475 
Q 1113 391 1394 391 
Q 1816 391 2080 572 
Q 2344 753 2344 1031 
Q 2344 1331 1650 1516 
L 1591 1531 
L 1394 1581 
Q 956 1697 753 1886 
Q 550 2075 550 2369 
Q 550 2928 970 3256 
Q 1391 3584 2113 3584 
Q 2397 3584 2667 3537 
Q 2938 3491 3200 3397 
z
" transform="scale(0.015625)"/>
      <path id="DejaVuSans-Oblique-2c" d="M 575 794 
L 1234 794 
L 1131 256 
L 422 -744 
L 19 -744 
L 469 256 
L 575 794 
z
" transform="scale(0.015625)"/>
      <path id="DejaVuSans-Oblique-72" d="M 2853 2969 
Q 2766 3016 2653 3041 
Q 2541 3066 2413 3066 
Q 1953 3066 1609 2717 
Q 1266 2369 1153 1784 
L 800 0 
L 225 0 
L 909 3500 
L 1484 3500 
L 1375 2956 
Q 1603 3259 1920 3421 
Q 2238 3584 2597 3584 
Q 2691 3584 2781 3573 
Q 2872 3563 2963 3538 
L 2853 2969 
z
" transform="scale(0.015625)"/>
      <path id="DejaVuSans-Oblique-6c" d="M 1172 4863 
L 1747 4863 
L 800 0 
L 225 0 
L 1172 4863 
z
" transform="scale(0.015625)"/>
      <path id="DejaVuSans-Oblique-79" d="M 1588 -325 
Q 1188 -997 936 -1164 
Q 684 -1331 294 -1331 
L -159 -1331 
L -63 -850 
L 269 -850 
Q 509 -850 678 -719 
Q 847 -588 1056 -206 
L 1234 128 
L 459 3500 
L 1069 3500 
L 1650 819 
L 3256 3500 
L 3859 3500 
L 1588 -325 
z
" transform="scale(0.015625)"/>
      <path id="DejaVuSans-Oblique-74" d="M 2706 3500 
L 2619 3053 
L 1472 3053 
L 1100 1153 
Q 1081 1047 1072 975 
Q 1063 903 1063 863 
Q 1063 663 1183 572 
Q 1303 481 1569 481 
L 2150 481 
L 2053 0 
L 1503 0 
Q 991 0 739 200 
Q 488 400 488 806 
Q 488 878 497 964 
Q 506 1050 525 1153 
L 897 3053 
L 409 3053 
L 500 3500 
L 978 3500 
L 1172 4494 
L 1747 4494 
L 1556 3500 
L 2706 3500 
z
" transform="scale(0.015625)"/>
      <path id="DejaVuSans-Oblique-69" d="M 1172 4863 
L 1747 4863 
L 1606 4134 
L 1031 4134 
L 1172 4863 
z
M 909 3500 
L 1484 3500 
L 800 0 
L 225 0 
L 909 3500 
z
" transform="scale(0.015625)"/>
      <path id="DejaVuSans-Oblique-6e" d="M 3566 2113 
L 3156 0 
L 2578 0 
L 2988 2091 
Q 3016 2238 3031 2350 
Q 3047 2463 3047 2528 
Q 3047 2791 2881 2937 
Q 2716 3084 2419 3084 
Q 1956 3084 1622 2776 
Q 1288 2469 1184 1941 
L 800 0 
L 225 0 
L 903 3500 
L 1478 3500 
L 1363 2950 
Q 1603 3253 1940 3418 
Q 2278 3584 2650 3584 
Q 3113 3584 3367 3334 
Q 3622 3084 3622 2631 
Q 3622 2519 3608 2391 
Q 3594 2263 3566 2113 
z
" transform="scale(0.015625)"/>
      <path id="DejaVuSans-Oblique-67" d="M 3816 3500 
L 3219 434 
Q 3047 -456 2561 -893 
Q 2075 -1331 1253 -1331 
Q 950 -1331 690 -1286 
Q 431 -1241 206 -1147 
L 313 -588 
Q 525 -725 762 -790 
Q 1000 -856 1269 -856 
Q 1816 -856 2167 -557 
Q 2519 -259 2631 300 
L 2681 563 
Q 2441 288 2122 144 
Q 1803 0 1434 0 
Q 903 0 598 351 
Q 294 703 294 1319 
Q 294 1803 478 2267 
Q 663 2731 997 3091 
Q 1219 3328 1514 3456 
Q 1809 3584 2131 3584 
Q 2484 3584 2746 3420 
Q 3009 3256 3138 2956 
L 3238 3500 
L 3816 3500 
z
M 2950 2216 
Q 2950 2641 2750 2872 
Q 2550 3103 2181 3103 
Q 1953 3103 1747 3012 
Q 1541 2922 1394 2759 
Q 1156 2491 1023 2127 
Q 891 1763 891 1375 
Q 891 944 1092 712 
Q 1294 481 1672 481 
Q 2219 481 2584 976 
Q 2950 1472 2950 2216 
z
" transform="scale(0.015625)"/>
      <path id="DejaVuSans-Oblique-7c" d="M 1344 4891 
L 1344 -1509 
L 813 -1509 
L 813 4891 
L 1344 4891 
z
" transform="scale(0.015625)"/>
      <path id="DejaVuSans-Oblique-41" d="M 2356 4666 
L 3072 4666 
L 3938 0 
L 3278 0 
L 3084 1197 
L 984 1197 
L 325 0 
L -341 0 
L 2356 4666 
z
M 2584 4044 
L 1275 1722 
L 2988 1722 
L 2584 4044 
z
" transform="scale(0.015625)"/>
      <path id="DejaVuSans-Oblique-64" d="M 2675 525 
Q 2444 222 2128 65 
Q 1813 -91 1428 -91 
Q 903 -91 598 267 
Q 294 625 294 1247 
Q 294 1766 478 2236 
Q 663 2706 1013 3078 
Q 1244 3325 1534 3454 
Q 1825 3584 2144 3584 
Q 2481 3584 2739 3421 
Q 2997 3259 3138 2956 
L 3513 4863 
L 4091 4863 
L 3144 0 
L 2566 0 
L 2675 525 
z
M 891 1350 
Q 891 897 1095 644 
Q 1300 391 1663 391 
Q 1931 391 2161 520 
Q 2391 650 2566 903 
Q 2750 1166 2856 1509 
Q 2963 1853 2963 2188 
Q 2963 2622 2758 2865 
Q 2553 3109 2194 3109 
Q 1922 3109 1687 2981 
Q 1453 2853 1288 2613 
Q 1106 2353 998 2009 
Q 891 1666 891 1350 
z
" transform="scale(0.015625)"/>
      <path id="DejaVuSans-Oblique-33" d="M 1013 4550 
Q 1356 4650 1679 4700 
Q 2003 4750 2316 4750 
Q 2934 4750 3296 4475 
Q 3659 4200 3659 3738 
Q 3659 3284 3373 2959 
Q 3088 2634 2584 2516 
Q 2978 2403 3162 2165 
Q 3347 1928 3347 1538 
Q 3347 1163 3167 834 
Q 2988 506 2650 269 
Q 2394 88 2037 -1 
Q 1681 -91 1216 -91 
Q 922 -91 622 -33 
Q 322 25 13 141 
L 128 738 
Q 422 575 720 495 
Q 1019 416 1331 416 
Q 1947 416 2330 733 
Q 2713 1050 2713 1556 
Q 2713 1881 2469 2057 
Q 2225 2234 1772 2234 
L 1228 2234 
L 1325 2747 
L 1900 2747 
Q 2419 2747 2717 2984 
Q 3016 3222 3016 3628 
Q 3016 3922 2797 4083 
Q 2578 4244 2181 4244 
Q 1881 4244 1567 4180 
Q 1253 4116 916 3988 
L 1013 4550 
z
" transform="scale(0.015625)"/>
      <path id="DejaVuSans-Oblique-34" d="M 2753 4666 
L 3547 4666 
L 2950 1625 
L 3616 1625 
L 3513 1100 
L 2847 1100 
L 2638 0 
L 2009 0 
L 2222 1100 
L 116 1100 
L 238 1709 
L 2753 4666 
z
M 2809 4116 
L 728 1625 
L 2322 1625 
L 2809 4116 
z
" transform="scale(0.015625)"/>
      <path id="DejaVuSans-Oblique-28" d="M 2731 4856 
Q 1903 3822 1495 2892 
Q 1088 1963 1088 1100 
Q 1088 606 1206 120 
Q 1325 -366 1563 -844 
L 1063 -844 
Q 775 -306 634 201 
Q 494 709 494 1197 
Q 494 2125 923 3036 
Q 1353 3947 2222 4856 
L 2731 4856 
z
" transform="scale(0.015625)"/>
      <path id="DejaVuSans-Oblique-62" d="M 3169 2138 
Q 3169 2591 2961 2847 
Q 2753 3103 2388 3103 
Q 2122 3103 1889 2973 
Q 1656 2844 1484 2597 
Q 1303 2338 1198 1995 
Q 1094 1653 1094 1313 
Q 1094 881 1298 636 
Q 1503 391 1863 391 
Q 2134 391 2365 517 
Q 2597 644 2772 891 
Q 2950 1147 3059 1487 
Q 3169 1828 3169 2138 
z
M 1381 2969 
Q 1594 3256 1914 3420 
Q 2234 3584 2584 3584 
Q 3122 3584 3439 3221 
Q 3756 2859 3756 2241 
Q 3756 1734 3570 1259 
Q 3384 784 3041 416 
Q 2816 172 2522 40 
Q 2228 -91 1906 -91 
Q 1566 -91 1316 65 
Q 1066 222 909 531 
L 806 0 
L 231 0 
L 1178 4863 
L 1753 4863 
L 1381 2969 
z
" transform="scale(0.015625)"/>
      <path id="DejaVuSans-Oblique-29" d="M -397 -844 
Q 434 191 840 1120 
Q 1247 2050 1247 2913 
Q 1247 3406 1130 3892 
Q 1013 4378 775 4856 
L 1275 4856 
Q 1563 4316 1703 3812 
Q 1844 3309 1844 2822 
Q 1844 1891 1411 973 
Q 978 56 116 -844 
L -397 -844 
z
" transform="scale(0.015625)"/>
      <path id="DejaVuSans-Oblique-3b" d="M 563 794 
L 1222 794 
L 1113 256 
L 409 -744 
L 6 -744 
L 453 256 
L 563 794 
z
M 1050 3309 
L 1709 3309 
L 1556 2516 
L 897 2516 
L 1050 3309 
z
" transform="scale(0.015625)"/>
      <path id="DejaVuSans-Oblique-42" d="M 1081 4666 
L 2694 4666 
Q 3350 4666 3675 4422 
Q 4000 4178 4000 3688 
Q 4000 3238 3720 2911 
Q 3441 2584 2988 2516 
Q 3375 2428 3569 2181 
Q 3763 1934 3763 1522 
Q 3763 819 3242 409 
Q 2722 0 1819 0 
L 172 0 
L 1081 4666 
z
M 1234 2228 
L 903 519 
L 1919 519 
Q 2491 519 2800 781 
Q 3109 1044 3109 1522 
Q 3109 1891 2904 2059 
Q 2700 2228 2247 2228 
L 1234 2228 
z
M 1606 4147 
L 1331 2741 
L 2272 2741 
Q 2775 2741 3058 2959 
Q 3341 3178 3341 3566 
Q 3341 3869 3150 4008 
Q 2959 4147 2541 4147 
L 1606 4147 
z
" transform="scale(0.015625)"/>
     </defs>
     <use xlink:href="#DejaVuSans-Oblique-6d"/>
     <use xlink:href="#DejaVuSans-Oblique-61" x="97.412109"/>
     <use xlink:href="#DejaVuSans-Oblique-78" x="158.691406"/>
     <use xlink:href="#DejaVuSans-Oblique-20" x="217.871094"/>
     <use xlink:href="#DejaVuSans-Oblique-31" x="249.658203"/>
     <use xlink:href="#DejaVuSans-Oblique-32" x="313.28125"/>
     <use xlink:href="#DejaVuSans-Oblique-30" x="376.904297"/>
     <use xlink:href="#DejaVuSans-Oblique-20" x="440.527344"/>
     <use xlink:href="#DejaVuSans-Oblique-65" x="472.314453"/>
     <use xlink:href="#DejaVuSans-Oblique-70" x="533.837891"/>
     <use xlink:href="#DejaVuSans-Oblique-6f" x="597.314453"/>
     <use xlink:href="#DejaVuSans-Oblique-63" x="658.496094"/>
     <use xlink:href="#DejaVuSans-Oblique-68" x="713.476562"/>
     <use xlink:href="#DejaVuSans-Oblique-73" x="776.855469"/>
     <use xlink:href="#DejaVuSans-Oblique-2c" x="828.955078"/>
     <use xlink:href="#DejaVuSans-Oblique-20" x="860.742188"/>
     <use xlink:href="#DejaVuSans-Oblique-65" x="892.529297"/>
     <use xlink:href="#DejaVuSans-Oblique-61" x="954.052734"/>
     <use xlink:href="#DejaVuSans-Oblique-72" x="1015.332031"/>
     <use xlink:href="#DejaVuSans-Oblique-6c" x="1056.445312"/>
     <use xlink:href="#DejaVuSans-Oblique-79" x="1084.228516"/>
     <use xlink:href="#DejaVuSans-Oblique-20" x="1143.408203"/>
     <use xlink:href="#DejaVuSans-Oblique-73" x="1175.195312"/>
     <use xlink:href="#DejaVuSans-Oblique-74" x="1227.294922"/>
     <use xlink:href="#DejaVuSans-Oblique-6f" x="1266.503906"/>
     <use xlink:href="#DejaVuSans-Oblique-70" x="1327.685547"/>
     <use xlink:href="#DejaVuSans-Oblique-70" x="1391.162109"/>
     <use xlink:href="#DejaVuSans-Oblique-69" x="1454.638672"/>
     <use xlink:href="#DejaVuSans-Oblique-6e" x="1482.421875"/>
     <use xlink:href="#DejaVuSans-Oblique-67" x="1545.800781"/>
     <use xlink:href="#DejaVuSans-Oblique-20" x="1609.277344"/>
     <use xlink:href="#DejaVuSans-Oblique-20" x="1641.064453"/>
     <use xlink:href="#DejaVuSans-Oblique-7c" x="1672.851562"/>
     <use xlink:href="#DejaVuSans-Oblique-20" x="1706.542969"/>
     <use xlink:href="#DejaVuSans-Oblique-20" x="1738.330078"/>
     <use xlink:href="#DejaVuSans-Oblique-41" x="1770.117188"/>
     <use xlink:href="#DejaVuSans-Oblique-20" x="1838.525391"/>
     <use xlink:href="#DejaVuSans-Oblique-73" x="1870.3125"/>
     <use xlink:href="#DejaVuSans-Oblique-74" x="1922.412109"/>
     <use xlink:href="#DejaVuSans-Oblique-6f" x="1961.621094"/>
     <use xlink:href="#DejaVuSans-Oblique-70" x="2022.802734"/>
     <use xlink:href="#DejaVuSans-Oblique-70" x="2086.279297"/>
     <use xlink:href="#DejaVuSans-Oblique-65" x="2149.755859"/>
     <use xlink:href="#DejaVuSans-Oblique-64" x="2211.279297"/>
     <use xlink:href="#DejaVuSans-Oblique-20" x="2274.755859"/>
     <use xlink:href="#DejaVuSans-Oblique-33" x="2306.542969"/>
     <use xlink:href="#DejaVuSans-Oblique-34" x="2370.166016"/>
     <use xlink:href="#DejaVuSans-Oblique-20" x="2433.789062"/>
     <use xlink:href="#DejaVuSans-Oblique-28" x="2465.576172"/>
     <use xlink:href="#DejaVuSans-Oblique-62" x="2504.589844"/>
     <use xlink:href="#DejaVuSans-Oblique-65" x="2568.066406"/>
     <use xlink:href="#DejaVuSans-Oblique-73" x="2629.589844"/>
     <use xlink:href="#DejaVuSans-Oblique-74" x="2681.689453"/>
     <use xlink:href="#DejaVuSans-Oblique-20" x="2720.898438"/>
     <use xlink:href="#DejaVuSans-Oblique-32" x="2752.685547"/>
     <use xlink:href="#DejaVuSans-Oblique-34" x="2816.308594"/>
     <use xlink:href="#DejaVuSans-Oblique-29" x="2879.931641"/>
     <use xlink:href="#DejaVuSans-Oblique-20" x="2918.945312"/>
     <use xlink:href="#DejaVuSans-Oblique-3b" x="2950.732422"/>
     <use xlink:href="#DejaVuSans-Oblique-20" x="2984.423828"/>
     <use xlink:href="#DejaVuSans-Oblique-20" x="3016.210938"/>
     <use xlink:href="#DejaVuSans-Oblique-42" x="3047.998047"/>
     <use xlink:href="#DejaVuSans-Oblique-20" x="3116.601562"/>
     <use xlink:href="#DejaVuSans-Oblique-73" x="3148.388672"/>
     <use xlink:href="#DejaVuSans-Oblique-74" x="3200.488281"/>
     <use xlink:href="#DejaVuSans-Oblique-6f" x="3239.697266"/>
     <use xlink:href="#DejaVuSans-Oblique-70" x="3300.878906"/>
     <use xlink:href="#DejaVuSans-Oblique-70" x="3364.355469"/>
     <use xlink:href="#DejaVuSans-Oblique-65" x="3427.832031"/>
     <use xlink:href="#DejaVuSans-Oblique-64" x="3489.355469"/>
     <use xlink:href="#DejaVuSans-Oblique-20" x="3552.832031"/>
     <use xlink:href="#DejaVuSans-Oblique-33" x="3584.619141"/>
     <use xlink:href="#DejaVuSans-Oblique-31" x="3648.242188"/>
     <use xlink:href="#DejaVuSans-Oblique-20" x="3711.865234"/>
     <use xlink:href="#DejaVuSans-Oblique-28" x="3743.652344"/>
     <use xlink:href="#DejaVuSans-Oblique-62" x="3782.666016"/>
     <use xlink:href="#DejaVuSans-Oblique-65" x="3846.142578"/>
     <use xlink:href="#DejaVuSans-Oblique-73" x="3907.666016"/>
     <use xlink:href="#DejaVuSans-Oblique-74" x="3959.765625"/>
     <use xlink:href="#DejaVuSans-Oblique-20" x="3998.974609"/>
     <use xlink:href="#DejaVuSans-Oblique-32" x="4030.761719"/>
     <use xlink:href="#DejaVuSans-Oblique-31" x="4094.384766"/>
     <use xlink:href="#DejaVuSans-Oblique-29" x="4158.007812"/>
    </g>
   </g>
   <g id="text_20">
    <!-- GNN training / validation loss -->
    <g style="fill: #f7f8fb" transform="translate(139.104125 53.576) scale(0.23 -0.23)">
     <defs>
      <path id="DejaVuSans-Bold-47" d="M 4781 347 
Q 4331 128 3847 18 
Q 3363 -91 2847 -91 
Q 1681 -91 1000 561 
Q 319 1213 319 2328 
Q 319 3456 1012 4103 
Q 1706 4750 2913 4750 
Q 3378 4750 3804 4662 
Q 4231 4575 4609 4403 
L 4609 3438 
Q 4219 3659 3833 3768 
Q 3447 3878 3059 3878 
Q 2341 3878 1952 3476 
Q 1563 3075 1563 2328 
Q 1563 1588 1938 1184 
Q 2313 781 3003 781 
Q 3191 781 3352 804 
Q 3513 828 3641 878 
L 3641 1784 
L 2906 1784 
L 2906 2591 
L 4781 2591 
L 4781 347 
z
" transform="scale(0.015625)"/>
      <path id="DejaVuSans-Bold-4e" d="M 588 4666 
L 1931 4666 
L 3628 1466 
L 3628 4666 
L 4769 4666 
L 4769 0 
L 3425 0 
L 1728 3200 
L 1728 0 
L 588 0 
L 588 4666 
z
" transform="scale(0.015625)"/>
      <path id="DejaVuSans-Bold-20" transform="scale(0.015625)"/>
      <path id="DejaVuSans-Bold-74" d="M 1759 4494 
L 1759 3500 
L 2913 3500 
L 2913 2700 
L 1759 2700 
L 1759 1216 
Q 1759 972 1856 886 
Q 1953 800 2241 800 
L 2816 800 
L 2816 0 
L 1856 0 
Q 1194 0 917 276 
Q 641 553 641 1216 
L 641 2700 
L 84 2700 
L 84 3500 
L 641 3500 
L 641 4494 
L 1759 4494 
z
" transform="scale(0.015625)"/>
      <path id="DejaVuSans-Bold-72" d="M 3138 2547 
Q 2991 2616 2845 2648 
Q 2700 2681 2553 2681 
Q 2122 2681 1889 2404 
Q 1656 2128 1656 1613 
L 1656 0 
L 538 0 
L 538 3500 
L 1656 3500 
L 1656 2925 
Q 1872 3269 2151 3426 
Q 2431 3584 2822 3584 
Q 2878 3584 2943 3579 
Q 3009 3575 3134 3559 
L 3138 2547 
z
" transform="scale(0.015625)"/>
      <path id="DejaVuSans-Bold-61" d="M 2106 1575 
Q 1756 1575 1579 1456 
Q 1403 1338 1403 1106 
Q 1403 894 1545 773 
Q 1688 653 1941 653 
Q 2256 653 2472 879 
Q 2688 1106 2688 1447 
L 2688 1575 
L 2106 1575 
z
M 3816 1997 
L 3816 0 
L 2688 0 
L 2688 519 
Q 2463 200 2181 54 
Q 1900 -91 1497 -91 
Q 953 -91 614 226 
Q 275 544 275 1050 
Q 275 1666 698 1953 
Q 1122 2241 2028 2241 
L 2688 2241 
L 2688 2328 
Q 2688 2594 2478 2717 
Q 2269 2841 1825 2841 
Q 1466 2841 1156 2769 
Q 847 2697 581 2553 
L 581 3406 
Q 941 3494 1303 3539 
Q 1666 3584 2028 3584 
Q 2975 3584 3395 3211 
Q 3816 2838 3816 1997 
z
" transform="scale(0.015625)"/>
      <path id="DejaVuSans-Bold-69" d="M 538 3500 
L 1656 3500 
L 1656 0 
L 538 0 
L 538 3500 
z
M 538 4863 
L 1656 4863 
L 1656 3950 
L 538 3950 
L 538 4863 
z
" transform="scale(0.015625)"/>
      <path id="DejaVuSans-Bold-6e" d="M 4056 2131 
L 4056 0 
L 2931 0 
L 2931 347 
L 2931 1631 
Q 2931 2084 2911 2256 
Q 2891 2428 2841 2509 
Q 2775 2619 2662 2680 
Q 2550 2741 2406 2741 
Q 2056 2741 1856 2470 
Q 1656 2200 1656 1722 
L 1656 0 
L 538 0 
L 538 3500 
L 1656 3500 
L 1656 2988 
Q 1909 3294 2193 3439 
Q 2478 3584 2822 3584 
Q 3428 3584 3742 3212 
Q 4056 2841 4056 2131 
z
" transform="scale(0.015625)"/>
      <path id="DejaVuSans-Bold-67" d="M 2919 594 
Q 2688 288 2409 144 
Q 2131 0 1766 0 
Q 1125 0 706 504 
Q 288 1009 288 1791 
Q 288 2575 706 3076 
Q 1125 3578 1766 3578 
Q 2131 3578 2409 3434 
Q 2688 3291 2919 2981 
L 2919 3500 
L 4044 3500 
L 4044 353 
Q 4044 -491 3511 -936 
Q 2978 -1381 1966 -1381 
Q 1638 -1381 1331 -1331 
Q 1025 -1281 716 -1178 
L 716 -306 
Q 1009 -475 1290 -558 
Q 1572 -641 1856 -641 
Q 2406 -641 2662 -400 
Q 2919 -159 2919 353 
L 2919 594 
z
M 2181 2772 
Q 1834 2772 1640 2515 
Q 1447 2259 1447 1791 
Q 1447 1309 1634 1061 
Q 1822 813 2181 813 
Q 2531 813 2725 1069 
Q 2919 1325 2919 1791 
Q 2919 2259 2725 2515 
Q 2531 2772 2181 2772 
z
" transform="scale(0.015625)"/>
      <path id="DejaVuSans-Bold-2f" d="M 1644 4666 
L 2338 4666 
L 691 -594 
L 0 -594 
L 1644 4666 
z
" transform="scale(0.015625)"/>
      <path id="DejaVuSans-Bold-76" d="M 97 3500 
L 1216 3500 
L 2088 1081 
L 2956 3500 
L 4078 3500 
L 2700 0 
L 1472 0 
L 97 3500 
z
" transform="scale(0.015625)"/>
      <path id="DejaVuSans-Bold-6c" d="M 538 4863 
L 1656 4863 
L 1656 0 
L 538 0 
L 538 4863 
z
" transform="scale(0.015625)"/>
      <path id="DejaVuSans-Bold-64" d="M 2919 2988 
L 2919 4863 
L 4044 4863 
L 4044 0 
L 2919 0 
L 2919 506 
Q 2688 197 2409 53 
Q 2131 -91 1766 -91 
Q 1119 -91 703 423 
Q 288 938 288 1747 
Q 288 2556 703 3070 
Q 1119 3584 1766 3584 
Q 2128 3584 2408 3439 
Q 2688 3294 2919 2988 
z
M 2181 722 
Q 2541 722 2730 984 
Q 2919 1247 2919 1747 
Q 2919 2247 2730 2509 
Q 2541 2772 2181 2772 
Q 1825 2772 1636 2509 
Q 1447 2247 1447 1747 
Q 1447 1247 1636 984 
Q 1825 722 2181 722 
z
" transform="scale(0.015625)"/>
      <path id="DejaVuSans-Bold-6f" d="M 2203 2784 
Q 1831 2784 1636 2517 
Q 1441 2250 1441 1747 
Q 1441 1244 1636 976 
Q 1831 709 2203 709 
Q 2569 709 2762 976 
Q 2956 1244 2956 1747 
Q 2956 2250 2762 2517 
Q 2569 2784 2203 2784 
z
M 2203 3584 
Q 3106 3584 3614 3096 
Q 4122 2609 4122 1747 
Q 4122 884 3614 396 
Q 3106 -91 2203 -91 
Q 1297 -91 786 396 
Q 275 884 275 1747 
Q 275 2609 786 3096 
Q 1297 3584 2203 3584 
z
" transform="scale(0.015625)"/>
      <path id="DejaVuSans-Bold-73" d="M 3272 3391 
L 3272 2541 
Q 2913 2691 2578 2766 
Q 2244 2841 1947 2841 
Q 1628 2841 1473 2761 
Q 1319 2681 1319 2516 
Q 1319 2381 1436 2309 
Q 1553 2238 1856 2203 
L 2053 2175 
Q 2913 2066 3209 1816 
Q 3506 1566 3506 1031 
Q 3506 472 3093 190 
Q 2681 -91 1863 -91 
Q 1516 -91 1145 -36 
Q 775 19 384 128 
L 384 978 
Q 719 816 1070 734 
Q 1422 653 1784 653 
Q 2113 653 2278 743 
Q 2444 834 2444 1013 
Q 2444 1163 2330 1236 
Q 2216 1309 1875 1350 
L 1678 1375 
Q 931 1469 631 1722 
Q 331 1975 331 2491 
Q 331 3047 712 3315 
Q 1094 3584 1881 3584 
Q 2191 3584 2531 3537 
Q 2872 3491 3272 3391 
z
" transform="scale(0.015625)"/>
     </defs>
     <use xlink:href="#DejaVuSans-Bold-47"/>
     <use xlink:href="#DejaVuSans-Bold-4e" x="82.080078"/>
     <use xlink:href="#DejaVuSans-Bold-4e" x="165.771484"/>
     <use xlink:href="#DejaVuSans-Bold-20" x="249.462891"/>
     <use xlink:href="#DejaVuSans-Bold-74" x="284.277344"/>
     <use xlink:href="#DejaVuSans-Bold-72" x="332.080078"/>
     <use xlink:href="#DejaVuSans-Bold-61" x="381.396484"/>
     <use xlink:href="#DejaVuSans-Bold-69" x="448.876953"/>
     <use xlink:href="#DejaVuSans-Bold-6e" x="483.154297"/>
     <use xlink:href="#DejaVuSans-Bold-69" x="554.345703"/>
     <use xlink:href="#DejaVuSans-Bold-6e" x="588.623047"/>
     <use xlink:href="#DejaVuSans-Bold-67" x="659.814453"/>
     <use xlink:href="#DejaVuSans-Bold-20" x="731.396484"/>
     <use xlink:href="#DejaVuSans-Bold-2f" x="766.210938"/>
     <use xlink:href="#DejaVuSans-Bold-20" x="802.734375"/>
     <use xlink:href="#DejaVuSans-Bold-76" x="837.548828"/>
     <use xlink:href="#DejaVuSans-Bold-61" x="902.734375"/>
     <use xlink:href="#DejaVuSans-Bold-6c" x="970.214844"/>
     <use xlink:href="#DejaVuSans-Bold-69" x="1004.492188"/>
     <use xlink:href="#DejaVuSans-Bold-64" x="1038.769531"/>
     <use xlink:href="#DejaVuSans-Bold-61" x="1110.351562"/>
     <use xlink:href="#DejaVuSans-Bold-74" x="1177.832031"/>
     <use xlink:href="#DejaVuSans-Bold-69" x="1225.634766"/>
     <use xlink:href="#DejaVuSans-Bold-6f" x="1259.912109"/>
     <use xlink:href="#DejaVuSans-Bold-6e" x="1328.613281"/>
     <use xlink:href="#DejaVuSans-Bold-20" x="1399.804688"/>
     <use xlink:href="#DejaVuSans-Bold-6c" x="1434.619141"/>
     <use xlink:href="#DejaVuSans-Bold-6f" x="1468.896484"/>
     <use xlink:href="#DejaVuSans-Bold-73" x="1537.597656"/>
     <use xlink:href="#DejaVuSans-Bold-73" x="1597.119141"/>
    </g>
   </g>
   <g id="legend_1">
    <g id="patch_7">
     <path d="M 201.223219 134.039125 
L 579.704 134.039125 
Q 582.304 134.039125 582.304 131.439125 
L 582.304 94.576 
Q 582.304 91.976 579.704 91.976 
L 201.223219 91.976 
Q 198.623219 91.976 198.623219 94.576 
L 198.623219 131.439125 
Q 198.623219 134.039125 201.223219 134.039125 
z
" style="fill: #0b111a; opacity: 0.72; stroke: #f7f8fb; stroke-linejoin: miter"/>
    </g>
    <g id="line2d_37">
     <path d="M 203.823219 102.503969 
L 216.823219 102.503969 
L 229.823219 102.503969 
" style="fill: none; stroke: #6bd6ff; stroke-width: 2.8; stroke-linecap: square"/>
     <g>
      <use xlink:href="#m3225ea84d9" x="216.823219" y="102.503969" style="fill: #0b111a; stroke: #6bd6ff; stroke-width: 1.2"/>
     </g>
    </g>
    <g id="text_21">
     <!-- Fold A train loss -->
     <g style="fill: #f7f8fb" transform="translate(240.223219 107.053969) scale(0.13 -0.13)">
      <defs>
       <path id="DejaVuSans-46" d="M 628 4666 
L 3309 4666 
L 3309 4134 
L 1259 4134 
L 1259 2759 
L 3109 2759 
L 3109 2228 
L 1259 2228 
L 1259 0 
L 628 0 
L 628 4666 
z
" transform="scale(0.015625)"/>
       <path id="DejaVuSans-6c" d="M 603 4863 
L 1178 4863 
L 1178 0 
L 603 0 
L 603 4863 
z
" transform="scale(0.015625)"/>
       <path id="DejaVuSans-64" d="M 2906 2969 
L 2906 4863 
L 3481 4863 
L 3481 0 
L 2906 0 
L 2906 525 
Q 2725 213 2448 61 
Q 2172 -91 1784 -91 
Q 1150 -91 751 415 
Q 353 922 353 1747 
Q 353 2572 751 3078 
Q 1150 3584 1784 3584 
Q 2172 3584 2448 3432 
Q 2725 3281 2906 2969 
z
M 947 1747 
Q 947 1113 1208 752 
Q 1469 391 1925 391 
Q 2381 391 2643 752 
Q 2906 1113 2906 1747 
Q 2906 2381 2643 2742 
Q 2381 3103 1925 3103 
Q 1469 3103 1208 2742 
Q 947 2381 947 1747 
z
" transform="scale(0.015625)"/>
       <path id="DejaVuSans-20" transform="scale(0.015625)"/>
       <path id="DejaVuSans-41" d="M 2188 4044 
L 1331 1722 
L 3047 1722 
L 2188 4044 
z
M 1831 4666 
L 2547 4666 
L 4325 0 
L 3669 0 
L 3244 1197 
L 1141 1197 
L 716 0 
L 50 0 
L 1831 4666 
z
" transform="scale(0.015625)"/>
       <path id="DejaVuSans-74" d="M 1172 4494 
L 1172 3500 
L 2356 3500 
L 2356 3053 
L 1172 3053 
L 1172 1153 
Q 1172 725 1289 603 
Q 1406 481 1766 481 
L 2356 481 
L 2356 0 
L 1766 0 
Q 1100 0 847 248 
Q 594 497 594 1153 
L 594 3053 
L 172 3053 
L 172 3500 
L 594 3500 
L 594 4494 
L 1172 4494 
z
" transform="scale(0.015625)"/>
       <path id="DejaVuSans-72" d="M 2631 2963 
Q 2534 3019 2420 3045 
Q 2306 3072 2169 3072 
Q 1681 3072 1420 2755 
Q 1159 2438 1159 1844 
L 1159 0 
L 581 0 
L 581 3500 
L 1159 3500 
L 1159 2956 
Q 1341 3275 1631 3429 
Q 1922 3584 2338 3584 
Q 2397 3584 2469 3576 
Q 2541 3569 2628 3553 
L 2631 2963 
z
" transform="scale(0.015625)"/>
       <path id="DejaVuSans-61" d="M 2194 1759 
Q 1497 1759 1228 1600 
Q 959 1441 959 1056 
Q 959 750 1161 570 
Q 1363 391 1709 391 
Q 2188 391 2477 730 
Q 2766 1069 2766 1631 
L 2766 1759 
L 2194 1759 
z
M 3341 1997 
L 3341 0 
L 2766 0 
L 2766 531 
Q 2569 213 2275 61 
Q 1981 -91 1556 -91 
Q 1019 -91 701 211 
Q 384 513 384 1019 
Q 384 1609 779 1909 
Q 1175 2209 1959 2209 
L 2766 2209 
L 2766 2266 
Q 2766 2663 2505 2880 
Q 2244 3097 1772 3097 
Q 1472 3097 1187 3025 
Q 903 2953 641 2809 
L 641 3341 
Q 956 3463 1253 3523 
Q 1550 3584 1831 3584 
Q 2591 3584 2966 3190 
Q 3341 2797 3341 1997 
z
" transform="scale(0.015625)"/>
       <path id="DejaVuSans-69" d="M 603 3500 
L 1178 3500 
L 1178 0 
L 603 0 
L 603 3500 
z
M 603 4863 
L 1178 4863 
L 1178 4134 
L 603 4134 
L 603 4863 
z
" transform="scale(0.015625)"/>
       <path id="DejaVuSans-6e" d="M 3513 2113 
L 3513 0 
L 2938 0 
L 2938 2094 
Q 2938 2591 2744 2837 
Q 2550 3084 2163 3084 
Q 1697 3084 1428 2787 
Q 1159 2491 1159 1978 
L 1159 0 
L 581 0 
L 581 3500 
L 1159 3500 
L 1159 2956 
Q 1366 3272 1645 3428 
Q 1925 3584 2291 3584 
Q 2894 3584 3203 3211 
Q 3513 2838 3513 2113 
z
" transform="scale(0.015625)"/>
      </defs>
      <use xlink:href="#DejaVuSans-46"/>
      <use xlink:href="#DejaVuSans-6f" x="53.894531"/>
      <use xlink:href="#DejaVuSans-6c" x="115.076172"/>
      <use xlink:href="#DejaVuSans-64" x="142.859375"/>
      <use xlink:href="#DejaVuSans-20" x="206.335938"/>
      <use xlink:href="#DejaVuSans-41" x="238.123047"/>
      <use xlink:href="#DejaVuSans-20" x="306.53125"/>
      <use xlink:href="#DejaVuSans-74" x="338.318359"/>
      <use xlink:href="#DejaVuSans-72" x="377.527344"/>
      <use xlink:href="#DejaVuSans-61" x="418.640625"/>
      <use xlink:href="#DejaVuSans-69" x="479.919922"/>
      <use xlink:href="#DejaVuSans-6e" x="507.703125"/>
      <use xlink:href="#DejaVuSans-20" x="571.082031"/>
      <use xlink:href="#DejaVuSans-6c" x="602.869141"/>
      <use xlink:href="#DejaVuSans-6f" x="630.652344"/>
      <use xlink:href="#DejaVuSans-73" x="691.833984"/>
      <use xlink:href="#DejaVuSans-73" x="743.933594"/>
     </g>
    </g>
    <g id="line2d_38">
     <path d="M 203.823219 121.585531 
L 216.823219 121.585531 
L 229.823219 121.585531 
" style="fill: none; stroke-dasharray: 8.14,3.52; stroke-dashoffset: 0; stroke: #6bd6ff; stroke-opacity: 0.92; stroke-width: 2.2"/>
     <g>
      <use xlink:href="#m33cb12918e" x="216.823219" y="121.585531" style="fill: #0b111a; fill-opacity: 0.92; stroke: #6bd6ff; stroke-opacity: 0.92; stroke-width: 1.1; stroke-linejoin: miter"/>
     </g>
    </g>
    <g id="text_22">
     <!-- Fold A validation loss -->
     <g style="fill: #f7f8fb" transform="translate(240.223219 126.135531) scale(0.13 -0.13)">
      <defs>
       <path id="DejaVuSans-76" d="M 191 3500 
L 800 3500 
L 1894 563 
L 2988 3500 
L 3597 3500 
L 2284 0 
L 1503 0 
L 191 3500 
z
" transform="scale(0.015625)"/>
      </defs>
      <use xlink:href="#DejaVuSans-46"/>
      <use xlink:href="#DejaVuSans-6f" x="53.894531"/>
      <use xlink:href="#DejaVuSans-6c" x="115.076172"/>
      <use xlink:href="#DejaVuSans-64" x="142.859375"/>
      <use xlink:href="#DejaVuSans-20" x="206.335938"/>
      <use xlink:href="#DejaVuSans-41" x="238.123047"/>
      <use xlink:href="#DejaVuSans-20" x="306.53125"/>
      <use xlink:href="#DejaVuSans-76" x="338.318359"/>
      <use xlink:href="#DejaVuSans-61" x="397.498047"/>
      <use xlink:href="#DejaVuSans-6c" x="458.777344"/>
      <use xlink:href="#DejaVuSans-69" x="486.560547"/>
      <use xlink:href="#DejaVuSans-64" x="514.34375"/>
      <use xlink:href="#DejaVuSans-61" x="577.820312"/>
      <use xlink:href="#DejaVuSans-74" x="639.099609"/>
      <use xlink:href="#DejaVuSans-69" x="678.308594"/>
      <use xlink:href="#DejaVuSans-6f" x="706.091797"/>
      <use xlink:href="#DejaVuSans-6e" x="767.273438"/>
      <use xlink:href="#DejaVuSans-20" x="830.652344"/>
      <use xlink:href="#DejaVuSans-6c" x="862.439453"/>
      <use xlink:href="#DejaVuSans-6f" x="890.222656"/>
      <use xlink:href="#DejaVuSans-73" x="951.404297"/>
      <use xlink:href="#DejaVuSans-73" x="1003.503906"/>
     </g>
    </g>
    <g id="line2d_39">
     <path d="M 403.450406 102.503969 
L 416.450406 102.503969 
L 429.450406 102.503969 
" style="fill: none; stroke: #ffb74d; stroke-width: 2.8; stroke-linecap: square"/>
     <g>
      <use xlink:href="#m45b0931282" x="416.450406" y="102.503969" style="fill: #0b111a; stroke: #ffb74d; stroke-width: 1.2; stroke-linejoin: miter"/>
     </g>
    </g>
    <g id="text_23">
     <!-- Fold B train loss -->
     <g style="fill: #f7f8fb" transform="translate(439.850406 107.053969) scale(0.13 -0.13)">
      <defs>
       <path id="DejaVuSans-42" d="M 1259 2228 
L 1259 519 
L 2272 519 
Q 2781 519 3026 730 
Q 3272 941 3272 1375 
Q 3272 1813 3026 2020 
Q 2781 2228 2272 2228 
L 1259 2228 
z
M 1259 4147 
L 1259 2741 
L 2194 2741 
Q 2656 2741 2882 2914 
Q 3109 3088 3109 3444 
Q 3109 3797 2882 3972 
Q 2656 4147 2194 4147 
L 1259 4147 
z
M 628 4666 
L 2241 4666 
Q 2963 4666 3353 4366 
Q 3744 4066 3744 3513 
Q 3744 3084 3544 2831 
Q 3344 2578 2956 2516 
Q 3422 2416 3680 2098 
Q 3938 1781 3938 1306 
Q 3938 681 3513 340 
Q 3088 0 2303 0 
L 628 0 
L 628 4666 
z
" transform="scale(0.015625)"/>
      </defs>
      <use xlink:href="#DejaVuSans-46"/>
      <use xlink:href="#DejaVuSans-6f" x="53.894531"/>
      <use xlink:href="#DejaVuSans-6c" x="115.076172"/>
      <use xlink:href="#DejaVuSans-64" x="142.859375"/>
      <use xlink:href="#DejaVuSans-20" x="206.335938"/>
      <use xlink:href="#DejaVuSans-42" x="238.123047"/>
      <use xlink:href="#DejaVuSans-20" x="306.726562"/>
      <use xlink:href="#DejaVuSans-74" x="338.513672"/>
      <use xlink:href="#DejaVuSans-72" x="377.722656"/>
      <use xlink:href="#DejaVuSans-61" x="418.835938"/>
      <use xlink:href="#DejaVuSans-69" x="480.115234"/>
      <use xlink:href="#DejaVuSans-6e" x="507.898438"/>
      <use xlink:href="#DejaVuSans-20" x="571.277344"/>
      <use xlink:href="#DejaVuSans-6c" x="603.064453"/>
      <use xlink:href="#DejaVuSans-6f" x="630.847656"/>
      <use xlink:href="#DejaVuSans-73" x="692.029297"/>
      <use xlink:href="#DejaVuSans-73" x="744.128906"/>
     </g>
    </g>
    <g id="line2d_40">
     <path d="M 403.450406 121.585531 
L 416.450406 121.585531 
L 429.450406 121.585531 
" style="fill: none; stroke-dasharray: 8.14,3.52; stroke-dashoffset: 0; stroke: #ffb74d; stroke-opacity: 0.92; stroke-width: 2.2"/>
     <g>
      <use xlink:href="#m9a241d19d7" x="416.450406" y="121.585531" style="fill: #0b111a; fill-opacity: 0.92; stroke: #ffb74d; stroke-opacity: 0.92; stroke-width: 1.1; stroke-linejoin: miter"/>
     </g>
    </g>
    <g id="text_24">
     <!-- Fold B validation loss -->
     <g style="fill: #f7f8fb" transform="translate(439.850406 126.135531) scale(0.13 -0.13)">
      <use xlink:href="#DejaVuSans-46"/>
      <use xlink:href="#DejaVuSans-6f" x="53.894531"/>
      <use xlink:href="#DejaVuSans-6c" x="115.076172"/>
      <use xlink:href="#DejaVuSans-64" x="142.859375"/>
      <use xlink:href="#DejaVuSans-20" x="206.335938"/>
      <use xlink:href="#DejaVuSans-42" x="238.123047"/>
      <use xlink:href="#DejaVuSans-20" x="306.726562"/>
      <use xlink:href="#DejaVuSans-76" x="338.513672"/>
      <use xlink:href="#DejaVuSans-61" x="397.693359"/>
      <use xlink:href="#DejaVuSans-6c" x="458.972656"/>
      <use xlink:href="#DejaVuSans-69" x="486.755859"/>
      <use xlink:href="#DejaVuSans-64" x="514.539062"/>
      <use xlink:href="#DejaVuSans-61" x="578.015625"/>
      <use xlink:href="#DejaVuSans-74" x="639.294922"/>
      <use xlink:href="#DejaVuSans-69" x="678.503906"/>
      <use xlink:href="#DejaVuSans-6f" x="706.287109"/>
      <use xlink:href="#DejaVuSans-6e" x="767.46875"/>
      <use xlink:href="#DejaVuSans-20" x="830.847656"/>
      <use xlink:href="#DejaVuSans-6c" x="862.634766"/>
      <use xlink:href="#DejaVuSans-6f" x="890.417969"/>
      <use xlink:href="#DejaVuSans-73" x="951.599609"/>
      <use xlink:href="#DejaVuSans-73" x="1003.699219"/>
     </g>
    </g>
   </g>
  </g>
 </g>
 <defs>
  <clipPath id="p8a9a9cdea1">
   <rect x="66.528" y="81.576" width="526.176" height="222.48"/>
  </clipPath>
 </defs>
</svg>
