<?xml version="1.0" encoding="utf-8" standalone="no"?>
<!DOCTYPE svg PUBLIC "-//W3C//DTD SVG 1.1//EN"
  "http://www.w3.org/Graphics/SVG/1.1/DTD/svg11.dtd">
<svg xmlns:xlink="http://www.w3.org/1999/xlink" width="561.6pt" height="403.2pt" viewBox="0 0 561.6 403.2" xmlns="http://www.w3.org/2000/svg" version="1.1">
 <metadata>
  <rdf:RDF xmlns:dc="http://purl.org/dc/elements/1.1/" xmlns:cc="http://creativecommons.org/ns#" xmlns:rdf="http://www.w3.org/1999/02/22-rdf-syntax-ns#">
   <cc:Work>
    <dc:type rdf:resource="http://purl.org/dc/dcmitype/StillImage"/>
    <dc:date>2026-06-09T15:17:18.141882</dc:date>
    <dc:format>image/svg+xml</dc:format>
    <dc:creator>
     <cc:Agent>
      <dc:title>Matplotlib v3.8.4, https://matplotlib.org/</dc:title>
     </cc:Agent>
    </dc:creator>
   </cc:Work>
  </rdf:RDF>
 </metadata>
 <defs>
  <style type="text/css">*{stroke-linejoin: round; stroke-linecap: butt}</style>
 </defs>
 <g id="figure_1">
  <g id="patch_1">
   <path d="M 0 403.2 
L 561.6 403.2 
L 561.6 0 
L 0 0 
L 0 403.2 
z
" style="fill: none; opacity: 0"/>
  </g>
  <g id="axes_1">
   <g id="patch_2">
    <path d="M 73.008 249.984 
L 550.368 249.984 
L 550.368 56.448 
L 73.008 56.448 
L 73.008 249.984 
z
" style="fill: none; opacity: 0"/>
   </g>
   <g id="PolyCollection_1">
    <defs>
     <path id="mdfddd1a06e" d="M 74.092909 -153.216 
L 74.092909 -153.216 
L 75.177818 -153.216 
L 75.177818 -153.216 
L 77.347636 -153.216 
L 77.347636 -153.216 
L 79.517455 -153.216 
L 79.517455 -153.216 
L 81.687273 -153.216 
L 81.687273 -153.216 
L 83.857091 -153.216 
L 83.857091 -153.216 
L 86.026909 -153.216 
L 86.026909 -153.216 
L 88.196727 -153.216 
L 88.196727 -153.216 
L 90.366545 -153.216 
L 90.366545 -153.216 
L 92.536364 -153.216 
L 92.536364 -153.216 
L 94.706182 -153.216 
L 94.706182 -153.216 
L 96.876 -153.216 
L 96.876 -153.216 
L 99.045818 -153.216 
L 99.045818 -153.216 
L 101.215636 -153.216 
L 101.215636 -153.216 
L 103.385455 -153.216 
L 103.385455 -153.216 
L 105.555273 -153.216 
L 105.555273 -153.216 
L 107.725091 -153.216 
L 107.725091 -153.216 
L 109.894909 -153.216 
L 109.894909 -153.216 
L 112.064727 -153.216 
L 112.064727 -153.216 
L 114.234545 -153.216 
L 114.234545 -153.216 
L 116.404364 -153.216 
L 116.404364 -153.216 
L 118.574182 -153.216 
L 118.574182 -153.216 
L 120.744 -153.216 
L 120.744 -153.216 
L 122.913818 -153.216 
L 122.913818 -153.216 
L 125.083636 -153.216 
L 125.083636 -153.21601 
L 127.253455 -153.21601 
L 127.253455 -153.216227 
L 129.423273 -153.216227 
L 129.423273 -153.218592 
L 131.593091 -153.218592 
L 131.593091 -153.230892 
L 133.762909 -153.230892 
L 133.762909 -153.260349 
L 135.932727 -153.260349 
L 135.932727 -153.292233 
L 138.102545 -153.292233 
L 138.102545 -153.316305 
L 140.272364 -153.316305 
L 140.272364 -153.345835 
L 142.442182 -153.345835 
L 142.442182 -153.363043 
L 144.612 -153.363043 
L 144.612 -153.347001 
L 146.781818 -153.347001 
L 146.781818 -153.329958 
L 148.951636 -153.329958 
L 148.951636 -153.374654 
L 151.121455 -153.374654 
L 151.121455 -153.52848 
L 153.291273 -153.52848 
L 153.291273 -153.750339 
L 155.461091 -153.750339 
L 155.461091 -153.942069 
L 157.630909 -153.942069 
L 157.630909 -154.117844 
L 159.800727 -154.117844 
L 159.800727 -154.316461 
L 161.970545 -154.316461 
L 161.970545 -154.415676 
L 164.140364 -154.415676 
L 164.140364 -154.34365 
L 166.310182 -154.34365 
L 166.310182 -154.376601 
L 168.48 -154.376601 
L 168.48 -154.675857 
L 170.649818 -154.675857 
L 170.649818 -154.946295 
L 172.819636 -154.946295 
L 172.819636 -154.85998 
L 174.989455 -154.85998 
L 174.989455 -154.618066 
L 177.159273 -154.618066 
L 177.159273 -154.481746 
L 179.329091 -154.481746 
L 179.329091 -154.349553 
L 181.498909 -154.349553 
L 181.498909 -154.261495 
L 183.668727 -154.261495 
L 183.668727 -154.396388 
L 185.838545 -154.396388 
L 185.838545 -154.709899 
L 188.008364 -154.709899 
L 188.008364 -154.993027 
L 190.178182 -154.993027 
L 190.178182 -155.181601 
L 192.348 -155.181601 
L 192.348 -155.413131 
L 194.517818 -155.413131 
L 194.517818 -155.761332 
L 196.687636 -155.761332 
L 196.687636 -156.048137 
L 198.857455 -156.048137 
L 198.857455 -156.043003 
L 201.027273 -156.043003 
L 201.027273 -155.884066 
L 203.197091 -155.884066 
L 203.197091 -155.851359 
L 205.366909 -155.851359 
L 205.366909 -156.143394 
L 207.536727 -156.143394 
L 207.536727 -156.527489 
L 209.706545 -156.527489 
L 209.706545 -156.747845 
L 211.876364 -156.747845 
L 211.876364 -156.891676 
L 214.046182 -156.891676 
L 214.046182 -157.102894 
L 216.216 -157.102894 
L 216.216 -157.526097 
L 218.385818 -157.526097 
L 218.385818 -158.108618 
L 220.555636 -158.108618 
L 220.555636 -158.485931 
L 222.725455 -158.485931 
L 222.725455 -158.550619 
L 224.895273 -158.550619 
L 224.895273 -158.648129 
L 227.065091 -158.648129 
L 227.065091 -159.099262 
L 229.234909 -159.099262 
L 229.234909 -159.693888 
L 231.404727 -159.693888 
L 231.404727 -159.949435 
L 233.574545 -159.949435 
L 233.574545 -159.723286 
L 235.744364 -159.723286 
L 235.744364 -159.382987 
L 237.914182 -159.382987 
L 237.914182 -159.127609 
L 240.084 -159.127609 
L 240.084 -159.067997 
L 242.253818 -159.067997 
L 242.253818 -159.365709 
L 244.423636 -159.365709 
L 244.423636 -159.894619 
L 246.593455 -159.894619 
L 246.593455 -160.216996 
L 248.763273 -160.216996 
L 248.763273 -160.288008 
L 250.933091 -160.288008 
L 250.933091 -160.492342 
L 253.102909 -160.492342 
L 253.102909 -160.834616 
L 255.272727 -160.834616 
L 255.272727 -160.923174 
L 257.442545 -160.923174 
L 257.442545 -160.782065 
L 259.612364 -160.782065 
L 259.612364 -160.546261 
L 261.782182 -160.546261 
L 261.782182 -160.307978 
L 263.952 -160.307978 
L 263.952 -160.334025 
L 266.121818 -160.334025 
L 266.121818 -160.761172 
L 268.291636 -160.761172 
L 268.291636 -161.568016 
L 270.461455 -161.568016 
L 270.461455 -162.523584 
L 272.631273 -162.523584 
L 272.631273 -163.019834 
L 274.801091 -163.019834 
L 274.801091 -162.992069 
L 276.970909 -162.992069 
L 276.970909 -162.978236 
L 279.140727 -162.978236 
L 279.140727 -163.741161 
L 281.310545 -163.741161 
L 281.310545 -165.238461 
L 283.480364 -165.238461 
L 283.480364 -166.558514 
L 285.650182 -166.558514 
L 285.650182 -167.140763 
L 287.82 -167.140763 
L 287.82 -167.259335 
L 289.989818 -167.259335 
L 289.989818 -167.248001 
L 292.159636 -167.248001 
L 292.159636 -167.254512 
L 294.329455 -167.254512 
L 294.329455 -167.187732 
L 296.499273 -167.187732 
L 296.499273 -167.363409 
L 298.669091 -167.363409 
L 298.669091 -167.819989 
L 300.838909 -167.819989 
L 300.838909 -167.993987 
L 303.008727 -167.993987 
L 303.008727 -167.528637 
L 305.178545 -167.528637 
L 305.178545 -166.900456 
L 307.348364 -166.900456 
L 307.348364 -166.607938 
L 309.518182 -166.607938 
L 309.518182 -166.496465 
L 311.688 -166.496465 
L 311.688 -166.384447 
L 313.857818 -166.384447 
L 313.857818 -166.8104 
L 316.027636 -166.8104 
L 316.027636 -168.026478 
L 318.197455 -168.026478 
L 318.197455 -169.386912 
L 320.367273 -169.386912 
L 320.367273 -170.313403 
L 322.537091 -170.313403 
L 322.537091 -170.747564 
L 324.706909 -170.747564 
L 324.706909 -170.764812 
L 326.876727 -170.764812 
L 326.876727 -170.451265 
L 329.046545 -170.451265 
L 329.046545 -169.985485 
L 331.216364 -169.985485 
L 331.216364 -169.8464 
L 333.386182 -169.8464 
L 333.386182 -171.028345 
L 335.556 -171.028345 
L 335.556 -174.110414 
L 337.725818 -174.110414 
L 337.725818 -177.947583 
L 339.895636 -177.947583 
L 339.895636 -180.662511 
L 342.065455 -180.662511 
L 342.065455 -180.969908 
L 344.235273 -180.969908 
L 344.235273 -179.153455 
L 346.405091 -179.153455 
L 346.405091 -177.631235 
L 348.574909 -177.631235 
L 348.574909 -177.554075 
L 350.744727 -177.554075 
L 350.744727 -178.046767 
L 352.914545 -178.046767 
L 352.914545 -179.262302 
L 355.084364 -179.262302 
L 355.084364 -181.258768 
L 357.254182 -181.258768 
L 357.254182 -183.095161 
L 359.424 -183.095161 
L 359.424 -184.452664 
L 361.593818 -184.452664 
L 361.593818 -186.22807 
L 363.763636 -186.22807 
L 363.763636 -188.727416 
L 365.933455 -188.727416 
L 365.933455 -191.16956 
L 368.103273 -191.16956 
L 368.103273 -193.594299 
L 370.273091 -193.594299 
L 370.273091 -196.254724 
L 372.442909 -196.254724 
L 372.442909 -198.696467 
L 374.612727 -198.696467 
L 374.612727 -201.072962 
L 376.782545 -201.072962 
L 376.782545 -203.858066 
L 378.952364 -203.858066 
L 378.952364 -206.667067 
L 381.122182 -206.667067 
L 381.122182 -209.205258 
L 383.292 -209.205258 
L 383.292 -212.21134 
L 385.461818 -212.21134 
L 385.461818 -215.131995 
L 387.631636 -215.131995 
L 387.631636 -215.709131 
L 389.801455 -215.709131 
L 389.801455 -214.900131 
L 391.971273 -214.900131 
L 391.971273 -216.184897 
L 394.141091 -216.184897 
L 394.141091 -220.715238 
L 396.310909 -220.715238 
L 396.310909 -226.947083 
L 398.480727 -226.947083 
L 398.480727 -232.46888 
L 400.650545 -232.46888 
L 400.650545 -235.689523 
L 402.820364 -235.689523 
L 402.820364 -236.646576 
L 404.990182 -236.646576 
L 404.990182 -236.615865 
L 407.16 -236.615865 
L 407.16 -236.901009 
L 409.329818 -236.901009 
L 409.329818 -237.96603 
L 411.499636 -237.96603 
L 411.499636 -240.002395 
L 413.669455 -240.002395 
L 413.669455 -243.686111 
L 415.839273 -243.686111 
L 415.839273 -248.668771 
L 418.009091 -248.668771 
L 418.009091 -252.893307 
L 420.178909 -252.893307 
L 420.178909 -256.195681 
L 422.348727 -256.195681 
L 422.348727 -260.01406 
L 424.518545 -260.01406 
L 424.518545 -263.816196 
L 426.688364 -263.816196 
L 426.688364 -266.579895 
L 428.858182 -266.579895 
L 428.858182 -269.681263 
L 431.028 -269.681263 
L 431.028 -274.402381 
L 433.197818 -274.402381 
L 433.197818 -281.99058 
L 435.367636 -281.99058 
L 435.367636 -291.41562 
L 437.537455 -291.41562 
L 437.537455 -299.864113 
L 439.707273 -299.864113 
L 439.707273 -306.972448 
L 441.877091 -306.972448 
L 441.877091 -312.514902 
L 444.046909 -312.514902 
L 444.046909 -317.138575 
L 446.216727 -317.138575 
L 446.216727 -322.375037 
L 448.386545 -322.375037 
L 448.386545 -327.523693 
L 450.556364 -327.523693 
L 450.556364 -331.433059 
L 452.726182 -331.433059 
L 452.726182 -332.416 
L 454.896 -332.416 
L 454.896 -328.646376 
L 457.065818 -328.646376 
L 457.065818 -320.932847 
L 459.235636 -320.932847 
L 459.235636 -311.636041 
L 461.405455 -311.636041 
L 461.405455 -302.777302 
L 463.575273 -302.777302 
L 463.575273 -294.86093 
L 465.745091 -294.86093 
L 465.745091 -284.374083 
L 467.914909 -284.374083 
L 467.914909 -272.572329 
L 470.084727 -272.572329 
L 470.084727 -263.922631 
L 472.254545 -263.922631 
L 472.254545 -258.062789 
L 474.424364 -258.062789 
L 474.424364 -252.329241 
L 476.594182 -252.329241 
L 476.594182 -243.190601 
L 478.764 -243.190601 
L 478.764 -231.057131 
L 480.933818 -231.057131 
L 480.933818 -219.490932 
L 483.103636 -219.490932 
L 483.103636 -210.507966 
L 485.273455 -210.507966 
L 485.273455 -203.776543 
L 487.443273 -203.776543 
L 487.443273 -197.482578 
L 489.613091 -197.482578 
L 489.613091 -191.299633 
L 491.782909 -191.299633 
L 491.782909 -184.835661 
L 493.952727 -184.835661 
L 493.952727 -178.019105 
L 496.122545 -178.019105 
L 496.122545 -171.884159 
L 498.292364 -171.884159 
L 498.292364 -166.766322 
L 500.462182 -166.766322 
L 500.462182 -162.33912 
L 502.632 -162.33912 
L 502.632 -158.578094 
L 504.801818 -158.578094 
L 504.801818 -156.047585 
L 506.971636 -156.047585 
L 506.971636 -154.739073 
L 509.141455 -154.739073 
L 509.141455 -154.06133 
L 511.311273 -154.06133 
L 511.311273 -153.649674 
L 513.481091 -153.649674 
L 513.481091 -153.408177 
L 515.650909 -153.408177 
L 515.650909 -153.286587 
L 517.820727 -153.286587 
L 517.820727 -153.234432 
L 519.990545 -153.234432 
L 519.990545 -153.218859 
L 522.160364 -153.218859 
L 522.160364 -153.216237 
L 524.330182 -153.216237 
L 524.330182 -153.21601 
L 526.5 -153.21601 
L 526.5 -153.216 
L 528.669818 -153.216 
L 528.669818 -153.216 
L 530.839636 -153.216 
L 530.839636 -153.216 
L 533.009455 -153.216 
L 533.009455 -153.216 
L 535.179273 -153.216 
L 535.179273 -153.216 
L 537.349091 -153.216 
L 537.349091 -153.216 
L 539.518909 -153.216 
L 539.518909 -153.216 
L 541.688727 -153.216 
L 541.688727 -153.216 
L 543.858545 -153.216 
L 543.858545 -153.216 
L 546.028364 -153.216 
L 546.028364 -153.216 
L 548.198182 -153.216 
L 548.198182 -153.216 
L 549.283091 -153.216 
L 549.283091 -153.216 
L 549.283091 -153.216 
L 548.198182 -153.216 
L 548.198182 -153.216 
L 546.028364 -153.216 
L 546.028364 -153.216 
L 543.858545 -153.216 
L 543.858545 -153.216 
L 541.688727 -153.216 
L 541.688727 -153.216 
L 539.518909 -153.216 
L 539.518909 -153.216 
L 537.349091 -153.216 
L 537.349091 -153.216 
L 535.179273 -153.216 
L 535.179273 -153.216 
L 533.009455 -153.216 
L 533.009455 -153.216 
L 530.839636 -153.216 
L 530.839636 -153.216 
L 528.669818 -153.216 
L 528.669818 -153.216 
L 526.5 -153.216 
L 526.5 -153.216 
L 524.330182 -153.216 
L 524.330182 -153.216 
L 522.160364 -153.216 
L 522.160364 -153.216 
L 519.990545 -153.216 
L 519.990545 -153.216 
L 517.820727 -153.216 
L 517.820727 -153.216 
L 515.650909 -153.216 
L 515.650909 -153.216 
L 513.481091 -153.216 
L 513.481091 -153.216 
L 511.311273 -153.216 
L 511.311273 -153.216 
L 509.141455 -153.216 
L 509.141455 -153.216 
L 506.971636 -153.216 
L 506.971636 -153.216 
L 504.801818 -153.216 
L 504.801818 -153.216 
L 502.632 -153.216 
L 502.632 -153.216 
L 500.462182 -153.216 
L 500.462182 -153.216 
L 498.292364 -153.216 
L 498.292364 -153.216 
L 496.122545 -153.216 
L 496.122545 -153.216 
L 493.952727 -153.216 
L 493.952727 -153.216 
L 491.782909 -153.216 
L 491.782909 -153.216 
L 489.613091 -153.216 
L 489.613091 -153.216 
L 487.443273 -153.216 
L 487.443273 -153.216 
L 485.273455 -153.216 
L 485.273455 -153.216 
L 483.103636 -153.216 
L 483.103636 -153.216 
L 480.933818 -153.216 
L 480.933818 -153.216 
L 478.764 -153.216 
L 478.764 -153.216 
L 476.594182 -153.216 
L 476.594182 -153.216 
L 474.424364 -153.216 
L 474.424364 -153.216 
L 472.254545 -153.216 
L 472.254545 -153.216 
L 470.084727 -153.216 
L 470.084727 -153.216 
L 467.914909 -153.216 
L 467.914909 -153.216 
L 465.745091 -153.216 
L 465.745091 -153.216 
L 463.575273 -153.216 
L 463.575273 -153.216 
L 461.405455 -153.216 
L 461.405455 -153.216 
L 459.235636 -153.216 
L 459.235636 -153.216 
L 457.065818 -153.216 
L 457.065818 -153.216 
L 454.896 -153.216 
L 454.896 -153.216 
L 452.726182 -153.216 
L 452.726182 -153.216 
L 450.556364 -153.216 
L 450.556364 -153.216 
L 448.386545 -153.216 
L 448.386545 -153.216 
L 446.216727 -153.216 
L 446.216727 -153.216 
L 444.046909 -153.216 
L 444.046909 -153.216 
L 441.877091 -153.216 
L 441.877091 -153.216 
L 439.707273 -153.216 
L 439.707273 -153.216 
L 437.537455 -153.216 
L 437.537455 -153.216 
L 435.367636 -153.216 
L 435.367636 -153.216 
L 433.197818 -153.216 
L 433.197818 -153.216 
L 431.028 -153.216 
L 431.028 -153.216 
L 428.858182 -153.216 
L 428.858182 -153.216 
L 426.688364 -153.216 
L 426.688364 -153.216 
L 424.518545 -153.216 
L 424.518545 -153.216 
L 422.348727 -153.216 
L 422.348727 -153.216 
L 420.178909 -153.216 
L 420.178909 -153.216 
L 418.009091 -153.216 
L 418.009091 -153.216 
L 415.839273 -153.216 
L 415.839273 -153.216 
L 413.669455 -153.216 
L 413.669455 -153.216 
L 411.499636 -153.216 
L 411.499636 -153.216 
L 409.329818 -153.216 
L 409.329818 -153.216 
L 407.16 -153.216 
L 407.16 -153.216 
L 404.990182 -153.216 
L 404.990182 -153.216 
L 402.820364 -153.216 
L 402.820364 -153.216 
L 400.650545 -153.216 
L 400.650545 -153.216 
L 398.480727 -153.216 
L 398.480727 -153.216 
L 396.310909 -153.216 
L 396.310909 -153.216 
L 394.141091 -153.216 
L 394.141091 -153.216 
L 391.971273 -153.216 
L 391.971273 -153.216 
L 389.801455 -153.216 
L 389.801455 -153.216 
L 387.631636 -153.216 
L 387.631636 -153.216 
L 385.461818 -153.216 
L 385.461818 -153.216 
L 383.292 -153.216 
L 383.292 -153.216 
L 381.122182 -153.216 
L 381.122182 -153.216 
L 378.952364 -153.216 
L 378.952364 -153.216 
L 376.782545 -153.216 
L 376.782545 -153.216 
L 374.612727 -153.216 
L 374.612727 -153.216 
L 372.442909 -153.216 
L 372.442909 -153.216 
L 370.273091 -153.216 
L 370.273091 -153.216 
L 368.103273 -153.216 
L 368.103273 -153.216 
L 365.933455 -153.216 
L 365.933455 -153.216 
L 363.763636 -153.216 
L 363.763636 -153.216 
L 361.593818 -153.216 
L 361.593818 -153.216 
L 359.424 -153.216 
L 359.424 -153.216 
L 357.254182 -153.216 
L 357.254182 -153.216 
L 355.084364 -153.216 
L 355.084364 -153.216 
L 352.914545 -153.216 
L 352.914545 -153.216 
L 350.744727 -153.216 
L 350.744727 -153.216 
L 348.574909 -153.216 
L 348.574909 -153.216 
L 346.405091 -153.216 
L 346.405091 -153.216 
L 344.235273 -153.216 
L 344.235273 -153.216 
L 342.065455 -153.216 
L 342.065455 -153.216 
L 339.895636 -153.216 
L 339.895636 -153.216 
L 337.725818 -153.216 
L 337.725818 -153.216 
L 335.556 -153.216 
L 335.556 -153.216 
L 333.386182 -153.216 
L 333.386182 -153.216 
L 331.216364 -153.216 
L 331.216364 -153.216 
L 329.046545 -153.216 
L 329.046545 -153.216 
L 326.876727 -153.216 
L 326.876727 -153.216 
L 324.706909 -153.216 
L 324.706909 -153.216 
L 322.537091 -153.216 
L 322.537091 -153.216 
L 320.367273 -153.216 
L 320.367273 -153.216 
L 318.197455 -153.216 
L 318.197455 -153.216 
L 316.027636 -153.216 
L 316.027636 -153.216 
L 313.857818 -153.216 
L 313.857818 -153.216 
L 311.688 -153.216 
L 311.688 -153.216 
L 309.518182 -153.216 
L 309.518182 -153.216 
L 307.348364 -153.216 
L 307.348364 -153.216 
L 305.178545 -153.216 
L 305.178545 -153.216 
L 303.008727 -153.216 
L 303.008727 -153.216 
L 300.838909 -153.216 
L 300.838909 -153.216 
L 298.669091 -153.216 
L 298.669091 -153.216 
L 296.499273 -153.216 
L 296.499273 -153.216 
L 294.329455 -153.216 
L 294.329455 -153.216 
L 292.159636 -153.216 
L 292.159636 -153.216 
L 289.989818 -153.216 
L 289.989818 -153.216 
L 287.82 -153.216 
L 287.82 -153.216 
L 285.650182 -153.216 
L 285.650182 -153.216 
L 283.480364 -153.216 
L 283.480364 -153.216 
L 281.310545 -153.216 
L 281.310545 -153.216 
L 279.140727 -153.216 
L 279.140727 -153.216 
L 276.970909 -153.216 
L 276.970909 -153.216 
L 274.801091 -153.216 
L 274.801091 -153.216 
L 272.631273 -153.216 
L 272.631273 -153.216 
L 270.461455 -153.216 
L 270.461455 -153.216 
L 268.291636 -153.216 
L 268.291636 -153.216 
L 266.121818 -153.216 
L 266.121818 -153.216 
L 263.952 -153.216 
L 263.952 -153.216 
L 261.782182 -153.216 
L 261.782182 -153.216 
L 259.612364 -153.216 
L 259.612364 -153.216 
L 257.442545 -153.216 
L 257.442545 -153.216 
L 255.272727 -153.216 
L 255.272727 -153.216 
L 253.102909 -153.216 
L 253.102909 -153.216 
L 250.933091 -153.216 
L 250.933091 -153.216 
L 248.763273 -153.216 
L 248.763273 -153.216 
L 246.593455 -153.216 
L 246.593455 -153.216 
L 244.423636 -153.216 
L 244.423636 -153.216 
L 242.253818 -153.216 
L 242.253818 -153.216 
L 240.084 -153.216 
L 240.084 -153.216 
L 237.914182 -153.216 
L 237.914182 -153.216 
L 235.744364 -153.216 
L 235.744364 -153.216 
L 233.574545 -153.216 
L 233.574545 -153.216 
L 231.404727 -153.216 
L 231.404727 -153.216 
L 229.234909 -153.216 
L 229.234909 -153.216 
L 227.065091 -153.216 
L 227.065091 -153.216 
L 224.895273 -153.216 
L 224.895273 -153.216 
L 222.725455 -153.216 
L 222.725455 -153.216 
L 220.555636 -153.216 
L 220.555636 -153.216 
L 218.385818 -153.216 
L 218.385818 -153.216 
L 216.216 -153.216 
L 216.216 -153.216 
L 214.046182 -153.216 
L 214.046182 -153.216 
L 211.876364 -153.216 
L 211.876364 -153.216 
L 209.706545 -153.216 
L 209.706545 -153.216 
L 207.536727 -153.216 
L 207.536727 -153.216 
L 205.366909 -153.216 
L 205.366909 -153.216 
L 203.197091 -153.216 
L 203.197091 -153.216 
L 201.027273 -153.216 
L 201.027273 -153.216 
L 198.857455 -153.216 
L 198.857455 -153.216 
L 196.687636 -153.216 
L 196.687636 -153.216 
L 194.517818 -153.216 
L 194.517818 -153.216 
L 192.348 -153.216 
L 192.348 -153.216 
L 190.178182 -153.216 
L 190.178182 -153.216 
L 188.008364 -153.216 
L 188.008364 -153.216 
L 185.838545 -153.216 
L 185.838545 -153.216 
L 183.668727 -153.216 
L 183.668727 -153.216 
L 181.498909 -153.216 
L 181.498909 -153.216 
L 179.329091 -153.216 
L 179.329091 -153.216 
L 177.159273 -153.216 
L 177.159273 -153.216 
L 174.989455 -153.216 
L 174.989455 -153.216 
L 172.819636 -153.216 
L 172.819636 -153.216 
L 170.649818 -153.216 
L 170.649818 -153.216 
L 168.48 -153.216 
L 168.48 -153.216 
L 166.310182 -153.216 
L 166.310182 -153.216 
L 164.140364 -153.216 
L 164.140364 -153.216 
L 161.970545 -153.216 
L 161.970545 -153.216 
L 159.800727 -153.216 
L 159.800727 -153.216 
L 157.630909 -153.216 
L 157.630909 -153.216 
L 155.461091 -153.216 
L 155.461091 -153.216 
L 153.291273 -153.216 
L 153.291273 -153.216 
L 151.121455 -153.216 
L 151.121455 -153.216 
L 148.951636 -153.216 
L 148.951636 -153.216 
L 146.781818 -153.216 
L 146.781818 -153.216 
L 144.612 -153.216 
L 144.612 -153.216 
L 142.442182 -153.216 
L 142.442182 -153.216 
L 140.272364 -153.216 
L 140.272364 -153.216 
L 138.102545 -153.216 
L 138.102545 -153.216 
L 135.932727 -153.216 
L 135.932727 -153.216 
L 133.762909 -153.216 
L 133.762909 -153.216 
L 131.593091 -153.216 
L 131.593091 -153.216 
L 129.423273 -153.216 
L 129.423273 -153.216 
L 127.253455 -153.216 
L 127.253455 -153.216 
L 125.083636 -153.216 
L 125.083636 -153.216 
L 122.913818 -153.216 
L 122.913818 -153.216 
L 120.744 -153.216 
L 120.744 -153.216 
L 118.574182 -153.216 
L 118.574182 -153.216 
L 116.404364 -153.216 
L 116.404364 -153.216 
L 114.234545 -153.216 
L 114.234545 -153.216 
L 112.064727 -153.216 
L 112.064727 -153.216 
L 109.894909 -153.216 
L 109.894909 -153.216 
L 107.725091 -153.216 
L 107.725091 -153.216 
L 105.555273 -153.216 
L 105.555273 -153.216 
L 103.385455 -153.216 
L 103.385455 -153.216 
L 101.215636 -153.216 
L 101.215636 -153.216 
L 99.045818 -153.216 
L 99.045818 -153.216 
L 96.876 -153.216 
L 96.876 -153.216 
L 94.706182 -153.216 
L 94.706182 -153.216 
L 92.536364 -153.216 
L 92.536364 -153.216 
L 90.366545 -153.216 
L 90.366545 -153.216 
L 88.196727 -153.216 
L 88.196727 -153.216 
L 86.026909 -153.216 
L 86.026909 -153.216 
L 83.857091 -153.216 
L 83.857091 -153.216 
L 81.687273 -153.216 
L 81.687273 -153.216 
L 79.517455 -153.216 
L 79.517455 -153.216 
L 77.347636 -153.216 
L 77.347636 -153.216 
L 75.177818 -153.216 
L 75.177818 -153.216 
L 74.092909 -153.216 
z
" style="stroke: #ff6b6b; stroke-opacity: 0.28"/>
    </defs>
    <g clip-path="url(#p97e07f8222)">
     <use xlink:href="#mdfddd1a06e" x="0" y="403.2" style="fill: #ff6b6b; fill-opacity: 0.28; stroke: #ff6b6b; stroke-opacity: 0.28"/>
    </g>
   </g>
   <g id="PolyCollection_2">
    <defs>
     <path id="m9274894476" d="M 74.092909 -153.216 
L 74.092909 -153.216 
L 75.177818 -153.216 
L 75.177818 -153.216 
L 77.347636 -153.216 
L 77.347636 -153.216 
L 79.517455 -153.216 
L 79.517455 -153.216 
L 81.687273 -153.216 
L 81.687273 -153.216 
L 83.857091 -153.216 
L 83.857091 -153.216 
L 86.026909 -153.216 
L 86.026909 -153.216 
L 88.196727 -153.216 
L 88.196727 -153.216 
L 90.366545 -153.216 
L 90.366545 -153.216 
L 92.536364 -153.216 
L 92.536364 -153.216 
L 94.706182 -153.216 
L 94.706182 -153.216 
L 96.876 -153.216 
L 96.876 -153.216001 
L 99.045818 -153.216001 
L 99.045818 -153.216047 
L 101.215636 -153.216047 
L 101.215636 -153.216696 
L 103.385455 -153.216696 
L 103.385455 -153.221851 
L 105.555273 -153.221851 
L 105.555273 -153.244407 
L 107.725091 -153.244407 
L 107.725091 -153.295756 
L 109.894909 -153.295756 
L 109.894909 -153.347172 
L 112.064727 -153.347172 
L 112.064727 -153.352936 
L 114.234545 -153.352936 
L 114.234545 -153.351769 
L 116.404364 -153.351769 
L 116.404364 -153.44907 
L 118.574182 -153.44907 
L 118.574182 -153.676753 
L 120.744 -153.676753 
L 120.744 -154.035328 
L 122.913818 -154.035328 
L 122.913818 -154.874155 
L 125.083636 -154.874155 
L 125.083636 -156.855867 
L 127.253455 -156.855867 
L 127.253455 -159.635698 
L 129.423273 -159.635698 
L 129.423273 -161.824261 
L 131.593091 -161.824261 
L 131.593091 -163.391558 
L 133.762909 -163.391558 
L 133.762909 -165.333635 
L 135.932727 -165.333635 
L 135.932727 -166.909696 
L 138.102545 -166.909696 
L 138.102545 -167.103455 
L 140.272364 -167.103455 
L 140.272364 -167.535983 
L 142.442182 -167.535983 
L 142.442182 -169.557329 
L 144.612 -169.557329 
L 144.612 -171.223821 
L 146.781818 -171.223821 
L 146.781818 -170.549616 
L 148.951636 -170.549616 
L 148.951636 -169.792416 
L 151.121455 -169.792416 
L 151.121455 -171.324721 
L 153.291273 -171.324721 
L 153.291273 -172.914347 
L 155.461091 -172.914347 
L 155.461091 -172.017027 
L 157.630909 -172.017027 
L 157.630909 -171.089068 
L 159.800727 -171.089068 
L 159.800727 -172.599719 
L 161.970545 -172.599719 
L 161.970545 -174.169726 
L 164.140364 -174.169726 
L 164.140364 -173.335861 
L 166.310182 -173.335861 
L 166.310182 -172.91497 
L 168.48 -172.91497 
L 168.48 -175.508263 
L 170.649818 -175.508263 
L 170.649818 -178.124858 
L 172.819636 -178.124858 
L 172.819636 -177.885684 
L 174.989455 -177.885684 
L 174.989455 -178.818636 
L 177.159273 -178.818636 
L 177.159273 -185.01857 
L 179.329091 -185.01857 
L 179.329091 -192.775225 
L 181.498909 -192.775225 
L 181.498909 -197.002801 
L 183.668727 -197.002801 
L 183.668727 -199.487609 
L 185.838545 -199.487609 
L 185.838545 -202.976106 
L 188.008364 -202.976106 
L 188.008364 -206.7698 
L 190.178182 -206.7698 
L 190.178182 -209.583957 
L 192.348 -209.583957 
L 192.348 -211.843971 
L 194.517818 -211.843971 
L 194.517818 -214.256006 
L 196.687636 -214.256006 
L 196.687636 -217.403899 
L 198.857455 -217.403899 
L 198.857455 -220.960354 
L 201.027273 -220.960354 
L 201.027273 -225.144206 
L 203.197091 -225.144206 
L 203.197091 -229.898054 
L 205.366909 -229.898054 
L 205.366909 -234.996465 
L 207.536727 -234.996465 
L 207.536727 -240.017346 
L 209.706545 -240.017346 
L 209.706545 -244.527943 
L 211.876364 -244.527943 
L 211.876364 -247.699147 
L 214.046182 -247.699147 
L 214.046182 -250.357587 
L 216.216 -250.357587 
L 216.216 -252.088686 
L 218.385818 -252.088686 
L 218.385818 -252.9967 
L 220.555636 -252.9967 
L 220.555636 -253.696092 
L 222.725455 -253.696092 
L 222.725455 -254.808681 
L 224.895273 -254.808681 
L 224.895273 -255.998909 
L 227.065091 -255.998909 
L 227.065091 -257.163315 
L 229.234909 -257.163315 
L 229.234909 -257.503636 
L 231.404727 -257.503636 
L 231.404727 -257.343283 
L 233.574545 -257.343283 
L 233.574545 -256.885931 
L 235.744364 -256.885931 
L 235.744364 -256.219868 
L 237.914182 -256.219868 
L 237.914182 -254.942585 
L 240.084 -254.942585 
L 240.084 -254.212665 
L 242.253818 -254.212665 
L 242.253818 -254.483438 
L 244.423636 -254.483438 
L 244.423636 -255.884199 
L 246.593455 -255.884199 
L 246.593455 -257.864409 
L 248.763273 -257.864409 
L 248.763273 -260.288139 
L 250.933091 -260.288139 
L 250.933091 -262.004364 
L 253.102909 -262.004364 
L 253.102909 -262.474471 
L 255.272727 -262.474471 
L 255.272727 -262.024262 
L 257.442545 -262.024262 
L 257.442545 -261.767014 
L 259.612364 -261.767014 
L 259.612364 -261.857075 
L 261.782182 -261.857075 
L 261.782182 -264.061313 
L 263.952 -264.061313 
L 263.952 -269.927621 
L 266.121818 -269.927621 
L 266.121818 -278.570804 
L 268.291636 -278.570804 
L 268.291636 -286.344844 
L 270.461455 -286.344844 
L 270.461455 -292.175833 
L 272.631273 -292.175833 
L 272.631273 -297.995091 
L 274.801091 -297.995091 
L 274.801091 -305.764516 
L 276.970909 -305.764516 
L 276.970909 -313.112676 
L 279.140727 -313.112676 
L 279.140727 -318.288854 
L 281.310545 -318.288854 
L 281.310545 -320.778765 
L 283.480364 -320.778765 
L 283.480364 -323.136713 
L 285.650182 -323.136713 
L 285.650182 -327.056784 
L 287.82 -327.056784 
L 287.82 -330.880941 
L 289.989818 -330.880941 
L 289.989818 -331.415007 
L 292.159636 -331.415007 
L 292.159636 -327.825485 
L 294.329455 -327.825485 
L 294.329455 -320.586271 
L 296.499273 -320.586271 
L 296.499273 -315.134337 
L 298.669091 -315.134337 
L 298.669091 -312.332817 
L 300.838909 -312.332817 
L 300.838909 -309.065973 
L 303.008727 -309.065973 
L 303.008727 -307.47837 
L 305.178545 -307.47837 
L 305.178545 -309.065503 
L 307.348364 -309.065503 
L 307.348364 -309.568536 
L 309.518182 -309.568536 
L 309.518182 -307.303135 
L 311.688 -307.303135 
L 311.688 -305.586772 
L 313.857818 -305.586772 
L 313.857818 -305.887296 
L 316.027636 -305.887296 
L 316.027636 -306.519738 
L 318.197455 -306.519738 
L 318.197455 -306.144784 
L 320.367273 -306.144784 
L 320.367273 -305.393134 
L 322.537091 -305.393134 
L 322.537091 -303.990498 
L 324.706909 -303.990498 
L 324.706909 -301.776963 
L 326.876727 -301.776963 
L 326.876727 -300.058418 
L 329.046545 -300.058418 
L 329.046545 -299.918259 
L 331.216364 -299.918259 
L 331.216364 -300.775036 
L 333.386182 -300.775036 
L 333.386182 -301.161416 
L 335.556 -301.161416 
L 335.556 -300.646378 
L 337.725818 -300.646378 
L 337.725818 -298.737735 
L 339.895636 -298.737735 
L 339.895636 -296.455879 
L 342.065455 -296.455879 
L 342.065455 -295.445817 
L 344.235273 -295.445817 
L 344.235273 -296.204456 
L 346.405091 -296.204456 
L 346.405091 -298.527904 
L 348.574909 -298.527904 
L 348.574909 -299.83834 
L 350.744727 -299.83834 
L 350.744727 -299.591573 
L 352.914545 -299.591573 
L 352.914545 -300.073298 
L 355.084364 -300.073298 
L 355.084364 -302.096094 
L 357.254182 -302.096094 
L 357.254182 -305.751024 
L 359.424 -305.751024 
L 359.424 -310.382771 
L 361.593818 -310.382771 
L 361.593818 -316.161167 
L 363.763636 -316.161167 
L 363.763636 -322.520056 
L 365.933455 -322.520056 
L 365.933455 -326.77266 
L 368.103273 -326.77266 
L 368.103273 -327.915396 
L 370.273091 -327.915396 
L 370.273091 -327.611324 
L 372.442909 -327.611324 
L 372.442909 -328.51924 
L 374.612727 -328.51924 
L 374.612727 -331.175407 
L 376.782545 -331.175407 
L 376.782545 -332.416 
L 378.952364 -332.416 
L 378.952364 -330.580963 
L 381.122182 -330.580963 
L 381.122182 -328.661094 
L 383.292 -328.661094 
L 383.292 -328.13986 
L 385.461818 -328.13986 
L 385.461818 -327.573533 
L 387.631636 -327.573533 
L 387.631636 -326.707858 
L 389.801455 -326.707858 
L 389.801455 -326.673275 
L 391.971273 -326.673275 
L 391.971273 -327.058939 
L 394.141091 -327.058939 
L 394.141091 -325.83944 
L 396.310909 -325.83944 
L 396.310909 -321.852349 
L 398.480727 -321.852349 
L 398.480727 -316.507563 
L 400.650545 -316.507563 
L 400.650545 -312.777566 
L 402.820364 -312.777566 
L 402.820364 -311.526948 
L 404.990182 -311.526948 
L 404.990182 -310.774799 
L 407.16 -310.774799 
L 407.16 -308.777135 
L 409.329818 -308.777135 
L 409.329818 -306.390895 
L 411.499636 -306.390895 
L 411.499636 -305.473766 
L 413.669455 -305.473766 
L 413.669455 -306.053235 
L 415.839273 -306.053235 
L 415.839273 -305.98924 
L 418.009091 -305.98924 
L 418.009091 -303.749831 
L 420.178909 -303.749831 
L 420.178909 -299.281019 
L 422.348727 -299.281019 
L 422.348727 -292.691918 
L 424.518545 -292.691918 
L 424.518545 -284.7702 
L 426.688364 -284.7702 
L 426.688364 -275.741514 
L 428.858182 -275.741514 
L 428.858182 -265.791673 
L 431.028 -265.791673 
L 431.028 -257.270199 
L 433.197818 -257.270199 
L 433.197818 -251.884438 
L 435.367636 -251.884438 
L 435.367636 -247.657842 
L 437.537455 -247.657842 
L 437.537455 -241.515612 
L 439.707273 -241.515612 
L 439.707273 -233.173932 
L 441.877091 -233.173932 
L 441.877091 -224.688971 
L 444.046909 -224.688971 
L 444.046909 -217.679464 
L 446.216727 -217.679464 
L 446.216727 -212.132389 
L 448.386545 -212.132389 
L 448.386545 -206.903061 
L 450.556364 -206.903061 
L 450.556364 -201.12588 
L 452.726182 -201.12588 
L 452.726182 -195.328217 
L 454.896 -195.328217 
L 454.896 -190.154125 
L 457.065818 -190.154125 
L 457.065818 -185.76112 
L 459.235636 -185.76112 
L 459.235636 -181.819037 
L 461.405455 -181.819037 
L 461.405455 -177.889997 
L 463.575273 -177.889997 
L 463.575273 -174.227137 
L 465.745091 -174.227137 
L 465.745091 -170.817988 
L 467.914909 -170.817988 
L 467.914909 -167.713923 
L 470.084727 -167.713923 
L 470.084727 -165.181576 
L 472.254545 -165.181576 
L 472.254545 -163.191773 
L 474.424364 -163.191773 
L 474.424364 -161.746477 
L 476.594182 -161.746477 
L 476.594182 -160.496399 
L 478.764 -160.496399 
L 478.764 -159.158505 
L 480.933818 -159.158505 
L 480.933818 -157.922308 
L 483.103636 -157.922308 
L 483.103636 -156.917968 
L 485.273455 -156.917968 
L 485.273455 -156.073444 
L 487.443273 -156.073444 
L 487.443273 -155.322981 
L 489.613091 -155.322981 
L 489.613091 -154.740896 
L 491.782909 -154.740896 
L 491.782909 -154.353786 
L 493.952727 -154.353786 
L 493.952727 -154.056607 
L 496.122545 -154.056607 
L 496.122545 -153.750901 
L 498.292364 -153.750901 
L 498.292364 -153.468146 
L 500.462182 -153.468146 
L 500.462182 -153.295567 
L 502.632 -153.295567 
L 502.632 -153.231849 
L 504.801818 -153.231849 
L 504.801818 -153.217909 
L 506.971636 -153.217909 
L 506.971636 -153.216132 
L 509.141455 -153.216132 
L 509.141455 -153.216004 
L 511.311273 -153.216004 
L 511.311273 -153.216 
L 513.481091 -153.216 
L 513.481091 -153.216 
L 515.650909 -153.216 
L 515.650909 -153.216 
L 517.820727 -153.216 
L 517.820727 -153.216 
L 519.990545 -153.216 
L 519.990545 -153.216 
L 522.160364 -153.216 
L 522.160364 -153.216 
L 524.330182 -153.216 
L 524.330182 -153.216 
L 526.5 -153.216 
L 526.5 -153.216 
L 528.669818 -153.216 
L 528.669818 -153.216 
L 530.839636 -153.216 
L 530.839636 -153.216 
L 533.009455 -153.216 
L 533.009455 -153.216 
L 535.179273 -153.216 
L 535.179273 -153.216 
L 537.349091 -153.216 
L 537.349091 -153.216 
L 539.518909 -153.216 
L 539.518909 -153.216 
L 541.688727 -153.216 
L 541.688727 -153.216 
L 543.858545 -153.216 
L 543.858545 -153.216 
L 546.028364 -153.216 
L 546.028364 -153.216 
L 548.198182 -153.216 
L 548.198182 -153.216 
L 549.283091 -153.216 
L 549.283091 -153.216 
L 549.283091 -153.216 
L 548.198182 -153.216 
L 548.198182 -153.216 
L 546.028364 -153.216 
L 546.028364 -153.216 
L 543.858545 -153.216 
L 543.858545 -153.216 
L 541.688727 -153.216 
L 541.688727 -153.216 
L 539.518909 -153.216 
L 539.518909 -153.216 
L 537.349091 -153.216 
L 537.349091 -153.216 
L 535.179273 -153.216 
L 535.179273 -153.216 
L 533.009455 -153.216 
L 533.009455 -153.216 
L 530.839636 -153.216 
L 530.839636 -153.216 
L 528.669818 -153.216 
L 528.669818 -153.216 
L 526.5 -153.216 
L 526.5 -153.216 
L 524.330182 -153.216 
L 524.330182 -153.216 
L 522.160364 -153.216 
L 522.160364 -153.216 
L 519.990545 -153.216 
L 519.990545 -153.216 
L 517.820727 -153.216 
L 517.820727 -153.216 
L 515.650909 -153.216 
L 515.650909 -153.216 
L 513.481091 -153.216 
L 513.481091 -153.216 
L 511.311273 -153.216 
L 511.311273 -153.216 
L 509.141455 -153.216 
L 509.141455 -153.216 
L 506.971636 -153.216 
L 506.971636 -153.216 
L 504.801818 -153.216 
L 504.801818 -153.216 
L 502.632 -153.216 
L 502.632 -153.216 
L 500.462182 -153.216 
L 500.462182 -153.216 
L 498.292364 -153.216 
L 498.292364 -153.216 
L 496.122545 -153.216 
L 496.122545 -153.216 
L 493.952727 -153.216 
L 493.952727 -153.216 
L 491.782909 -153.216 
L 491.782909 -153.216 
L 489.613091 -153.216 
L 489.613091 -153.216 
L 487.443273 -153.216 
L 487.443273 -153.216 
L 485.273455 -153.216 
L 485.273455 -153.216 
L 483.103636 -153.216 
L 483.103636 -153.216 
L 480.933818 -153.216 
L 480.933818 -153.216 
L 478.764 -153.216 
L 478.764 -153.216 
L 476.594182 -153.216 
L 476.594182 -153.216 
L 474.424364 -153.216 
L 474.424364 -153.216 
L 472.254545 -153.216 
L 472.254545 -153.216 
L 470.084727 -153.216 
L 470.084727 -153.216 
L 467.914909 -153.216 
L 467.914909 -153.216 
L 465.745091 -153.216 
L 465.745091 -153.216 
L 463.575273 -153.216 
L 463.575273 -153.216 
L 461.405455 -153.216 
L 461.405455 -153.216 
L 459.235636 -153.216 
L 459.235636 -153.216 
L 457.065818 -153.216 
L 457.065818 -153.216 
L 454.896 -153.216 
L 454.896 -153.216 
L 452.726182 -153.216 
L 452.726182 -153.216 
L 450.556364 -153.216 
L 450.556364 -153.216 
L 448.386545 -153.216 
L 448.386545 -153.216 
L 446.216727 -153.216 
L 446.216727 -153.216 
L 444.046909 -153.216 
L 444.046909 -153.216 
L 441.877091 -153.216 
L 441.877091 -153.216 
L 439.707273 -153.216 
L 439.707273 -153.216 
L 437.537455 -153.216 
L 437.537455 -153.216 
L 435.367636 -153.216 
L 435.367636 -153.216 
L 433.197818 -153.216 
L 433.197818 -153.216 
L 431.028 -153.216 
L 431.028 -153.216 
L 428.858182 -153.216 
L 428.858182 -153.216 
L 426.688364 -153.216 
L 426.688364 -153.216 
L 424.518545 -153.216 
L 424.518545 -153.216 
L 422.348727 -153.216 
L 422.348727 -153.216 
L 420.178909 -153.216 
L 420.178909 -153.216 
L 418.009091 -153.216 
L 418.009091 -153.216 
L 415.839273 -153.216 
L 415.839273 -153.216 
L 413.669455 -153.216 
L 413.669455 -153.216 
L 411.499636 -153.216 
L 411.499636 -153.216 
L 409.329818 -153.216 
L 409.329818 -153.216 
L 407.16 -153.216 
L 407.16 -153.216 
L 404.990182 -153.216 
L 404.990182 -153.216 
L 402.820364 -153.216 
L 402.820364 -153.216 
L 400.650545 -153.216 
L 400.650545 -153.216 
L 398.480727 -153.216 
L 398.480727 -153.216 
L 396.310909 -153.216 
L 396.310909 -153.216 
L 394.141091 -153.216 
L 394.141091 -153.216 
L 391.971273 -153.216 
L 391.971273 -153.216 
L 389.801455 -153.216 
L 389.801455 -153.216 
L 387.631636 -153.216 
L 387.631636 -153.216 
L 385.461818 -153.216 
L 385.461818 -153.216 
L 383.292 -153.216 
L 383.292 -153.216 
L 381.122182 -153.216 
L 381.122182 -153.216 
L 378.952364 -153.216 
L 378.952364 -153.216 
L 376.782545 -153.216 
L 376.782545 -153.216 
L 374.612727 -153.216 
L 374.612727 -153.216 
L 372.442909 -153.216 
L 372.442909 -153.216 
L 370.273091 -153.216 
L 370.273091 -153.216 
L 368.103273 -153.216 
L 368.103273 -153.216 
L 365.933455 -153.216 
L 365.933455 -153.216 
L 363.763636 -153.216 
L 363.763636 -153.216 
L 361.593818 -153.216 
L 361.593818 -153.216 
L 359.424 -153.216 
L 359.424 -153.216 
L 357.254182 -153.216 
L 357.254182 -153.216 
L 355.084364 -153.216 
L 355.084364 -153.216 
L 352.914545 -153.216 
L 352.914545 -153.216 
L 350.744727 -153.216 
L 350.744727 -153.216 
L 348.574909 -153.216 
L 348.574909 -153.216 
L 346.405091 -153.216 
L 346.405091 -153.216 
L 344.235273 -153.216 
L 344.235273 -153.216 
L 342.065455 -153.216 
L 342.065455 -153.216 
L 339.895636 -153.216 
L 339.895636 -153.216 
L 337.725818 -153.216 
L 337.725818 -153.216 
L 335.556 -153.216 
L 335.556 -153.216 
L 333.386182 -153.216 
L 333.386182 -153.216 
L 331.216364 -153.216 
L 331.216364 -153.216 
L 329.046545 -153.216 
L 329.046545 -153.216 
L 326.876727 -153.216 
L 326.876727 -153.216 
L 324.706909 -153.216 
L 324.706909 -153.216 
L 322.537091 -153.216 
L 322.537091 -153.216 
L 320.367273 -153.216 
L 320.367273 -153.216 
L 318.197455 -153.216 
L 318.197455 -153.216 
L 316.027636 -153.216 
L 316.027636 -153.216 
L 313.857818 -153.216 
L 313.857818 -153.216 
L 311.688 -153.216 
L 311.688 -153.216 
L 309.518182 -153.216 
L 309.518182 -153.216 
L 307.348364 -153.216 
L 307.348364 -153.216 
L 305.178545 -153.216 
L 305.178545 -153.216 
L 303.008727 -153.216 
L 303.008727 -153.216 
L 300.838909 -153.216 
L 300.838909 -153.216 
L 298.669091 -153.216 
L 298.669091 -153.216 
L 296.499273 -153.216 
L 296.499273 -153.216 
L 294.329455 -153.216 
L 294.329455 -153.216 
L 292.159636 -153.216 
L 292.159636 -153.216 
L 289.989818 -153.216 
L 289.989818 -153.216 
L 287.82 -153.216 
L 287.82 -153.216 
L 285.650182 -153.216 
L 285.650182 -153.216 
L 283.480364 -153.216 
L 283.480364 -153.216 
L 281.310545 -153.216 
L 281.310545 -153.216 
L 279.140727 -153.216 
L 279.140727 -153.216 
L 276.970909 -153.216 
L 276.970909 -153.216 
L 274.801091 -153.216 
L 274.801091 -153.216 
L 272.631273 -153.216 
L 272.631273 -153.216 
L 270.461455 -153.216 
L 270.461455 -153.216 
L 268.291636 -153.216 
L 268.291636 -153.216 
L 266.121818 -153.216 
L 266.121818 -153.216 
L 263.952 -153.216 
L 263.952 -153.216 
L 261.782182 -153.216 
L 261.782182 -153.216 
L 259.612364 -153.216 
L 259.612364 -153.216 
L 257.442545 -153.216 
L 257.442545 -153.216 
L 255.272727 -153.216 
L 255.272727 -153.216 
L 253.102909 -153.216 
L 253.102909 -153.216 
L 250.933091 -153.216 
L 250.933091 -153.216 
L 248.763273 -153.216 
L 248.763273 -153.216 
L 246.593455 -153.216 
L 246.593455 -153.216 
L 244.423636 -153.216 
L 244.423636 -153.216 
L 242.253818 -153.216 
L 242.253818 -153.216 
L 240.084 -153.216 
L 240.084 -153.216 
L 237.914182 -153.216 
L 237.914182 -153.216 
L 235.744364 -153.216 
L 235.744364 -153.216 
L 233.574545 -153.216 
L 233.574545 -153.216 
L 231.404727 -153.216 
L 231.404727 -153.216 
L 229.234909 -153.216 
L 229.234909 -153.216 
L 227.065091 -153.216 
L 227.065091 -153.216 
L 224.895273 -153.216 
L 224.895273 -153.216 
L 222.725455 -153.216 
L 222.725455 -153.216 
L 220.555636 -153.216 
L 220.555636 -153.216 
L 218.385818 -153.216 
L 218.385818 -153.216 
L 216.216 -153.216 
L 216.216 -153.216 
L 214.046182 -153.216 
L 214.046182 -153.216 
L 211.876364 -153.216 
L 211.876364 -153.216 
L 209.706545 -153.216 
L 209.706545 -153.216 
L 207.536727 -153.216 
L 207.536727 -153.216 
L 205.366909 -153.216 
L 205.366909 -153.216 
L 203.197091 -153.216 
L 203.197091 -153.216 
L 201.027273 -153.216 
L 201.027273 -153.216 
L 198.857455 -153.216 
L 198.857455 -153.216 
L 196.687636 -153.216 
L 196.687636 -153.216 
L 194.517818 -153.216 
L 194.517818 -153.216 
L 192.348 -153.216 
L 192.348 -153.216 
L 190.178182 -153.216 
L 190.178182 -153.216 
L 188.008364 -153.216 
L 188.008364 -153.216 
L 185.838545 -153.216 
L 185.838545 -153.216 
L 183.668727 -153.216 
L 183.668727 -153.216 
L 181.498909 -153.216 
L 181.498909 -153.216 
L 179.329091 -153.216 
L 179.329091 -153.216 
L 177.159273 -153.216 
L 177.159273 -153.216 
L 174.989455 -153.216 
L 174.989455 -153.216 
L 172.819636 -153.216 
L 172.819636 -153.216 
L 170.649818 -153.216 
L 170.649818 -153.216 
L 168.48 -153.216 
L 168.48 -153.216 
L 166.310182 -153.216 
L 166.310182 -153.216 
L 164.140364 -153.216 
L 164.140364 -153.216 
L 161.970545 -153.216 
L 161.970545 -153.216 
L 159.800727 -153.216 
L 159.800727 -153.216 
L 157.630909 -153.216 
L 157.630909 -153.216 
L 155.461091 -153.216 
L 155.461091 -153.216 
L 153.291273 -153.216 
L 153.291273 -153.216 
L 151.121455 -153.216 
L 151.121455 -153.216 
L 148.951636 -153.216 
L 148.951636 -153.216 
L 146.781818 -153.216 
L 146.781818 -153.216 
L 144.612 -153.216 
L 144.612 -153.216 
L 142.442182 -153.216 
L 142.442182 -153.216 
L 140.272364 -153.216 
L 140.272364 -153.216 
L 138.102545 -153.216 
L 138.102545 -153.216 
L 135.932727 -153.216 
L 135.932727 -153.216 
L 133.762909 -153.216 
L 133.762909 -153.216 
L 131.593091 -153.216 
L 131.593091 -153.216 
L 129.423273 -153.216 
L 129.423273 -153.216 
L 127.253455 -153.216 
L 127.253455 -153.216 
L 125.083636 -153.216 
L 125.083636 -153.216 
L 122.913818 -153.216 
L 122.913818 -153.216 
L 120.744 -153.216 
L 120.744 -153.216 
L 118.574182 -153.216 
L 118.574182 -153.216 
L 116.404364 -153.216 
L 116.404364 -153.216 
L 114.234545 -153.216 
L 114.234545 -153.216 
L 112.064727 -153.216 
L 112.064727 -153.216 
L 109.894909 -153.216 
L 109.894909 -153.216 
L 107.725091 -153.216 
L 107.725091 -153.216 
L 105.555273 -153.216 
L 105.555273 -153.216 
L 103.385455 -153.216 
L 103.385455 -153.216 
L 101.215636 -153.216 
L 101.215636 -153.216 
L 99.045818 -153.216 
L 99.045818 -153.216 
L 96.876 -153.216 
L 96.876 -153.216 
L 94.706182 -153.216 
L 94.706182 -153.216 
L 92.536364 -153.216 
L 92.536364 -153.216 
L 90.366545 -153.216 
L 90.366545 -153.216 
L 88.196727 -153.216 
L 88.196727 -153.216 
L 86.026909 -153.216 
L 86.026909 -153.216 
L 83.857091 -153.216 
L 83.857091 -153.216 
L 81.687273 -153.216 
L 81.687273 -153.216 
L 79.517455 -153.216 
L 79.517455 -153.216 
L 77.347636 -153.216 
L 77.347636 -153.216 
L 75.177818 -153.216 
L 75.177818 -153.216 
L 74.092909 -153.216 
z
" style="stroke: #5ae0a0; stroke-opacity: 0.22"/>
    </defs>
    <g clip-path="url(#p97e07f8222)">
     <use xlink:href="#m9274894476" x="0" y="403.2" style="fill: #5ae0a0; fill-opacity: 0.22; stroke: #5ae0a0; stroke-opacity: 0.22"/>
    </g>
   </g>
   <g id="matplotlib.axis_1">
    <g id="xtick_1">
     <g id="line2d_1">
      <path d="M 88.92 249.984 
L 88.92 56.448 
" clip-path="url(#p97e07f8222)" style="fill: none; stroke: #ffffff; stroke-opacity: 0.16; stroke-width: 0.8; stroke-linecap: square"/>
     </g>
     <g id="line2d_2">
      <defs>
       <path id="md4dd8f1308" d="M 0 0 
L 0 3.5 
" style="stroke: #ffffff; stroke-width: 0.8"/>
      </defs>
      <g>
       <use xlink:href="#md4dd8f1308" x="88.92" y="249.984" style="fill: #ffffff; stroke: #ffffff; stroke-width: 0.8"/>
      </g>
     </g>
     <g id="text_1">
      <!-- −10 -->
      <g style="fill: #ffffff" transform="translate(73.091484 268.381656) scale(0.15 -0.15)">
       <defs>
        <path id="DejaVuSans-2212" d="M 678 2272 
L 4684 2272 
L 4684 1741 
L 678 1741 
L 678 2272 
z
" transform="scale(0.015625)"/>
        <path id="DejaVuSans-31" d="M 794 531 
L 1825 531 
L 1825 4091 
L 703 3866 
L 703 4441 
L 1819 4666 
L 2450 4666 
L 2450 531 
L 3481 531 
L 3481 0 
L 794 0 
L 794 531 
z
" transform="scale(0.015625)"/>
        <path id="DejaVuSans-30" d="M 2034 4250 
Q 1547 4250 1301 3770 
Q 1056 3291 1056 2328 
Q 1056 1369 1301 889 
Q 1547 409 2034 409 
Q 2525 409 2770 889 
Q 3016 1369 3016 2328 
Q 3016 3291 2770 3770 
Q 2525 4250 2034 4250 
z
M 2034 4750 
Q 2819 4750 3233 4129 
Q 3647 3509 3647 2328 
Q 3647 1150 3233 529 
Q 2819 -91 2034 -91 
Q 1250 -91 836 529 
Q 422 1150 422 2328 
Q 422 3509 836 4129 
Q 1250 4750 2034 4750 
z
" transform="scale(0.015625)"/>
       </defs>
       <use xlink:href="#DejaVuSans-2212"/>
       <use xlink:href="#DejaVuSans-31" x="83.789062"/>
       <use xlink:href="#DejaVuSans-30" x="147.412109"/>
      </g>
     </g>
    </g>
    <g id="xtick_2">
     <g id="line2d_3">
      <path d="M 152.568 249.984 
L 152.568 56.448 
" clip-path="url(#p97e07f8222)" style="fill: none; stroke: #ffffff; stroke-opacity: 0.16; stroke-width: 0.8; stroke-linecap: square"/>
     </g>
     <g id="line2d_4">
      <g>
       <use xlink:href="#md4dd8f1308" x="152.568" y="249.984" style="fill: #ffffff; stroke: #ffffff; stroke-width: 0.8"/>
      </g>
     </g>
     <g id="text_2">
      <!-- −8 -->
      <g style="fill: #ffffff" transform="translate(141.511359 268.381656) scale(0.15 -0.15)">
       <defs>
        <path id="DejaVuSans-38" d="M 2034 2216 
Q 1584 2216 1326 1975 
Q 1069 1734 1069 1313 
Q 1069 891 1326 650 
Q 1584 409 2034 409 
Q 2484 409 2743 651 
Q 3003 894 3003 1313 
Q 3003 1734 2745 1975 
Q 2488 2216 2034 2216 
z
M 1403 2484 
Q 997 2584 770 2862 
Q 544 3141 544 3541 
Q 544 4100 942 4425 
Q 1341 4750 2034 4750 
Q 2731 4750 3128 4425 
Q 3525 4100 3525 3541 
Q 3525 3141 3298 2862 
Q 3072 2584 2669 2484 
Q 3125 2378 3379 2068 
Q 3634 1759 3634 1313 
Q 3634 634 3220 271 
Q 2806 -91 2034 -91 
Q 1263 -91 848 271 
Q 434 634 434 1313 
Q 434 1759 690 2068 
Q 947 2378 1403 2484 
z
M 1172 3481 
Q 1172 3119 1398 2916 
Q 1625 2713 2034 2713 
Q 2441 2713 2670 2916 
Q 2900 3119 2900 3481 
Q 2900 3844 2670 4047 
Q 2441 4250 2034 4250 
Q 1625 4250 1398 4047 
Q 1172 3844 1172 3481 
z
" transform="scale(0.015625)"/>
       </defs>
       <use xlink:href="#DejaVuSans-2212"/>
       <use xlink:href="#DejaVuSans-38" x="83.789062"/>
      </g>
     </g>
    </g>
    <g id="xtick_3">
     <g id="line2d_5">
      <path d="M 216.216 249.984 
L 216.216 56.448 
" clip-path="url(#p97e07f8222)" style="fill: none; stroke: #ffffff; stroke-opacity: 0.16; stroke-width: 0.8; stroke-linecap: square"/>
     </g>
     <g id="line2d_6">
      <g>
       <use xlink:href="#md4dd8f1308" x="216.216" y="249.984" style="fill: #ffffff; stroke: #ffffff; stroke-width: 0.8"/>
      </g>
     </g>
     <g id="text_3">
      <!-- −6 -->
      <g style="fill: #ffffff" transform="translate(205.159359 268.381656) scale(0.15 -0.15)">
       <defs>
        <path id="DejaVuSans-36" d="M 2113 2584 
Q 1688 2584 1439 2293 
Q 1191 2003 1191 1497 
Q 1191 994 1439 701 
Q 1688 409 2113 409 
Q 2538 409 2786 701 
Q 3034 994 3034 1497 
Q 3034 2003 2786 2293 
Q 2538 2584 2113 2584 
z
M 3366 4563 
L 3366 3988 
Q 3128 4100 2886 4159 
Q 2644 4219 2406 4219 
Q 1781 4219 1451 3797 
Q 1122 3375 1075 2522 
Q 1259 2794 1537 2939 
Q 1816 3084 2150 3084 
Q 2853 3084 3261 2657 
Q 3669 2231 3669 1497 
Q 3669 778 3244 343 
Q 2819 -91 2113 -91 
Q 1303 -91 875 529 
Q 447 1150 447 2328 
Q 447 3434 972 4092 
Q 1497 4750 2381 4750 
Q 2619 4750 2861 4703 
Q 3103 4656 3366 4563 
z
" transform="scale(0.015625)"/>
       </defs>
       <use xlink:href="#DejaVuSans-2212"/>
       <use xlink:href="#DejaVuSans-36" x="83.789062"/>
      </g>
     </g>
    </g>
    <g id="xtick_4">
     <g id="line2d_7">
      <path d="M 279.864 249.984 
L 279.864 56.448 
" clip-path="url(#p97e07f8222)" style="fill: none; stroke: #ffffff; stroke-opacity: 0.16; stroke-width: 0.8; stroke-linecap: square"/>
     </g>
     <g id="line2d_8">
      <g>
       <use xlink:href="#md4dd8f1308" x="279.864" y="249.984" style="fill: #ffffff; stroke: #ffffff; stroke-width: 0.8"/>
      </g>
     </g>
     <g id="text_4">
      <!-- −4 -->
      <g style="fill: #ffffff" transform="translate(268.807359 268.381656) scale(0.15 -0.15)">
       <defs>
        <path id="DejaVuSans-34" d="M 2419 4116 
L 825 1625 
L 2419 1625 
L 2419 4116 
z
M 2253 4666 
L 3047 4666 
L 3047 1625 
L 3713 1625 
L 3713 1100 
L 3047 1100 
L 3047 0 
L 2419 0 
L 2419 1100 
L 313 1100 
L 313 1709 
L 2253 4666 
z
" transform="scale(0.015625)"/>
       </defs>
       <use xlink:href="#DejaVuSans-2212"/>
       <use xlink:href="#DejaVuSans-34" x="83.789062"/>
      </g>
     </g>
    </g>
    <g id="xtick_5">
     <g id="line2d_9">
      <path d="M 343.512 249.984 
L 343.512 56.448 
" clip-path="url(#p97e07f8222)" style="fill: none; stroke: #ffffff; stroke-opacity: 0.16; stroke-width: 0.8; stroke-linecap: square"/>
     </g>
     <g id="line2d_10">
      <g>
       <use xlink:href="#md4dd8f1308" x="343.512" y="249.984" style="fill: #ffffff; stroke: #ffffff; stroke-width: 0.8"/>
      </g>
     </g>
     <g id="text_5">
      <!-- −2 -->
      <g style="fill: #ffffff" transform="translate(332.455359 268.381656) scale(0.15 -0.15)">
       <defs>
        <path id="DejaVuSans-32" d="M 1228 531 
L 3431 531 
L 3431 0 
L 469 0 
L 469 531 
Q 828 903 1448 1529 
Q 2069 2156 2228 2338 
Q 2531 2678 2651 2914 
Q 2772 3150 2772 3378 
Q 2772 3750 2511 3984 
Q 2250 4219 1831 4219 
Q 1534 4219 1204 4116 
Q 875 4013 500 3803 
L 500 4441 
Q 881 4594 1212 4672 
Q 1544 4750 1819 4750 
Q 2544 4750 2975 4387 
Q 3406 4025 3406 3419 
Q 3406 3131 3298 2873 
Q 3191 2616 2906 2266 
Q 2828 2175 2409 1742 
Q 1991 1309 1228 531 
z
" transform="scale(0.015625)"/>
       </defs>
       <use xlink:href="#DejaVuSans-2212"/>
       <use xlink:href="#DejaVuSans-32" x="83.789062"/>
      </g>
     </g>
    </g>
    <g id="xtick_6">
     <g id="line2d_11">
      <path d="M 407.16 249.984 
L 407.16 56.448 
" clip-path="url(#p97e07f8222)" style="fill: none; stroke: #ffffff; stroke-opacity: 0.16; stroke-width: 0.8; stroke-linecap: square"/>
     </g>
     <g id="line2d_12">
      <g>
       <use xlink:href="#md4dd8f1308" x="407.16" y="249.984" style="fill: #ffffff; stroke: #ffffff; stroke-width: 0.8"/>
      </g>
     </g>
     <g id="text_6">
      <!-- 0 -->
      <g style="fill: #ffffff" transform="translate(402.388125 268.381656) scale(0.15 -0.15)">
       <use xlink:href="#DejaVuSans-30"/>
      </g>
     </g>
    </g>
    <g id="xtick_7">
     <g id="line2d_13">
      <path d="M 470.808 249.984 
L 470.808 56.448 
" clip-path="url(#p97e07f8222)" style="fill: none; stroke: #ffffff; stroke-opacity: 0.16; stroke-width: 0.8; stroke-linecap: square"/>
     </g>
     <g id="line2d_14">
      <g>
       <use xlink:href="#md4dd8f1308" x="470.808" y="249.984" style="fill: #ffffff; stroke: #ffffff; stroke-width: 0.8"/>
      </g>
     </g>
     <g id="text_7">
      <!-- 2 -->
      <g style="fill: #ffffff" transform="translate(466.036125 268.381656) scale(0.15 -0.15)">
       <use xlink:href="#DejaVuSans-32"/>
      </g>
     </g>
    </g>
    <g id="xtick_8">
     <g id="line2d_15">
      <path d="M 534.456 249.984 
L 534.456 56.448 
" clip-path="url(#p97e07f8222)" style="fill: none; stroke: #ffffff; stroke-opacity: 0.16; stroke-width: 0.8; stroke-linecap: square"/>
     </g>
     <g id="line2d_16">
      <g>
       <use xlink:href="#md4dd8f1308" x="534.456" y="249.984" style="fill: #ffffff; stroke: #ffffff; stroke-width: 0.8"/>
      </g>
     </g>
     <g id="text_8">
      <!-- 4 -->
      <g style="fill: #ffffff" transform="translate(529.684125 268.381656) scale(0.15 -0.15)">
       <use xlink:href="#DejaVuSans-34"/>
      </g>
     </g>
    </g>
    <g id="text_9">
     <!-- logit -->
     <g style="fill: #ffffff" transform="translate(291.938625 289.178375) scale(0.18 -0.18)">
      <defs>
       <path id="DejaVuSans-6c" d="M 603 4863 
L 1178 4863 
L 1178 0 
L 603 0 
L 603 4863 
z
" transform="scale(0.015625)"/>
       <path id="DejaVuSans-6f" d="M 1959 3097 
Q 1497 3097 1228 2736 
Q 959 2375 959 1747 
Q 959 1119 1226 758 
Q 1494 397 1959 397 
Q 2419 397 2687 759 
Q 2956 1122 2956 1747 
Q 2956 2369 2687 2733 
Q 2419 3097 1959 3097 
z
M 1959 3584 
Q 2709 3584 3137 3096 
Q 3566 2609 3566 1747 
Q 3566 888 3137 398 
Q 2709 -91 1959 -91 
Q 1206 -91 779 398 
Q 353 888 353 1747 
Q 353 2609 779 3096 
Q 1206 3584 1959 3584 
z
" transform="scale(0.015625)"/>
       <path id="DejaVuSans-67" d="M 2906 1791 
Q 2906 2416 2648 2759 
Q 2391 3103 1925 3103 
Q 1463 3103 1205 2759 
Q 947 2416 947 1791 
Q 947 1169 1205 825 
Q 1463 481 1925 481 
Q 2391 481 2648 825 
Q 2906 1169 2906 1791 
z
M 3481 434 
Q 3481 -459 3084 -895 
Q 2688 -1331 1869 -1331 
Q 1566 -1331 1297 -1286 
Q 1028 -1241 775 -1147 
L 775 -588 
Q 1028 -725 1275 -790 
Q 1522 -856 1778 -856 
Q 2344 -856 2625 -561 
Q 2906 -266 2906 331 
L 2906 616 
Q 2728 306 2450 153 
Q 2172 0 1784 0 
Q 1141 0 747 490 
Q 353 981 353 1791 
Q 353 2603 747 3093 
Q 1141 3584 1784 3584 
Q 2172 3584 2450 3431 
Q 2728 3278 2906 2969 
L 2906 3500 
L 3481 3500 
L 3481 434 
z
" transform="scale(0.015625)"/>
       <path id="DejaVuSans-69" d="M 603 3500 
L 1178 3500 
L 1178 0 
L 603 0 
L 603 3500 
z
M 603 4863 
L 1178 4863 
L 1178 4134 
L 603 4134 
L 603 4863 
z
" transform="scale(0.015625)"/>
       <path id="DejaVuSans-74" d="M 1172 4494 
L 1172 3500 
L 2356 3500 
L 2356 3053 
L 1172 3053 
L 1172 1153 
Q 1172 725 1289 603 
Q 1406 481 1766 481 
L 2356 481 
L 2356 0 
L 1766 0 
Q 1100 0 847 248 
Q 594 497 594 1153 
L 594 3053 
L 172 3053 
L 172 3500 
L 594 3500 
L 594 4494 
L 1172 4494 
z
" transform="scale(0.015625)"/>
      </defs>
      <use xlink:href="#DejaVuSans-6c"/>
      <use xlink:href="#DejaVuSans-6f" x="27.783203"/>
      <use xlink:href="#DejaVuSans-67" x="88.964844"/>
      <use xlink:href="#DejaVuSans-69" x="152.441406"/>
      <use xlink:href="#DejaVuSans-74" x="180.224609"/>
     </g>
    </g>
   </g>
   <g id="matplotlib.axis_2">
    <g id="ytick_1">
     <g id="line2d_17">
      <path d="M 73.008 249.984 
L 550.368 249.984 
" clip-path="url(#p97e07f8222)" style="fill: none; stroke: #ffffff; stroke-opacity: 0.16; stroke-width: 0.8; stroke-linecap: square"/>
     </g>
     <g id="line2d_18">
      <defs>
       <path id="mb64fab8869" d="M 0 0 
L -3.5 0 
" style="stroke: #ffffff; stroke-width: 0.8"/>
      </defs>
      <g>
       <use xlink:href="#mb64fab8869" x="73.008" y="249.984" style="fill: #ffffff; stroke: #ffffff; stroke-width: 0.8"/>
      </g>
     </g>
     <g id="text_10">
      <!-- 0.0 -->
      <g style="fill: #ffffff" transform="translate(42.153313 255.682828) scale(0.15 -0.15)">
       <defs>
        <path id="DejaVuSans-2e" d="M 684 794 
L 1344 794 
L 1344 0 
L 684 0 
L 684 794 
z
" transform="scale(0.015625)"/>
       </defs>
       <use xlink:href="#DejaVuSans-30"/>
       <use xlink:href="#DejaVuSans-2e" x="63.623047"/>
       <use xlink:href="#DejaVuSans-30" x="95.410156"/>
      </g>
     </g>
    </g>
    <g id="ytick_2">
     <g id="line2d_19">
      <path d="M 73.008 214.144 
L 550.368 214.144 
" clip-path="url(#p97e07f8222)" style="fill: none; stroke: #ffffff; stroke-opacity: 0.16; stroke-width: 0.8; stroke-linecap: square"/>
     </g>
     <g id="line2d_20">
      <g>
       <use xlink:href="#mb64fab8869" x="73.008" y="214.144" style="fill: #ffffff; stroke: #ffffff; stroke-width: 0.8"/>
      </g>
     </g>
     <g id="text_11">
      <!-- 0.2 -->
      <g style="fill: #ffffff" transform="translate(42.153313 219.842828) scale(0.15 -0.15)">
       <use xlink:href="#DejaVuSans-30"/>
       <use xlink:href="#DejaVuSans-2e" x="63.623047"/>
       <use xlink:href="#DejaVuSans-32" x="95.410156"/>
      </g>
     </g>
    </g>
    <g id="ytick_3">
     <g id="line2d_21">
      <path d="M 73.008 178.304 
L 550.368 178.304 
" clip-path="url(#p97e07f8222)" style="fill: none; stroke: #ffffff; stroke-opacity: 0.16; stroke-width: 0.8; stroke-linecap: square"/>
     </g>
     <g id="line2d_22">
      <g>
       <use xlink:href="#mb64fab8869" x="73.008" y="178.304" style="fill: #ffffff; stroke: #ffffff; stroke-width: 0.8"/>
      </g>
     </g>
     <g id="text_12">
      <!-- 0.4 -->
      <g style="fill: #ffffff" transform="translate(42.153313 184.002828) scale(0.15 -0.15)">
       <use xlink:href="#DejaVuSans-30"/>
       <use xlink:href="#DejaVuSans-2e" x="63.623047"/>
       <use xlink:href="#DejaVuSans-34" x="95.410156"/>
      </g>
     </g>
    </g>
    <g id="ytick_4">
     <g id="line2d_23">
      <path d="M 73.008 142.464 
L 550.368 142.464 
" clip-path="url(#p97e07f8222)" style="fill: none; stroke: #ffffff; stroke-opacity: 0.16; stroke-width: 0.8; stroke-linecap: square"/>
     </g>
     <g id="line2d_24">
      <g>
       <use xlink:href="#mb64fab8869" x="73.008" y="142.464" style="fill: #ffffff; stroke: #ffffff; stroke-width: 0.8"/>
      </g>
     </g>
     <g id="text_13">
      <!-- 0.6 -->
      <g style="fill: #ffffff" transform="translate(42.153313 148.162828) scale(0.15 -0.15)">
       <use xlink:href="#DejaVuSans-30"/>
       <use xlink:href="#DejaVuSans-2e" x="63.623047"/>
       <use xlink:href="#DejaVuSans-36" x="95.410156"/>
      </g>
     </g>
    </g>
    <g id="ytick_5">
     <g id="line2d_25">
      <path d="M 73.008 106.624 
L 550.368 106.624 
" clip-path="url(#p97e07f8222)" style="fill: none; stroke: #ffffff; stroke-opacity: 0.16; stroke-width: 0.8; stroke-linecap: square"/>
     </g>
     <g id="line2d_26">
      <g>
       <use xlink:href="#mb64fab8869" x="73.008" y="106.624" style="fill: #ffffff; stroke: #ffffff; stroke-width: 0.8"/>
      </g>
     </g>
     <g id="text_14">
      <!-- 0.8 -->
      <g style="fill: #ffffff" transform="translate(42.153313 112.322828) scale(0.15 -0.15)">
       <use xlink:href="#DejaVuSans-30"/>
       <use xlink:href="#DejaVuSans-2e" x="63.623047"/>
       <use xlink:href="#DejaVuSans-38" x="95.410156"/>
      </g>
     </g>
    </g>
    <g id="ytick_6">
     <g id="line2d_27">
      <path d="M 73.008 70.784 
L 550.368 70.784 
" clip-path="url(#p97e07f8222)" style="fill: none; stroke: #ffffff; stroke-opacity: 0.16; stroke-width: 0.8; stroke-linecap: square"/>
     </g>
     <g id="line2d_28">
      <g>
       <use xlink:href="#mb64fab8869" x="73.008" y="70.784" style="fill: #ffffff; stroke: #ffffff; stroke-width: 0.8"/>
      </g>
     </g>
     <g id="text_15">
      <!-- 1.0 -->
      <g style="fill: #ffffff" transform="translate(42.153313 76.482828) scale(0.15 -0.15)">
       <use xlink:href="#DejaVuSans-31"/>
       <use xlink:href="#DejaVuSans-2e" x="63.623047"/>
       <use xlink:href="#DejaVuSans-30" x="95.410156"/>
      </g>
     </g>
    </g>
    <g id="text_16">
     <!-- scaled density -->
     <g style="fill: #ffffff" transform="translate(34.409875 217.979437) rotate(-90) scale(0.18 -0.18)">
      <defs>
       <path id="DejaVuSans-73" d="M 2834 3397 
L 2834 2853 
Q 2591 2978 2328 3040 
Q 2066 3103 1784 3103 
Q 1356 3103 1142 2972 
Q 928 2841 928 2578 
Q 928 2378 1081 2264 
Q 1234 2150 1697 2047 
L 1894 2003 
Q 2506 1872 2764 1633 
Q 3022 1394 3022 966 
Q 3022 478 2636 193 
Q 2250 -91 1575 -91 
Q 1294 -91 989 -36 
Q 684 19 347 128 
L 347 722 
Q 666 556 975 473 
Q 1284 391 1588 391 
Q 1994 391 2212 530 
Q 2431 669 2431 922 
Q 2431 1156 2273 1281 
Q 2116 1406 1581 1522 
L 1381 1569 
Q 847 1681 609 1914 
Q 372 2147 372 2553 
Q 372 3047 722 3315 
Q 1072 3584 1716 3584 
Q 2034 3584 2315 3537 
Q 2597 3491 2834 3397 
z
" transform="scale(0.015625)"/>
       <path id="DejaVuSans-63" d="M 3122 3366 
L 3122 2828 
Q 2878 2963 2633 3030 
Q 2388 3097 2138 3097 
Q 1578 3097 1268 2742 
Q 959 2388 959 1747 
Q 959 1106 1268 751 
Q 1578 397 2138 397 
Q 2388 397 2633 464 
Q 2878 531 3122 666 
L 3122 134 
Q 2881 22 2623 -34 
Q 2366 -91 2075 -91 
Q 1284 -91 818 406 
Q 353 903 353 1747 
Q 353 2603 823 3093 
Q 1294 3584 2113 3584 
Q 2378 3584 2631 3529 
Q 2884 3475 3122 3366 
z
" transform="scale(0.015625)"/>
       <path id="DejaVuSans-61" d="M 2194 1759 
Q 1497 1759 1228 1600 
Q 959 1441 959 1056 
Q 959 750 1161 570 
Q 1363 391 1709 391 
Q 2188 391 2477 730 
Q 2766 1069 2766 1631 
L 2766 1759 
L 2194 1759 
z
M 3341 1997 
L 3341 0 
L 2766 0 
L 2766 531 
Q 2569 213 2275 61 
Q 1981 -91 1556 -91 
Q 1019 -91 701 211 
Q 384 513 384 1019 
Q 384 1609 779 1909 
Q 1175 2209 1959 2209 
L 2766 2209 
L 2766 2266 
Q 2766 2663 2505 2880 
Q 2244 3097 1772 3097 
Q 1472 3097 1187 3025 
Q 903 2953 641 2809 
L 641 3341 
Q 956 3463 1253 3523 
Q 1550 3584 1831 3584 
Q 2591 3584 2966 3190 
Q 3341 2797 3341 1997 
z
" transform="scale(0.015625)"/>
       <path id="DejaVuSans-65" d="M 3597 1894 
L 3597 1613 
L 953 1613 
Q 991 1019 1311 708 
Q 1631 397 2203 397 
Q 2534 397 2845 478 
Q 3156 559 3463 722 
L 3463 178 
Q 3153 47 2828 -22 
Q 2503 -91 2169 -91 
Q 1331 -91 842 396 
Q 353 884 353 1716 
Q 353 2575 817 3079 
Q 1281 3584 2069 3584 
Q 2775 3584 3186 3129 
Q 3597 2675 3597 1894 
z
M 3022 2063 
Q 3016 2534 2758 2815 
Q 2500 3097 2075 3097 
Q 1594 3097 1305 2825 
Q 1016 2553 972 2059 
L 3022 2063 
z
" transform="scale(0.015625)"/>
       <path id="DejaVuSans-64" d="M 2906 2969 
L 2906 4863 
L 3481 4863 
L 3481 0 
L 2906 0 
L 2906 525 
Q 2725 213 2448 61 
Q 2172 -91 1784 -91 
Q 1150 -91 751 415 
Q 353 922 353 1747 
Q 353 2572 751 3078 
Q 1150 3584 1784 3584 
Q 2172 3584 2448 3432 
Q 2725 3281 2906 2969 
z
M 947 1747 
Q 947 1113 1208 752 
Q 1469 391 1925 391 
Q 2381 391 2643 752 
Q 2906 1113 2906 1747 
Q 2906 2381 2643 2742 
Q 2381 3103 1925 3103 
Q 1469 3103 1208 2742 
Q 947 2381 947 1747 
z
" transform="scale(0.015625)"/>
       <path id="DejaVuSans-20" transform="scale(0.015625)"/>
       <path id="DejaVuSans-6e" d="M 3513 2113 
L 3513 0 
L 2938 0 
L 2938 2094 
Q 2938 2591 2744 2837 
Q 2550 3084 2163 3084 
Q 1697 3084 1428 2787 
Q 1159 2491 1159 1978 
L 1159 0 
L 581 0 
L 581 3500 
L 1159 3500 
L 1159 2956 
Q 1366 3272 1645 3428 
Q 1925 3584 2291 3584 
Q 2894 3584 3203 3211 
Q 3513 2838 3513 2113 
z
" transform="scale(0.015625)"/>
       <path id="DejaVuSans-79" d="M 2059 -325 
Q 1816 -950 1584 -1140 
Q 1353 -1331 966 -1331 
L 506 -1331 
L 506 -850 
L 844 -850 
Q 1081 -850 1212 -737 
Q 1344 -625 1503 -206 
L 1606 56 
L 191 3500 
L 800 3500 
L 1894 763 
L 2988 3500 
L 3597 3500 
L 2059 -325 
z
" transform="scale(0.015625)"/>
      </defs>
      <use xlink:href="#DejaVuSans-73"/>
      <use xlink:href="#DejaVuSans-63" x="52.099609"/>
      <use xlink:href="#DejaVuSans-61" x="107.080078"/>
      <use xlink:href="#DejaVuSans-6c" x="168.359375"/>
      <use xlink:href="#DejaVuSans-65" x="196.142578"/>
      <use xlink:href="#DejaVuSans-64" x="257.666016"/>
      <use xlink:href="#DejaVuSans-20" x="321.142578"/>
      <use xlink:href="#DejaVuSans-64" x="352.929688"/>
      <use xlink:href="#DejaVuSans-65" x="416.40625"/>
      <use xlink:href="#DejaVuSans-6e" x="477.929688"/>
      <use xlink:href="#DejaVuSans-73" x="541.308594"/>
      <use xlink:href="#DejaVuSans-69" x="593.408203"/>
      <use xlink:href="#DejaVuSans-74" x="621.191406"/>
      <use xlink:href="#DejaVuSans-79" x="660.400391"/>
     </g>
    </g>
   </g>
   <g id="line2d_29">
    <path d="M 74.092909 249.984 
L 139.187455 249.883695 
L 152.206364 249.67152 
L 160.885636 248.883539 
L 163.055455 248.784324 
L 167.395091 248.823399 
L 171.734727 248.253705 
L 173.904545 248.34002 
L 178.244182 248.718254 
L 182.583818 248.938505 
L 184.753636 248.803612 
L 189.093273 248.206973 
L 193.432909 247.786869 
L 197.772545 247.151863 
L 199.942364 247.156997 
L 202.112182 247.315934 
L 204.282 247.348641 
L 210.791455 246.452155 
L 215.131091 246.097106 
L 217.300909 245.673903 
L 219.470727 245.091382 
L 221.640545 244.714069 
L 225.980182 244.551871 
L 228.15 244.100738 
L 230.319818 243.506112 
L 232.489636 243.250565 
L 234.659455 243.476714 
L 238.999091 244.072391 
L 241.168909 244.132003 
L 243.338727 243.834291 
L 245.508545 243.305381 
L 247.678364 242.983004 
L 249.848182 242.911992 
L 252.018 242.707658 
L 254.187818 242.365384 
L 256.357636 242.276826 
L 260.697273 242.653739 
L 262.867091 242.892022 
L 265.036909 242.865975 
L 267.206727 242.438828 
L 269.376545 241.631984 
L 271.546364 240.676416 
L 273.716182 240.180166 
L 278.055818 240.221764 
L 280.225636 239.458839 
L 282.395455 237.961539 
L 284.565273 236.641486 
L 286.735091 236.059237 
L 288.904909 235.940665 
L 295.414364 236.012268 
L 297.584182 235.836591 
L 299.754 235.380011 
L 301.923818 235.206013 
L 304.093636 235.671363 
L 306.263455 236.299544 
L 308.433273 236.592062 
L 312.772909 236.815553 
L 314.942727 236.3896 
L 317.112545 235.173522 
L 319.282364 233.813088 
L 321.452182 232.886597 
L 323.622 232.452436 
L 325.791818 232.435188 
L 327.961636 232.748735 
L 330.131455 233.214515 
L 332.301273 233.3536 
L 334.471091 232.171655 
L 336.640909 229.089586 
L 338.810727 225.252417 
L 340.980545 222.537489 
L 343.150364 222.230092 
L 345.320182 224.046545 
L 347.49 225.568765 
L 349.659818 225.645925 
L 351.829636 225.153233 
L 353.999455 223.937698 
L 356.169273 221.941232 
L 358.339091 220.104839 
L 360.508909 218.747336 
L 362.678727 216.97193 
L 377.867455 199.341934 
L 380.037273 196.532933 
L 382.207091 193.994742 
L 386.546727 188.068005 
L 388.716545 187.490869 
L 390.886364 188.299869 
L 393.056182 187.015103 
L 395.226 182.484762 
L 397.395818 176.252917 
L 399.565636 170.73112 
L 401.735455 167.510477 
L 403.905273 166.553424 
L 406.075091 166.584135 
L 408.244909 166.298991 
L 410.414727 165.23397 
L 412.584545 163.197605 
L 414.754364 159.513889 
L 416.924182 154.531229 
L 419.094 150.306693 
L 421.263818 147.004319 
L 425.603455 139.383804 
L 427.773273 136.620105 
L 429.943091 133.518737 
L 432.112909 128.797619 
L 434.282727 121.20942 
L 436.452545 111.78438 
L 438.622364 103.335887 
L 440.792182 96.227552 
L 442.962 90.685098 
L 445.131818 86.061425 
L 449.471455 75.676307 
L 451.641273 71.766941 
L 453.811091 70.784 
L 455.980909 74.553624 
L 458.150727 82.267153 
L 462.490364 100.422698 
L 464.660182 108.33907 
L 466.83 118.825917 
L 468.999818 130.627671 
L 471.169636 139.277369 
L 475.509273 150.870759 
L 477.679091 160.009399 
L 482.018727 183.709068 
L 484.188545 192.692034 
L 486.358364 199.423457 
L 492.867818 218.364339 
L 495.037636 225.180895 
L 497.207455 231.315841 
L 499.377273 236.433678 
L 501.547091 240.86088 
L 503.716909 244.621906 
L 505.886727 247.152415 
L 508.056545 248.460927 
L 510.226364 249.13867 
L 512.396182 249.550326 
L 514.566 249.791823 
L 518.905636 249.965568 
L 536.264182 249.984 
L 549.283091 249.984 
L 549.283091 249.984 
" clip-path="url(#p97e07f8222)" style="fill: none; stroke: #ff6b6b; stroke-width: 2.8; stroke-linecap: square"/>
   </g>
   <g id="line2d_30">
    <path d="M 74.092909 249.984 
L 108.81 249.904244 
L 117.489273 249.75093 
L 119.659091 249.523247 
L 121.828909 249.164672 
L 123.998727 248.325845 
L 126.168545 246.344133 
L 128.338364 243.564302 
L 130.508182 241.375739 
L 132.678 239.808442 
L 134.847818 237.866365 
L 137.017636 236.290304 
L 139.187455 236.096545 
L 141.357273 235.664017 
L 143.527091 233.642671 
L 145.696909 231.976179 
L 150.036545 233.407584 
L 154.376182 230.285653 
L 158.715818 232.110932 
L 163.055455 229.030274 
L 165.225273 229.864139 
L 167.395091 230.28503 
L 171.734727 225.075142 
L 173.904545 225.314316 
L 176.074364 224.381364 
L 178.244182 218.18143 
L 180.414 210.424775 
L 182.583818 206.197199 
L 184.753636 203.712391 
L 186.923455 200.223894 
L 189.093273 196.4302 
L 191.263091 193.616043 
L 195.602727 188.943994 
L 197.772545 185.796101 
L 199.942364 182.239646 
L 202.112182 178.055794 
L 204.282 173.301946 
L 208.621636 163.182654 
L 210.791455 158.672057 
L 212.961273 155.500853 
L 215.131091 152.842413 
L 217.300909 151.111314 
L 219.470727 150.2033 
L 221.640545 149.503908 
L 225.980182 147.201091 
L 228.15 146.036685 
L 230.319818 145.696364 
L 232.489636 145.856717 
L 234.659455 146.314069 
L 236.829273 146.980132 
L 238.999091 148.257415 
L 241.168909 148.987335 
L 243.338727 148.716562 
L 245.508545 147.315801 
L 247.678364 145.335591 
L 249.848182 142.911861 
L 252.018 141.195636 
L 254.187818 140.725529 
L 256.357636 141.175738 
L 258.527455 141.432986 
L 260.697273 141.342925 
L 262.867091 139.138687 
L 265.036909 133.272379 
L 267.206727 124.629196 
L 269.376545 116.855156 
L 273.716182 105.204909 
L 275.886 97.435484 
L 278.055818 90.087324 
L 280.225636 84.911146 
L 284.565273 80.063287 
L 288.904909 72.319059 
L 291.074727 71.784993 
L 293.244545 75.374515 
L 295.414364 82.613729 
L 297.584182 88.065663 
L 299.754 90.867183 
L 301.923818 94.134027 
L 304.093636 95.72163 
L 306.263455 94.134497 
L 308.433273 93.631464 
L 310.603091 95.896865 
L 312.772909 97.613228 
L 314.942727 97.312704 
L 317.112545 96.680262 
L 319.282364 97.055216 
L 321.452182 97.806866 
L 323.622 99.209502 
L 325.791818 101.423037 
L 327.961636 103.141582 
L 330.131455 103.281741 
L 332.301273 102.424964 
L 334.471091 102.038584 
L 336.640909 102.553622 
L 338.810727 104.462265 
L 340.980545 106.744121 
L 343.150364 107.754183 
L 345.320182 106.995544 
L 347.49 104.672096 
L 349.659818 103.36166 
L 351.829636 103.608427 
L 353.999455 103.126702 
L 356.169273 101.103906 
L 358.339091 97.448976 
L 360.508909 92.817229 
L 362.678727 87.038833 
L 364.848545 80.679944 
L 367.018364 76.42734 
L 369.188182 75.284604 
L 371.358 75.588676 
L 373.527818 74.68076 
L 375.697636 72.024593 
L 377.867455 70.784 
L 382.207091 74.538906 
L 386.546727 75.626467 
L 388.716545 76.492142 
L 390.886364 76.526725 
L 393.056182 76.141061 
L 395.226 77.36056 
L 397.395818 81.347651 
L 399.565636 86.692437 
L 401.735455 90.422434 
L 403.905273 91.673052 
L 406.075091 92.425201 
L 408.244909 94.422865 
L 410.414727 96.809105 
L 412.584545 97.726234 
L 414.754364 97.146765 
L 416.924182 97.21076 
L 419.094 99.450169 
L 421.263818 103.918981 
L 423.433636 110.508082 
L 425.603455 118.4298 
L 427.773273 127.458486 
L 429.943091 137.408327 
L 432.112909 145.929801 
L 434.282727 151.315562 
L 436.452545 155.542158 
L 438.622364 161.684388 
L 442.962 178.511029 
L 445.131818 185.520536 
L 447.301636 191.067611 
L 449.471455 196.296939 
L 453.811091 207.871783 
L 455.980909 213.045875 
L 458.150727 217.43888 
L 462.490364 225.310003 
L 464.660182 228.972863 
L 466.83 232.382012 
L 468.999818 235.486077 
L 471.169636 238.018424 
L 473.339455 240.008227 
L 475.509273 241.453523 
L 482.018727 245.277692 
L 484.188545 246.282032 
L 488.528182 247.877019 
L 490.698 248.459104 
L 495.037636 249.143393 
L 499.377273 249.731854 
L 503.716909 249.968151 
L 523.245273 249.984 
L 549.283091 249.984 
L 549.283091 249.984 
" clip-path="url(#p97e07f8222)" style="fill: none; stroke: #5ae0a0; stroke-width: 2.8; stroke-linecap: square"/>
   </g>
   <g id="line2d_31">
    <path d="M 407.16 249.984 
L 407.16 56.448 
" clip-path="url(#p97e07f8222)" style="fill: none; stroke-dasharray: 5.18,2.24; stroke-dashoffset: 0; stroke: #ffffff; stroke-opacity: 0.75; stroke-width: 1.4"/>
   </g>
   <g id="line2d_32">
    <path d="M 434.124407 249.984 
L 434.124407 56.448 
" clip-path="url(#p97e07f8222)" style="fill: none; stroke-dasharray: 5.18,2.24; stroke-dashoffset: 0; stroke: #ffb74d; stroke-opacity: 0.9; stroke-width: 1.4"/>
   </g>
   <g id="patch_3">
    <path d="M 73.008 249.984 
L 73.008 56.448 
" style="fill: none; opacity: 0.55; stroke: #ffffff; stroke-width: 0.8; stroke-linejoin: miter; stroke-linecap: square"/>
   </g>
   <g id="patch_4">
    <path d="M 550.368 249.984 
L 550.368 56.448 
" style="fill: none; opacity: 0.55; stroke: #ffffff; stroke-width: 0.8; stroke-linejoin: miter; stroke-linecap: square"/>
   </g>
   <g id="patch_5">
    <path d="M 73.008 249.984 
L 550.368 249.984 
" style="fill: none; opacity: 0.55; stroke: #ffffff; stroke-width: 0.8; stroke-linejoin: miter; stroke-linecap: square"/>
   </g>
   <g id="patch_6">
    <path d="M 73.008 56.448 
L 550.368 56.448 
" style="fill: none; opacity: 0.55; stroke: #ffffff; stroke-width: 0.8; stroke-linejoin: miter; stroke-linecap: square"/>
   </g>
   <g id="text_17">
    <!-- Cross-region logit distribution -->
    <g style="fill: #ffffff" transform="translate(141.577844 42.448) scale(0.23 -0.23)">
     <defs>
      <path id="DejaVuSans-43" d="M 4122 4306 
L 4122 3641 
Q 3803 3938 3442 4084 
Q 3081 4231 2675 4231 
Q 1875 4231 1450 3742 
Q 1025 3253 1025 2328 
Q 1025 1406 1450 917 
Q 1875 428 2675 428 
Q 3081 428 3442 575 
Q 3803 722 4122 1019 
L 4122 359 
Q 3791 134 3420 21 
Q 3050 -91 2638 -91 
Q 1578 -91 968 557 
Q 359 1206 359 2328 
Q 359 3453 968 4101 
Q 1578 4750 2638 4750 
Q 3056 4750 3426 4639 
Q 3797 4528 4122 4306 
z
" transform="scale(0.015625)"/>
      <path id="DejaVuSans-72" d="M 2631 2963 
Q 2534 3019 2420 3045 
Q 2306 3072 2169 3072 
Q 1681 3072 1420 2755 
Q 1159 2438 1159 1844 
L 1159 0 
L 581 0 
L 581 3500 
L 1159 3500 
L 1159 2956 
Q 1341 3275 1631 3429 
Q 1922 3584 2338 3584 
Q 2397 3584 2469 3576 
Q 2541 3569 2628 3553 
L 2631 2963 
z
" transform="scale(0.015625)"/>
      <path id="DejaVuSans-2d" d="M 313 2009 
L 1997 2009 
L 1997 1497 
L 313 1497 
L 313 2009 
z
" transform="scale(0.015625)"/>
      <path id="DejaVuSans-62" d="M 3116 1747 
Q 3116 2381 2855 2742 
Q 2594 3103 2138 3103 
Q 1681 3103 1420 2742 
Q 1159 2381 1159 1747 
Q 1159 1113 1420 752 
Q 1681 391 2138 391 
Q 2594 391 2855 752 
Q 3116 1113 3116 1747 
z
M 1159 2969 
Q 1341 3281 1617 3432 
Q 1894 3584 2278 3584 
Q 2916 3584 3314 3078 
Q 3713 2572 3713 1747 
Q 3713 922 3314 415 
Q 2916 -91 2278 -91 
Q 1894 -91 1617 61 
Q 1341 213 1159 525 
L 1159 0 
L 581 0 
L 581 4863 
L 1159 4863 
L 1159 2969 
z
" transform="scale(0.015625)"/>
      <path id="DejaVuSans-75" d="M 544 1381 
L 544 3500 
L 1119 3500 
L 1119 1403 
Q 1119 906 1312 657 
Q 1506 409 1894 409 
Q 2359 409 2629 706 
Q 2900 1003 2900 1516 
L 2900 3500 
L 3475 3500 
L 3475 0 
L 2900 0 
L 2900 538 
Q 2691 219 2414 64 
Q 2138 -91 1772 -91 
Q 1169 -91 856 284 
Q 544 659 544 1381 
z
M 1991 3584 
L 1991 3584 
z
" transform="scale(0.015625)"/>
     </defs>
     <use xlink:href="#DejaVuSans-43"/>
     <use xlink:href="#DejaVuSans-72" x="69.824219"/>
     <use xlink:href="#DejaVuSans-6f" x="108.6875"/>
     <use xlink:href="#DejaVuSans-73" x="169.869141"/>
     <use xlink:href="#DejaVuSans-73" x="221.96875"/>
     <use xlink:href="#DejaVuSans-2d" x="274.068359"/>
     <use xlink:href="#DejaVuSans-72" x="310.152344"/>
     <use xlink:href="#DejaVuSans-65" x="349.015625"/>
     <use xlink:href="#DejaVuSans-67" x="410.539062"/>
     <use xlink:href="#DejaVuSans-69" x="474.015625"/>
     <use xlink:href="#DejaVuSans-6f" x="501.798828"/>
     <use xlink:href="#DejaVuSans-6e" x="562.980469"/>
     <use xlink:href="#DejaVuSans-20" x="626.359375"/>
     <use xlink:href="#DejaVuSans-6c" x="658.146484"/>
     <use xlink:href="#DejaVuSans-6f" x="685.929688"/>
     <use xlink:href="#DejaVuSans-67" x="747.111328"/>
     <use xlink:href="#DejaVuSans-69" x="810.587891"/>
     <use xlink:href="#DejaVuSans-74" x="838.371094"/>
     <use xlink:href="#DejaVuSans-20" x="877.580078"/>
     <use xlink:href="#DejaVuSans-64" x="909.367188"/>
     <use xlink:href="#DejaVuSans-69" x="972.84375"/>
     <use xlink:href="#DejaVuSans-73" x="1000.626953"/>
     <use xlink:href="#DejaVuSans-74" x="1052.726562"/>
     <use xlink:href="#DejaVuSans-72" x="1091.935547"/>
     <use xlink:href="#DejaVuSans-69" x="1133.048828"/>
     <use xlink:href="#DejaVuSans-62" x="1160.832031"/>
     <use xlink:href="#DejaVuSans-75" x="1224.308594"/>
     <use xlink:href="#DejaVuSans-74" x="1287.6875"/>
     <use xlink:href="#DejaVuSans-69" x="1326.896484"/>
     <use xlink:href="#DejaVuSans-6f" x="1354.679688"/>
     <use xlink:href="#DejaVuSans-6e" x="1415.861328"/>
    </g>
   </g>
   <g id="legend_1">
    <g id="line2d_33">
     <path d="M 174.902062 300.838856 
L 189.902062 300.838856 
L 204.902062 300.838856 
" style="fill: none; stroke: #ff6b6b; stroke-width: 2.8; stroke-linecap: square"/>
    </g>
    <g id="text_18">
     <!-- outlier -->
     <g style="fill: #ffffff" transform="translate(216.902062 306.088856) scale(0.15 -0.15)">
      <use xlink:href="#DejaVuSans-6f"/>
      <use xlink:href="#DejaVuSans-75" x="61.181641"/>
      <use xlink:href="#DejaVuSans-74" x="124.560547"/>
      <use xlink:href="#DejaVuSans-6c" x="163.769531"/>
      <use xlink:href="#DejaVuSans-69" x="191.552734"/>
      <use xlink:href="#DejaVuSans-65" x="219.335938"/>
      <use xlink:href="#DejaVuSans-72" x="280.859375"/>
     </g>
    </g>
    <g id="line2d_34">
     <path d="M 174.902062 322.856044 
L 189.902062 322.856044 
L 204.902062 322.856044 
" style="fill: none; stroke: #5ae0a0; stroke-width: 2.8; stroke-linecap: square"/>
    </g>
    <g id="text_19">
     <!-- inlier -->
     <g style="fill: #ffffff" transform="translate(216.902062 328.106044) scale(0.15 -0.15)">
      <use xlink:href="#DejaVuSans-69"/>
      <use xlink:href="#DejaVuSans-6e" x="27.783203"/>
      <use xlink:href="#DejaVuSans-6c" x="91.162109"/>
      <use xlink:href="#DejaVuSans-69" x="118.945312"/>
      <use xlink:href="#DejaVuSans-65" x="146.728516"/>
      <use xlink:href="#DejaVuSans-72" x="208.251953"/>
     </g>
    </g>
    <g id="line2d_35">
     <path d="M 295.197375 300.838856 
L 310.197375 300.838856 
L 325.197375 300.838856 
" style="fill: none; stroke-dasharray: 5.18,2.24; stroke-dashoffset: 0; stroke: #ffffff; stroke-opacity: 0.75; stroke-width: 1.4"/>
    </g>
    <g id="text_20">
     <!-- logit = 0 -->
     <g style="fill: #ffffff" transform="translate(337.197375 306.088856) scale(0.15 -0.15)">
      <defs>
       <path id="DejaVuSans-3d" d="M 678 2906 
L 4684 2906 
L 4684 2381 
L 678 2381 
L 678 2906 
z
M 678 1631 
L 4684 1631 
L 4684 1100 
L 678 1100 
L 678 1631 
z
" transform="scale(0.015625)"/>
      </defs>
      <use xlink:href="#DejaVuSans-6c"/>
      <use xlink:href="#DejaVuSans-6f" x="27.783203"/>
      <use xlink:href="#DejaVuSans-67" x="88.964844"/>
      <use xlink:href="#DejaVuSans-69" x="152.441406"/>
      <use xlink:href="#DejaVuSans-74" x="180.224609"/>
      <use xlink:href="#DejaVuSans-20" x="219.433594"/>
      <use xlink:href="#DejaVuSans-3d" x="251.220703"/>
      <use xlink:href="#DejaVuSans-20" x="335.009766"/>
      <use xlink:href="#DejaVuSans-30" x="366.796875"/>
     </g>
    </g>
    <g id="line2d_36">
     <path d="M 295.197375 322.856044 
L 310.197375 322.856044 
L 325.197375 322.856044 
" style="fill: none; stroke-dasharray: 5.18,2.24; stroke-dashoffset: 0; stroke: #ffb74d; stroke-opacity: 0.9; stroke-width: 1.4"/>
    </g>
    <g id="text_21">
     <!-- p_outlier = 0.7 -->
     <g style="fill: #ffffff" transform="translate(337.197375 328.106044) scale(0.15 -0.15)">
      <defs>
       <path id="DejaVuSans-70" d="M 1159 525 
L 1159 -1331 
L 581 -1331 
L 581 3500 
L 1159 3500 
L 1159 2969 
Q 1341 3281 1617 3432 
Q 1894 3584 2278 3584 
Q 2916 3584 3314 3078 
Q 3713 2572 3713 1747 
Q 3713 922 3314 415 
Q 2916 -91 2278 -91 
Q 1894 -91 1617 61 
Q 1341 213 1159 525 
z
M 3116 1747 
Q 3116 2381 2855 2742 
Q 2594 3103 2138 3103 
Q 1681 3103 1420 2742 
Q 1159 2381 1159 1747 
Q 1159 1113 1420 752 
Q 1681 391 2138 391 
Q 2594 391 2855 752 
Q 3116 1113 3116 1747 
z
" transform="scale(0.015625)"/>
       <path id="DejaVuSans-5f" d="M 3263 -1063 
L 3263 -1509 
L -63 -1509 
L -63 -1063 
L 3263 -1063 
z
" transform="scale(0.015625)"/>
       <path id="DejaVuSans-37" d="M 525 4666 
L 3525 4666 
L 3525 4397 
L 1831 0 
L 1172 0 
L 2766 4134 
L 525 4134 
L 525 4666 
z
" transform="scale(0.015625)"/>
      </defs>
      <use xlink:href="#DejaVuSans-70"/>
      <use xlink:href="#DejaVuSans-5f" x="63.476562"/>
      <use xlink:href="#DejaVuSans-6f" x="113.476562"/>
      <use xlink:href="#DejaVuSans-75" x="174.658203"/>
      <use xlink:href="#DejaVuSans-74" x="238.037109"/>
      <use xlink:href="#DejaVuSans-6c" x="277.246094"/>
      <use xlink:href="#DejaVuSans-69" x="305.029297"/>
      <use xlink:href="#DejaVuSans-65" x="332.8125"/>
      <use xlink:href="#DejaVuSans-72" x="394.335938"/>
      <use xlink:href="#DejaVuSans-20" x="435.449219"/>
      <use xlink:href="#DejaVuSans-3d" x="467.236328"/>
      <use xlink:href="#DejaVuSans-20" x="551.025391"/>
      <use xlink:href="#DejaVuSans-30" x="582.8125"/>
      <use xlink:href="#DejaVuSans-2e" x="646.435547"/>
      <use xlink:href="#DejaVuSans-37" x="678.222656"/>
     </g>
    </g>
   </g>
  </g>
 </g>
 <defs>
  <clipPath id="p97e07f8222">
   <rect x="73.008" y="56.448" width="477.36" height="193.536"/>
  </clipPath>
 </defs>
</svg>
